<svg width="1241" height="1460" viewBox="0 0 1241 1460" fill="none" xmlns="http://www.w3.org/2000/svg">
<path d="M400.121 1081V970H849.121V1081H400.121Z" fill="#FF9494"/>
<path d="M746.752 124.979L803.323 272.694C813.354 298.886 794.016 327 765.969 327H436.026C408.324 327 389.009 299.522 398.388 273.456L451.817 124.979C468.779 83.3194 523.785 0 608.112 0C692.438 0 735.675 83.3194 746.752 124.979Z" fill="#5282F0"/>
<path d="M474.621 460.5L528.121 265.5H672.621L766.121 512L745.121 573L466.121 580.5L474.621 460.5Z" fill="#FF9494"/>
<path fill-rule="evenodd" clip-rule="evenodd" d="M540.621 372C478.288 376 338.621 403.3 278.621 480.5C203.621 577 106.121 843 217.621 1002.5C277.033 1002.5 437.945 970.794 606.871 844.063C775.802 970.776 938.086 996.509 996.121 1002.5C1107.62 843 1010.12 577 935.121 480.5C875.121 403.3 735.454 376 673.121 372L855.121 669.5C867.478 762.361 913.804 827.707 939.635 853.315C895.554 816.922 738.566 790.453 662.621 781.5L607.621 632.562V628.5L606.871 630.531L606.121 628.5V632.562L551.121 781.5C475.177 790.453 318.188 816.922 274.107 853.315C299.938 827.707 346.265 762.361 358.621 669.5L540.621 372Z" fill="#FF9494"/>
<path fill-rule="evenodd" clip-rule="evenodd" d="M717.483 164.692L712.621 101C699.954 82.3334 659.821 45 600.621 45C541.421 45 506.954 87 497.121 108L492.794 164.509C475.227 164.88 461.121 177.046 461.121 192C461.121 205.761 473.066 217.161 488.66 219.182C495.083 248.741 526.374 307.5 600.621 307.5C674.768 307.5 709.385 248.901 717.539 219.302C733.641 217.665 746.121 206.066 746.121 192C746.121 177.918 733.612 166.308 717.483 164.692Z" fill="#FF9494"/>
<path d="M636.899 238.088C643.121 249.619 621.711 264.994 604.329 264.994C586.947 264.994 563.341 250.474 571.758 238.088C574.951 233.39 586.947 238.088 604.329 238.088C621.711 238.088 633.606 233.817 636.899 238.088Z" fill="white"/>
<path d="M535.121 291C545.503 298.333 573.09 313 600.38 313C627.669 313 656.245 298.333 667.121 291" stroke="#D76F6F" stroke-opacity="0.3" stroke-width="4" stroke-linecap="round" stroke-linejoin="round"/>
<path d="M491.621 123L493.121 164C495.639 152.069 501.379 132.491 511.221 110.77C523.523 83.6199 577.44 70.1971 609.427 71.1365C641.413 72.076 670.7 88.2796 684.087 100.841C696.743 112.718 711.044 144.313 717.121 164.5C717.669 145.841 712.803 105.186 710.121 87.5C706.769 65.392 665.4 21.7585 602.428 19.909C539.455 18.0594 501.895 67 496.121 91.5C490.347 116 491.621 123 491.621 123Z" fill="#93B1F6"/>
<path fill-rule="evenodd" clip-rule="evenodd" d="M400.121 1048L851.122 1048.5L1058.62 1127V1200.5L544.83 1240.38L677.122 1339.5C676.455 1349.83 621.122 1382.8 405.122 1432C189.122 1481.2 103.789 1452.5 88.1224 1432C45.7891 1404.83 -28.7776 1327.3 11.6224 1234.5C39.6868 1170.04 141.277 1128.06 231.315 1104.58L400.121 1048Z" fill="#A3E4E0"/>
<path d="M901.622 1097.5L781.122 1183L791.622 1196.5C838.289 1186.17 935.522 1161.6 951.122 1146C970.622 1126.5 965.122 1105.5 951.122 1087C939.922 1072.2 913.455 1087.83 901.622 1097.5Z" fill="#FF9494"/>
<path d="M530.622 1289.5L561.122 1215.5C558.122 1211 547.822 1196.1 530.622 1172.5C509.122 1143 468.122 1158.5 427.122 1172.5C386.122 1186.5 366.622 1166.5 348.622 1133.5C330.622 1100.5 294.122 1123.5 293.122 1116.5C292.122 1109.5 270.122 1087 248.622 1099.5C231.422 1109.5 241.455 1133.33 248.622 1144C266.122 1164.83 310.622 1211.9 348.622 1233.5C386.622 1255.1 485.789 1279.83 530.622 1289.5Z" fill="#FF9494"/>
<path d="M814.122 1172.5C730.122 1199.3 602.789 1197.33 549.622 1193C541.622 1239 507.955 1278.83 492.122 1293C511.289 1314.5 600.522 1370.8 804.122 1424C1007.72 1477.2 1158.96 1401.83 1209.12 1357.5C1237.46 1319.67 1272.72 1225.7 1187.12 1152.5C1080.12 1061 919.122 1139 814.122 1172.5Z" fill="#A3E4E0"/>
<circle cx="628.121" cy="1022" r="10" fill="#D76F6F"/>
<path fill-rule="evenodd" clip-rule="evenodd" d="M717.121 376C729.788 394.333 757.121 435.5 765.121 453.5C769.521 463.401 777.754 483.437 785.825 503.373L875.621 668L849.121 979.5H400.121L349 660L418.311 528.23C428.561 502.649 442.409 468.476 448.621 454.5C456.621 436.5 483.954 395.333 496.621 377L494.949 380.488C496.012 379.031 497.076 377.699 498.121 376.5L483.881 403.573L482.875 405.672C476.287 428.945 478.299 460.603 508.121 492.5C565.621 554 657.121 533 716.621 492.5C738.25 477.778 744.318 457.681 742.64 437.773L734.621 412.5L722.734 387.707L716.621 376.5C717.275 377.329 717.937 378.195 718.604 379.094L717.121 376Z" fill="#A3E4E0"/>
<path d="M278.621 480.5C337.423 404.841 245.111 614.348 300.077 618.977C302.143 619.151 304.026 617.691 304.64 615.71L310.057 598.218C311.87 592.364 320.852 594.278 320.083 600.358C307.383 700.722 290.135 833.335 270.64 856.429C308.752 818.912 468.933 791.405 548.138 781.856C550.005 781.631 551.531 780.39 552.183 778.626L597.931 654.742C599.864 649.506 607.621 650.893 607.621 656.474V841.004C607.621 842.576 606.866 844.069 605.607 845.01C439.487 969.2 281.346 1001.6 220.153 1002.48C218.521 1002.51 217.055 1001.7 216.134 1000.35C106.995 840.618 203.957 576.568 278.621 480.5Z" fill="#FF9494"/>
<path d="M996.121 605.5C937.063 529.513 1004.76 629.273 947.459 628.61C945.75 628.59 944.01 629.336 943.002 630.717L903.804 684.38C903.044 685.42 902.719 686.737 902.888 688.013C915.257 781.187 919.993 831.655 941.266 854.713C900.104 818.074 743.597 791.259 665.603 781.856C663.736 781.631 662.21 780.39 661.559 778.626L615.811 654.742C613.878 649.507 606.121 650.893 606.121 656.474V841.004C606.121 842.576 606.863 844.06 608.124 845C763.115 960.556 960.303 996.65 991.796 1001.82C994.327 1002.24 996.555 1000.75 997.147 998.251C1005.89 961.403 1065.87 695.241 996.121 605.5Z" fill="#FF9494"/>
<circle cx="546" cy="169" r="7" fill="#5282F0"/>
<circle cx="660" cy="169" r="7" fill="#5282F0"/>
<path d="M605.354 192.082C597.757 191.266 589.563 196.658 591.214 202.374C592.866 208.089 603.055 210.285 609 204.977" stroke="#5282F0" stroke-width="3" stroke-linecap="round"/>
</svg>
