<svg width="360" height="51" viewBox="0 0 360 51" fill="none" xmlns="http://www.w3.org/2000/svg">
<rect width="360" height="51" fill="white"/>
<path d="M41.9652 18.2822L42.6892 19.0423L43.4133 18.2822C45.0351 16.5798 47.6426 16.5926 49.2782 18.3095C50.933 20.0465 50.933 22.8966 49.2782 24.6337L45.6217 28.472L42.6892 31.5502L39.7309 28.4448L36.0744 24.6065C34.4196 22.8694 34.4196 20.0193 36.0744 18.2822C37.703 16.5726 40.3365 16.5726 41.9652 18.2822Z" stroke="#47CAC2" stroke-opacity="0.5" stroke-width="2"/>
<path fill-rule="evenodd" clip-rule="evenodd" d="M310 31H327V29H310V31ZM310 26H327V24H310V26ZM310 19V21H327V19H310Z" fill="#A3E4E1"/>
<path fill-rule="evenodd" clip-rule="evenodd" d="M137.502 26.9997H136.708L136.432 26.7257C137.407 25.5887 138 24.1147 138 22.4997C138 18.9097 135.09 15.9997 131.5 15.9997C127.91 15.9997 125 18.9097 125 22.4997C125 26.0897 127.91 28.9997 131.5 28.9997C133.115 28.9997 134.588 28.4077 135.725 27.4337L136.001 27.7077V28.4997L140.999 33.4907L142.49 31.9997L137.502 26.9997ZM131.5 26.9997C129.014 26.9997 127 24.9857 127 22.4997C127 20.0147 129.014 17.9997 131.5 17.9997C133.985 17.9997 136 20.0147 136 22.4997C136 24.9857 133.985 26.9997 131.5 26.9997Z" fill="#FF5A6E"/>
<path d="M225.551 27C228.368 27 230.673 24.3 230.673 21C230.673 17.7 228.368 15 225.551 15C222.734 15 220.429 17.7 220.429 21C220.429 24.3 222.734 27 225.551 27ZM225.551 16.5C227.549 16.5 229.136 18.5 229.136 21C229.136 23.5 227.549 25.5 225.551 25.5C223.554 25.5 221.966 23.5 221.966 21C221.966 18.5 223.554 16.5 225.551 16.5Z" fill="#47CAC2" fill-opacity="0.5"/>
<path d="M230.212 26.5C229.802 26.45 229.392 26.75 229.392 27.15C229.341 27.55 229.649 27.95 230.058 27.95C230.212 27.95 234.053 28.4 234.463 32.45H216.588C216.998 28.4 220.788 27.95 220.993 27.95C221.402 27.9 221.71 27.55 221.658 27.15C221.607 26.75 221.249 26.45 220.839 26.5C220.788 26.5 215 27.15 215 33.25C215 33.65 215.359 34 215.768 34H235.231C235.641 34 236 33.65 236 33.25C236.051 27.15 230.314 26.5 230.212 26.5Z" fill="#47CAC2" fill-opacity="0.5"/>
</svg>
