<svg width="360" height="71" viewBox="0 0 360 71" fill="none" xmlns="http://www.w3.org/2000/svg">
<g clip-path="url(#clip0)">
<rect width="360" height="71" fill="white"/>
<path d="M2.31066 18.9C2.43733 18.9 2.534 18.94 2.60066 19.02C2.674 19.0933 2.71066 19.1933 2.71066 19.32V25.65C2.71066 25.77 2.67733 25.8667 2.61066 25.94C2.544 26.0133 2.45066 26.05 2.33066 26.05C2.21066 26.05 2.12066 26.0133 2.06066 25.94C2.00066 25.8667 1.97066 25.77 1.97066 25.65V20.54L-0.199336 24.7C-0.292669 24.8933 -0.429336 24.99 -0.609336 24.99C-0.782669 24.99 -0.919336 24.8933 -1.01934 24.7L-3.19934 20.59V25.65C-3.19934 25.77 -3.23267 25.8667 -3.29934 25.94C-3.35934 26.0133 -3.44934 26.05 -3.56934 26.05C-3.68934 26.05 -3.78267 26.0133 -3.84934 25.94C-3.916 25.8667 -3.94934 25.77 -3.94934 25.65V19.32C-3.94934 19.1933 -3.91267 19.0933 -3.83934 19.02C-3.766 18.94 -3.666 18.9 -3.53934 18.9C-3.37267 18.9 -3.23934 18.9967 -3.13934 19.19L-0.599336 24.06L1.91066 19.19C1.964 19.0833 2.02066 19.01 2.08066 18.97C2.14733 18.9233 2.224 18.9 2.31066 18.9ZM6.35887 26.07C5.89887 26.07 5.4922 25.9667 5.13887 25.76C4.7922 25.5533 4.5222 25.26 4.32887 24.88C4.1422 24.4933 4.04887 24.0467 4.04887 23.54C4.04887 23.0333 4.1422 22.59 4.32887 22.21C4.5222 21.8233 4.7922 21.5267 5.13887 21.32C5.4922 21.1133 5.89887 21.01 6.35887 21.01C6.81887 21.01 7.22553 21.1133 7.57887 21.32C7.9322 21.5267 8.2022 21.8233 8.38887 22.21C8.5822 22.59 8.67887 23.0333 8.67887 23.54C8.67887 24.0467 8.5822 24.4933 8.38887 24.88C8.2022 25.26 7.9322 25.5533 7.57887 25.76C7.22553 25.9667 6.81887 26.07 6.35887 26.07ZM6.35887 25.4C6.83887 25.4 7.20553 25.2433 7.45887 24.93C7.71887 24.61 7.84887 24.1467 7.84887 23.54C7.84887 22.9467 7.71887 22.49 7.45887 22.17C7.19887 21.8433 6.8322 21.68 6.35887 21.68C5.88553 21.68 5.51887 21.8433 5.25887 22.17C4.99887 22.49 4.86887 22.9467 4.86887 23.54C4.86887 24.14 4.99553 24.6 5.24887 24.92C5.50887 25.24 5.87887 25.4 6.35887 25.4ZM12.3357 21.01C13.5024 21.01 14.0857 21.6533 14.0857 22.94V25.65C14.0857 25.7767 14.0491 25.8767 13.9757 25.95C13.9091 26.0167 13.8124 26.05 13.6857 26.05C13.5591 26.05 13.4591 26.0167 13.3857 25.95C13.3124 25.8767 13.2757 25.7767 13.2757 25.65V22.99C13.2757 22.5367 13.1857 22.2067 13.0057 22C12.8324 21.7933 12.5524 21.69 12.1657 21.69C11.7191 21.69 11.3624 21.8267 11.0957 22.1C10.8291 22.3733 10.6957 22.7433 10.6957 23.21V25.65C10.6957 25.7767 10.6591 25.8767 10.5857 25.95C10.5191 26.0167 10.4224 26.05 10.2957 26.05C10.1691 26.05 10.0691 26.0167 9.99574 25.95C9.92241 25.8767 9.88574 25.7767 9.88574 25.65V21.43C9.88574 21.31 9.92241 21.2133 9.99574 21.14C10.0691 21.0667 10.1691 21.03 10.2957 21.03C10.4157 21.03 10.5091 21.0667 10.5757 21.14C10.6491 21.2133 10.6857 21.3067 10.6857 21.42V21.93C10.8457 21.63 11.0691 21.4033 11.3557 21.25C11.6424 21.09 11.9691 21.01 12.3357 21.01Z" fill="#C4C4C4"/>
<path d="M-2.20715 54.08C-2.70715 54.08 -3.18715 54.0067 -3.64715 53.86C-4.10048 53.7067 -4.46382 53.5033 -4.73715 53.25C-4.83715 53.1567 -4.88715 53.04 -4.88715 52.9C-4.88715 52.8067 -4.86048 52.7267 -4.80715 52.66C-4.75382 52.5867 -4.69048 52.55 -4.61715 52.55C-4.53048 52.55 -4.43715 52.5867 -4.33715 52.66C-3.71715 53.14 -3.01048 53.38 -2.21715 53.38C-1.64381 53.38 -1.20381 53.27 -0.897148 53.05C-0.590482 52.83 -0.437148 52.5167 -0.437148 52.11C-0.437148 51.8767 -0.510482 51.69 -0.657148 51.55C-0.803815 51.4033 -0.997148 51.2867 -1.23715 51.2C-1.47715 51.1133 -1.80048 51.0233 -2.20715 50.93C-2.75382 50.8033 -3.20382 50.67 -3.55715 50.53C-3.90382 50.39 -4.18715 50.19 -4.40715 49.93C-4.62048 49.67 -4.72715 49.33 -4.72715 48.91C-4.72715 48.51 -4.62048 48.1567 -4.40715 47.85C-4.18715 47.5367 -3.88382 47.2967 -3.49715 47.13C-3.10381 46.9567 -2.65715 46.87 -2.15715 46.87C-1.69048 46.87 -1.25715 46.9433 -0.857148 47.09C-0.450482 47.23 -0.110482 47.4333 0.162852 47.7C0.269518 47.8067 0.322852 47.9233 0.322852 48.05C0.322852 48.1433 0.296185 48.2267 0.242852 48.3C0.189519 48.3667 0.126185 48.4 0.052852 48.4C-0.0204815 48.4 -0.117148 48.3633 -0.237148 48.29C-0.563815 48.0233 -0.867148 47.8367 -1.14715 47.73C-1.42715 47.6233 -1.76381 47.57 -2.15715 47.57C-2.71048 47.57 -3.14048 47.6867 -3.44715 47.92C-3.75382 48.1467 -3.90715 48.4667 -3.90715 48.88C-3.90715 49.2333 -3.77382 49.5 -3.50715 49.68C-3.23382 49.8533 -2.81715 50.0067 -2.25715 50.14C-1.65048 50.2867 -1.17381 50.4233 -0.827148 50.55C-0.480481 50.67 -0.193815 50.8533 0.0328517 51.1C0.266185 51.3467 0.382852 51.6767 0.382852 52.09C0.382852 52.4833 0.272852 52.83 0.052852 53.13C-0.160481 53.43 -0.463815 53.6633 -0.857148 53.83C-1.25048 53.9967 -1.70048 54.08 -2.20715 54.08ZM5.36473 52.87C5.43806 52.87 5.50139 52.9 5.55473 52.96C5.60806 53.02 5.63473 53.0967 5.63473 53.19C5.63473 53.3567 5.51806 53.51 5.28473 53.65C5.04473 53.79 4.79139 53.8967 4.52473 53.97C4.25806 54.0367 3.99806 54.07 3.74473 54.07C2.99139 54.07 2.39473 53.8467 1.95473 53.4C1.52139 52.9533 1.30473 52.3367 1.30473 51.55C1.30473 51.05 1.40139 50.61 1.59473 50.23C1.78806 49.8433 2.05806 49.5433 2.40473 49.33C2.75806 49.1167 3.15806 49.01 3.60473 49.01C4.23806 49.01 4.74139 49.2167 5.11473 49.63C5.48806 50.0433 5.67473 50.6033 5.67473 51.31C5.67473 51.4433 5.64806 51.54 5.59473 51.6C5.54139 51.66 5.45473 51.69 5.33473 51.69H2.11473C2.17473 52.8367 2.71806 53.41 3.74473 53.41C4.00473 53.41 4.22806 53.3767 4.41473 53.31C4.60139 53.2367 4.80139 53.14 5.01473 53.02C5.18806 52.92 5.30473 52.87 5.36473 52.87ZM3.61473 49.64C3.18806 49.64 2.84473 49.7733 2.58473 50.04C2.33139 50.3067 2.18139 50.6833 2.13473 51.17H4.96473C4.95139 50.6767 4.82806 50.3 4.59473 50.04C4.36139 49.7733 4.03473 49.64 3.61473 49.64ZM9.31816 49.01C9.74483 49.01 10.1215 49.1167 10.4482 49.33C10.7748 49.5433 11.0282 49.8433 11.2082 50.23C11.3882 50.61 11.4782 51.0533 11.4782 51.56C11.4782 52.0667 11.3882 52.51 11.2082 52.89C11.0282 53.2633 10.7748 53.5533 10.4482 53.76C10.1282 53.9667 9.7515 54.07 9.31816 54.07C8.93816 54.07 8.60483 53.9867 8.31816 53.82C8.03816 53.6533 7.82483 53.4167 7.67816 53.11V55.46C7.67816 55.58 7.6415 55.6733 7.56816 55.74C7.5015 55.8133 7.40483 55.85 7.27816 55.85C7.1515 55.85 7.0515 55.8133 6.97816 55.74C6.90483 55.6667 6.86816 55.5733 6.86816 55.46V49.43C6.86816 49.31 6.90483 49.2133 6.97816 49.14C7.0515 49.0667 7.1515 49.03 7.27816 49.03C7.40483 49.03 7.5015 49.0667 7.56816 49.14C7.6415 49.2133 7.67816 49.31 7.67816 49.43V49.97C7.82483 49.6633 8.03816 49.4267 8.31816 49.26C8.60483 49.0933 8.93816 49.01 9.31816 49.01ZM9.15816 53.4C9.6315 53.4 9.99816 53.24 10.2582 52.92C10.5182 52.6 10.6482 52.1467 10.6482 51.56C10.6482 50.9733 10.5182 50.5167 10.2582 50.19C9.99816 49.8567 9.6315 49.69 9.15816 49.69C8.68483 49.69 8.31816 49.85 8.05816 50.17C7.80483 50.49 7.67816 50.9467 7.67816 51.54C7.67816 52.1333 7.80483 52.5933 8.05816 52.92C8.31816 53.24 8.68483 53.4 9.15816 53.4ZM14.9287 53.41C15.162 53.43 15.2787 53.5367 15.2787 53.73C15.2787 53.8433 15.2354 53.93 15.1487 53.99C15.0687 54.0433 14.9454 54.0633 14.7787 54.05L14.5087 54.03C13.9754 53.99 13.582 53.83 13.3287 53.55C13.0754 53.27 12.9487 52.8467 12.9487 52.28V49.77H12.2787C12.1654 49.77 12.0754 49.7433 12.0087 49.69C11.9487 49.63 11.9187 49.5533 11.9187 49.46C11.9187 49.36 11.9487 49.28 12.0087 49.22C12.0754 49.16 12.1654 49.13 12.2787 49.13H12.9487V48C12.9487 47.8733 12.9854 47.7767 13.0587 47.71C13.132 47.6367 13.232 47.6 13.3587 47.6C13.4787 47.6 13.5754 47.6367 13.6487 47.71C13.722 47.7767 13.7587 47.8733 13.7587 48V49.13H14.8687C14.9754 49.13 15.0587 49.16 15.1187 49.22C15.1854 49.28 15.2187 49.36 15.2187 49.46C15.2187 49.5533 15.1854 49.63 15.1187 49.69C15.0587 49.7433 14.9754 49.77 14.8687 49.77H13.7587V52.32C13.7587 52.6867 13.832 52.9533 13.9787 53.12C14.132 53.28 14.3587 53.37 14.6587 53.39L14.9287 53.41Z" fill="#C4C4C4"/>
<path d="M3.61947 39.544C4.17947 39.544 4.45947 39.782 4.45947 40.258C4.45947 40.7527 4.17947 41 3.61947 41H-1.11253C-1.68186 41 -1.96653 40.7527 -1.96653 40.258C-1.96653 39.782 -1.68186 39.544 -1.11253 39.544H0.343469V33.16L-1.00053 33.986C-1.1312 34.0607 -1.24786 34.098 -1.35053 34.098C-1.54653 34.098 -1.71453 34.014 -1.85453 33.846C-1.9852 33.678 -2.05053 33.4913 -2.05053 33.286C-2.05053 33.0153 -1.9292 32.8053 -1.68653 32.656L0.483469 31.312C0.763469 31.144 1.02947 31.06 1.28147 31.06C1.5428 31.06 1.7528 31.1393 1.91147 31.298C2.07014 31.4567 2.14947 31.676 2.14947 31.956V39.544H3.61947ZM9.2 41.126C8.03333 41.126 7.142 40.6967 6.526 39.838C5.91 38.97 5.602 37.71 5.602 36.058C5.602 34.4153 5.91 33.1647 6.526 32.306C7.142 31.438 8.03333 31.004 9.2 31.004C10.3667 31.004 11.258 31.438 11.874 32.306C12.49 33.1647 12.798 34.4153 12.798 36.058C12.798 37.7007 12.49 38.956 11.874 39.824C11.258 40.692 10.3667 41.126 9.2 41.126ZM9.2 39.712C9.83467 39.712 10.2967 39.4227 10.586 38.844C10.8753 38.256 11.02 37.3273 11.02 36.058C11.02 34.7793 10.8753 33.8553 10.586 33.286C10.2967 32.7073 9.83467 32.418 9.2 32.418C8.56533 32.418 8.10333 32.7073 7.814 33.286C7.52467 33.8647 7.38 34.7887 7.38 36.058C7.38 37.3273 7.52467 38.256 7.814 38.844C8.10333 39.4227 8.56533 39.712 9.2 39.712Z" fill="#C4C4C4"/>
<path d="M85.5261 26.05C85.3995 26.05 85.2961 26.0133 85.2161 25.94C85.1428 25.86 85.1061 25.7567 85.1061 25.63V19.65H82.9561C82.8361 19.65 82.7428 19.62 82.6761 19.56C82.6095 19.5 82.5761 19.4133 82.5761 19.3C82.5761 19.1867 82.6095 19.1 82.6761 19.04C82.7428 18.98 82.8361 18.95 82.9561 18.95H88.0861C88.2061 18.95 88.2995 18.98 88.3661 19.04C88.4328 19.1 88.4661 19.1867 88.4661 19.3C88.4661 19.4133 88.4328 19.5 88.3661 19.56C88.2995 19.62 88.2061 19.65 88.0861 19.65H85.9361V25.63C85.9361 25.7567 85.8995 25.86 85.8261 25.94C85.7528 26.0133 85.6528 26.05 85.5261 26.05ZM92.2303 21.03C92.3569 21.03 92.4536 21.0667 92.5203 21.14C92.5936 21.2133 92.6303 21.31 92.6303 21.43V25.66C92.6303 25.7733 92.5936 25.8667 92.5203 25.94C92.4536 26.0133 92.3569 26.05 92.2303 26.05C92.1103 26.05 92.0136 26.0167 91.9403 25.95C91.8736 25.8767 91.8403 25.7833 91.8403 25.67V25.17C91.6869 25.4633 91.4703 25.6867 91.1903 25.84C90.9169 25.9933 90.6069 26.07 90.2603 26.07C89.6803 26.07 89.2436 25.91 88.9503 25.59C88.6569 25.2633 88.5103 24.7833 88.5103 24.15V21.43C88.5103 21.31 88.5469 21.2133 88.6203 21.14C88.6936 21.0667 88.7936 21.03 88.9203 21.03C89.0469 21.03 89.1436 21.0667 89.2103 21.14C89.2836 21.2133 89.3203 21.31 89.3203 21.43V24.13C89.3203 24.5633 89.4069 24.8833 89.5803 25.09C89.7536 25.29 90.0269 25.39 90.4003 25.39C90.8269 25.39 91.1703 25.2533 91.4303 24.98C91.6903 24.7 91.8203 24.3333 91.8203 23.88V21.43C91.8203 21.31 91.8569 21.2133 91.9303 21.14C92.0036 21.0667 92.1036 21.03 92.2303 21.03ZM97.9057 24.87C97.9791 24.87 98.0424 24.9 98.0957 24.96C98.1491 25.02 98.1757 25.0967 98.1757 25.19C98.1757 25.3567 98.0591 25.51 97.8257 25.65C97.5857 25.79 97.3324 25.8967 97.0657 25.97C96.7991 26.0367 96.5391 26.07 96.2857 26.07C95.5324 26.07 94.9357 25.8467 94.4957 25.4C94.0624 24.9533 93.8457 24.3367 93.8457 23.55C93.8457 23.05 93.9424 22.61 94.1357 22.23C94.3291 21.8433 94.5991 21.5433 94.9457 21.33C95.2991 21.1167 95.6991 21.01 96.1457 21.01C96.7791 21.01 97.2824 21.2167 97.6557 21.63C98.0291 22.0433 98.2157 22.6033 98.2157 23.31C98.2157 23.4433 98.1891 23.54 98.1357 23.6C98.0824 23.66 97.9957 23.69 97.8757 23.69H94.6557C94.7157 24.8367 95.2591 25.41 96.2857 25.41C96.5457 25.41 96.7691 25.3767 96.9557 25.31C97.1424 25.2367 97.3424 25.14 97.5557 25.02C97.7291 24.92 97.8457 24.87 97.9057 24.87ZM96.1557 21.64C95.7291 21.64 95.3857 21.7733 95.1257 22.04C94.8724 22.3067 94.7224 22.6833 94.6757 23.17H97.5057C97.4924 22.6767 97.3691 22.3 97.1357 22.04C96.9024 21.7733 96.5757 21.64 96.1557 21.64ZM101.049 26.07C100.743 26.07 100.449 26.0333 100.169 25.96C99.8958 25.8867 99.6525 25.7833 99.4392 25.65C99.3192 25.57 99.2325 25.4967 99.1792 25.43C99.1325 25.3567 99.1092 25.27 99.1092 25.17C99.1092 25.0833 99.1325 25.0133 99.1792 24.96C99.2325 24.9 99.2992 24.87 99.3792 24.87C99.4592 24.87 99.5758 24.92 99.7292 25.02C99.9292 25.14 100.126 25.2367 100.319 25.31C100.519 25.3767 100.766 25.41 101.059 25.41C101.419 25.41 101.699 25.3467 101.899 25.22C102.099 25.0933 102.199 24.91 102.199 24.67C102.199 24.5233 102.163 24.4067 102.089 24.32C102.016 24.2267 101.889 24.1467 101.709 24.08C101.529 24.0067 101.266 23.9333 100.919 23.86C100.333 23.7333 99.9125 23.5633 99.6592 23.35C99.4058 23.1367 99.2792 22.8467 99.2792 22.48C99.2792 22.1933 99.3592 21.94 99.5192 21.72C99.6792 21.5 99.8992 21.3267 100.179 21.2C100.466 21.0733 100.789 21.01 101.149 21.01C101.409 21.01 101.659 21.0467 101.899 21.12C102.146 21.1867 102.363 21.2833 102.549 21.41C102.776 21.57 102.889 21.7367 102.889 21.91C102.889 21.9967 102.863 22.07 102.809 22.13C102.756 22.19 102.693 22.22 102.619 22.22C102.539 22.22 102.419 22.1633 102.259 22.05C102.073 21.93 101.896 21.8367 101.729 21.77C101.563 21.7033 101.356 21.67 101.109 21.67C100.796 21.67 100.543 21.74 100.349 21.88C100.163 22.02 100.069 22.2067 100.069 22.44C100.069 22.5867 100.103 22.7067 100.169 22.8C100.243 22.8867 100.359 22.9667 100.519 23.04C100.686 23.1067 100.923 23.1733 101.229 23.24C101.683 23.34 102.033 23.45 102.279 23.57C102.533 23.69 102.713 23.8367 102.819 24.01C102.926 24.1833 102.979 24.4033 102.979 24.67C102.979 25.09 102.803 25.43 102.449 25.69C102.096 25.9433 101.629 26.07 101.049 26.07Z" fill="#C4C4C4"/>
<path d="M85.7929 54.08C85.2929 54.08 84.8129 54.0067 84.3529 53.86C83.8995 53.7067 83.5362 53.5033 83.2629 53.25C83.1629 53.1567 83.1129 53.04 83.1129 52.9C83.1129 52.8067 83.1395 52.7267 83.1929 52.66C83.2462 52.5867 83.3095 52.55 83.3829 52.55C83.4695 52.55 83.5629 52.5867 83.6629 52.66C84.2829 53.14 84.9895 53.38 85.7829 53.38C86.3562 53.38 86.7962 53.27 87.1029 53.05C87.4095 52.83 87.5629 52.5167 87.5629 52.11C87.5629 51.8767 87.4895 51.69 87.3429 51.55C87.1962 51.4033 87.0029 51.2867 86.7629 51.2C86.5229 51.1133 86.1995 51.0233 85.7929 50.93C85.2462 50.8033 84.7962 50.67 84.4429 50.53C84.0962 50.39 83.8129 50.19 83.5929 49.93C83.3795 49.67 83.2729 49.33 83.2729 48.91C83.2729 48.51 83.3795 48.1567 83.5929 47.85C83.8129 47.5367 84.1162 47.2967 84.5029 47.13C84.8962 46.9567 85.3429 46.87 85.8429 46.87C86.3095 46.87 86.7429 46.9433 87.1429 47.09C87.5495 47.23 87.8895 47.4333 88.1629 47.7C88.2695 47.8067 88.3229 47.9233 88.3229 48.05C88.3229 48.1433 88.2962 48.2267 88.2429 48.3C88.1895 48.3667 88.1262 48.4 88.0529 48.4C87.9795 48.4 87.8829 48.3633 87.7629 48.29C87.4362 48.0233 87.1329 47.8367 86.8529 47.73C86.5729 47.6233 86.2362 47.57 85.8429 47.57C85.2895 47.57 84.8595 47.6867 84.5529 47.92C84.2462 48.1467 84.0929 48.4667 84.0929 48.88C84.0929 49.2333 84.2262 49.5 84.4929 49.68C84.7662 49.8533 85.1829 50.0067 85.7429 50.14C86.3495 50.2867 86.8262 50.4233 87.1729 50.55C87.5195 50.67 87.8062 50.8533 88.0329 51.1C88.2662 51.3467 88.3829 51.6767 88.3829 52.09C88.3829 52.4833 88.2729 52.83 88.0529 53.13C87.8395 53.43 87.5362 53.6633 87.1429 53.83C86.7495 53.9967 86.2995 54.08 85.7929 54.08ZM93.3647 52.87C93.4381 52.87 93.5014 52.9 93.5547 52.96C93.6081 53.02 93.6347 53.0967 93.6347 53.19C93.6347 53.3567 93.5181 53.51 93.2847 53.65C93.0447 53.79 92.7914 53.8967 92.5247 53.97C92.2581 54.0367 91.9981 54.07 91.7447 54.07C90.9914 54.07 90.3947 53.8467 89.9547 53.4C89.5214 52.9533 89.3047 52.3367 89.3047 51.55C89.3047 51.05 89.4014 50.61 89.5947 50.23C89.7881 49.8433 90.0581 49.5433 90.4047 49.33C90.7581 49.1167 91.1581 49.01 91.6047 49.01C92.2381 49.01 92.7414 49.2167 93.1147 49.63C93.4881 50.0433 93.6747 50.6033 93.6747 51.31C93.6747 51.4433 93.6481 51.54 93.5947 51.6C93.5414 51.66 93.4547 51.69 93.3347 51.69H90.1147C90.1747 52.8367 90.7181 53.41 91.7447 53.41C92.0047 53.41 92.2281 53.3767 92.4147 53.31C92.6014 53.2367 92.8014 53.14 93.0147 53.02C93.1881 52.92 93.3047 52.87 93.3647 52.87ZM91.6147 49.64C91.1881 49.64 90.8447 49.7733 90.5847 50.04C90.3314 50.3067 90.1814 50.6833 90.1347 51.17H92.9647C92.9514 50.6767 92.8281 50.3 92.5947 50.04C92.3614 49.7733 92.0347 49.64 91.6147 49.64ZM97.3182 49.01C97.7448 49.01 98.1215 49.1167 98.4482 49.33C98.7748 49.5433 99.0282 49.8433 99.2082 50.23C99.3882 50.61 99.4782 51.0533 99.4782 51.56C99.4782 52.0667 99.3882 52.51 99.2082 52.89C99.0282 53.2633 98.7748 53.5533 98.4482 53.76C98.1282 53.9667 97.7515 54.07 97.3182 54.07C96.9382 54.07 96.6048 53.9867 96.3182 53.82C96.0382 53.6533 95.8248 53.4167 95.6782 53.11V55.46C95.6782 55.58 95.6415 55.6733 95.5682 55.74C95.5015 55.8133 95.4048 55.85 95.2782 55.85C95.1515 55.85 95.0515 55.8133 94.9782 55.74C94.9048 55.6667 94.8682 55.5733 94.8682 55.46V49.43C94.8682 49.31 94.9048 49.2133 94.9782 49.14C95.0515 49.0667 95.1515 49.03 95.2782 49.03C95.4048 49.03 95.5015 49.0667 95.5682 49.14C95.6415 49.2133 95.6782 49.31 95.6782 49.43V49.97C95.8248 49.6633 96.0382 49.4267 96.3182 49.26C96.6048 49.0933 96.9382 49.01 97.3182 49.01ZM97.1582 53.4C97.6315 53.4 97.9982 53.24 98.2582 52.92C98.5182 52.6 98.6482 52.1467 98.6482 51.56C98.6482 50.9733 98.5182 50.5167 98.2582 50.19C97.9982 49.8567 97.6315 49.69 97.1582 49.69C96.6848 49.69 96.3182 49.85 96.0582 50.17C95.8048 50.49 95.6782 50.9467 95.6782 51.54C95.6782 52.1333 95.8048 52.5933 96.0582 52.92C96.3182 53.24 96.6848 53.4 97.1582 53.4ZM102.929 53.41C103.162 53.43 103.279 53.5367 103.279 53.73C103.279 53.8433 103.235 53.93 103.149 53.99C103.069 54.0433 102.945 54.0633 102.779 54.05L102.509 54.03C101.975 53.99 101.582 53.83 101.329 53.55C101.075 53.27 100.949 52.8467 100.949 52.28V49.77H100.279C100.165 49.77 100.075 49.7433 100.009 49.69C99.9487 49.63 99.9187 49.5533 99.9187 49.46C99.9187 49.36 99.9487 49.28 100.009 49.22C100.075 49.16 100.165 49.13 100.279 49.13H100.949V48C100.949 47.8733 100.985 47.7767 101.059 47.71C101.132 47.6367 101.232 47.6 101.359 47.6C101.479 47.6 101.575 47.6367 101.649 47.71C101.722 47.7767 101.759 47.8733 101.759 48V49.13H102.869C102.975 49.13 103.059 49.16 103.119 49.22C103.185 49.28 103.219 49.36 103.219 49.46C103.219 49.5533 103.185 49.63 103.119 49.69C103.059 49.7433 102.975 49.77 102.869 49.77H101.759V52.32C101.759 52.6867 101.832 52.9533 101.979 53.12C102.132 53.28 102.359 53.37 102.659 53.39L102.929 53.41Z" fill="#C4C4C4"/>
<path d="M91.6195 39.544C92.1795 39.544 92.4595 39.782 92.4595 40.258C92.4595 40.7527 92.1795 41 91.6195 41H86.8875C86.3181 41 86.0335 40.7527 86.0335 40.258C86.0335 39.782 86.3181 39.544 86.8875 39.544H88.3435V33.16L86.9995 33.986C86.8688 34.0607 86.7521 34.098 86.6495 34.098C86.4535 34.098 86.2855 34.014 86.1455 33.846C86.0148 33.678 85.9495 33.4913 85.9495 33.286C85.9495 33.0153 86.0708 32.8053 86.3135 32.656L88.4835 31.312C88.7635 31.144 89.0295 31.06 89.2815 31.06C89.5428 31.06 89.7528 31.1393 89.9115 31.298C90.0701 31.4567 90.1495 31.676 90.1495 31.956V39.544H91.6195ZM100.014 39.544C100.574 39.544 100.854 39.782 100.854 40.258C100.854 40.7527 100.574 41 100.014 41H95.282C94.7127 41 94.428 40.7527 94.428 40.258C94.428 39.782 94.7127 39.544 95.282 39.544H96.738V33.16L95.394 33.986C95.2633 34.0607 95.1467 34.098 95.044 34.098C94.848 34.098 94.68 34.014 94.54 33.846C94.4093 33.678 94.344 33.4913 94.344 33.286C94.344 33.0153 94.4653 32.8053 94.708 32.656L96.878 31.312C97.158 31.144 97.424 31.06 97.676 31.06C97.9373 31.06 98.1473 31.1393 98.306 31.298C98.4647 31.4567 98.544 31.676 98.544 31.956V39.544H100.014Z" fill="#C4C4C4"/>
<path d="M178.677 19.29C178.724 19.1567 178.797 19.0567 178.897 18.99C179.004 18.9233 179.12 18.89 179.247 18.89C179.407 18.89 179.544 18.94 179.657 19.04C179.777 19.14 179.837 19.2733 179.837 19.44C179.837 19.5 179.82 19.5867 179.787 19.7L177.637 25.65C177.584 25.7833 177.494 25.8867 177.367 25.96C177.247 26.0333 177.114 26.07 176.967 26.07C176.82 26.07 176.684 26.0333 176.557 25.96C176.43 25.8867 176.344 25.7833 176.297 25.65L174.637 20.94L172.947 25.65C172.894 25.7833 172.804 25.8867 172.677 25.96C172.557 26.0333 172.424 26.07 172.277 26.07C172.13 26.07 171.994 26.0333 171.867 25.96C171.747 25.8867 171.664 25.7833 171.617 25.65L169.467 19.7C169.434 19.6 169.417 19.5133 169.417 19.44C169.417 19.2733 169.477 19.14 169.597 19.04C169.724 18.94 169.87 18.89 170.037 18.89C170.17 18.89 170.29 18.9233 170.397 18.99C170.504 19.0567 170.58 19.1567 170.627 19.29L172.327 24.18L174.077 19.32C174.124 19.1867 174.2 19.0833 174.307 19.01C174.414 18.93 174.53 18.89 174.657 18.89C174.784 18.89 174.9 18.93 175.007 19.01C175.12 19.0833 175.2 19.19 175.247 19.33L176.947 24.24L178.677 19.29ZM184.124 24.66C184.238 24.66 184.328 24.7033 184.394 24.79C184.468 24.8767 184.504 24.9933 184.504 25.14C184.504 25.3467 184.381 25.52 184.134 25.66C183.908 25.7867 183.651 25.89 183.364 25.97C183.078 26.0433 182.804 26.08 182.544 26.08C181.758 26.08 181.134 25.8533 180.674 25.4C180.214 24.9467 179.984 24.3267 179.984 23.54C179.984 23.04 180.084 22.5967 180.284 22.21C180.484 21.8233 180.764 21.5233 181.124 21.31C181.491 21.0967 181.904 20.99 182.364 20.99C182.804 20.99 183.188 21.0867 183.514 21.28C183.841 21.4733 184.094 21.7467 184.274 22.1C184.454 22.4533 184.544 22.87 184.544 23.35C184.544 23.6367 184.418 23.78 184.164 23.78H181.214C181.254 24.24 181.384 24.58 181.604 24.8C181.824 25.0133 182.144 25.12 182.564 25.12C182.778 25.12 182.964 25.0933 183.124 25.04C183.291 24.9867 183.478 24.9133 183.684 24.82C183.884 24.7133 184.031 24.66 184.124 24.66ZM182.394 21.87C182.054 21.87 181.781 21.9767 181.574 22.19C181.374 22.4033 181.254 22.71 181.214 23.11H183.474C183.461 22.7033 183.361 22.3967 183.174 22.19C182.988 21.9767 182.728 21.87 182.394 21.87ZM189.647 18.9C189.834 18.9 189.987 18.9533 190.107 19.06C190.227 19.1667 190.287 19.3067 190.287 19.48V25.46C190.287 25.64 190.23 25.7833 190.117 25.89C190.004 25.9967 189.854 26.05 189.667 26.05C189.48 26.05 189.33 25.9967 189.217 25.89C189.104 25.7833 189.047 25.64 189.047 25.46V25.21C188.9 25.4833 188.687 25.6967 188.407 25.85C188.134 26.0033 187.82 26.08 187.467 26.08C187.047 26.08 186.67 25.9733 186.337 25.76C186.01 25.5467 185.754 25.2467 185.567 24.86C185.387 24.4667 185.297 24.0167 185.297 23.51C185.297 23.0033 185.387 22.56 185.567 22.18C185.754 21.8 186.01 21.5067 186.337 21.3C186.664 21.0933 187.04 20.99 187.467 20.99C187.82 20.99 188.134 21.0633 188.407 21.21C188.68 21.3567 188.89 21.5633 189.037 21.83V19.46C189.037 19.2933 189.09 19.16 189.197 19.06C189.31 18.9533 189.46 18.9 189.647 18.9ZM187.797 25.11C188.197 25.11 188.504 24.9733 188.717 24.7C188.937 24.4267 189.047 24.0367 189.047 23.53C189.047 23.0233 188.937 22.6367 188.717 22.37C188.504 22.0967 188.2 21.96 187.807 21.96C187.407 21.96 187.097 22.0933 186.877 22.36C186.657 22.6267 186.547 23.01 186.547 23.51C186.547 24.0167 186.657 24.41 186.877 24.69C187.097 24.97 187.404 25.11 187.797 25.11Z" fill="#FF5A6E"/>
<path d="M172.521 54.09C172.008 54.09 171.521 54.0233 171.061 53.89C170.608 53.75 170.238 53.5633 169.951 53.33C169.798 53.2167 169.721 53.0567 169.721 52.85C169.721 52.71 169.761 52.59 169.841 52.49C169.928 52.3833 170.028 52.33 170.141 52.33C170.261 52.33 170.398 52.3767 170.551 52.47C170.838 52.6767 171.138 52.8267 171.451 52.92C171.765 53.0133 172.111 53.06 172.491 53.06C172.978 53.06 173.351 52.9767 173.611 52.81C173.871 52.6367 174.001 52.3867 174.001 52.06C174.001 51.8067 173.878 51.6133 173.631 51.48C173.391 51.34 172.988 51.2067 172.421 51.08C171.835 50.9533 171.358 50.8067 170.991 50.64C170.625 50.4733 170.348 50.26 170.161 50C169.975 49.74 169.881 49.41 169.881 49.01C169.881 48.5967 169.998 48.2267 170.231 47.9C170.465 47.5733 170.788 47.32 171.201 47.14C171.621 46.9533 172.091 46.86 172.611 46.86C173.565 46.86 174.341 47.1133 174.941 47.62C175.028 47.6933 175.088 47.7667 175.121 47.84C175.161 47.9067 175.181 47.9933 175.181 48.1C175.181 48.24 175.138 48.3633 175.051 48.47C174.971 48.57 174.875 48.62 174.761 48.62C174.695 48.62 174.631 48.61 174.571 48.59C174.518 48.57 174.445 48.5333 174.351 48.48C174.078 48.28 173.811 48.1333 173.551 48.04C173.298 47.94 172.985 47.89 172.611 47.89C172.158 47.89 171.798 47.9833 171.531 48.17C171.271 48.35 171.141 48.6033 171.141 48.93C171.141 49.2033 171.258 49.4133 171.491 49.56C171.725 49.7067 172.121 49.8433 172.681 49.97C173.275 50.1033 173.755 50.2533 174.121 50.42C174.495 50.58 174.778 50.7867 174.971 51.04C175.171 51.2933 175.271 51.61 175.271 51.99C175.271 52.4033 175.155 52.77 174.921 53.09C174.695 53.4033 174.371 53.65 173.951 53.83C173.538 54.0033 173.061 54.09 172.521 54.09ZM180.218 52.66C180.332 52.66 180.422 52.7033 180.488 52.79C180.562 52.8767 180.598 52.9933 180.598 53.14C180.598 53.3467 180.475 53.52 180.228 53.66C180.002 53.7867 179.745 53.89 179.458 53.97C179.172 54.0433 178.898 54.08 178.638 54.08C177.852 54.08 177.228 53.8533 176.768 53.4C176.308 52.9467 176.078 52.3267 176.078 51.54C176.078 51.04 176.178 50.5967 176.378 50.21C176.578 49.8233 176.858 49.5233 177.218 49.31C177.585 49.0967 177.998 48.99 178.458 48.99C178.898 48.99 179.282 49.0867 179.608 49.28C179.935 49.4733 180.188 49.7467 180.368 50.1C180.548 50.4533 180.638 50.87 180.638 51.35C180.638 51.6367 180.512 51.78 180.258 51.78H177.308C177.348 52.24 177.478 52.58 177.698 52.8C177.918 53.0133 178.238 53.12 178.658 53.12C178.872 53.12 179.058 53.0933 179.218 53.04C179.385 52.9867 179.572 52.9133 179.778 52.82C179.978 52.7133 180.125 52.66 180.218 52.66ZM178.488 49.87C178.148 49.87 177.875 49.9767 177.668 50.19C177.468 50.4033 177.348 50.71 177.308 51.11H179.568C179.555 50.7033 179.455 50.3967 179.268 50.19C179.082 49.9767 178.822 49.87 178.488 49.87ZM184.471 48.99C184.891 48.99 185.264 49.0967 185.591 49.31C185.924 49.5233 186.181 49.8267 186.361 50.22C186.547 50.6067 186.641 51.0533 186.641 51.56C186.641 52.0667 186.547 52.51 186.361 52.89C186.181 53.27 185.927 53.5633 185.601 53.77C185.274 53.9767 184.897 54.08 184.471 54.08C184.124 54.08 183.814 54.0067 183.541 53.86C183.267 53.7133 183.057 53.51 182.911 53.25V55.29C182.911 55.4633 182.854 55.6 182.741 55.7C182.627 55.8 182.477 55.85 182.291 55.85C182.104 55.85 181.951 55.7967 181.831 55.69C181.717 55.5833 181.661 55.4433 181.661 55.27V49.6C181.661 49.42 181.714 49.2767 181.821 49.17C181.934 49.0633 182.084 49.01 182.271 49.01C182.457 49.01 182.607 49.0633 182.721 49.17C182.834 49.2767 182.891 49.42 182.891 49.6V49.85C183.037 49.5767 183.247 49.3667 183.521 49.22C183.801 49.0667 184.117 48.99 184.471 48.99ZM184.141 53.11C184.534 53.11 184.841 52.9767 185.061 52.71C185.281 52.4367 185.391 52.0533 185.391 51.56C185.391 51.0533 185.281 50.66 185.061 50.38C184.841 50.1 184.534 49.96 184.141 49.96C183.741 49.96 183.431 50.0967 183.211 50.37C182.997 50.6433 182.891 51.0333 182.891 51.54C182.891 52.04 182.997 52.4267 183.211 52.7C183.431 52.9733 183.741 53.11 184.141 53.11ZM190.177 53.13C190.511 53.15 190.677 53.3 190.677 53.58C190.677 53.74 190.611 53.8633 190.477 53.95C190.351 54.03 190.167 54.0633 189.927 54.05L189.657 54.03C188.537 53.95 187.977 53.35 187.977 52.23V50.05H187.477C187.297 50.05 187.157 50.01 187.057 49.93C186.964 49.85 186.917 49.7333 186.917 49.58C186.917 49.4267 186.964 49.31 187.057 49.23C187.157 49.15 187.297 49.11 187.477 49.11H187.977V48.19C187.977 48.01 188.034 47.8667 188.147 47.76C188.261 47.6533 188.414 47.6 188.607 47.6C188.794 47.6 188.944 47.6533 189.057 47.76C189.171 47.8667 189.227 48.01 189.227 48.19V49.11H190.077C190.257 49.11 190.394 49.15 190.487 49.23C190.587 49.31 190.637 49.4267 190.637 49.58C190.637 49.7333 190.587 49.85 190.487 49.93C190.394 50.01 190.257 50.05 190.077 50.05H189.227V52.32C189.227 52.8133 189.454 53.0767 189.907 53.11L190.177 53.13Z" fill="#FF5A6E"/>
<path d="M178.767 38.956C179.187 38.956 179.495 39.04 179.691 39.208C179.887 39.376 179.985 39.628 179.985 39.964C179.985 40.6547 179.579 41 178.767 41H173.909C173.097 41 172.691 40.6547 172.691 39.964C172.691 39.628 172.789 39.376 172.985 39.208C173.181 39.04 173.489 38.956 173.909 38.956H175.043V33.902L173.923 34.56C173.764 34.6533 173.601 34.7 173.433 34.7C173.171 34.7 172.947 34.588 172.761 34.364C172.574 34.1307 172.481 33.874 172.481 33.594C172.481 33.2113 172.644 32.922 172.971 32.726L175.211 31.424C175.621 31.1907 176.009 31.074 176.373 31.074C176.746 31.074 177.045 31.186 177.269 31.41C177.502 31.634 177.619 31.9373 177.619 32.32V38.956H178.767ZM186.797 38.956C187.208 38.956 187.511 39.04 187.707 39.208C187.912 39.3667 188.015 39.6187 188.015 39.964C188.015 40.3187 187.912 40.58 187.707 40.748C187.511 40.916 187.208 41 186.797 41H181.687C181.351 41 181.085 40.902 180.889 40.706C180.693 40.5007 180.595 40.244 180.595 39.936C180.595 39.5347 180.754 39.1707 181.071 38.844L184.039 35.75C184.655 35.106 184.963 34.5133 184.963 33.972C184.963 33.6547 184.87 33.412 184.683 33.244C184.506 33.076 184.249 32.992 183.913 32.992C183.642 32.992 183.39 33.034 183.157 33.118C182.933 33.1927 182.672 33.3047 182.373 33.454L182.093 33.594C182.056 33.6127 181.981 33.6547 181.869 33.72C181.766 33.776 181.673 33.818 181.589 33.846C181.505 33.874 181.416 33.888 181.323 33.888C181.09 33.888 180.894 33.7853 180.735 33.58C180.576 33.3653 180.497 33.1133 180.497 32.824C180.497 32.6187 180.525 32.4507 180.581 32.32C180.646 32.1893 180.763 32.068 180.931 31.956C181.37 31.6573 181.86 31.424 182.401 31.256C182.952 31.088 183.493 31.004 184.025 31.004C184.716 31.004 185.322 31.1207 185.845 31.354C186.368 31.578 186.769 31.9047 187.049 32.334C187.338 32.754 187.483 33.2393 187.483 33.79C187.483 34.3593 187.366 34.882 187.133 35.358C186.909 35.8247 186.522 36.3473 185.971 36.926L183.983 38.956H186.797Z" fill="#FF5A6E"/>
<path d="M260.594 26.05C260.468 26.05 260.364 26.0133 260.284 25.94C260.211 25.86 260.174 25.7567 260.174 25.63V19.65H258.024C257.904 19.65 257.811 19.62 257.744 19.56C257.678 19.5 257.644 19.4133 257.644 19.3C257.644 19.1867 257.678 19.1 257.744 19.04C257.811 18.98 257.904 18.95 258.024 18.95H263.154C263.274 18.95 263.368 18.98 263.434 19.04C263.501 19.1 263.534 19.1867 263.534 19.3C263.534 19.4133 263.501 19.5 263.434 19.56C263.368 19.62 263.274 19.65 263.154 19.65H261.004V25.63C261.004 25.7567 260.968 25.86 260.894 25.94C260.821 26.0133 260.721 26.05 260.594 26.05ZM266.791 21.01C267.364 21.01 267.798 21.1733 268.091 21.5C268.384 21.82 268.531 22.3 268.531 22.94V25.65C268.531 25.7767 268.494 25.8767 268.421 25.95C268.348 26.0167 268.251 26.05 268.131 26.05C268.004 26.05 267.904 26.0167 267.831 25.95C267.758 25.8767 267.721 25.7767 267.721 25.65V22.96C267.721 22.5267 267.631 22.2067 267.451 22C267.278 21.7933 266.998 21.69 266.611 21.69C266.164 21.69 265.808 21.8267 265.541 22.1C265.274 22.3733 265.141 22.7433 265.141 23.21V25.65C265.141 25.7767 265.104 25.8767 265.031 25.95C264.964 26.0167 264.868 26.05 264.741 26.05C264.614 26.05 264.514 26.0167 264.441 25.95C264.368 25.8767 264.331 25.7767 264.331 25.65V19.29C264.331 19.1767 264.368 19.0833 264.441 19.01C264.521 18.9367 264.621 18.9 264.741 18.9C264.868 18.9 264.964 18.9367 265.031 19.01C265.104 19.0767 265.141 19.17 265.141 19.29V21.91C265.301 21.6167 265.524 21.3933 265.811 21.24C266.098 21.0867 266.424 21.01 266.791 21.01ZM273.715 21.03C273.841 21.03 273.938 21.0667 274.005 21.14C274.078 21.2133 274.115 21.31 274.115 21.43V25.66C274.115 25.7733 274.078 25.8667 274.005 25.94C273.938 26.0133 273.841 26.05 273.715 26.05C273.595 26.05 273.498 26.0167 273.425 25.95C273.358 25.8767 273.325 25.7833 273.325 25.67V25.17C273.171 25.4633 272.955 25.6867 272.675 25.84C272.401 25.9933 272.091 26.07 271.745 26.07C271.165 26.07 270.728 25.91 270.435 25.59C270.141 25.2633 269.995 24.7833 269.995 24.15V21.43C269.995 21.31 270.031 21.2133 270.105 21.14C270.178 21.0667 270.278 21.03 270.405 21.03C270.531 21.03 270.628 21.0667 270.695 21.14C270.768 21.2133 270.805 21.31 270.805 21.43V24.13C270.805 24.5633 270.891 24.8833 271.065 25.09C271.238 25.29 271.511 25.39 271.885 25.39C272.311 25.39 272.655 25.2533 272.915 24.98C273.175 24.7 273.305 24.3333 273.305 23.88V21.43C273.305 21.31 273.341 21.2133 273.415 21.14C273.488 21.0667 273.588 21.03 273.715 21.03ZM278.03 21.03C278.31 21.01 278.45 21.1233 278.45 21.37C278.45 21.4767 278.42 21.5633 278.36 21.63C278.3 21.69 278.197 21.7267 278.05 21.74L277.75 21.77C277.303 21.81 276.97 21.97 276.75 22.25C276.537 22.5233 276.43 22.8467 276.43 23.22V25.65C276.43 25.7833 276.393 25.8833 276.32 25.95C276.247 26.0167 276.15 26.05 276.03 26.05C275.91 26.05 275.81 26.0167 275.73 25.95C275.657 25.8767 275.62 25.7767 275.62 25.65V21.43C275.62 21.3033 275.66 21.2067 275.74 21.14C275.82 21.0667 275.917 21.03 276.03 21.03C276.137 21.03 276.227 21.0667 276.3 21.14C276.373 21.2067 276.41 21.3 276.41 21.42V21.98C276.55 21.6867 276.747 21.4633 277 21.31C277.26 21.1567 277.557 21.0667 277.89 21.04L278.03 21.03Z" fill="#C4C4C4"/>
<path d="M260.793 54.08C260.293 54.08 259.813 54.0067 259.353 53.86C258.9 53.7067 258.536 53.5033 258.263 53.25C258.163 53.1567 258.113 53.04 258.113 52.9C258.113 52.8067 258.14 52.7267 258.193 52.66C258.246 52.5867 258.31 52.55 258.383 52.55C258.47 52.55 258.563 52.5867 258.663 52.66C259.283 53.14 259.99 53.38 260.783 53.38C261.356 53.38 261.796 53.27 262.103 53.05C262.41 52.83 262.563 52.5167 262.563 52.11C262.563 51.8767 262.49 51.69 262.343 51.55C262.196 51.4033 262.003 51.2867 261.763 51.2C261.523 51.1133 261.2 51.0233 260.793 50.93C260.246 50.8033 259.796 50.67 259.443 50.53C259.096 50.39 258.813 50.19 258.593 49.93C258.38 49.67 258.273 49.33 258.273 48.91C258.273 48.51 258.38 48.1567 258.593 47.85C258.813 47.5367 259.116 47.2967 259.503 47.13C259.896 46.9567 260.343 46.87 260.843 46.87C261.31 46.87 261.743 46.9433 262.143 47.09C262.55 47.23 262.89 47.4333 263.163 47.7C263.27 47.8067 263.323 47.9233 263.323 48.05C263.323 48.1433 263.296 48.2267 263.243 48.3C263.19 48.3667 263.126 48.4 263.053 48.4C262.98 48.4 262.883 48.3633 262.763 48.29C262.436 48.0233 262.133 47.8367 261.853 47.73C261.573 47.6233 261.236 47.57 260.843 47.57C260.29 47.57 259.86 47.6867 259.553 47.92C259.246 48.1467 259.093 48.4667 259.093 48.88C259.093 49.2333 259.226 49.5 259.493 49.68C259.766 49.8533 260.183 50.0067 260.743 50.14C261.35 50.2867 261.826 50.4233 262.173 50.55C262.52 50.67 262.806 50.8533 263.033 51.1C263.266 51.3467 263.383 51.6767 263.383 52.09C263.383 52.4833 263.273 52.83 263.053 53.13C262.84 53.43 262.536 53.6633 262.143 53.83C261.75 53.9967 261.3 54.08 260.793 54.08ZM268.365 52.87C268.438 52.87 268.501 52.9 268.555 52.96C268.608 53.02 268.635 53.0967 268.635 53.19C268.635 53.3567 268.518 53.51 268.285 53.65C268.045 53.79 267.791 53.8967 267.525 53.97C267.258 54.0367 266.998 54.07 266.745 54.07C265.991 54.07 265.395 53.8467 264.955 53.4C264.521 52.9533 264.305 52.3367 264.305 51.55C264.305 51.05 264.401 50.61 264.595 50.23C264.788 49.8433 265.058 49.5433 265.405 49.33C265.758 49.1167 266.158 49.01 266.605 49.01C267.238 49.01 267.741 49.2167 268.115 49.63C268.488 50.0433 268.675 50.6033 268.675 51.31C268.675 51.4433 268.648 51.54 268.595 51.6C268.541 51.66 268.455 51.69 268.335 51.69H265.115C265.175 52.8367 265.718 53.41 266.745 53.41C267.005 53.41 267.228 53.3767 267.415 53.31C267.601 53.2367 267.801 53.14 268.015 53.02C268.188 52.92 268.305 52.87 268.365 52.87ZM266.615 49.64C266.188 49.64 265.845 49.7733 265.585 50.04C265.331 50.3067 265.181 50.6833 265.135 51.17H267.965C267.951 50.6767 267.828 50.3 267.595 50.04C267.361 49.7733 267.035 49.64 266.615 49.64ZM272.318 49.01C272.745 49.01 273.121 49.1167 273.448 49.33C273.775 49.5433 274.028 49.8433 274.208 50.23C274.388 50.61 274.478 51.0533 274.478 51.56C274.478 52.0667 274.388 52.51 274.208 52.89C274.028 53.2633 273.775 53.5533 273.448 53.76C273.128 53.9667 272.751 54.07 272.318 54.07C271.938 54.07 271.605 53.9867 271.318 53.82C271.038 53.6533 270.825 53.4167 270.678 53.11V55.46C270.678 55.58 270.641 55.6733 270.568 55.74C270.501 55.8133 270.405 55.85 270.278 55.85C270.151 55.85 270.051 55.8133 269.978 55.74C269.905 55.6667 269.868 55.5733 269.868 55.46V49.43C269.868 49.31 269.905 49.2133 269.978 49.14C270.051 49.0667 270.151 49.03 270.278 49.03C270.405 49.03 270.501 49.0667 270.568 49.14C270.641 49.2133 270.678 49.31 270.678 49.43V49.97C270.825 49.6633 271.038 49.4267 271.318 49.26C271.605 49.0933 271.938 49.01 272.318 49.01ZM272.158 53.4C272.631 53.4 272.998 53.24 273.258 52.92C273.518 52.6 273.648 52.1467 273.648 51.56C273.648 50.9733 273.518 50.5167 273.258 50.19C272.998 49.8567 272.631 49.69 272.158 49.69C271.685 49.69 271.318 49.85 271.058 50.17C270.805 50.49 270.678 50.9467 270.678 51.54C270.678 52.1333 270.805 52.5933 271.058 52.92C271.318 53.24 271.685 53.4 272.158 53.4ZM277.929 53.41C278.162 53.43 278.279 53.5367 278.279 53.73C278.279 53.8433 278.235 53.93 278.149 53.99C278.069 54.0433 277.945 54.0633 277.779 54.05L277.509 54.03C276.975 53.99 276.582 53.83 276.329 53.55C276.075 53.27 275.949 52.8467 275.949 52.28V49.77H275.279C275.165 49.77 275.075 49.7433 275.009 49.69C274.949 49.63 274.919 49.5533 274.919 49.46C274.919 49.36 274.949 49.28 275.009 49.22C275.075 49.16 275.165 49.13 275.279 49.13H275.949V48C275.949 47.8733 275.985 47.7767 276.059 47.71C276.132 47.6367 276.232 47.6 276.359 47.6C276.479 47.6 276.575 47.6367 276.649 47.71C276.722 47.7767 276.759 47.8733 276.759 48V49.13H277.869C277.975 49.13 278.059 49.16 278.119 49.22C278.185 49.28 278.219 49.36 278.219 49.46C278.219 49.5533 278.185 49.63 278.119 49.69C278.059 49.7433 277.975 49.77 277.869 49.77H276.759V52.32C276.759 52.6867 276.832 52.9533 276.979 53.12C277.132 53.28 277.359 53.37 277.659 53.39L277.929 53.41Z" fill="#C4C4C4"/>
<path d="M266.619 39.544C267.179 39.544 267.459 39.782 267.459 40.258C267.459 40.7527 267.179 41 266.619 41H261.887C261.318 41 261.033 40.7527 261.033 40.258C261.033 39.782 261.318 39.544 261.887 39.544H263.343V33.16L261.999 33.986C261.869 34.0607 261.752 34.098 261.649 34.098C261.453 34.098 261.285 34.014 261.145 33.846C261.015 33.678 260.949 33.4913 260.949 33.286C260.949 33.0153 261.071 32.8053 261.313 32.656L263.483 31.312C263.763 31.144 264.029 31.06 264.281 31.06C264.543 31.06 264.753 31.1393 264.911 31.298C265.07 31.4567 265.149 31.676 265.149 31.956V39.544H266.619ZM273.712 35.932C274.3 36.0813 274.748 36.366 275.056 36.786C275.373 37.1967 275.532 37.71 275.532 38.326C275.532 39.1753 275.219 39.852 274.594 40.356C273.969 40.86 273.124 41.112 272.06 41.112C271.453 41.112 270.87 41.0187 270.31 40.832C269.75 40.6453 269.274 40.384 268.882 40.048C268.667 39.8613 268.56 39.642 268.56 39.39C268.56 39.1847 268.616 39.012 268.728 38.872C268.849 38.7227 268.989 38.648 269.148 38.648C269.241 38.648 269.325 38.6667 269.4 38.704C269.475 38.732 269.577 38.7833 269.708 38.858C270.1 39.1193 270.473 39.32 270.828 39.46C271.183 39.6 271.57 39.67 271.99 39.67C272.606 39.67 273.063 39.5487 273.362 39.306C273.661 39.054 273.81 38.676 273.81 38.172C273.81 37.6773 273.651 37.3133 273.334 37.08C273.026 36.8373 272.545 36.716 271.892 36.716H271.094C270.879 36.716 270.711 36.646 270.59 36.506C270.478 36.3567 270.422 36.1887 270.422 36.002C270.422 35.806 270.478 35.638 270.59 35.498C270.711 35.358 270.879 35.288 271.094 35.288H271.654C272.933 35.288 273.572 34.8073 273.572 33.846C273.572 33.398 273.437 33.0527 273.166 32.81C272.895 32.5673 272.522 32.446 272.046 32.446C271.365 32.446 270.637 32.7167 269.862 33.258C269.731 33.3327 269.629 33.3887 269.554 33.426C269.479 33.454 269.395 33.468 269.302 33.468C269.143 33.468 269.003 33.398 268.882 33.258C268.77 33.1087 268.714 32.9313 268.714 32.726C268.714 32.586 268.737 32.4693 268.784 32.376C268.84 32.2733 268.924 32.1707 269.036 32.068C269.428 31.7413 269.895 31.4847 270.436 31.298C270.987 31.102 271.547 31.004 272.116 31.004C273.087 31.004 273.857 31.242 274.426 31.718C275.005 32.194 275.294 32.8287 275.294 33.622C275.285 34.1633 275.14 34.6393 274.86 35.05C274.589 35.4513 274.207 35.7453 273.712 35.932Z" fill="#C4C4C4"/>
<path d="M350.621 26.05C350.494 26.05 350.394 26.0133 350.321 25.94C350.247 25.86 350.211 25.7567 350.211 25.63V19.35C350.211 19.23 350.247 19.1333 350.321 19.06C350.401 18.9867 350.504 18.95 350.631 18.95H354.271C354.391 18.95 354.484 18.98 354.551 19.04C354.617 19.1 354.651 19.1867 354.651 19.3C354.651 19.4067 354.617 19.49 354.551 19.55C354.484 19.61 354.391 19.64 354.271 19.64H351.021V22.07H354.071C354.191 22.07 354.284 22.1 354.351 22.16C354.417 22.22 354.451 22.3067 354.451 22.42C354.451 22.5267 354.417 22.61 354.351 22.67C354.284 22.73 354.191 22.76 354.071 22.76H351.021V25.63C351.021 25.7567 350.984 25.86 350.911 25.94C350.844 26.0133 350.747 26.05 350.621 26.05ZM357.97 21.03C358.25 21.01 358.39 21.1233 358.39 21.37C358.39 21.4767 358.36 21.5633 358.3 21.63C358.24 21.69 358.136 21.7267 357.99 21.74L357.69 21.77C357.243 21.81 356.91 21.97 356.69 22.25C356.476 22.5233 356.37 22.8467 356.37 23.22V25.65C356.37 25.7833 356.333 25.8833 356.26 25.95C356.186 26.0167 356.09 26.05 355.97 26.05C355.85 26.05 355.75 26.0167 355.67 25.95C355.596 25.8767 355.56 25.7767 355.56 25.65V21.43C355.56 21.3033 355.6 21.2067 355.68 21.14C355.76 21.0667 355.856 21.03 355.97 21.03C356.076 21.03 356.166 21.0667 356.24 21.14C356.313 21.2067 356.35 21.3 356.35 21.42V21.98C356.49 21.6867 356.686 21.4633 356.94 21.31C357.2 21.1567 357.496 21.0667 357.83 21.04L357.97 21.03ZM359.495 26.05C359.375 26.05 359.275 26.0167 359.195 25.95C359.122 25.8767 359.085 25.7767 359.085 25.65V21.43C359.085 21.3033 359.122 21.2067 359.195 21.14C359.275 21.0667 359.375 21.03 359.495 21.03C359.615 21.03 359.712 21.0667 359.785 21.14C359.858 21.2067 359.895 21.3033 359.895 21.43V25.65C359.895 25.7833 359.858 25.8833 359.785 25.95C359.712 26.0167 359.615 26.05 359.495 26.05ZM359.495 19.98C359.335 19.98 359.205 19.9333 359.105 19.84C359.005 19.7467 358.955 19.6233 358.955 19.47C358.955 19.3233 359.005 19.2033 359.105 19.11C359.205 19.0167 359.335 18.97 359.495 18.97C359.655 18.97 359.785 19.0167 359.885 19.11C359.985 19.2033 360.035 19.3233 360.035 19.47C360.035 19.6233 359.985 19.7467 359.885 19.84C359.785 19.9333 359.655 19.98 359.495 19.98Z" fill="#C4C4C4"/>
<path d="M347.793 54.08C347.293 54.08 346.813 54.0067 346.353 53.86C345.9 53.7067 345.536 53.5033 345.263 53.25C345.163 53.1567 345.113 53.04 345.113 52.9C345.113 52.8067 345.14 52.7267 345.193 52.66C345.246 52.5867 345.31 52.55 345.383 52.55C345.47 52.55 345.563 52.5867 345.663 52.66C346.283 53.14 346.99 53.38 347.783 53.38C348.356 53.38 348.796 53.27 349.103 53.05C349.41 52.83 349.563 52.5167 349.563 52.11C349.563 51.8767 349.49 51.69 349.343 51.55C349.196 51.4033 349.003 51.2867 348.763 51.2C348.523 51.1133 348.2 51.0233 347.793 50.93C347.246 50.8033 346.796 50.67 346.443 50.53C346.096 50.39 345.813 50.19 345.593 49.93C345.38 49.67 345.273 49.33 345.273 48.91C345.273 48.51 345.38 48.1567 345.593 47.85C345.813 47.5367 346.116 47.2967 346.503 47.13C346.896 46.9567 347.343 46.87 347.843 46.87C348.31 46.87 348.743 46.9433 349.143 47.09C349.55 47.23 349.89 47.4333 350.163 47.7C350.27 47.8067 350.323 47.9233 350.323 48.05C350.323 48.1433 350.296 48.2267 350.243 48.3C350.19 48.3667 350.126 48.4 350.053 48.4C349.98 48.4 349.883 48.3633 349.763 48.29C349.436 48.0233 349.133 47.8367 348.853 47.73C348.573 47.6233 348.236 47.57 347.843 47.57C347.29 47.57 346.86 47.6867 346.553 47.92C346.246 48.1467 346.093 48.4667 346.093 48.88C346.093 49.2333 346.226 49.5 346.493 49.68C346.766 49.8533 347.183 50.0067 347.743 50.14C348.35 50.2867 348.826 50.4233 349.173 50.55C349.52 50.67 349.806 50.8533 350.033 51.1C350.266 51.3467 350.383 51.6767 350.383 52.09C350.383 52.4833 350.273 52.83 350.053 53.13C349.84 53.43 349.536 53.6633 349.143 53.83C348.75 53.9967 348.3 54.08 347.793 54.08ZM355.365 52.87C355.438 52.87 355.501 52.9 355.555 52.96C355.608 53.02 355.635 53.0967 355.635 53.19C355.635 53.3567 355.518 53.51 355.285 53.65C355.045 53.79 354.791 53.8967 354.525 53.97C354.258 54.0367 353.998 54.07 353.745 54.07C352.991 54.07 352.395 53.8467 351.955 53.4C351.521 52.9533 351.305 52.3367 351.305 51.55C351.305 51.05 351.401 50.61 351.595 50.23C351.788 49.8433 352.058 49.5433 352.405 49.33C352.758 49.1167 353.158 49.01 353.605 49.01C354.238 49.01 354.741 49.2167 355.115 49.63C355.488 50.0433 355.675 50.6033 355.675 51.31C355.675 51.4433 355.648 51.54 355.595 51.6C355.541 51.66 355.455 51.69 355.335 51.69H352.115C352.175 52.8367 352.718 53.41 353.745 53.41C354.005 53.41 354.228 53.3767 354.415 53.31C354.601 53.2367 354.801 53.14 355.015 53.02C355.188 52.92 355.305 52.87 355.365 52.87ZM353.615 49.64C353.188 49.64 352.845 49.7733 352.585 50.04C352.331 50.3067 352.181 50.6833 352.135 51.17H354.965C354.951 50.6767 354.828 50.3 354.595 50.04C354.361 49.7733 354.035 49.64 353.615 49.64ZM359.318 49.01C359.745 49.01 360.121 49.1167 360.448 49.33C360.775 49.5433 361.028 49.8433 361.208 50.23C361.388 50.61 361.478 51.0533 361.478 51.56C361.478 52.0667 361.388 52.51 361.208 52.89C361.028 53.2633 360.775 53.5533 360.448 53.76C360.128 53.9667 359.751 54.07 359.318 54.07C358.938 54.07 358.605 53.9867 358.318 53.82C358.038 53.6533 357.825 53.4167 357.678 53.11V55.46C357.678 55.58 357.641 55.6733 357.568 55.74C357.501 55.8133 357.405 55.85 357.278 55.85C357.151 55.85 357.051 55.8133 356.978 55.74C356.905 55.6667 356.868 55.5733 356.868 55.46V49.43C356.868 49.31 356.905 49.2133 356.978 49.14C357.051 49.0667 357.151 49.03 357.278 49.03C357.405 49.03 357.501 49.0667 357.568 49.14C357.641 49.2133 357.678 49.31 357.678 49.43V49.97C357.825 49.6633 358.038 49.4267 358.318 49.26C358.605 49.0933 358.938 49.01 359.318 49.01ZM359.158 53.4C359.631 53.4 359.998 53.24 360.258 52.92C360.518 52.6 360.648 52.1467 360.648 51.56C360.648 50.9733 360.518 50.5167 360.258 50.19C359.998 49.8567 359.631 49.69 359.158 49.69C358.685 49.69 358.318 49.85 358.058 50.17C357.805 50.49 357.678 50.9467 357.678 51.54C357.678 52.1333 357.805 52.5933 358.058 52.92C358.318 53.24 358.685 53.4 359.158 53.4ZM364.929 53.41C365.162 53.43 365.279 53.5367 365.279 53.73C365.279 53.8433 365.235 53.93 365.149 53.99C365.069 54.0433 364.945 54.0633 364.779 54.05L364.509 54.03C363.975 53.99 363.582 53.83 363.329 53.55C363.075 53.27 362.949 52.8467 362.949 52.28V49.77H362.279C362.165 49.77 362.075 49.7433 362.009 49.69C361.949 49.63 361.919 49.5533 361.919 49.46C361.919 49.36 361.949 49.28 362.009 49.22C362.075 49.16 362.165 49.13 362.279 49.13H362.949V48C362.949 47.8733 362.985 47.7767 363.059 47.71C363.132 47.6367 363.232 47.6 363.359 47.6C363.479 47.6 363.575 47.6367 363.649 47.71C363.722 47.7767 363.759 47.8733 363.759 48V49.13H364.869C364.975 49.13 365.059 49.16 365.119 49.22C365.185 49.28 365.219 49.36 365.219 49.46C365.219 49.5533 365.185 49.63 365.119 49.69C365.059 49.7433 364.975 49.77 364.869 49.77H363.759V52.32C363.759 52.6867 363.832 52.9533 363.979 53.12C364.132 53.28 364.359 53.37 364.659 53.39L364.929 53.41Z" fill="#C4C4C4"/>
<path d="M353.619 39.544C354.179 39.544 354.459 39.782 354.459 40.258C354.459 40.7527 354.179 41 353.619 41H348.887C348.318 41 348.033 40.7527 348.033 40.258C348.033 39.782 348.318 39.544 348.887 39.544H350.343V33.16L348.999 33.986C348.869 34.0607 348.752 34.098 348.649 34.098C348.453 34.098 348.285 34.014 348.145 33.846C348.015 33.678 347.949 33.4913 347.949 33.286C347.949 33.0153 348.071 32.8053 348.313 32.656L350.483 31.312C350.763 31.144 351.029 31.06 351.281 31.06C351.543 31.06 351.753 31.1393 351.911 31.298C352.07 31.4567 352.149 31.676 352.149 31.956V39.544H353.619ZM362.35 37.668C362.63 37.668 362.84 37.7287 362.98 37.85C363.12 37.9713 363.19 38.144 363.19 38.368C363.19 38.8347 362.91 39.068 362.35 39.068H361.636V40.174C361.636 40.4633 361.552 40.6873 361.384 40.846C361.225 41.0047 361.015 41.084 360.754 41.084C360.493 41.084 360.278 41.0047 360.11 40.846C359.951 40.6873 359.872 40.4633 359.872 40.174V39.068H356.204C355.952 39.068 355.756 38.998 355.616 38.858C355.476 38.7087 355.406 38.5267 355.406 38.312C355.406 38.088 355.481 37.8733 355.63 37.668L359.956 31.452C360.049 31.3213 360.166 31.2233 360.306 31.158C360.446 31.0833 360.591 31.046 360.74 31.046C360.983 31.046 361.193 31.1253 361.37 31.284C361.547 31.4427 361.636 31.6667 361.636 31.956V37.668H362.35ZM359.872 37.668V33.902L357.268 37.668H359.872Z" fill="#C4C4C4"/>
</g>
<defs>
<clipPath id="clip0">
<rect width="360" height="71" fill="white"/>
</clipPath>
</defs>
</svg>
