<svg width="64" height="61" viewBox="0 0 64 61" fill="none" xmlns="http://www.w3.org/2000/svg">
<g filter="url(#filter0_d)">
<circle cx="30.5" cy="24.5" r="24.5" fill="#47CAC2"/>
</g>
<path d="M19.8571 13.9487H21.4C21.8 15.2462 23 16.2051 24.4286 16.2051C25.8571 16.2051 27.0571 15.2462 27.4571 13.9487H42.1429C42.6 13.9487 43 13.5538 43 13.1026C43 12.6513 42.6 12.2564 42.1429 12.2564H27.4571C27.0571 10.959 25.8571 10 24.4286 10C23 10 21.8 10.959 21.4 12.2564H19.8571C19.4 12.2564 19 12.6513 19 13.1026C19 13.5538 19.4 13.9487 19.8571 13.9487ZM24.4286 11.6923C25.2286 11.6923 25.8571 12.3128 25.8571 13.1026C25.8571 13.8923 25.2286 14.5128 24.4286 14.5128C23.6286 14.5128 23 13.8923 23 13.1026C23 12.3128 23.6286 11.6923 24.4286 11.6923Z" fill="white"/>
<path d="M42.1429 20.1538H33.9143C33.4571 19.0256 32.3143 18.1794 31 18.1794C29.6857 18.1794 28.5429 19.0256 28.0857 20.1538H19.8571C19.4 20.1538 19 20.5487 19 21C19 21.4512 19.4 21.8461 19.8571 21.8461H27.9143C28.2 23.3128 29.4571 24.3846 31 24.3846C32.5429 24.3846 33.8 23.3128 34.0857 21.8461H42.1429C42.6 21.8461 43 21.4512 43 21C43 20.5487 42.6 20.1538 42.1429 20.1538ZM31 22.6923C30.2 22.6923 29.5714 22.0718 29.5714 21.282C29.5714 20.4923 30.2 19.8718 31 19.8718C31.8 19.8718 32.4286 20.4923 32.4286 21.282C32.4286 22.0718 31.8 22.6923 31 22.6923Z" fill="white"/>
<path d="M42.1429 28.0513H40.6C40.2 26.7539 39 25.7949 37.5714 25.7949C36.1429 25.7949 34.9429 26.7539 34.5429 28.0513H19.8571C19.4 28.0513 19 28.4462 19 28.8975C19 29.3488 19.4 29.7436 19.8571 29.7436H34.5429C34.9429 31.0411 36.1429 32 37.5714 32C39 32 40.2 31.0411 40.6 29.7436H42.1429C42.6 29.7436 43 29.3488 43 28.8975C43 28.4462 42.6 28.0513 42.1429 28.0513ZM37.5714 30.3077C36.7714 30.3077 36.1429 29.6872 36.1429 28.8975C36.1429 28.1077 36.7714 27.4872 37.5714 27.4872C38.3714 27.4872 39 28.1077 39 28.8975C39 29.6872 38.3714 30.3077 37.5714 30.3077Z" fill="white"/>
<path d="M22.8921 40.04C22.7695 40.04 22.6708 40.0027 22.5961 39.928C22.5215 39.848 22.4841 39.7467 22.4841 39.624V34.76C22.4841 34.6373 22.5188 34.5413 22.5881 34.472C22.6628 34.3973 22.7641 34.36 22.8921 34.36H25.7561C26.0121 34.36 26.1401 34.472 26.1401 34.696C26.1401 34.92 26.0121 35.032 25.7561 35.032H23.3001V36.8H25.5961C25.8521 36.8 25.9801 36.912 25.9801 37.136C25.9801 37.36 25.8521 37.472 25.5961 37.472H23.3001V39.624C23.3001 39.752 23.2628 39.8533 23.1881 39.928C23.1188 40.0027 23.0201 40.04 22.8921 40.04ZM27.2805 40.04C27.1632 40.04 27.0645 40.008 26.9845 39.944C26.9098 39.88 26.8725 39.784 26.8725 39.656V36.408C26.8725 36.28 26.9098 36.184 26.9845 36.12C27.0645 36.0507 27.1632 36.016 27.2805 36.016C27.3978 36.016 27.4938 36.0507 27.5685 36.12C27.6432 36.184 27.6805 36.28 27.6805 36.408V39.656C27.6805 39.784 27.6432 39.88 27.5685 39.944C27.4938 40.008 27.3978 40.04 27.2805 40.04ZM27.2805 35.232C27.1258 35.232 27.0032 35.1893 26.9125 35.104C26.8218 35.0187 26.7765 34.9067 26.7765 34.768C26.7765 34.6293 26.8218 34.52 26.9125 34.44C27.0032 34.3547 27.1258 34.312 27.2805 34.312C27.4298 34.312 27.5498 34.3547 27.6405 34.44C27.7365 34.52 27.7845 34.6293 27.7845 34.768C27.7845 34.9067 27.7392 35.0187 27.6485 35.104C27.5578 35.1893 27.4352 35.232 27.2805 35.232ZM29.218 40.04C29.1007 40.04 29.002 40.008 28.922 39.944C28.8473 39.88 28.81 39.784 28.81 39.656V34.712C28.81 34.584 28.8473 34.488 28.922 34.424C29.002 34.3547 29.1007 34.32 29.218 34.32C29.3353 34.32 29.4313 34.3547 29.506 34.424C29.5807 34.488 29.618 34.584 29.618 34.712V39.656C29.618 39.784 29.5807 39.88 29.506 39.944C29.4313 40.008 29.3353 40.04 29.218 40.04ZM32.6595 39.424C32.7768 39.4347 32.8595 39.4667 32.9075 39.52C32.9608 39.568 32.9875 39.6373 32.9875 39.728C32.9875 39.8347 32.9448 39.9173 32.8595 39.976C32.7795 40.0293 32.6595 40.0507 32.4995 40.04L32.2835 40.024C31.8515 39.992 31.5288 39.8613 31.3155 39.632C31.1022 39.3973 30.9955 39.0533 30.9955 38.6V36.72H30.5155C30.2808 36.72 30.1635 36.616 30.1635 36.408C30.1635 36.312 30.1928 36.2373 30.2515 36.184C30.3155 36.1253 30.4035 36.096 30.5155 36.096H30.9955V35.272C30.9955 35.1493 31.0302 35.0533 31.0995 34.984C31.1742 34.9147 31.2728 34.88 31.3955 34.88C31.5182 34.88 31.6168 34.9147 31.6915 34.984C31.7662 35.0533 31.8035 35.1493 31.8035 35.272V36.096H32.5955C32.7075 36.096 32.7928 36.1253 32.8515 36.184C32.9155 36.2373 32.9475 36.312 32.9475 36.408C32.9475 36.5093 32.9155 36.5867 32.8515 36.64C32.7928 36.6933 32.7075 36.72 32.5955 36.72H31.8035V38.656C31.8035 38.9067 31.8542 39.0907 31.9555 39.208C32.0622 39.3253 32.2222 39.392 32.4355 39.408L32.6595 39.424ZM36.6238 39.016C36.6985 39.016 36.7598 39.0453 36.8078 39.104C36.8558 39.1627 36.8798 39.2373 36.8798 39.328C36.8798 39.4827 36.7838 39.6133 36.5918 39.72C36.4051 39.8267 36.1998 39.9093 35.9758 39.968C35.7571 40.0267 35.5465 40.056 35.3438 40.056C34.7251 40.056 34.2371 39.8773 33.8798 39.52C33.5225 39.1573 33.3438 38.664 33.3438 38.04C33.3438 37.64 33.4211 37.2853 33.5758 36.976C33.7358 36.6667 33.9571 36.4267 34.2398 36.256C34.5278 36.0853 34.8531 36 35.2158 36C35.7385 36 36.1518 36.168 36.4558 36.504C36.7598 36.84 36.9118 37.2933 36.9118 37.864C36.9118 38.0773 36.8158 38.184 36.6238 38.184H34.1518C34.2051 39.0107 34.6025 39.424 35.3438 39.424C35.5411 39.424 35.7118 39.3973 35.8558 39.344C35.9998 39.2907 36.1518 39.2213 36.3118 39.136C36.3278 39.1253 36.3705 39.104 36.4398 39.072C36.5145 39.0347 36.5758 39.016 36.6238 39.016ZM35.2318 36.592C34.9225 36.592 34.6745 36.6907 34.4878 36.888C34.3011 37.0853 34.1891 37.3627 34.1518 37.72H36.2158C36.1998 37.3573 36.1065 37.08 35.9358 36.888C35.7705 36.6907 35.5358 36.592 35.2318 36.592ZM39.8502 36.016C40.1062 36 40.2342 36.1093 40.2342 36.344C40.2342 36.4613 40.2049 36.5493 40.1462 36.608C40.0875 36.6667 39.9862 36.7013 39.8422 36.712L39.6022 36.736C39.2662 36.768 39.0155 36.8853 38.8502 37.088C38.6902 37.2907 38.6102 37.536 38.6102 37.824V39.656C38.6102 39.784 38.5729 39.88 38.4982 39.944C38.4235 40.008 38.3275 40.04 38.2102 40.04C38.0929 40.04 37.9942 40.008 37.9142 39.944C37.8395 39.88 37.8022 39.784 37.8022 39.656V36.4C37.8022 36.2773 37.8395 36.184 37.9142 36.12C37.9942 36.0507 38.0929 36.016 38.2102 36.016C38.3169 36.016 38.4049 36.0507 38.4742 36.12C38.5489 36.184 38.5862 36.2747 38.5862 36.392V36.776C38.6929 36.5413 38.8475 36.3627 39.0502 36.24C39.2529 36.1173 39.4822 36.0453 39.7382 36.024L39.8502 36.016Z" fill="white"/>
<g filter="url(#filter1_d)">
<circle cx="46.5" cy="12.5" r="11.5" fill="#FF5A6E"/>
</g>
<path d="M49.877 14.036C50.3017 14.036 50.514 14.2137 50.514 14.569C50.514 14.9243 50.3017 15.102 49.877 15.102H49.045V16.389C49.045 16.6057 48.9843 16.7747 48.863 16.896C48.7417 17.0087 48.5813 17.065 48.382 17.065C48.1913 17.065 48.0353 17.0087 47.914 16.896C47.7927 16.7747 47.732 16.6057 47.732 16.389V15.102H44.079C43.8883 15.102 43.741 15.05 43.637 14.946C43.533 14.842 43.481 14.7077 43.481 14.543C43.481 14.3697 43.5373 14.2007 43.65 14.036L47.797 8.069C47.9357 7.86967 48.1307 7.77 48.382 7.77C48.564 7.77 48.72 7.83067 48.85 7.952C48.98 8.06467 49.045 8.22933 49.045 8.446V14.036H49.877ZM47.732 14.036V9.98L44.924 14.036H47.732Z" fill="white"/>
<defs>
<filter id="filter0_d" x="0" y="0" width="61" height="61" filterUnits="userSpaceOnUse" color-interpolation-filters="sRGB">
<feFlood flood-opacity="0" result="BackgroundImageFix"/>
<feColorMatrix in="SourceAlpha" type="matrix" values="0 0 0 0 0 0 0 0 0 0 0 0 0 0 0 0 0 0 127 0"/>
<feOffset dy="6"/>
<feGaussianBlur stdDeviation="3"/>
<feColorMatrix type="matrix" values="0 0 0 0 0 0 0 0 0 0 0 0 0 0 0 0 0 0 0.5 0"/>
<feBlend mode="normal" in2="BackgroundImageFix" result="effect1_dropShadow"/>
<feBlend mode="normal" in="SourceGraphic" in2="effect1_dropShadow" result="shape"/>
</filter>
<filter id="filter1_d" x="29" y="1" width="35" height="35" filterUnits="userSpaceOnUse" color-interpolation-filters="sRGB">
<feFlood flood-opacity="0" result="BackgroundImageFix"/>
<feColorMatrix in="SourceAlpha" type="matrix" values="0 0 0 0 0 0 0 0 0 0 0 0 0 0 0 0 0 0 127 0"/>
<feOffset dy="6"/>
<feGaussianBlur stdDeviation="3"/>
<feColorMatrix type="matrix" values="0 0 0 0 0.4 0 0 0 0 0.423529 0 0 0 0 0.462745 0 0 0 0.25 0"/>
<feBlend mode="normal" in2="BackgroundImageFix" result="effect1_dropShadow"/>
<feBlend mode="normal" in="SourceGraphic" in2="effect1_dropShadow" result="shape"/>
</filter>
</defs>
</svg>
