<svg width="52" height="29" viewBox="0 0 52 29" fill="none" xmlns="http://www.w3.org/2000/svg">
<rect x="0.5" y="0.5" width="51" height="28" rx="9.5" fill="#47CAC2" stroke="#47CAC2"/>
<path d="M14.904 19.172C15.048 19.172 15.16 19.208 15.24 19.28C15.32 19.352 15.36 19.452 15.36 19.58C15.36 19.716 15.32 19.82 15.24 19.892C15.168 19.964 15.056 20 14.904 20H10.932C10.78 20 10.664 19.964 10.584 19.892C10.512 19.82 10.476 19.716 10.476 19.58C10.476 19.452 10.516 19.352 10.596 19.28C10.676 19.208 10.788 19.172 10.932 19.172H12.42V12.74L11.112 13.592C11.048 13.632 10.984 13.652 10.92 13.652C10.808 13.652 10.708 13.6 10.62 13.496C10.54 13.392 10.5 13.28 10.5 13.16C10.5 12.992 10.564 12.872 10.692 12.8L12.516 11.612C12.652 11.524 12.792 11.48 12.936 11.48C13.072 11.48 13.184 11.524 13.272 11.612C13.36 11.7 13.404 11.824 13.404 11.984V19.172H14.904ZM19.7953 20.096C18.8273 20.096 18.0913 19.728 17.5873 18.992C17.0833 18.256 16.8313 17.184 16.8313 15.776C16.8313 14.36 17.0833 13.284 17.5873 12.548C18.0913 11.812 18.8273 11.444 19.7953 11.444C20.7633 11.444 21.4993 11.812 22.0033 12.548C22.5073 13.276 22.7593 14.348 22.7593 15.764C22.7593 17.18 22.5073 18.256 22.0033 18.992C21.4993 19.728 20.7633 20.096 19.7953 20.096ZM19.7953 19.268C20.4673 19.268 20.9633 18.984 21.2833 18.416C21.6033 17.848 21.7633 16.964 21.7633 15.764C21.7633 14.556 21.6033 13.672 21.2833 13.112C20.9713 12.552 20.4753 12.272 19.7953 12.272C19.1233 12.272 18.6273 12.556 18.3073 13.124C17.9873 13.684 17.8273 14.564 17.8273 15.764C17.8273 16.964 17.9873 17.848 18.3073 18.416C18.6273 18.984 19.1233 19.268 19.7953 19.268ZM24.6146 17.204C24.4706 17.204 24.3586 17.168 24.2786 17.096C24.2066 17.024 24.1706 16.928 24.1706 16.808C24.1706 16.688 24.2066 16.592 24.2786 16.52C24.3586 16.44 24.4706 16.4 24.6146 16.4H27.2546C27.4066 16.4 27.5186 16.44 27.5906 16.52C27.6706 16.592 27.7106 16.688 27.7106 16.808C27.7106 16.928 27.6706 17.024 27.5906 17.096C27.5186 17.168 27.4066 17.204 27.2546 17.204H24.6146ZM34.3923 19.172C34.5363 19.172 34.6483 19.208 34.7283 19.28C34.8083 19.352 34.8483 19.452 34.8483 19.58C34.8483 19.716 34.8083 19.82 34.7283 19.892C34.6563 19.964 34.5443 20 34.3923 20H30.4203C30.2683 20 30.1523 19.964 30.0723 19.892C30.0003 19.82 29.9643 19.716 29.9643 19.58C29.9643 19.452 30.0043 19.352 30.0843 19.28C30.1643 19.208 30.2763 19.172 30.4203 19.172H31.9083V12.74L30.6003 13.592C30.5363 13.632 30.4723 13.652 30.4083 13.652C30.2963 13.652 30.1963 13.6 30.1083 13.496C30.0283 13.392 29.9883 13.28 29.9883 13.16C29.9883 12.992 30.0523 12.872 30.1803 12.8L32.0043 11.612C32.1403 11.524 32.2803 11.48 32.4243 11.48C32.5603 11.48 32.6723 11.524 32.7603 11.612C32.8483 11.7 32.8923 11.824 32.8923 11.984V19.172H34.3923ZM39.6076 14.696C40.1436 14.696 40.6116 14.808 41.0116 15.032C41.4196 15.256 41.7316 15.572 41.9476 15.98C42.1716 16.38 42.2836 16.844 42.2836 17.372C42.2836 17.9 42.1636 18.372 41.9236 18.788C41.6836 19.196 41.3476 19.516 40.9156 19.748C40.4916 19.972 39.9996 20.084 39.4396 20.084C38.9436 20.084 38.4596 19.996 37.9876 19.82C37.5156 19.644 37.1156 19.404 36.7876 19.1C36.6596 18.98 36.5956 18.844 36.5956 18.692C36.5956 18.572 36.6276 18.472 36.6916 18.392C36.7556 18.312 36.8316 18.272 36.9196 18.272C37.0316 18.272 37.1436 18.316 37.2556 18.404C37.6076 18.692 37.9596 18.908 38.3116 19.052C38.6636 19.188 39.0316 19.256 39.4156 19.256C40.0076 19.256 40.4716 19.088 40.8076 18.752C41.1436 18.416 41.3116 17.96 41.3116 17.384C41.3116 16.824 41.1436 16.372 40.8076 16.028C40.4716 15.684 40.0196 15.512 39.4516 15.512C38.7236 15.512 38.1316 15.792 37.6756 16.352C37.5636 16.472 37.4276 16.532 37.2676 16.532C37.1556 16.532 37.0596 16.5 36.9796 16.436C36.9076 16.364 36.8716 16.268 36.8716 16.148V12.008C36.8716 11.872 36.9116 11.76 36.9916 11.672C37.0796 11.584 37.1996 11.54 37.3516 11.54H41.5756C41.7196 11.54 41.8316 11.576 41.9116 11.648C41.9996 11.72 42.0436 11.82 42.0436 11.948C42.0436 12.076 41.9996 12.176 41.9116 12.248C41.8316 12.32 41.7196 12.356 41.5756 12.356H37.8436V15.368C38.0676 15.152 38.3276 14.988 38.6236 14.876C38.9276 14.756 39.2556 14.696 39.6076 14.696Z" fill="white"/>
</svg>
