<svg width="52" height="29" viewBox="0 0 52 29" fill="none" xmlns="http://www.w3.org/2000/svg">
<rect x="0.5" y="0.5" width="51" height="28" rx="9.5" fill="white" stroke="#47CAC2"/>
<path d="M16.924 14.696C17.46 14.696 17.928 14.808 18.328 15.032C18.736 15.256 19.048 15.572 19.264 15.98C19.488 16.38 19.6 16.844 19.6 17.372C19.6 17.9 19.48 18.372 19.24 18.788C19 19.196 18.664 19.516 18.232 19.748C17.808 19.972 17.316 20.084 16.756 20.084C16.26 20.084 15.776 19.996 15.304 19.82C14.832 19.644 14.432 19.404 14.104 19.1C13.976 18.98 13.912 18.844 13.912 18.692C13.912 18.572 13.944 18.472 14.008 18.392C14.072 18.312 14.148 18.272 14.236 18.272C14.348 18.272 14.46 18.316 14.572 18.404C14.924 18.692 15.276 18.908 15.628 19.052C15.98 19.188 16.348 19.256 16.732 19.256C17.324 19.256 17.788 19.088 18.124 18.752C18.46 18.416 18.628 17.96 18.628 17.384C18.628 16.824 18.46 16.372 18.124 16.028C17.788 15.684 17.336 15.512 16.768 15.512C16.04 15.512 15.448 15.792 14.992 16.352C14.88 16.472 14.744 16.532 14.584 16.532C14.472 16.532 14.376 16.5 14.296 16.436C14.224 16.364 14.188 16.268 14.188 16.148V12.008C14.188 11.872 14.228 11.76 14.308 11.672C14.396 11.584 14.516 11.54 14.668 11.54H18.892C19.036 11.54 19.148 11.576 19.228 11.648C19.316 11.72 19.36 11.82 19.36 11.948C19.36 12.076 19.316 12.176 19.228 12.248C19.148 12.32 19.036 12.356 18.892 12.356H15.16V15.368C15.384 15.152 15.644 14.988 15.94 14.876C16.244 14.756 16.572 14.696 16.924 14.696ZM21.4193 17.204C21.2753 17.204 21.1633 17.168 21.0833 17.096C21.0113 17.024 20.9753 16.928 20.9753 16.808C20.9753 16.688 21.0113 16.592 21.0833 16.52C21.1633 16.44 21.2753 16.4 21.4193 16.4H24.0593C24.2113 16.4 24.3233 16.44 24.3953 16.52C24.4753 16.592 24.5153 16.688 24.5153 16.808C24.5153 16.928 24.4753 17.024 24.3953 17.096C24.3233 17.168 24.2113 17.204 24.0593 17.204H21.4193ZM31.197 19.172C31.341 19.172 31.453 19.208 31.533 19.28C31.613 19.352 31.653 19.452 31.653 19.58C31.653 19.716 31.613 19.82 31.533 19.892C31.461 19.964 31.349 20 31.197 20H27.225C27.073 20 26.957 19.964 26.877 19.892C26.805 19.82 26.769 19.716 26.769 19.58C26.769 19.452 26.809 19.352 26.889 19.28C26.969 19.208 27.081 19.172 27.225 19.172H28.713V12.74L27.405 13.592C27.341 13.632 27.277 13.652 27.213 13.652C27.101 13.652 27.001 13.6 26.913 13.496C26.833 13.392 26.793 13.28 26.793 13.16C26.793 12.992 26.857 12.872 26.985 12.8L28.809 11.612C28.945 11.524 29.085 11.48 29.229 11.48C29.365 11.48 29.477 11.524 29.565 11.612C29.653 11.7 29.697 11.824 29.697 11.984V19.172H31.197ZM36.0883 20.096C35.1203 20.096 34.3843 19.728 33.8803 18.992C33.3763 18.256 33.1243 17.184 33.1243 15.776C33.1243 14.36 33.3763 13.284 33.8803 12.548C34.3843 11.812 35.1203 11.444 36.0883 11.444C37.0563 11.444 37.7923 11.812 38.2963 12.548C38.8003 13.276 39.0523 14.348 39.0523 15.764C39.0523 17.18 38.8003 18.256 38.2963 18.992C37.7923 19.728 37.0563 20.096 36.0883 20.096ZM36.0883 19.268C36.7603 19.268 37.2563 18.984 37.5763 18.416C37.8963 17.848 38.0563 16.964 38.0563 15.764C38.0563 14.556 37.8963 13.672 37.5763 13.112C37.2643 12.552 36.7683 12.272 36.0883 12.272C35.4163 12.272 34.9203 12.556 34.6003 13.124C34.2803 13.684 34.1203 14.564 34.1203 15.764C34.1203 16.964 34.2803 17.848 34.6003 18.416C34.9203 18.984 35.4163 19.268 36.0883 19.268Z" fill="#666C76"/>
</svg>
