<svg width="368" height="56" viewBox="0 0 368 56" fill="none" xmlns="http://www.w3.org/2000/svg">
<g filter="url(#filter0_d)">
<rect x="4" width="360" height="48" fill="white"/>
</g>
<path fill-rule="evenodd" clip-rule="evenodd" d="M35 19.2218L33.6 18L28 22.8873L22.4 18L21 19.2218L26.6 24.1091L21 28.9964L22.4 30.2182L28 25.3309L33.6 30.2182L35 28.9964L29.4 24.1091L35 19.2218Z" fill="#FF5A6E"/>
<path d="M327.216 28.096C326.416 28.096 325.724 27.924 325.14 27.58C324.556 27.228 324.104 26.728 323.784 26.08C323.472 25.424 323.316 24.652 323.316 23.764C323.316 22.884 323.472 22.12 323.784 21.472C324.104 20.816 324.556 20.316 325.14 19.972C325.724 19.62 326.416 19.444 327.216 19.444C327.752 19.444 328.256 19.532 328.728 19.708C329.208 19.876 329.624 20.12 329.976 20.44C330.104 20.56 330.168 20.7 330.168 20.86C330.168 20.972 330.136 21.072 330.072 21.16C330.008 21.24 329.932 21.28 329.844 21.28C329.748 21.28 329.632 21.236 329.496 21.148C329.088 20.828 328.716 20.604 328.38 20.476C328.052 20.348 327.672 20.284 327.24 20.284C326.312 20.284 325.596 20.588 325.092 21.196C324.596 21.796 324.348 22.652 324.348 23.764C324.348 24.884 324.596 25.748 325.092 26.356C325.596 26.956 326.312 27.256 327.24 27.256C327.664 27.256 328.044 27.192 328.38 27.064C328.716 26.936 329.088 26.712 329.496 26.392C329.632 26.304 329.748 26.26 329.844 26.26C329.932 26.26 330.008 26.3 330.072 26.38C330.136 26.46 330.168 26.56 330.168 26.68C330.168 26.84 330.104 26.98 329.976 27.1C329.624 27.42 329.208 27.668 328.728 27.844C328.256 28.012 327.752 28.096 327.216 28.096ZM332.097 28.06C331.953 28.06 331.833 28.02 331.737 27.94C331.649 27.852 331.605 27.732 331.605 27.58V19.96C331.605 19.808 331.649 19.692 331.737 19.612C331.833 19.524 331.953 19.48 332.097 19.48C332.233 19.48 332.345 19.524 332.433 19.612C332.529 19.692 332.577 19.808 332.577 19.96V27.58C332.577 27.732 332.529 27.852 332.433 27.94C332.345 28.02 332.233 28.06 332.097 28.06ZM338.918 26.644C339.006 26.644 339.082 26.68 339.146 26.752C339.21 26.824 339.242 26.916 339.242 27.028C339.242 27.228 339.102 27.412 338.822 27.58C338.534 27.748 338.23 27.876 337.91 27.964C337.59 28.044 337.278 28.084 336.974 28.084C336.07 28.084 335.354 27.816 334.826 27.28C334.306 26.744 334.046 26.004 334.046 25.06C334.046 24.46 334.162 23.932 334.394 23.476C334.626 23.012 334.95 22.652 335.366 22.396C335.79 22.14 336.27 22.012 336.806 22.012C337.566 22.012 338.17 22.26 338.618 22.756C339.066 23.252 339.29 23.924 339.29 24.772C339.29 24.932 339.258 25.048 339.194 25.12C339.13 25.192 339.026 25.228 338.882 25.228H335.018C335.09 26.604 335.742 27.292 336.974 27.292C337.286 27.292 337.554 27.252 337.778 27.172C338.002 27.084 338.242 26.968 338.498 26.824C338.706 26.704 338.846 26.644 338.918 26.644ZM336.818 22.768C336.306 22.768 335.894 22.928 335.582 23.248C335.278 23.568 335.098 24.02 335.042 24.604H338.438C338.422 24.012 338.274 23.56 337.994 23.248C337.714 22.928 337.322 22.768 336.818 22.768ZM343.11 22.012C344.574 22.012 345.306 22.78 345.306 24.316V27.58C345.306 27.724 345.262 27.84 345.174 27.928C345.094 28.016 344.982 28.06 344.838 28.06C344.694 28.06 344.578 28.016 344.49 27.928C344.402 27.84 344.358 27.724 344.358 27.58V27.004C344.206 27.348 343.974 27.616 343.662 27.808C343.35 27.992 342.99 28.084 342.582 28.084C342.206 28.084 341.858 28.008 341.538 27.856C341.226 27.704 340.978 27.492 340.794 27.22C340.61 26.948 340.518 26.648 340.518 26.32C340.518 25.88 340.63 25.54 340.854 25.3C341.078 25.052 341.446 24.876 341.958 24.772C342.47 24.66 343.182 24.604 344.094 24.604H344.358V24.208C344.358 23.728 344.258 23.376 344.058 23.152C343.866 22.928 343.55 22.816 343.11 22.816C342.566 22.816 342.014 22.964 341.454 23.26C341.238 23.396 341.086 23.464 340.998 23.464C340.902 23.464 340.822 23.428 340.758 23.356C340.694 23.284 340.662 23.192 340.662 23.08C340.662 22.968 340.694 22.872 340.758 22.792C340.83 22.704 340.942 22.616 341.094 22.528C341.374 22.368 341.69 22.244 342.042 22.156C342.402 22.06 342.758 22.012 343.11 22.012ZM342.714 27.316C343.194 27.316 343.586 27.156 343.89 26.836C344.202 26.508 344.358 26.088 344.358 25.576V25.228H344.142C343.438 25.228 342.902 25.26 342.534 25.324C342.166 25.38 341.902 25.48 341.742 25.624C341.59 25.76 341.514 25.964 341.514 26.236C341.514 26.548 341.626 26.808 341.85 27.016C342.082 27.216 342.37 27.316 342.714 27.316ZM349.978 22.036C350.314 22.012 350.482 22.148 350.482 22.444C350.482 22.572 350.446 22.676 350.374 22.756C350.302 22.828 350.178 22.872 350.002 22.888L349.642 22.924C349.106 22.972 348.706 23.164 348.442 23.5C348.186 23.828 348.058 24.216 348.058 24.664V27.58C348.058 27.74 348.014 27.86 347.926 27.94C347.838 28.02 347.722 28.06 347.578 28.06C347.434 28.06 347.314 28.02 347.218 27.94C347.13 27.852 347.086 27.732 347.086 27.58V22.516C347.086 22.364 347.134 22.248 347.23 22.168C347.326 22.08 347.442 22.036 347.578 22.036C347.706 22.036 347.814 22.08 347.902 22.168C347.99 22.248 348.034 22.36 348.034 22.504V23.176C348.202 22.824 348.438 22.556 348.742 22.372C349.054 22.188 349.41 22.08 349.81 22.048L349.978 22.036Z" fill="#666C76"/>
<path d="M131.834 32.096C131.524 32.096 131.274 32 131.082 31.808C130.9 31.616 130.81 31.3653 130.81 31.056V21.696C130.81 21.3867 130.895 21.1467 131.066 20.976C131.247 20.8053 131.492 20.72 131.802 20.72H137.418C138.068 20.72 138.394 20.9973 138.394 21.552C138.394 22.096 138.068 22.368 137.418 22.368H132.842V25.44H137.098C137.748 25.44 138.074 25.7173 138.074 26.272C138.074 26.816 137.748 27.088 137.098 27.088H132.842V31.056C132.842 31.3653 132.751 31.616 132.57 31.808C132.388 32 132.143 32.096 131.834 32.096ZM140.688 32.096C140.4 32.096 140.16 32.016 139.968 31.856C139.787 31.6853 139.696 31.4453 139.696 31.136V24.96C139.696 24.6507 139.787 24.416 139.968 24.256C140.16 24.096 140.4 24.016 140.688 24.016C140.976 24.016 141.216 24.096 141.408 24.256C141.6 24.416 141.696 24.6507 141.696 24.96V31.136C141.696 31.4453 141.6 31.6853 141.408 31.856C141.216 32.016 140.976 32.096 140.688 32.096ZM140.688 22.592C140.326 22.592 140.038 22.496 139.824 22.304C139.611 22.1013 139.504 21.84 139.504 21.52C139.504 21.2 139.611 20.944 139.824 20.752C140.038 20.56 140.326 20.464 140.688 20.464C141.04 20.464 141.323 20.56 141.536 20.752C141.76 20.944 141.872 21.2 141.872 21.52C141.872 21.84 141.766 22.1013 141.552 22.304C141.339 22.496 141.051 22.592 140.688 22.592ZM144.751 32.096C144.463 32.096 144.223 32.016 144.031 31.856C143.849 31.6853 143.759 31.4453 143.759 31.136V21.584C143.759 21.2747 143.849 21.04 144.031 20.88C144.223 20.72 144.463 20.64 144.751 20.64C145.039 20.64 145.279 20.72 145.471 20.88C145.663 21.04 145.759 21.2747 145.759 21.584V31.136C145.759 31.4453 145.663 31.6853 145.471 31.856C145.279 32.016 145.039 32.096 144.751 32.096ZM151.885 30.608C152.419 30.64 152.685 30.88 152.685 31.328C152.685 31.584 152.579 31.7813 152.365 31.92C152.163 32.048 151.869 32.1013 151.485 32.08L151.053 32.048C149.261 31.92 148.365 30.96 148.365 29.168V25.68H147.565C147.277 25.68 147.053 25.616 146.893 25.488C146.744 25.36 146.669 25.1733 146.669 24.928C146.669 24.6827 146.744 24.496 146.893 24.368C147.053 24.24 147.277 24.176 147.565 24.176H148.365V22.704C148.365 22.416 148.456 22.1867 148.637 22.016C148.819 21.8453 149.064 21.76 149.373 21.76C149.672 21.76 149.912 21.8453 150.093 22.016C150.275 22.1867 150.365 22.416 150.365 22.704V24.176H151.725C152.013 24.176 152.232 24.24 152.381 24.368C152.541 24.496 152.621 24.6827 152.621 24.928C152.621 25.1733 152.541 25.36 152.381 25.488C152.232 25.616 152.013 25.68 151.725 25.68H150.365V29.312C150.365 30.1013 150.728 30.5227 151.453 30.576L151.885 30.608ZM159.92 29.856C160.101 29.856 160.245 29.9253 160.352 30.064C160.469 30.2027 160.528 30.3893 160.528 30.624C160.528 30.9547 160.33 31.232 159.936 31.456C159.573 31.6587 159.162 31.824 158.704 31.952C158.245 32.0693 157.808 32.128 157.391 32.128C156.133 32.128 155.136 31.7653 154.4 31.04C153.664 30.3147 153.296 29.3227 153.296 28.064C153.296 27.264 153.456 26.5547 153.776 25.936C154.096 25.3173 154.544 24.8373 155.12 24.496C155.706 24.1547 156.368 23.984 157.104 23.984C157.808 23.984 158.421 24.1387 158.944 24.448C159.466 24.7573 159.872 25.1947 160.16 25.76C160.448 26.3253 160.592 26.992 160.592 27.76C160.592 28.2187 160.389 28.448 159.984 28.448H155.264C155.328 29.184 155.536 29.728 155.888 30.08C156.24 30.4213 156.752 30.592 157.424 30.592C157.765 30.592 158.064 30.5493 158.32 30.464C158.586 30.3787 158.885 30.2613 159.216 30.112C159.536 29.9413 159.77 29.856 159.92 29.856ZM157.152 25.392C156.608 25.392 156.17 25.5627 155.84 25.904C155.52 26.2453 155.328 26.736 155.264 27.376H158.88C158.858 26.7253 158.698 26.2347 158.4 25.904C158.101 25.5627 157.685 25.392 157.152 25.392ZM166.596 24.016C166.873 23.9947 167.092 24.0533 167.252 24.192C167.412 24.3307 167.492 24.5387 167.492 24.816C167.492 25.104 167.422 25.3173 167.284 25.456C167.145 25.5947 166.894 25.6853 166.532 25.728L166.052 25.776C165.422 25.84 164.958 26.0533 164.66 26.416C164.372 26.7787 164.228 27.232 164.228 27.776V31.136C164.228 31.4453 164.132 31.6853 163.94 31.856C163.748 32.016 163.508 32.096 163.22 32.096C162.932 32.096 162.692 32.016 162.5 31.856C162.318 31.6853 162.228 31.4453 162.228 31.136V24.944C162.228 24.6453 162.318 24.416 162.5 24.256C162.692 24.096 162.926 24.016 163.204 24.016C163.481 24.016 163.705 24.096 163.876 24.256C164.046 24.4053 164.132 24.624 164.132 24.912V25.552C164.334 25.0827 164.633 24.72 165.028 24.464C165.433 24.208 165.881 24.064 166.372 24.032L166.596 24.016ZM176.776 32.144C175.955 32.144 175.176 32.0373 174.44 31.824C173.715 31.6 173.123 31.3013 172.664 30.928C172.419 30.7467 172.296 30.4907 172.296 30.16C172.296 29.936 172.36 29.744 172.488 29.584C172.627 29.4133 172.787 29.328 172.968 29.328C173.16 29.328 173.379 29.4027 173.624 29.552C174.083 29.8827 174.563 30.1227 175.064 30.272C175.566 30.4213 176.12 30.496 176.728 30.496C177.507 30.496 178.104 30.3627 178.52 30.096C178.936 29.8187 179.144 29.4187 179.144 28.896C179.144 28.4907 178.947 28.1813 178.552 27.968C178.168 27.744 177.523 27.5307 176.616 27.328C175.678 27.1253 174.915 26.8907 174.328 26.624C173.742 26.3573 173.299 26.016 173 25.6C172.702 25.184 172.552 24.656 172.552 24.016C172.552 23.3547 172.739 22.7627 173.112 22.24C173.486 21.7173 174.003 21.312 174.664 21.024C175.336 20.7253 176.088 20.576 176.92 20.576C178.446 20.576 179.688 20.9813 180.648 21.792C180.787 21.9093 180.883 22.0267 180.936 22.144C181 22.2507 181.032 22.3893 181.032 22.56C181.032 22.784 180.963 22.9813 180.824 23.152C180.696 23.312 180.542 23.392 180.36 23.392C180.254 23.392 180.152 23.376 180.056 23.344C179.971 23.312 179.854 23.2533 179.704 23.168C179.267 22.848 178.84 22.6133 178.424 22.464C178.019 22.304 177.518 22.224 176.92 22.224C176.195 22.224 175.619 22.3733 175.192 22.672C174.776 22.96 174.568 23.3653 174.568 23.888C174.568 24.3253 174.755 24.6613 175.128 24.896C175.502 25.1307 176.136 25.3493 177.032 25.552C177.982 25.7653 178.75 26.0053 179.336 26.272C179.934 26.528 180.387 26.8587 180.696 27.264C181.016 27.6693 181.176 28.176 181.176 28.784C181.176 29.4453 180.99 30.032 180.616 30.544C180.254 31.0453 179.736 31.44 179.064 31.728C178.403 32.0053 177.64 32.144 176.776 32.144ZM189.091 29.856C189.273 29.856 189.417 29.9253 189.523 30.064C189.641 30.2027 189.699 30.3893 189.699 30.624C189.699 30.9547 189.502 31.232 189.107 31.456C188.745 31.6587 188.334 31.824 187.875 31.952C187.417 32.0693 186.979 32.128 186.563 32.128C185.305 32.128 184.307 31.7653 183.571 31.04C182.835 30.3147 182.467 29.3227 182.467 28.064C182.467 27.264 182.627 26.5547 182.947 25.936C183.267 25.3173 183.715 24.8373 184.291 24.496C184.878 24.1547 185.539 23.984 186.275 23.984C186.979 23.984 187.593 24.1387 188.115 24.448C188.638 24.7573 189.043 25.1947 189.331 25.76C189.619 26.3253 189.763 26.992 189.763 27.76C189.763 28.2187 189.561 28.448 189.155 28.448H184.435C184.499 29.184 184.707 29.728 185.059 30.08C185.411 30.4213 185.923 30.592 186.595 30.592C186.937 30.592 187.235 30.5493 187.491 30.464C187.758 30.3787 188.057 30.2613 188.387 30.112C188.707 29.9413 188.942 29.856 189.091 29.856ZM186.323 25.392C185.779 25.392 185.342 25.5627 185.011 25.904C184.691 26.2453 184.499 26.736 184.435 27.376H188.051C188.03 26.7253 187.87 26.2347 187.571 25.904C187.273 25.5627 186.857 25.392 186.323 25.392ZM194.791 23.984C195.879 23.984 196.685 24.256 197.207 24.8C197.741 25.3333 198.007 26.1493 198.007 27.248V31.152C198.007 31.44 197.922 31.6693 197.751 31.84C197.581 32 197.346 32.08 197.047 32.08C196.77 32.08 196.541 31.9947 196.359 31.824C196.189 31.6533 196.103 31.4293 196.103 31.152V30.8C195.922 31.216 195.634 31.5413 195.239 31.776C194.855 32.0107 194.407 32.128 193.895 32.128C193.373 32.128 192.898 32.0213 192.471 31.808C192.045 31.5947 191.709 31.3013 191.463 30.928C191.218 30.5547 191.095 30.1387 191.095 29.68C191.095 29.104 191.239 28.6507 191.527 28.32C191.826 27.9893 192.306 27.7493 192.967 27.6C193.629 27.4507 194.541 27.376 195.703 27.376H196.103V27.008C196.103 26.4853 195.991 26.1067 195.767 25.872C195.543 25.6267 195.181 25.504 194.679 25.504C194.37 25.504 194.055 25.552 193.735 25.648C193.415 25.7333 193.037 25.8613 192.599 26.032C192.322 26.1707 192.119 26.24 191.991 26.24C191.799 26.24 191.639 26.1707 191.511 26.032C191.394 25.8933 191.335 25.712 191.335 25.488C191.335 25.3067 191.378 25.152 191.463 25.024C191.559 24.8853 191.714 24.7573 191.927 24.64C192.301 24.4373 192.743 24.2773 193.255 24.16C193.778 24.0427 194.29 23.984 194.791 23.984ZM194.295 30.688C194.829 30.688 195.261 30.512 195.591 30.16C195.933 29.7973 196.103 29.3333 196.103 28.768V28.432H195.815C195.101 28.432 194.546 28.464 194.151 28.528C193.757 28.592 193.474 28.704 193.303 28.864C193.133 29.024 193.047 29.2427 193.047 29.52C193.047 29.8613 193.165 30.144 193.399 30.368C193.645 30.5813 193.943 30.688 194.295 30.688ZM204.408 24.016C204.685 23.9947 204.904 24.0533 205.064 24.192C205.224 24.3307 205.304 24.5387 205.304 24.816C205.304 25.104 205.235 25.3173 205.096 25.456C204.957 25.5947 204.707 25.6853 204.344 25.728L203.864 25.776C203.235 25.84 202.771 26.0533 202.472 26.416C202.184 26.7787 202.04 27.232 202.04 27.776V31.136C202.04 31.4453 201.944 31.6853 201.752 31.856C201.56 32.016 201.32 32.096 201.032 32.096C200.744 32.096 200.504 32.016 200.312 31.856C200.131 31.6853 200.04 31.4453 200.04 31.136V24.944C200.04 24.6453 200.131 24.416 200.312 24.256C200.504 24.096 200.739 24.016 201.016 24.016C201.293 24.016 201.517 24.096 201.688 24.256C201.859 24.4053 201.944 24.624 201.944 24.912V25.552C202.147 25.0827 202.445 24.72 202.84 24.464C203.245 24.208 203.693 24.064 204.184 24.032L204.408 24.016ZM209.481 32.128C208.702 32.128 208.014 31.9627 207.417 31.632C206.83 31.3013 206.377 30.832 206.057 30.224C205.737 29.616 205.577 28.9067 205.577 28.096C205.577 27.2853 205.742 26.5707 206.073 25.952C206.414 25.3227 206.889 24.8373 207.497 24.496C208.105 24.1547 208.803 23.984 209.593 23.984C210.009 23.984 210.425 24.0427 210.841 24.16C211.267 24.2773 211.641 24.4373 211.961 24.64C212.302 24.864 212.473 25.1467 212.473 25.488C212.473 25.7227 212.414 25.9147 212.297 26.064C212.19 26.2027 212.046 26.272 211.865 26.272C211.747 26.272 211.625 26.2453 211.497 26.192C211.369 26.1387 211.241 26.0747 211.113 26C210.878 25.8613 210.654 25.7547 210.441 25.68C210.227 25.5947 209.982 25.552 209.705 25.552C209.043 25.552 208.531 25.7707 208.169 26.208C207.817 26.6347 207.641 27.2533 207.641 28.064C207.641 28.864 207.817 29.4827 208.169 29.92C208.531 30.3467 209.043 30.56 209.705 30.56C209.971 30.56 210.206 30.5227 210.409 30.448C210.622 30.3627 210.857 30.2507 211.113 30.112C211.273 30.016 211.411 29.9467 211.529 29.904C211.646 29.8507 211.763 29.824 211.881 29.824C212.051 29.824 212.195 29.8987 212.313 30.048C212.43 30.1973 212.489 30.384 212.489 30.608C212.489 30.7893 212.446 30.9493 212.361 31.088C212.286 31.216 212.158 31.3333 211.977 31.44C211.646 31.6533 211.262 31.824 210.825 31.952C210.387 32.0693 209.939 32.128 209.481 32.128ZM218.397 23.984C220.232 23.984 221.149 25.056 221.149 27.2V31.136C221.149 31.4347 221.059 31.6693 220.877 31.84C220.707 32.0107 220.467 32.096 220.157 32.096C219.848 32.096 219.603 32.0107 219.421 31.84C219.24 31.6693 219.149 31.4347 219.149 31.136V27.2C219.149 26.6347 219.032 26.224 218.797 25.968C218.573 25.7013 218.216 25.568 217.725 25.568C217.149 25.568 216.685 25.7493 216.333 26.112C215.992 26.4747 215.821 26.96 215.821 27.568V31.136C215.821 31.4347 215.731 31.6693 215.549 31.84C215.368 32.0107 215.123 32.096 214.813 32.096C214.504 32.096 214.259 32.0107 214.077 31.84C213.907 31.6693 213.821 31.4347 213.821 31.136V21.568C213.821 21.2907 213.912 21.0667 214.093 20.896C214.285 20.7253 214.531 20.64 214.829 20.64C215.128 20.64 215.368 20.72 215.549 20.88C215.731 21.04 215.821 21.2587 215.821 21.536V25.264C216.088 24.848 216.44 24.5333 216.877 24.32C217.325 24.096 217.832 23.984 218.397 23.984ZM229.373 29.856C229.554 29.856 229.698 29.9253 229.805 30.064C229.922 30.2027 229.981 30.3893 229.981 30.624C229.981 30.9547 229.783 31.232 229.389 31.456C229.026 31.6587 228.615 31.824 228.157 31.952C227.698 32.0693 227.261 32.128 226.845 32.128C225.586 32.128 224.589 31.7653 223.853 31.04C223.117 30.3147 222.749 29.3227 222.749 28.064C222.749 27.264 222.909 26.5547 223.229 25.936C223.549 25.3173 223.997 24.8373 224.573 24.496C225.159 24.1547 225.821 23.984 226.557 23.984C227.261 23.984 227.874 24.1387 228.397 24.448C228.919 24.7573 229.325 25.1947 229.613 25.76C229.901 26.3253 230.045 26.992 230.045 27.76C230.045 28.2187 229.842 28.448 229.437 28.448H224.717C224.781 29.184 224.989 29.728 225.341 30.08C225.693 30.4213 226.205 30.592 226.877 30.592C227.218 30.592 227.517 30.5493 227.773 30.464C228.039 30.3787 228.338 30.2613 228.669 30.112C228.989 29.9413 229.223 29.856 229.373 29.856ZM226.605 25.392C226.061 25.392 225.623 25.5627 225.293 25.904C224.973 26.2453 224.781 26.736 224.717 27.376H228.333C228.311 26.7253 228.151 26.2347 227.853 25.904C227.554 25.5627 227.138 25.392 226.605 25.392ZM234.513 32.128C233.35 32.128 232.411 31.8987 231.697 31.44C231.355 31.2373 231.185 30.9493 231.185 30.576C231.185 30.3627 231.243 30.192 231.361 30.064C231.478 29.9253 231.622 29.856 231.793 29.856C231.974 29.856 232.225 29.9413 232.545 30.112C232.886 30.272 233.195 30.3947 233.473 30.48C233.761 30.5653 234.123 30.608 234.561 30.608C235.009 30.608 235.355 30.5333 235.601 30.384C235.857 30.2347 235.985 30.0267 235.985 29.76C235.985 29.5787 235.931 29.4347 235.825 29.328C235.729 29.2213 235.547 29.1253 235.281 29.04C235.025 28.944 234.63 28.8373 234.097 28.72C233.147 28.528 232.465 28.256 232.049 27.904C231.643 27.552 231.441 27.0667 231.441 26.448C231.441 25.9787 231.579 25.5573 231.857 25.184C232.134 24.8 232.513 24.5067 232.993 24.304C233.483 24.0907 234.038 23.984 234.657 23.984C235.105 23.984 235.537 24.0427 235.953 24.16C236.369 24.2667 236.742 24.4267 237.073 24.64C237.414 24.8533 237.585 25.136 237.585 25.488C237.585 25.7013 237.526 25.8827 237.409 26.032C237.291 26.1707 237.147 26.24 236.977 26.24C236.859 26.24 236.742 26.2187 236.625 26.176C236.518 26.1227 236.379 26.048 236.209 25.952C235.899 25.792 235.633 25.6747 235.409 25.6C235.185 25.5147 234.907 25.472 234.577 25.472C234.182 25.472 233.867 25.552 233.633 25.712C233.409 25.872 233.297 26.0907 233.297 26.368C233.297 26.6347 233.414 26.8373 233.649 26.976C233.883 27.1147 234.337 27.2533 235.009 27.392C235.723 27.5413 236.283 27.712 236.689 27.904C237.094 28.096 237.382 28.336 237.553 28.624C237.734 28.912 237.825 29.28 237.825 29.728C237.825 30.4533 237.521 31.0347 236.913 31.472C236.315 31.9093 235.515 32.128 234.513 32.128Z" fill="#666C76"/>
<defs>
<filter id="filter0_d" x="0" y="0" width="368" height="56" filterUnits="userSpaceOnUse" color-interpolation-filters="sRGB">
<feFlood flood-opacity="0" result="BackgroundImageFix"/>
<feColorMatrix in="SourceAlpha" type="matrix" values="0 0 0 0 0 0 0 0 0 0 0 0 0 0 0 0 0 0 127 0"/>
<feOffset dy="4"/>
<feGaussianBlur stdDeviation="2"/>
<feColorMatrix type="matrix" values="0 0 0 0 0 0 0 0 0 0 0 0 0 0 0 0 0 0 0.1 0"/>
<feBlend mode="normal" in2="BackgroundImageFix" result="effect1_dropShadow"/>
<feBlend mode="normal" in="SourceGraphic" in2="effect1_dropShadow" result="shape"/>
</filter>
</defs>
</svg>
