<svg width="360" height="54" viewBox="0 0 360 54" fill="none" xmlns="http://www.w3.org/2000/svg">
<rect width="360" height="55" fill="#47CAC2"/>
<path d="M150.648 26.756C151.264 26.756 151.805 26.8867 152.272 27.148C152.748 27.4093 153.117 27.778 153.378 28.254C153.639 28.73 153.77 29.276 153.77 29.892C153.77 30.5173 153.625 31.0727 153.336 31.558C153.047 32.0433 152.641 32.4213 152.118 32.692C151.605 32.9627 151.012 33.098 150.34 33.098C149.761 33.098 149.192 33 148.632 32.804C148.081 32.608 147.619 32.3373 147.246 31.992C147.059 31.8333 146.966 31.6467 146.966 31.432C146.966 31.264 147.013 31.124 147.106 31.012C147.199 30.8907 147.311 30.83 147.442 30.83C147.526 30.83 147.601 30.844 147.666 30.872C147.741 30.9 147.825 30.9467 147.918 31.012C148.301 31.3107 148.683 31.5393 149.066 31.698C149.458 31.8473 149.869 31.922 150.298 31.922C150.951 31.922 151.46 31.7493 151.824 31.404C152.188 31.0493 152.37 30.5547 152.37 29.92C152.37 29.3133 152.183 28.828 151.81 28.464C151.446 28.1 150.956 27.918 150.34 27.918C149.939 27.918 149.579 27.988 149.262 28.128C148.945 28.2587 148.646 28.4687 148.366 28.758C148.226 28.8887 148.058 28.954 147.862 28.954C147.703 28.954 147.568 28.9073 147.456 28.814C147.353 28.7113 147.302 28.5807 147.302 28.422V23.816C147.302 23.6013 147.358 23.4333 147.47 23.312C147.591 23.1907 147.764 23.13 147.988 23.13H152.804C153.019 23.13 153.187 23.1813 153.308 23.284C153.429 23.3867 153.49 23.5267 153.49 23.704C153.49 23.8907 153.429 24.0353 153.308 24.138C153.187 24.2407 153.019 24.292 152.804 24.292H148.73V27.4C149.243 26.9707 149.883 26.756 150.648 26.756ZM166.906 26C168.437 26 169.202 26.9193 169.202 28.758V32.398C169.202 32.6127 169.137 32.7807 169.006 32.902C168.875 33.014 168.703 33.07 168.488 33.07C168.283 33.07 168.115 33.014 167.984 32.902C167.853 32.7807 167.788 32.6127 167.788 32.398V28.772C167.788 28.2027 167.685 27.792 167.48 27.54C167.275 27.2787 166.953 27.148 166.514 27.148C166.001 27.148 165.595 27.3253 165.296 27.68C164.997 28.0253 164.848 28.5013 164.848 29.108V32.398C164.848 32.6127 164.783 32.7807 164.652 32.902C164.521 33.014 164.349 33.07 164.134 33.07C163.929 33.07 163.761 33.014 163.63 32.902C163.499 32.7807 163.434 32.6127 163.434 32.398V28.772C163.434 28.2027 163.331 27.792 163.126 27.54C162.921 27.2787 162.599 27.148 162.16 27.148C161.647 27.148 161.236 27.3253 160.928 27.68C160.629 28.0253 160.48 28.5013 160.48 29.108V32.398C160.48 32.6127 160.415 32.7807 160.284 32.902C160.153 33.014 159.985 33.07 159.78 33.07C159.575 33.07 159.402 33.014 159.262 32.902C159.131 32.7807 159.066 32.6127 159.066 32.398V26.7C159.066 26.4947 159.136 26.3313 159.276 26.21C159.416 26.0887 159.584 26.028 159.78 26.028C159.976 26.028 160.135 26.0887 160.256 26.21C160.387 26.322 160.452 26.4807 160.452 26.686V27.204C160.657 26.812 160.942 26.5133 161.306 26.308C161.67 26.1027 162.09 26 162.566 26C163.089 26 163.518 26.1073 163.854 26.322C164.199 26.5367 164.456 26.868 164.624 27.316C164.829 26.9147 165.133 26.5973 165.534 26.364C165.935 26.1213 166.393 26 166.906 26ZM174.008 26C174.914 26 175.586 26.2287 176.024 26.686C176.472 27.1433 176.696 27.8387 176.696 28.772V32.398C176.696 32.6127 176.636 32.7807 176.514 32.902C176.393 33.014 176.225 33.07 176.01 33.07C175.805 33.07 175.642 33.0093 175.52 32.888C175.399 32.7667 175.338 32.6033 175.338 32.398V31.88C175.161 32.272 174.895 32.5753 174.54 32.79C174.195 32.9953 173.789 33.098 173.322 33.098C172.874 33.098 172.464 33.0093 172.09 32.832C171.717 32.6453 171.423 32.3887 171.208 32.062C171.003 31.7353 170.9 31.3713 170.9 30.97C170.9 30.4753 171.026 30.088 171.278 29.808C171.54 29.5187 171.964 29.3133 172.552 29.192C173.15 29.0707 173.966 29.01 175.002 29.01H175.324V28.604C175.324 28.0813 175.217 27.7033 175.002 27.47C174.788 27.2367 174.442 27.12 173.966 27.12C173.64 27.12 173.332 27.162 173.042 27.246C172.753 27.33 172.436 27.4513 172.09 27.61C171.838 27.75 171.661 27.82 171.558 27.82C171.418 27.82 171.302 27.7687 171.208 27.666C171.124 27.5633 171.082 27.4327 171.082 27.274C171.082 27.134 171.12 27.0127 171.194 26.91C171.278 26.798 171.409 26.6907 171.586 26.588C171.913 26.4107 172.296 26.2707 172.734 26.168C173.173 26.056 173.598 26 174.008 26ZM173.574 32.048C174.088 32.048 174.508 31.8753 174.834 31.53C175.161 31.1753 175.324 30.7227 175.324 30.172V29.808H175.072C174.344 29.808 173.784 29.8407 173.392 29.906C173 29.9713 172.72 30.0833 172.552 30.242C172.384 30.3913 172.3 30.6107 172.3 30.9C172.3 31.236 172.422 31.5113 172.664 31.726C172.907 31.9407 173.21 32.048 173.574 32.048ZM181.976 31.992C182.182 32.0107 182.326 32.0667 182.41 32.16C182.504 32.244 182.55 32.3653 182.55 32.524C182.55 32.7107 182.476 32.8553 182.326 32.958C182.186 33.0513 181.976 33.0887 181.696 33.07L181.318 33.042C180.562 32.986 179.998 32.7573 179.624 32.356C179.251 31.9453 179.064 31.3433 179.064 30.55V27.26H178.224C177.814 27.26 177.608 27.078 177.608 26.714C177.608 26.546 177.66 26.4153 177.762 26.322C177.874 26.2193 178.028 26.168 178.224 26.168H179.064V24.726C179.064 24.5113 179.125 24.3433 179.246 24.222C179.377 24.1007 179.55 24.04 179.764 24.04C179.979 24.04 180.152 24.1007 180.282 24.222C180.413 24.3433 180.478 24.5113 180.478 24.726V26.168H181.864C182.06 26.168 182.21 26.2193 182.312 26.322C182.424 26.4153 182.48 26.546 182.48 26.714C182.48 26.8913 182.424 27.0267 182.312 27.12C182.21 27.2133 182.06 27.26 181.864 27.26H180.478V30.648C180.478 31.0867 180.567 31.4087 180.744 31.614C180.931 31.8193 181.211 31.936 181.584 31.964L181.976 31.992ZM186.492 33.098C185.829 33.098 185.246 32.9533 184.742 32.664C184.247 32.3747 183.86 31.964 183.58 31.432C183.309 30.9 183.174 30.284 183.174 29.584C183.174 28.8747 183.314 28.2493 183.594 27.708C183.883 27.1667 184.285 26.7467 184.798 26.448C185.311 26.1493 185.899 26 186.562 26C186.917 26 187.271 26.0513 187.626 26.154C187.99 26.2567 188.312 26.3967 188.592 26.574C188.891 26.7793 189.04 27.0173 189.04 27.288C189.04 27.4467 188.998 27.582 188.914 27.694C188.83 27.7967 188.723 27.848 188.592 27.848C188.508 27.848 188.424 27.8293 188.34 27.792C188.256 27.7453 188.149 27.68 188.018 27.596C187.785 27.4467 187.565 27.3347 187.36 27.26C187.164 27.176 186.926 27.134 186.646 27.134C186.011 27.134 185.517 27.3487 185.162 27.778C184.817 28.2073 184.644 28.8047 184.644 29.57C184.644 30.3353 184.817 30.928 185.162 31.348C185.507 31.7587 185.997 31.964 186.632 31.964C186.912 31.964 187.159 31.922 187.374 31.838C187.589 31.754 187.808 31.642 188.032 31.502C188.135 31.4367 188.237 31.3807 188.34 31.334C188.443 31.2873 188.536 31.264 188.62 31.264C188.751 31.264 188.858 31.32 188.942 31.432C189.026 31.5347 189.068 31.6653 189.068 31.824C189.068 31.9547 189.031 32.076 188.956 32.188C188.891 32.2907 188.774 32.398 188.606 32.51C188.326 32.6967 187.999 32.8413 187.626 32.944C187.253 33.0467 186.875 33.098 186.492 33.098ZM194.03 26C195.654 26 196.466 26.9193 196.466 28.758V32.398C196.466 32.6033 196.4 32.7667 196.27 32.888C196.139 33.0093 195.966 33.07 195.752 33.07C195.537 33.07 195.364 33.0093 195.234 32.888C195.112 32.7667 195.052 32.6033 195.052 32.398V28.772C195.052 28.212 194.935 27.8013 194.702 27.54C194.478 27.2787 194.123 27.148 193.638 27.148C193.068 27.148 192.611 27.3253 192.266 27.68C191.92 28.0347 191.748 28.5107 191.748 29.108V32.398C191.748 32.6033 191.682 32.7667 191.552 32.888C191.43 33.0093 191.262 33.07 191.048 33.07C190.833 33.07 190.66 33.0093 190.53 32.888C190.399 32.7667 190.334 32.6033 190.334 32.398V23.732C190.334 23.5267 190.399 23.3633 190.53 23.242C190.67 23.1207 190.847 23.06 191.062 23.06C191.267 23.06 191.43 23.1207 191.552 23.242C191.682 23.354 191.748 23.508 191.748 23.704V27.204C191.981 26.812 192.294 26.5133 192.686 26.308C193.078 26.1027 193.526 26 194.03 26ZM203.748 31.278C203.879 31.278 203.986 31.3293 204.07 31.432C204.154 31.5347 204.196 31.6653 204.196 31.824C204.196 32.0947 204.028 32.3233 203.692 32.51C203.365 32.6967 203.006 32.8413 202.614 32.944C202.231 33.0467 201.863 33.098 201.508 33.098C200.425 33.098 199.571 32.7853 198.946 32.16C198.321 31.5253 198.008 30.662 198.008 29.57C198.008 28.87 198.143 28.2493 198.414 27.708C198.694 27.1667 199.081 26.7467 199.576 26.448C200.08 26.1493 200.649 26 201.284 26C202.199 26 202.922 26.294 203.454 26.882C203.986 27.47 204.252 28.2633 204.252 29.262C204.252 29.6353 204.084 29.822 203.748 29.822H199.422C199.515 31.2687 200.211 31.992 201.508 31.992C201.853 31.992 202.152 31.9453 202.404 31.852C202.656 31.7587 202.922 31.6373 203.202 31.488C203.23 31.4693 203.305 31.432 203.426 31.376C203.557 31.3107 203.664 31.278 203.748 31.278ZM201.312 27.036C200.771 27.036 200.337 27.2087 200.01 27.554C199.683 27.8993 199.487 28.3847 199.422 29.01H203.034C203.006 28.3753 202.843 27.89 202.544 27.554C202.255 27.2087 201.844 27.036 201.312 27.036ZM208.19 33.098C207.238 33.098 206.459 32.902 205.852 32.51C205.684 32.4073 205.563 32.3 205.488 32.188C205.423 32.076 205.39 31.95 205.39 31.81C205.39 31.6607 205.432 31.5347 205.516 31.432C205.6 31.3293 205.707 31.278 205.838 31.278C205.959 31.278 206.151 31.3527 206.412 31.502C206.692 31.6513 206.963 31.7727 207.224 31.866C207.495 31.9593 207.831 32.006 208.232 32.006C208.68 32.006 209.03 31.9267 209.282 31.768C209.534 31.6093 209.66 31.3853 209.66 31.096C209.66 30.9093 209.609 30.76 209.506 30.648C209.413 30.536 209.245 30.438 209.002 30.354C208.759 30.2607 208.4 30.1627 207.924 30.06C207.103 29.8827 206.51 29.6447 206.146 29.346C205.791 29.038 205.614 28.6227 205.614 28.1C205.614 27.6987 205.731 27.3393 205.964 27.022C206.197 26.6953 206.519 26.4433 206.93 26.266C207.341 26.0887 207.807 26 208.33 26C208.703 26 209.067 26.0513 209.422 26.154C209.777 26.2473 210.089 26.3873 210.36 26.574C210.668 26.7793 210.822 27.0173 210.822 27.288C210.822 27.4373 210.775 27.5633 210.682 27.666C210.598 27.7687 210.495 27.82 210.374 27.82C210.29 27.82 210.206 27.8013 210.122 27.764C210.038 27.7267 209.926 27.666 209.786 27.582C209.534 27.4327 209.296 27.316 209.072 27.232C208.857 27.148 208.587 27.106 208.26 27.106C207.868 27.106 207.551 27.19 207.308 27.358C207.075 27.526 206.958 27.7547 206.958 28.044C206.958 28.3053 207.065 28.5107 207.28 28.66C207.504 28.8 207.919 28.9353 208.526 29.066C209.151 29.1967 209.641 29.346 209.996 29.514C210.351 29.682 210.603 29.892 210.752 30.144C210.911 30.3867 210.99 30.6993 210.99 31.082C210.99 31.6887 210.733 32.1787 210.22 32.552C209.716 32.916 209.039 33.098 208.19 33.098Z" fill="white"/>
</svg>
