<svg width="368" height="56" viewBox="0 0 368 56" fill="none" xmlns="http://www.w3.org/2000/svg">
<g filter="url(#filter0_d)">
<rect x="4" width="360" height="48" fill="white"/>
</g>
<path d="M342.5 12C337.789 12 334 15.634 334 20.05C334 24.328 341.771 34.356 342.111 34.816C342.209 34.954 342.354 35 342.5 35C342.646 35 342.791 34.908 342.889 34.816C343.229 34.402 351 24.374 351 20.05C351 15.634 347.211 12 342.5 12ZM342.5 23.96C340.217 23.96 338.371 22.212 338.371 20.05C338.371 17.888 340.217 16.14 342.5 16.14C344.783 16.14 346.629 17.888 346.629 20.05C346.629 22.212 344.783 23.96 342.5 23.96Z" fill="#FF5A6E"/>
<path d="M158.567 32C158.258 32 158.013 31.9147 157.831 31.744C157.661 31.5733 157.575 31.3333 157.575 31.024V21.696C157.575 21.3867 157.661 21.1467 157.831 20.976C158.013 20.8053 158.258 20.72 158.567 20.72H164.343C164.653 20.72 164.893 20.7893 165.063 20.928C165.234 21.0667 165.319 21.264 165.319 21.52C165.319 21.7867 165.234 21.9947 165.063 22.144C164.893 22.2827 164.653 22.352 164.343 22.352H159.591V25.456H164.023C164.333 25.456 164.573 25.5253 164.743 25.664C164.914 25.8027 164.999 26.0053 164.999 26.272C164.999 26.528 164.914 26.7253 164.743 26.864C164.573 27.0027 164.333 27.072 164.023 27.072H159.591V30.368H164.343C164.653 30.368 164.893 30.4427 165.063 30.592C165.234 30.7307 165.319 30.9333 165.319 31.2C165.319 31.456 165.234 31.6533 165.063 31.792C164.893 31.9307 164.653 32 164.343 32H158.567ZM173.605 30.528C173.797 30.72 173.893 30.9387 173.893 31.184C173.893 31.4187 173.803 31.632 173.621 31.824C173.44 32.0053 173.227 32.096 172.981 32.096C172.715 32.096 172.485 31.984 172.293 31.76L170.037 29.264L167.781 31.76C167.579 31.9733 167.349 32.08 167.093 32.08C166.859 32.08 166.651 31.9893 166.469 31.808C166.288 31.6267 166.197 31.4187 166.197 31.184C166.197 30.9387 166.293 30.72 166.485 30.528L168.821 27.984L166.613 25.584C166.421 25.392 166.325 25.1733 166.325 24.928C166.325 24.6827 166.416 24.4747 166.597 24.304C166.779 24.1227 166.987 24.032 167.221 24.032C167.477 24.032 167.707 24.1387 167.909 24.352L170.037 26.688L172.165 24.352C172.368 24.1387 172.597 24.032 172.853 24.032C173.099 24.032 173.307 24.1227 173.477 24.304C173.659 24.4747 173.749 24.6827 173.749 24.928C173.749 25.1733 173.653 25.392 173.461 25.584L171.253 27.984L173.605 30.528ZM179.833 23.984C180.505 23.984 181.102 24.1547 181.625 24.496C182.158 24.8373 182.569 25.3227 182.857 25.952C183.156 26.5707 183.305 27.2853 183.305 28.096C183.305 28.9067 183.156 29.616 182.857 30.224C182.569 30.832 182.164 31.3013 181.641 31.632C181.118 31.9627 180.516 32.128 179.833 32.128C179.278 32.128 178.782 32.0107 178.345 31.776C177.908 31.5413 177.572 31.216 177.337 30.8V34.064C177.337 34.3413 177.246 34.56 177.065 34.72C176.884 34.88 176.644 34.96 176.345 34.96C176.046 34.96 175.801 34.8747 175.609 34.704C175.428 34.5333 175.337 34.3093 175.337 34.032V24.96C175.337 24.672 175.422 24.4427 175.593 24.272C175.774 24.1013 176.014 24.016 176.313 24.016C176.612 24.016 176.852 24.1013 177.033 24.272C177.214 24.4427 177.305 24.672 177.305 24.96V25.36C177.54 24.9227 177.876 24.5867 178.313 24.352C178.761 24.1067 179.268 23.984 179.833 23.984ZM179.305 30.576C179.934 30.576 180.425 30.3627 180.777 29.936C181.129 29.4987 181.305 28.8853 181.305 28.096C181.305 27.2853 181.129 26.656 180.777 26.208C180.425 25.76 179.934 25.536 179.305 25.536C178.665 25.536 178.169 25.7547 177.817 26.192C177.476 26.6293 177.305 27.2533 177.305 28.064C177.305 28.864 177.476 29.4827 177.817 29.92C178.169 30.3573 178.665 30.576 179.305 30.576ZM185.938 32.096C185.65 32.096 185.41 32.016 185.218 31.856C185.037 31.6853 184.946 31.4453 184.946 31.136V21.584C184.946 21.2747 185.037 21.04 185.218 20.88C185.41 20.72 185.65 20.64 185.938 20.64C186.226 20.64 186.466 20.72 186.658 20.88C186.85 21.04 186.946 21.2747 186.946 21.584V31.136C186.946 31.4453 186.85 31.6853 186.658 31.856C186.466 32.016 186.226 32.096 185.938 32.096ZM192.577 32.128C191.777 32.128 191.073 31.9627 190.465 31.632C189.867 31.3013 189.403 30.8267 189.073 30.208C188.742 29.5893 188.577 28.8693 188.577 28.048C188.577 27.2267 188.742 26.512 189.073 25.904C189.403 25.2853 189.867 24.8107 190.465 24.48C191.073 24.1493 191.777 23.984 192.577 23.984C193.377 23.984 194.075 24.1493 194.673 24.48C195.281 24.8107 195.745 25.2853 196.065 25.904C196.395 26.512 196.561 27.2267 196.561 28.048C196.561 28.8693 196.395 29.5893 196.065 30.208C195.745 30.8267 195.281 31.3013 194.673 31.632C194.075 31.9627 193.377 32.128 192.577 32.128ZM192.561 30.576C193.211 30.576 193.707 30.3627 194.049 29.936C194.39 29.5093 194.561 28.88 194.561 28.048C194.561 27.2267 194.39 26.6027 194.049 26.176C193.707 25.7387 193.217 25.52 192.577 25.52C191.937 25.52 191.441 25.7387 191.089 26.176C190.747 26.6027 190.577 27.2267 190.577 28.048C190.577 28.88 190.747 29.5093 191.089 29.936C191.43 30.3627 191.921 30.576 192.561 30.576ZM202.58 24.016C202.857 23.9947 203.076 24.0533 203.236 24.192C203.396 24.3307 203.476 24.5387 203.476 24.816C203.476 25.104 203.407 25.3173 203.268 25.456C203.129 25.5947 202.879 25.6853 202.516 25.728L202.036 25.776C201.407 25.84 200.943 26.0533 200.644 26.416C200.356 26.7787 200.212 27.232 200.212 27.776V31.136C200.212 31.4453 200.116 31.6853 199.924 31.856C199.732 32.016 199.492 32.096 199.204 32.096C198.916 32.096 198.676 32.016 198.484 31.856C198.303 31.6853 198.212 31.4453 198.212 31.136V24.944C198.212 24.6453 198.303 24.416 198.484 24.256C198.676 24.096 198.911 24.016 199.188 24.016C199.465 24.016 199.689 24.096 199.86 24.256C200.031 24.4053 200.116 24.624 200.116 24.912V25.552C200.319 25.0827 200.617 24.72 201.012 24.464C201.417 24.208 201.865 24.064 202.356 24.032L202.58 24.016ZM210.373 29.856C210.554 29.856 210.698 29.9253 210.805 30.064C210.922 30.2027 210.981 30.3893 210.981 30.624C210.981 30.9547 210.783 31.232 210.389 31.456C210.026 31.6587 209.615 31.824 209.157 31.952C208.698 32.0693 208.261 32.128 207.845 32.128C206.586 32.128 205.589 31.7653 204.853 31.04C204.117 30.3147 203.749 29.3227 203.749 28.064C203.749 27.264 203.909 26.5547 204.229 25.936C204.549 25.3173 204.997 24.8373 205.573 24.496C206.159 24.1547 206.821 23.984 207.557 23.984C208.261 23.984 208.874 24.1387 209.397 24.448C209.919 24.7573 210.325 25.1947 210.613 25.76C210.901 26.3253 211.045 26.992 211.045 27.76C211.045 28.2187 210.842 28.448 210.437 28.448H205.717C205.781 29.184 205.989 29.728 206.341 30.08C206.693 30.4213 207.205 30.592 207.877 30.592C208.218 30.592 208.517 30.5493 208.773 30.464C209.039 30.3787 209.338 30.2613 209.669 30.112C209.989 29.9413 210.223 29.856 210.373 29.856ZM207.605 25.392C207.061 25.392 206.623 25.5627 206.293 25.904C205.973 26.2453 205.781 26.736 205.717 27.376H209.333C209.311 26.7253 209.151 26.2347 208.853 25.904C208.554 25.5627 208.138 25.392 207.605 25.392Z" fill="#666C76"/>
<defs>
<filter id="filter0_d" x="0" y="0" width="368" height="56" filterUnits="userSpaceOnUse" color-interpolation-filters="sRGB">
<feFlood flood-opacity="0" result="BackgroundImageFix"/>
<feColorMatrix in="SourceAlpha" type="matrix" values="0 0 0 0 0 0 0 0 0 0 0 0 0 0 0 0 0 0 127 0"/>
<feOffset dy="4"/>
<feGaussianBlur stdDeviation="2"/>
<feColorMatrix type="matrix" values="0 0 0 0 0.400265 0 0 0 0 0.42157 0 0 0 0 0.464179 0 0 0 0.25 0"/>
<feBlend mode="normal" in2="BackgroundImageFix" result="effect1_dropShadow"/>
<feBlend mode="normal" in="SourceGraphic" in2="effect1_dropShadow" result="shape"/>
</filter>
</defs>
</svg>
