<svg width="368" height="56" viewBox="0 0 368 56" fill="none" xmlns="http://www.w3.org/2000/svg">
<g filter="url(#filter0_d)">
<rect x="4" width="360" height="48" fill="white"/>
</g>
<path d="M131.013 20.64C131.312 20.64 131.552 20.736 131.733 20.928C131.915 21.1093 132.005 21.3547 132.005 21.664V31.136C132.005 31.4347 131.92 31.6693 131.749 31.84C131.579 32.0107 131.355 32.096 131.077 32.096C130.8 32.096 130.581 32.0107 130.421 31.84C130.261 31.6693 130.181 31.4347 130.181 31.136V24.544L127.461 29.696C127.333 29.9307 127.195 30.1067 127.045 30.224C126.896 30.3307 126.72 30.384 126.517 30.384C126.315 30.384 126.139 30.3307 125.989 30.224C125.84 30.1173 125.701 29.9413 125.573 29.696L122.837 24.624V31.136C122.837 31.424 122.752 31.6587 122.581 31.84C122.421 32.0107 122.203 32.096 121.925 32.096C121.648 32.096 121.429 32.0107 121.269 31.84C121.109 31.6693 121.029 31.4347 121.029 31.136V21.664C121.029 21.3547 121.115 21.1093 121.285 20.928C121.467 20.736 121.707 20.64 122.005 20.64C122.421 20.64 122.747 20.8693 122.981 21.328L126.533 28.096L130.069 21.328C130.304 20.8693 130.619 20.64 131.013 20.64ZM137.666 23.984C138.754 23.984 139.56 24.256 140.082 24.8C140.616 25.3333 140.882 26.1493 140.882 27.248V31.152C140.882 31.44 140.797 31.6693 140.626 31.84C140.456 32 140.221 32.08 139.922 32.08C139.645 32.08 139.416 31.9947 139.234 31.824C139.064 31.6533 138.978 31.4293 138.978 31.152V30.8C138.797 31.216 138.509 31.5413 138.114 31.776C137.73 32.0107 137.282 32.128 136.77 32.128C136.248 32.128 135.773 32.0213 135.346 31.808C134.92 31.5947 134.584 31.3013 134.338 30.928C134.093 30.5547 133.97 30.1387 133.97 29.68C133.97 29.104 134.114 28.6507 134.402 28.32C134.701 27.9893 135.181 27.7493 135.842 27.6C136.504 27.4507 137.416 27.376 138.578 27.376H138.978V27.008C138.978 26.4853 138.866 26.1067 138.642 25.872C138.418 25.6267 138.056 25.504 137.554 25.504C137.245 25.504 136.93 25.552 136.61 25.648C136.29 25.7333 135.912 25.8613 135.474 26.032C135.197 26.1707 134.994 26.24 134.866 26.24C134.674 26.24 134.514 26.1707 134.386 26.032C134.269 25.8933 134.21 25.712 134.21 25.488C134.21 25.3067 134.253 25.152 134.338 25.024C134.434 24.8853 134.589 24.7573 134.802 24.64C135.176 24.4373 135.618 24.2773 136.13 24.16C136.653 24.0427 137.165 23.984 137.666 23.984ZM137.17 30.688C137.704 30.688 138.136 30.512 138.466 30.16C138.808 29.7973 138.978 29.3333 138.978 28.768V28.432H138.69C137.976 28.432 137.421 28.464 137.026 28.528C136.632 28.592 136.349 28.704 136.178 28.864C136.008 29.024 135.922 29.2427 135.922 29.52C135.922 29.8613 136.04 30.144 136.274 30.368C136.52 30.5813 136.818 30.688 137.17 30.688ZM147.411 23.984C148.083 23.984 148.68 24.1547 149.203 24.496C149.736 24.8373 150.147 25.3227 150.435 25.952C150.734 26.5707 150.883 27.2853 150.883 28.096C150.883 28.9067 150.734 29.616 150.435 30.224C150.147 30.832 149.742 31.3013 149.219 31.632C148.696 31.9627 148.094 32.128 147.411 32.128C146.856 32.128 146.36 32.0107 145.923 31.776C145.486 31.5413 145.15 31.216 144.915 30.8V34.064C144.915 34.3413 144.824 34.56 144.643 34.72C144.462 34.88 144.222 34.96 143.923 34.96C143.624 34.96 143.379 34.8747 143.187 34.704C143.006 34.5333 142.915 34.3093 142.915 34.032V24.96C142.915 24.672 143 24.4427 143.171 24.272C143.352 24.1013 143.592 24.016 143.891 24.016C144.19 24.016 144.43 24.1013 144.611 24.272C144.792 24.4427 144.883 24.672 144.883 24.96V25.36C145.118 24.9227 145.454 24.5867 145.891 24.352C146.339 24.1067 146.846 23.984 147.411 23.984ZM146.883 30.576C147.512 30.576 148.003 30.3627 148.355 29.936C148.707 29.4987 148.883 28.8853 148.883 28.096C148.883 27.2853 148.707 26.656 148.355 26.208C148.003 25.76 147.512 25.536 146.883 25.536C146.243 25.536 145.747 25.7547 145.395 26.192C145.054 26.6293 144.883 27.2533 144.883 28.064C144.883 28.864 145.054 29.4827 145.395 29.92C145.747 30.3573 146.243 30.576 146.883 30.576ZM165.252 21.168C165.423 20.8053 165.705 20.624 166.1 20.624C166.367 20.624 166.607 20.7093 166.82 20.88C167.033 21.0507 167.14 21.264 167.14 21.52C167.14 21.6373 167.108 21.7707 167.044 21.92L162.612 31.456C162.516 31.6587 162.367 31.8187 162.164 31.936C161.972 32.0427 161.764 32.096 161.54 32.096C161.316 32.096 161.103 32.0427 160.9 31.936C160.708 31.8187 160.564 31.6587 160.468 31.456L156.052 21.92C155.988 21.7707 155.956 21.6427 155.956 21.536C155.956 21.2693 156.063 21.0507 156.276 20.88C156.5 20.7093 156.751 20.624 157.028 20.624C157.209 20.624 157.375 20.672 157.524 20.768C157.684 20.8533 157.807 20.9867 157.892 21.168L161.572 29.344L165.252 21.168ZM169.282 32.096C168.994 32.096 168.754 32.016 168.562 31.856C168.381 31.6853 168.29 31.4453 168.29 31.136V24.96C168.29 24.6507 168.381 24.416 168.562 24.256C168.754 24.096 168.994 24.016 169.282 24.016C169.57 24.016 169.81 24.096 170.002 24.256C170.194 24.416 170.29 24.6507 170.29 24.96V31.136C170.29 31.4453 170.194 31.6853 170.002 31.856C169.81 32.016 169.57 32.096 169.282 32.096ZM169.282 22.592C168.919 22.592 168.631 22.496 168.418 22.304C168.205 22.1013 168.098 21.84 168.098 21.52C168.098 21.2 168.205 20.944 168.418 20.752C168.631 20.56 168.919 20.464 169.282 20.464C169.634 20.464 169.917 20.56 170.13 20.752C170.354 20.944 170.466 21.2 170.466 21.52C170.466 21.84 170.359 22.1013 170.146 22.304C169.933 22.496 169.645 22.592 169.282 22.592ZM178.545 29.856C178.726 29.856 178.87 29.9253 178.977 30.064C179.094 30.2027 179.153 30.3893 179.153 30.624C179.153 30.9547 178.955 31.232 178.561 31.456C178.198 31.6587 177.787 31.824 177.329 31.952C176.87 32.0693 176.433 32.128 176.016 32.128C174.758 32.128 173.761 31.7653 173.025 31.04C172.289 30.3147 171.921 29.3227 171.921 28.064C171.921 27.264 172.081 26.5547 172.401 25.936C172.721 25.3173 173.169 24.8373 173.745 24.496C174.331 24.1547 174.993 23.984 175.729 23.984C176.433 23.984 177.046 24.1387 177.569 24.448C178.091 24.7573 178.497 25.1947 178.785 25.76C179.073 26.3253 179.217 26.992 179.217 27.76C179.217 28.2187 179.014 28.448 178.609 28.448H173.889C173.953 29.184 174.161 29.728 174.513 30.08C174.865 30.4213 175.377 30.592 176.049 30.592C176.39 30.592 176.689 30.5493 176.945 30.464C177.211 30.3787 177.51 30.2613 177.841 30.112C178.161 29.9413 178.395 29.856 178.545 29.856ZM175.777 25.392C175.233 25.392 174.795 25.5627 174.465 25.904C174.145 26.2453 173.953 26.736 173.889 27.376H177.505C177.483 26.7253 177.323 26.2347 177.025 25.904C176.726 25.5627 176.31 25.392 175.777 25.392ZM191.304 24.608C191.378 24.416 191.485 24.272 191.624 24.176C191.773 24.08 191.933 24.032 192.104 24.032C192.349 24.032 192.568 24.1173 192.76 24.288C192.962 24.448 193.064 24.6507 193.064 24.896C193.064 25.0347 193.037 25.1573 192.984 25.264L190.344 31.456C190.258 31.6587 190.125 31.8133 189.944 31.92C189.773 32.0267 189.581 32.08 189.368 32.08C189.165 32.08 188.973 32.0267 188.792 31.92C188.621 31.8133 188.493 31.6587 188.408 31.456L186.504 26.88L184.664 31.456C184.578 31.6587 184.445 31.8133 184.264 31.92C184.093 32.0267 183.901 32.08 183.688 32.08C183.485 32.08 183.293 32.0267 183.112 31.92C182.93 31.8133 182.797 31.6587 182.712 31.456L180.088 25.264C180.034 25.1253 180.008 25.008 180.008 24.912C180.008 24.6667 180.114 24.4587 180.328 24.288C180.541 24.1067 180.776 24.016 181.032 24.016C181.213 24.016 181.378 24.064 181.528 24.16C181.677 24.256 181.789 24.4 181.864 24.592L183.752 29.472L185.688 24.64C185.773 24.4373 185.896 24.288 186.056 24.192C186.216 24.0853 186.392 24.032 186.584 24.032C186.776 24.032 186.952 24.0853 187.112 24.192C187.272 24.288 187.394 24.4373 187.48 24.64L189.432 29.488L191.304 24.608ZM202.854 32.144C202.033 32.144 201.254 32.0373 200.518 31.824C199.793 31.6 199.201 31.3013 198.742 30.928C198.497 30.7467 198.374 30.4907 198.374 30.16C198.374 29.936 198.438 29.744 198.566 29.584C198.705 29.4133 198.865 29.328 199.046 29.328C199.238 29.328 199.457 29.4027 199.702 29.552C200.161 29.8827 200.641 30.1227 201.142 30.272C201.644 30.4213 202.198 30.496 202.806 30.496C203.585 30.496 204.182 30.3627 204.598 30.096C205.014 29.8187 205.222 29.4187 205.222 28.896C205.222 28.4907 205.025 28.1813 204.63 27.968C204.246 27.744 203.601 27.5307 202.694 27.328C201.756 27.1253 200.993 26.8907 200.406 26.624C199.82 26.3573 199.377 26.016 199.078 25.6C198.78 25.184 198.63 24.656 198.63 24.016C198.63 23.3547 198.817 22.7627 199.19 22.24C199.564 21.7173 200.081 21.312 200.742 21.024C201.414 20.7253 202.166 20.576 202.998 20.576C204.524 20.576 205.766 20.9813 206.726 21.792C206.865 21.9093 206.961 22.0267 207.014 22.144C207.078 22.2507 207.11 22.3893 207.11 22.56C207.11 22.784 207.041 22.9813 206.902 23.152C206.774 23.312 206.62 23.392 206.438 23.392C206.332 23.392 206.23 23.376 206.134 23.344C206.049 23.312 205.932 23.2533 205.782 23.168C205.345 22.848 204.918 22.6133 204.502 22.464C204.097 22.304 203.596 22.224 202.998 22.224C202.273 22.224 201.697 22.3733 201.27 22.672C200.854 22.96 200.646 23.3653 200.646 23.888C200.646 24.3253 200.833 24.6613 201.206 24.896C201.58 25.1307 202.214 25.3493 203.11 25.552C204.06 25.7653 204.828 26.0053 205.414 26.272C206.012 26.528 206.465 26.8587 206.774 27.264C207.094 27.6693 207.254 28.176 207.254 28.784C207.254 29.4453 207.068 30.032 206.694 30.544C206.332 31.0453 205.814 31.44 205.142 31.728C204.481 32.0053 203.718 32.144 202.854 32.144ZM215.17 29.856C215.351 29.856 215.495 29.9253 215.602 30.064C215.719 30.2027 215.778 30.3893 215.778 30.624C215.778 30.9547 215.58 31.232 215.186 31.456C214.823 31.6587 214.412 31.824 213.954 31.952C213.495 32.0693 213.058 32.128 212.641 32.128C211.383 32.128 210.386 31.7653 209.65 31.04C208.914 30.3147 208.546 29.3227 208.546 28.064C208.546 27.264 208.706 26.5547 209.026 25.936C209.346 25.3173 209.794 24.8373 210.37 24.496C210.956 24.1547 211.618 23.984 212.354 23.984C213.058 23.984 213.671 24.1387 214.194 24.448C214.716 24.7573 215.122 25.1947 215.41 25.76C215.698 26.3253 215.842 26.992 215.842 27.76C215.842 28.2187 215.639 28.448 215.234 28.448H210.514C210.578 29.184 210.786 29.728 211.138 30.08C211.49 30.4213 212.002 30.592 212.674 30.592C213.015 30.592 213.314 30.5493 213.57 30.464C213.836 30.3787 214.135 30.2613 214.466 30.112C214.786 29.9413 215.02 29.856 215.17 29.856ZM212.402 25.392C211.858 25.392 211.42 25.5627 211.09 25.904C210.77 26.2453 210.578 26.736 210.514 27.376H214.13C214.108 26.7253 213.948 26.2347 213.65 25.904C213.351 25.5627 212.935 25.392 212.402 25.392ZM220.87 23.984C221.958 23.984 222.763 24.256 223.286 24.8C223.819 25.3333 224.086 26.1493 224.086 27.248V31.152C224.086 31.44 224 31.6693 223.83 31.84C223.659 32 223.424 32.08 223.126 32.08C222.848 32.08 222.619 31.9947 222.438 31.824C222.267 31.6533 222.182 31.4293 222.182 31.152V30.8C222 31.216 221.712 31.5413 221.318 31.776C220.934 32.0107 220.486 32.128 219.974 32.128C219.451 32.128 218.976 32.0213 218.549 31.808C218.123 31.5947 217.787 31.3013 217.542 30.928C217.296 30.5547 217.174 30.1387 217.174 29.68C217.174 29.104 217.318 28.6507 217.606 28.32C217.904 27.9893 218.384 27.7493 219.046 27.6C219.707 27.4507 220.619 27.376 221.782 27.376H222.182V27.008C222.182 26.4853 222.07 26.1067 221.846 25.872C221.622 25.6267 221.259 25.504 220.758 25.504C220.448 25.504 220.134 25.552 219.814 25.648C219.494 25.7333 219.115 25.8613 218.678 26.032C218.4 26.1707 218.198 26.24 218.07 26.24C217.878 26.24 217.718 26.1707 217.59 26.032C217.472 25.8933 217.414 25.712 217.414 25.488C217.414 25.3067 217.456 25.152 217.542 25.024C217.638 24.8853 217.792 24.7573 218.006 24.64C218.379 24.4373 218.822 24.2773 219.334 24.16C219.856 24.0427 220.368 23.984 220.87 23.984ZM220.374 30.688C220.907 30.688 221.339 30.512 221.67 30.16C222.011 29.7973 222.182 29.3333 222.182 28.768V28.432H221.894C221.179 28.432 220.624 28.464 220.23 28.528C219.835 28.592 219.552 28.704 219.382 28.864C219.211 29.024 219.126 29.2427 219.126 29.52C219.126 29.8613 219.243 30.144 219.478 30.368C219.723 30.5813 220.022 30.688 220.374 30.688ZM230.486 24.016C230.763 23.9947 230.982 24.0533 231.142 24.192C231.302 24.3307 231.382 24.5387 231.382 24.816C231.382 25.104 231.313 25.3173 231.174 25.456C231.035 25.5947 230.785 25.6853 230.422 25.728L229.942 25.776C229.313 25.84 228.849 26.0533 228.55 26.416C228.262 26.7787 228.118 27.232 228.118 27.776V31.136C228.118 31.4453 228.022 31.6853 227.83 31.856C227.638 32.016 227.398 32.096 227.11 32.096C226.822 32.096 226.582 32.016 226.39 31.856C226.209 31.6853 226.118 31.4453 226.118 31.136V24.944C226.118 24.6453 226.209 24.416 226.39 24.256C226.582 24.096 226.817 24.016 227.094 24.016C227.371 24.016 227.595 24.096 227.766 24.256C227.937 24.4053 228.022 24.624 228.022 24.912V25.552C228.225 25.0827 228.523 24.72 228.918 24.464C229.323 24.208 229.771 24.064 230.262 24.032L230.486 24.016ZM235.559 32.128C234.78 32.128 234.092 31.9627 233.495 31.632C232.908 31.3013 232.455 30.832 232.135 30.224C231.815 29.616 231.655 28.9067 231.655 28.096C231.655 27.2853 231.82 26.5707 232.151 25.952C232.492 25.3227 232.967 24.8373 233.575 24.496C234.183 24.1547 234.882 23.984 235.671 23.984C236.087 23.984 236.503 24.0427 236.919 24.16C237.346 24.2773 237.719 24.4373 238.039 24.64C238.38 24.864 238.551 25.1467 238.551 25.488C238.551 25.7227 238.492 25.9147 238.375 26.064C238.268 26.2027 238.124 26.272 237.943 26.272C237.826 26.272 237.703 26.2453 237.575 26.192C237.447 26.1387 237.319 26.0747 237.191 26C236.956 25.8613 236.732 25.7547 236.519 25.68C236.306 25.5947 236.06 25.552 235.783 25.552C235.122 25.552 234.61 25.7707 234.247 26.208C233.895 26.6347 233.719 27.2533 233.719 28.064C233.719 28.864 233.895 29.4827 234.247 29.92C234.61 30.3467 235.122 30.56 235.783 30.56C236.05 30.56 236.284 30.5227 236.487 30.448C236.7 30.3627 236.935 30.2507 237.191 30.112C237.351 30.016 237.49 29.9467 237.607 29.904C237.724 29.8507 237.842 29.824 237.959 29.824C238.13 29.824 238.274 29.8987 238.391 30.048C238.508 30.1973 238.567 30.384 238.567 30.608C238.567 30.7893 238.524 30.9493 238.439 31.088C238.364 31.216 238.236 31.3333 238.055 31.44C237.724 31.6533 237.34 31.824 236.903 31.952C236.466 32.0693 236.018 32.128 235.559 32.128ZM244.475 23.984C246.31 23.984 247.227 25.056 247.227 27.2V31.136C247.227 31.4347 247.137 31.6693 246.955 31.84C246.785 32.0107 246.545 32.096 246.235 32.096C245.926 32.096 245.681 32.0107 245.499 31.84C245.318 31.6693 245.227 31.4347 245.227 31.136V27.2C245.227 26.6347 245.11 26.224 244.875 25.968C244.651 25.7013 244.294 25.568 243.803 25.568C243.227 25.568 242.763 25.7493 242.411 26.112C242.07 26.4747 241.899 26.96 241.899 27.568V31.136C241.899 31.4347 241.809 31.6693 241.627 31.84C241.446 32.0107 241.201 32.096 240.891 32.096C240.582 32.096 240.337 32.0107 240.155 31.84C239.985 31.6693 239.899 31.4347 239.899 31.136V21.568C239.899 21.2907 239.99 21.0667 240.171 20.896C240.363 20.7253 240.609 20.64 240.907 20.64C241.206 20.64 241.446 20.72 241.627 20.88C241.809 21.04 241.899 21.2587 241.899 21.536V25.264C242.166 24.848 242.518 24.5333 242.955 24.32C243.403 24.096 243.91 23.984 244.475 23.984Z" fill="#666C76"/>
<path fill-rule="evenodd" clip-rule="evenodd" d="M34 23H21.8L27.4 17.4L26 16L18 24L26 32L27.4 30.6L21.8 25H34V23Z" fill="#FF5A6E"/>
<path d="M333.99 16C332.884 16 332 16.8184 332 17.8414C332 18.8644 332.884 19.6828 333.99 19.6828C335.095 19.6828 335.979 18.8644 335.979 17.8414C335.979 16.8184 335.073 16 333.99 16Z" fill="#FF5A6E"/>
<path d="M339.759 19.3964H351.32C352.248 19.3964 353 18.7008 353 17.8414C353 16.9821 352.248 16.2865 351.32 16.2865H339.759C338.83 16.2865 338.079 16.9821 338.079 17.8414C338.101 18.7008 338.853 19.3964 339.759 19.3964Z" fill="#FF5A6E"/>
<path d="M333.989 22.1584C332.884 22.1584 332 22.9768 332 23.9998C332 25.0228 332.884 25.8412 333.989 25.8412C335.095 25.8412 335.979 25.0228 335.979 23.9998C335.979 22.9768 335.073 22.1584 333.989 22.1584Z" fill="#FF5A6E"/>
<path d="M351.32 22.4448H339.759C338.83 22.4448 338.079 23.1405 338.079 23.9998C338.079 24.8591 338.83 25.5548 339.759 25.5548H351.32C352.248 25.5548 353 24.8591 353 23.9998C353 23.1405 352.248 22.4448 351.32 22.4448Z" fill="#FF5A6E"/>
<path d="M333.989 32C335.088 32 335.979 31.1756 335.979 30.1586C335.979 29.1416 335.088 28.3172 333.989 28.3172C332.891 28.3172 332 29.1416 332 30.1586C332 31.1756 332.891 32 333.989 32Z" fill="#FF5A6E"/>
<path d="M351.32 28.6036H339.759C338.83 28.6036 338.079 29.2993 338.079 30.1586C338.079 31.0179 338.83 31.7136 339.759 31.7136H351.32C352.248 31.7136 353 31.0179 353 30.1586C353 29.2993 352.248 28.6036 351.32 28.6036Z" fill="#FF5A6E"/>
<defs>
<filter id="filter0_d" x="0" y="0" width="368" height="56" filterUnits="userSpaceOnUse" color-interpolation-filters="sRGB">
<feFlood flood-opacity="0" result="BackgroundImageFix"/>
<feColorMatrix in="SourceAlpha" type="matrix" values="0 0 0 0 0 0 0 0 0 0 0 0 0 0 0 0 0 0 127 0"/>
<feOffset dy="4"/>
<feGaussianBlur stdDeviation="2"/>
<feColorMatrix type="matrix" values="0 0 0 0 0.400265 0 0 0 0 0.42157 0 0 0 0 0.464179 0 0 0 0.25 0"/>
<feBlend mode="normal" in2="BackgroundImageFix" result="effect1_dropShadow"/>
<feBlend mode="normal" in="SourceGraphic" in2="effect1_dropShadow" result="shape"/>
</filter>
</defs>
</svg>
