<svg width="368" height="56" viewBox="0 0 368 56" fill="none" xmlns="http://www.w3.org/2000/svg">
<g filter="url(#filter0_d)">
<rect x="4" width="360" height="48" fill="white"/>
</g>
<path d="M135.983 32.144C134.895 32.144 133.94 31.9093 133.119 31.44C132.308 30.9707 131.684 30.2987 131.247 29.424C130.809 28.5493 130.591 27.5253 130.591 26.352C130.591 25.1787 130.809 24.16 131.247 23.296C131.684 22.4213 132.308 21.7493 133.119 21.28C133.94 20.8107 134.895 20.576 135.983 20.576C136.687 20.576 137.348 20.6827 137.967 20.896C138.585 21.0987 139.135 21.3973 139.615 21.792C139.753 21.8987 139.849 22.0107 139.903 22.128C139.956 22.2453 139.983 22.3893 139.983 22.56C139.983 22.7947 139.919 22.992 139.791 23.152C139.663 23.312 139.508 23.392 139.327 23.392C139.113 23.392 138.895 23.3173 138.671 23.168C138.212 22.8267 137.785 22.592 137.391 22.464C136.996 22.3253 136.559 22.256 136.079 22.256C134.969 22.256 134.127 22.6027 133.551 23.296C132.985 23.9893 132.703 25.008 132.703 26.352C132.703 27.7067 132.985 28.7307 133.551 29.424C134.127 30.1173 134.969 30.464 136.079 30.464C136.537 30.464 136.959 30.3947 137.343 30.256C137.737 30.1173 138.18 29.8827 138.671 29.552C138.777 29.488 138.884 29.4347 138.991 29.392C139.097 29.3493 139.209 29.328 139.327 29.328C139.508 29.328 139.663 29.408 139.791 29.568C139.919 29.728 139.983 29.9253 139.983 30.16C139.983 30.32 139.956 30.464 139.903 30.592C139.849 30.7093 139.753 30.8213 139.615 30.928C139.135 31.3227 138.585 31.6267 137.967 31.84C137.348 32.0427 136.687 32.144 135.983 32.144ZM146.186 23.984C148.021 23.984 148.938 25.056 148.938 27.2V31.136C148.938 31.4347 148.848 31.6693 148.666 31.84C148.496 32.0107 148.256 32.096 147.946 32.096C147.637 32.096 147.392 32.0107 147.21 31.84C147.029 31.6693 146.938 31.4347 146.938 31.136V27.2C146.938 26.6347 146.821 26.224 146.586 25.968C146.362 25.7013 146.005 25.568 145.514 25.568C144.938 25.568 144.474 25.7493 144.122 26.112C143.781 26.4747 143.61 26.96 143.61 27.568V31.136C143.61 31.4347 143.52 31.6693 143.338 31.84C143.157 32.0107 142.912 32.096 142.602 32.096C142.293 32.096 142.048 32.0107 141.866 31.84C141.696 31.6693 141.61 31.4347 141.61 31.136V21.568C141.61 21.2907 141.701 21.0667 141.882 20.896C142.074 20.7253 142.32 20.64 142.618 20.64C142.917 20.64 143.157 20.72 143.338 20.88C143.52 21.04 143.61 21.2587 143.61 21.536V25.264C143.877 24.848 144.229 24.5333 144.666 24.32C145.114 24.096 145.621 23.984 146.186 23.984ZM154.538 32.128C153.738 32.128 153.034 31.9627 152.426 31.632C151.828 31.3013 151.364 30.8267 151.034 30.208C150.703 29.5893 150.538 28.8693 150.538 28.048C150.538 27.2267 150.703 26.512 151.034 25.904C151.364 25.2853 151.828 24.8107 152.426 24.48C153.034 24.1493 153.738 23.984 154.538 23.984C155.338 23.984 156.036 24.1493 156.634 24.48C157.242 24.8107 157.706 25.2853 158.026 25.904C158.356 26.512 158.522 27.2267 158.522 28.048C158.522 28.8693 158.356 29.5893 158.026 30.208C157.706 30.8267 157.242 31.3013 156.634 31.632C156.036 31.9627 155.338 32.128 154.538 32.128ZM154.522 30.576C155.172 30.576 155.668 30.3627 156.01 29.936C156.351 29.5093 156.522 28.88 156.522 28.048C156.522 27.2267 156.351 26.6027 156.01 26.176C155.668 25.7387 155.178 25.52 154.538 25.52C153.898 25.52 153.402 25.7387 153.05 26.176C152.708 26.6027 152.538 27.2267 152.538 28.048C152.538 28.88 152.708 29.5093 153.05 29.936C153.391 30.3627 153.882 30.576 154.522 30.576ZM163.741 32.128C162.941 32.128 162.237 31.9627 161.629 31.632C161.031 31.3013 160.567 30.8267 160.237 30.208C159.906 29.5893 159.741 28.8693 159.741 28.048C159.741 27.2267 159.906 26.512 160.237 25.904C160.567 25.2853 161.031 24.8107 161.629 24.48C162.237 24.1493 162.941 23.984 163.741 23.984C164.541 23.984 165.239 24.1493 165.837 24.48C166.445 24.8107 166.909 25.2853 167.229 25.904C167.559 26.512 167.725 27.2267 167.725 28.048C167.725 28.8693 167.559 29.5893 167.229 30.208C166.909 30.8267 166.445 31.3013 165.837 31.632C165.239 31.9627 164.541 32.128 163.741 32.128ZM163.725 30.576C164.375 30.576 164.871 30.3627 165.213 29.936C165.554 29.5093 165.725 28.88 165.725 28.048C165.725 27.2267 165.554 26.6027 165.213 26.176C164.871 25.7387 164.381 25.52 163.741 25.52C163.101 25.52 162.605 25.7387 162.253 26.176C161.911 26.6027 161.741 27.2267 161.741 28.048C161.741 28.88 161.911 29.5093 162.253 29.936C162.594 30.3627 163.085 30.576 163.725 30.576ZM172.208 32.128C171.045 32.128 170.107 31.8987 169.392 31.44C169.051 31.2373 168.88 30.9493 168.88 30.576C168.88 30.3627 168.939 30.192 169.056 30.064C169.173 29.9253 169.317 29.856 169.488 29.856C169.669 29.856 169.92 29.9413 170.24 30.112C170.581 30.272 170.891 30.3947 171.168 30.48C171.456 30.5653 171.819 30.608 172.256 30.608C172.704 30.608 173.051 30.5333 173.296 30.384C173.552 30.2347 173.68 30.0267 173.68 29.76C173.68 29.5787 173.627 29.4347 173.52 29.328C173.424 29.2213 173.243 29.1253 172.976 29.04C172.72 28.944 172.325 28.8373 171.792 28.72C170.843 28.528 170.16 28.256 169.744 27.904C169.339 27.552 169.136 27.0667 169.136 26.448C169.136 25.9787 169.275 25.5573 169.552 25.184C169.829 24.8 170.208 24.5067 170.688 24.304C171.179 24.0907 171.733 23.984 172.352 23.984C172.8 23.984 173.232 24.0427 173.648 24.16C174.064 24.2667 174.437 24.4267 174.768 24.64C175.109 24.8533 175.28 25.136 175.28 25.488C175.28 25.7013 175.221 25.8827 175.104 26.032C174.987 26.1707 174.843 26.24 174.672 26.24C174.555 26.24 174.437 26.2187 174.32 26.176C174.213 26.1227 174.075 26.048 173.904 25.952C173.595 25.792 173.328 25.6747 173.104 25.6C172.88 25.5147 172.603 25.472 172.272 25.472C171.877 25.472 171.563 25.552 171.328 25.712C171.104 25.872 170.992 26.0907 170.992 26.368C170.992 26.6347 171.109 26.8373 171.344 26.976C171.579 27.1147 172.032 27.2533 172.704 27.392C173.419 27.5413 173.979 27.712 174.384 27.904C174.789 28.096 175.077 28.336 175.248 28.624C175.429 28.912 175.52 29.28 175.52 29.728C175.52 30.4533 175.216 31.0347 174.608 31.472C174.011 31.9093 173.211 32.128 172.208 32.128ZM183.334 29.856C183.515 29.856 183.659 29.9253 183.766 30.064C183.883 30.2027 183.942 30.3893 183.942 30.624C183.942 30.9547 183.744 31.232 183.35 31.456C182.987 31.6587 182.576 31.824 182.118 31.952C181.659 32.0693 181.222 32.128 180.806 32.128C179.547 32.128 178.55 31.7653 177.814 31.04C177.078 30.3147 176.71 29.3227 176.71 28.064C176.71 27.264 176.87 26.5547 177.19 25.936C177.51 25.3173 177.958 24.8373 178.534 24.496C179.12 24.1547 179.782 23.984 180.518 23.984C181.222 23.984 181.835 24.1387 182.358 24.448C182.88 24.7573 183.286 25.1947 183.574 25.76C183.862 26.3253 184.006 26.992 184.006 27.76C184.006 28.2187 183.803 28.448 183.398 28.448H178.678C178.742 29.184 178.95 29.728 179.302 30.08C179.654 30.4213 180.166 30.592 180.838 30.592C181.179 30.592 181.478 30.5493 181.734 30.464C182 30.3787 182.299 30.2613 182.63 30.112C182.95 29.9413 183.184 29.856 183.334 29.856ZM180.566 25.392C180.022 25.392 179.584 25.5627 179.254 25.904C178.934 26.2453 178.742 26.736 178.678 27.376H182.294C182.272 26.7253 182.112 26.2347 181.814 25.904C181.515 25.5627 181.099 25.392 180.566 25.392ZM193.377 23.984C194.465 23.984 195.271 24.256 195.793 24.8C196.327 25.3333 196.593 26.1493 196.593 27.248V31.152C196.593 31.44 196.508 31.6693 196.337 31.84C196.167 32 195.932 32.08 195.633 32.08C195.356 32.08 195.127 31.9947 194.945 31.824C194.775 31.6533 194.689 31.4293 194.689 31.152V30.8C194.508 31.216 194.22 31.5413 193.825 31.776C193.441 32.0107 192.993 32.128 192.481 32.128C191.959 32.128 191.484 32.0213 191.057 31.808C190.631 31.5947 190.295 31.3013 190.049 30.928C189.804 30.5547 189.681 30.1387 189.681 29.68C189.681 29.104 189.825 28.6507 190.113 28.32C190.412 27.9893 190.892 27.7493 191.553 27.6C192.215 27.4507 193.127 27.376 194.289 27.376H194.689V27.008C194.689 26.4853 194.577 26.1067 194.353 25.872C194.129 25.6267 193.767 25.504 193.265 25.504C192.956 25.504 192.641 25.552 192.321 25.648C192.001 25.7333 191.623 25.8613 191.185 26.032C190.908 26.1707 190.705 26.24 190.577 26.24C190.385 26.24 190.225 26.1707 190.097 26.032C189.98 25.8933 189.921 25.712 189.921 25.488C189.921 25.3067 189.964 25.152 190.049 25.024C190.145 24.8853 190.3 24.7573 190.513 24.64C190.887 24.4373 191.329 24.2773 191.841 24.16C192.364 24.0427 192.876 23.984 193.377 23.984ZM192.881 30.688C193.415 30.688 193.847 30.512 194.177 30.16C194.519 29.7973 194.689 29.3333 194.689 28.768V28.432H194.401C193.687 28.432 193.132 28.464 192.737 28.528C192.343 28.592 192.06 28.704 191.889 28.864C191.719 29.024 191.633 29.2427 191.633 29.52C191.633 29.8613 191.751 30.144 191.985 30.368C192.231 30.5813 192.529 30.688 192.881 30.688ZM206.842 32.08C206.522 32.08 206.266 31.9893 206.074 31.808C205.892 31.616 205.802 31.3653 205.802 31.056V22.416H202.89C202.25 22.416 201.93 22.1333 201.93 21.568C201.93 21.0027 202.25 20.72 202.89 20.72H210.778C211.418 20.72 211.738 21.0027 211.738 21.568C211.738 22.1333 211.418 22.416 210.778 22.416H207.866V31.056C207.866 31.3653 207.77 31.616 207.578 31.808C207.396 31.9893 207.151 32.08 206.842 32.08ZM213.774 32.096C213.486 32.096 213.246 32.016 213.054 31.856C212.873 31.6853 212.782 31.4453 212.782 31.136V24.96C212.782 24.6507 212.873 24.416 213.054 24.256C213.246 24.096 213.486 24.016 213.774 24.016C214.062 24.016 214.302 24.096 214.494 24.256C214.686 24.416 214.782 24.6507 214.782 24.96V31.136C214.782 31.4453 214.686 31.6853 214.494 31.856C214.302 32.016 214.062 32.096 213.774 32.096ZM213.774 22.592C213.412 22.592 213.124 22.496 212.91 22.304C212.697 22.1013 212.59 21.84 212.59 21.52C212.59 21.2 212.697 20.944 212.91 20.752C213.124 20.56 213.412 20.464 213.774 20.464C214.126 20.464 214.409 20.56 214.622 20.752C214.846 20.944 214.958 21.2 214.958 21.52C214.958 21.84 214.852 22.1013 214.638 22.304C214.425 22.496 214.137 22.592 213.774 22.592ZM226.141 23.984C226.994 23.984 227.645 24.24 228.093 24.752C228.551 25.2533 228.781 26.0693 228.781 27.2V31.136C228.781 31.4453 228.685 31.6853 228.493 31.856C228.311 32.016 228.071 32.096 227.773 32.096C227.485 32.096 227.245 32.016 227.053 31.856C226.871 31.6853 226.781 31.4453 226.781 31.136V27.2C226.781 26.6133 226.674 26.1973 226.461 25.952C226.258 25.696 225.943 25.568 225.517 25.568C224.994 25.568 224.578 25.7493 224.269 26.112C223.959 26.464 223.805 26.9493 223.805 27.568V31.136C223.805 31.4453 223.709 31.6853 223.517 31.856C223.335 32.016 223.101 32.096 222.813 32.096C222.525 32.096 222.285 32.016 222.093 31.856C221.901 31.6853 221.805 31.4453 221.805 31.136V27.2C221.805 26.6133 221.698 26.1973 221.485 25.952C221.282 25.696 220.967 25.568 220.541 25.568C220.018 25.568 219.602 25.7493 219.293 26.112C218.994 26.464 218.845 26.9493 218.845 27.568V31.136C218.845 31.4453 218.749 31.6853 218.557 31.856C218.365 32.016 218.125 32.096 217.837 32.096C217.549 32.096 217.309 32.016 217.117 31.856C216.935 31.6853 216.845 31.4453 216.845 31.136V24.944C216.845 24.6453 216.941 24.416 217.133 24.256C217.325 24.096 217.565 24.016 217.853 24.016C218.13 24.016 218.354 24.096 218.525 24.256C218.706 24.4053 218.797 24.624 218.797 24.912V25.296C219.042 24.8693 219.367 24.544 219.773 24.32C220.189 24.096 220.663 23.984 221.197 23.984C222.37 23.984 223.154 24.4747 223.549 25.456C223.783 25.008 224.13 24.6507 224.589 24.384C225.047 24.1173 225.565 23.984 226.141 23.984ZM237.005 29.856C237.187 29.856 237.331 29.9253 237.437 30.064C237.555 30.2027 237.613 30.3893 237.613 30.624C237.613 30.9547 237.416 31.232 237.021 31.456C236.659 31.6587 236.248 31.824 235.789 31.952C235.331 32.0693 234.893 32.128 234.477 32.128C233.219 32.128 232.221 31.7653 231.485 31.04C230.749 30.3147 230.381 29.3227 230.381 28.064C230.381 27.264 230.541 26.5547 230.861 25.936C231.181 25.3173 231.629 24.8373 232.205 24.496C232.792 24.1547 233.453 23.984 234.189 23.984C234.893 23.984 235.507 24.1387 236.029 24.448C236.552 24.7573 236.957 25.1947 237.245 25.76C237.533 26.3253 237.677 26.992 237.677 27.76C237.677 28.2187 237.475 28.448 237.069 28.448H232.349C232.413 29.184 232.621 29.728 232.973 30.08C233.325 30.4213 233.837 30.592 234.509 30.592C234.851 30.592 235.149 30.5493 235.405 30.464C235.672 30.3787 235.971 30.2613 236.301 30.112C236.621 29.9413 236.856 29.856 237.005 29.856ZM234.237 25.392C233.693 25.392 233.256 25.5627 232.925 25.904C232.605 26.2453 232.413 26.736 232.349 27.376H235.965C235.944 26.7253 235.784 26.2347 235.485 25.904C235.187 25.5627 234.771 25.392 234.237 25.392Z" fill="#666C76"/>
<path fill-rule="evenodd" clip-rule="evenodd" d="M34 23H21.8L27.4 17.4L26 16L18 24L26 32L27.4 30.6L21.8 25H34V23Z" fill="#FF5A6E"/>
<path d="M350 18.41L348.59 17L343 22.59L337.41 17L336 18.41L341.59 24L336 29.59L337.41 31L343 25.41L348.59 31L350 29.59L344.41 24L350 18.41Z" fill="#FF5A6E"/>
<defs>
<filter id="filter0_d" x="0" y="0" width="368" height="56" filterUnits="userSpaceOnUse" color-interpolation-filters="sRGB">
<feFlood flood-opacity="0" result="BackgroundImageFix"/>
<feColorMatrix in="SourceAlpha" type="matrix" values="0 0 0 0 0 0 0 0 0 0 0 0 0 0 0 0 0 0 127 0"/>
<feOffset dy="4"/>
<feGaussianBlur stdDeviation="2"/>
<feColorMatrix type="matrix" values="0 0 0 0 0.400265 0 0 0 0 0.42157 0 0 0 0 0.464179 0 0 0 0.25 0"/>
<feBlend mode="normal" in2="BackgroundImageFix" result="effect1_dropShadow"/>
<feBlend mode="normal" in="SourceGraphic" in2="effect1_dropShadow" result="shape"/>
</filter>
</defs>
</svg>
