<svg width="368" height="56" viewBox="0 0 368 56" fill="none" xmlns="http://www.w3.org/2000/svg">
<g filter="url(#filter0_d)">
<rect x="4" width="360" height="48" fill="white"/>
</g>
<path d="M20.6766 33.27C19.3626 33.27 18.1656 32.964 17.0856 32.352C16.6896 32.118 16.4916 31.785 16.4916 31.353C16.4916 31.065 16.5816 30.813 16.7616 30.597C16.9596 30.363 17.2116 30.246 17.5176 30.246C17.6976 30.246 17.8596 30.282 18.0036 30.354C18.8316 30.75 19.6686 30.948 20.5146 30.948C21.4866 30.948 22.2696 30.669 22.8636 30.111C23.4756 29.553 23.7816 28.5 23.7816 26.952V15.261C23.7816 14.919 23.8986 14.631 24.1326 14.397C24.3666 14.145 24.6546 14.019 24.9966 14.019C25.3386 14.019 25.6266 14.145 25.8606 14.397C26.1126 14.631 26.2386 14.919 26.2386 15.261V26.79C26.2386 29.148 25.7076 30.822 24.6456 31.812C23.6016 32.784 22.2786 33.27 20.6766 33.27ZM35.5488 33.27C34.5588 33.27 33.6948 33.036 32.9568 32.568C32.2368 32.1 31.6788 31.461 31.2828 30.651C30.9048 29.841 30.7158 28.95 30.7158 27.978V20.31C30.7158 19.968 30.8328 19.68 31.0668 19.446C31.3188 19.212 31.6158 19.095 31.9578 19.095C32.2998 19.095 32.5878 19.212 32.8218 19.446C33.0558 19.68 33.1728 19.968 33.1728 20.31V27.708C33.1728 29.904 34.1628 31.002 36.1428 31.002C37.0428 31.002 37.8438 30.768 38.5458 30.3C39.2658 29.832 39.9408 29.202 40.5708 28.41V20.31C40.5708 19.968 40.6878 19.68 40.9218 19.446C41.1738 19.212 41.4708 19.095 41.8128 19.095C42.1548 19.095 42.4428 19.212 42.6768 19.446C42.9108 19.68 43.0278 19.968 43.0278 20.31V31.893C43.0278 32.235 42.9108 32.532 42.6768 32.784C42.4428 33.018 42.1548 33.135 41.8128 33.135C41.4708 33.135 41.1738 33.018 40.9218 32.784C40.6878 32.532 40.5708 32.235 40.5708 31.893V30.786C39.8868 31.542 39.1488 32.145 38.3568 32.595C37.5648 33.045 36.6288 33.27 35.5488 33.27ZM48.5189 33.135C48.1769 33.135 47.8889 33.018 47.6549 32.784C47.4209 32.55 47.3039 32.262 47.3039 31.92V20.337C47.3039 19.995 47.4209 19.707 47.6549 19.473C47.8889 19.221 48.1769 19.095 48.5189 19.095C48.8609 19.095 49.1489 19.221 49.3829 19.473C49.6349 19.707 49.7609 19.995 49.7609 20.337V21.444C50.4449 20.688 51.1829 20.085 51.9749 19.635C52.7669 19.185 53.7029 18.96 54.7829 18.96C55.7729 18.96 56.6279 19.194 57.3479 19.662C58.0859 20.13 58.6439 20.769 59.0219 21.579C59.4179 22.389 59.6159 23.28 59.6159 24.252V31.92C59.6159 32.262 59.4899 32.55 59.2379 32.784C59.0039 33.018 58.7159 33.135 58.3739 33.135C58.0319 33.135 57.7439 33.018 57.5099 32.784C57.2759 32.55 57.1589 32.262 57.1589 31.92V24.522C57.1589 22.326 56.1689 21.228 54.1889 21.228C53.2889 21.228 52.4789 21.462 51.7589 21.93C51.0569 22.398 50.3909 23.028 49.7609 23.82V31.92C49.7609 32.262 49.6349 32.55 49.3829 32.784C49.1489 33.018 48.8609 33.135 48.5189 33.135ZM68.1926 33.27C65.5646 33.27 64.2506 32.082 64.2506 29.706V21.336H62.3336C62.1896 21.336 62.0636 21.291 61.9556 21.201C61.8656 21.093 61.8206 20.967 61.8206 20.823C61.8206 20.643 61.9016 20.49 62.0636 20.364L65.7356 16.773C65.8976 16.611 66.0506 16.53 66.1946 16.53C66.3386 16.53 66.4556 16.584 66.5456 16.692C66.6536 16.8 66.7076 16.926 66.7076 17.07V19.23H69.7586C70.0646 19.23 70.3166 19.329 70.5146 19.527C70.7126 19.725 70.8116 19.977 70.8116 20.283C70.8116 20.571 70.7126 20.823 70.5146 21.039C70.3166 21.237 70.0646 21.336 69.7586 21.336H66.7076V29.49C66.7076 30.192 66.8696 30.642 67.1936 30.84C67.5356 31.02 67.9586 31.11 68.4626 31.11C68.8226 31.11 69.1826 31.056 69.5426 30.948C69.6146 30.93 69.6866 30.912 69.7586 30.894C69.8486 30.876 69.9566 30.867 70.0826 30.867C70.3346 30.867 70.5596 30.966 70.7576 31.164C70.9556 31.344 71.0546 31.569 71.0546 31.839C71.0546 32.253 70.8476 32.568 70.4336 32.784C69.7316 33.108 68.9846 33.27 68.1926 33.27ZM79.6406 33.27C78.2546 33.27 77.0396 32.973 75.9956 32.379C74.9516 31.785 74.1416 30.948 73.5656 29.868C73.0076 28.77 72.7286 27.519 72.7286 26.115C72.7286 24.711 73.0076 23.469 73.5656 22.389C74.1416 21.291 74.9516 20.445 75.9956 19.851C77.0396 19.257 78.2546 18.96 79.6406 18.96C81.0086 18.96 82.2146 19.257 83.2586 19.851C84.3026 20.445 85.1126 21.291 85.6886 22.389C86.2646 23.469 86.5526 24.711 86.5526 26.115C86.5526 27.519 86.2646 28.77 85.6886 29.868C85.1126 30.948 84.3026 31.785 83.2586 32.379C82.2146 32.973 81.0086 33.27 79.6406 33.27ZM79.6406 31.029C80.3786 31.029 81.0806 30.858 81.7466 30.516C82.4306 30.174 82.9886 29.634 83.4206 28.896C83.8706 28.158 84.0956 27.222 84.0956 26.088C84.0956 24.972 83.8706 24.045 83.4206 23.307C82.9886 22.569 82.4306 22.038 81.7466 21.714C81.0806 21.372 80.3786 21.201 79.6406 21.201C78.8846 21.201 78.1646 21.372 77.4806 21.714C76.8146 22.038 76.2656 22.569 75.8336 23.307C75.4016 24.045 75.1856 24.972 75.1856 26.088C75.1856 27.222 75.4016 28.158 75.8336 28.896C76.2656 29.634 76.8146 30.174 77.4806 30.516C78.1646 30.858 78.8846 31.029 79.6406 31.029Z" fill="#FF5A6E"/>
<defs>
<filter id="filter0_d" x="0" y="0" width="368" height="56" filterUnits="userSpaceOnUse" color-interpolation-filters="sRGB">
<feFlood flood-opacity="0" result="BackgroundImageFix"/>
<feColorMatrix in="SourceAlpha" type="matrix" values="0 0 0 0 0 0 0 0 0 0 0 0 0 0 0 0 0 0 127 0"/>
<feOffset dy="4"/>
<feGaussianBlur stdDeviation="2"/>
<feColorMatrix type="matrix" values="0 0 0 0 0.400265 0 0 0 0 0.42157 0 0 0 0 0.464179 0 0 0 0.25 0"/>
<feBlend mode="normal" in2="BackgroundImageFix" result="effect1_dropShadow"/>
<feBlend mode="normal" in="SourceGraphic" in2="effect1_dropShadow" result="shape"/>
</filter>
</defs>
</svg>
