<svg xmlns="http://www.w3.org/2000/svg" width="39" height="32" fill="none" viewBox="0 0 39 32"><path fill="#47CAC2" fill-rule="evenodd" d="M3 0C1.34314 0 0 1.34326 0 3V20.0083C0 21.6655 1.34314 23.0083 3 23.0083H16.6698L19.3916 29.4854L22.1135 23.0083H35.783C37.4399 23.0083 38.7831 21.6655 38.7831 20.0083V3C38.7831 1.34326 37.4399 0 35.7831 0H3Z" clip-rule="evenodd"/><path fill="#fff" d="M15.4754 13.0974C15.4754 13.7374 15.2514 14.2774 14.8034 14.7174C14.3633 15.1574 13.7673 15.4334 13.0153 15.5454V16.3014C13.0153 16.4854 12.9593 16.6334 12.8473 16.7454C12.7353 16.8654 12.5873 16.9254 12.4033 16.9254C12.2193 16.9254 12.0713 16.8654 11.9593 16.7454C11.8473 16.6334 11.7913 16.4854 11.7913 16.3014V15.5694C11.3353 15.5294 10.8913 15.4334 10.4593 15.2814C10.0273 15.1294 9.65535 14.9294 9.34335 14.6814C9.23935 14.6094 9.16735 14.5294 9.12735 14.4414C9.08735 14.3534 9.06735 14.2454 9.06735 14.1174C9.06735 13.9494 9.11535 13.8014 9.21135 13.6734C9.31535 13.5454 9.43135 13.4814 9.55935 13.4814C9.63935 13.4814 9.71135 13.4974 9.77535 13.5294C9.84735 13.5534 9.93935 13.5974 10.0513 13.6614C10.4193 13.9014 10.7793 14.0774 11.1313 14.1894C11.4913 14.3014 11.8673 14.3574 12.2593 14.3574C12.7953 14.3574 13.2073 14.2534 13.4953 14.0454C13.7913 13.8374 13.9393 13.5374 13.9393 13.1454C13.9393 12.9134 13.8593 12.7254 13.6993 12.5814C13.5393 12.4374 13.3393 12.3254 13.0993 12.2454C12.8593 12.1574 12.5233 12.0574 12.0913 11.9454C11.4913 11.7934 11.0033 11.6414 10.6273 11.4894C10.2513 11.3294 9.92735 11.0894 9.65535 10.7694C9.38335 10.4494 9.24735 10.0174 9.24735 9.47335C9.24735 8.82535 9.47935 8.27335 9.94335 7.81735C10.4073 7.36135 11.0153 7.07735 11.7673 6.96535V6.20935C11.7673 6.02535 11.8233 5.87735 11.9353 5.76535C12.0473 5.64535 12.1953 5.58535 12.3793 5.58535C12.5633 5.58535 12.7113 5.64535 12.8233 5.76535C12.9353 5.87735 12.9913 6.02535 12.9913 6.20935V6.95335C13.7993 7.05735 14.4953 7.34935 15.0794 7.82935C15.2714 7.97335 15.3674 8.16135 15.3674 8.39335C15.3674 8.56135 15.3154 8.70935 15.2113 8.83735C15.1153 8.96535 14.9993 9.02935 14.8634 9.02935C14.7914 9.02935 14.7193 9.01735 14.6473 8.99335C14.5833 8.96935 14.4953 8.92135 14.3833 8.84935C14.0553 8.61735 13.7433 8.44535 13.4473 8.33335C13.1593 8.21335 12.8153 8.15335 12.4153 8.15335C11.9193 8.15335 11.5233 8.26535 11.2273 8.48935C10.9313 8.70535 10.7833 9.00535 10.7833 9.38935C10.7833 9.65335 10.8673 9.86935 11.0353 10.0374C11.2033 10.1974 11.4153 10.3214 11.6713 10.4094C11.9273 10.4974 12.2753 10.5974 12.7153 10.7094C13.2993 10.8534 13.7753 11.0014 14.1433 11.1534C14.5114 11.3054 14.8234 11.5374 15.0794 11.8494C15.3434 12.1534 15.4754 12.5694 15.4754 13.0974ZM21.8907 14.2374C22.3707 14.2374 22.6107 14.4414 22.6107 14.8494C22.6107 15.2734 22.3707 15.4854 21.8907 15.4854H17.8347C17.3467 15.4854 17.1027 15.2734 17.1027 14.8494C17.1027 14.4414 17.3467 14.2374 17.8347 14.2374H19.0827V8.76535L17.9307 9.47335C17.8187 9.53735 17.7187 9.56935 17.6307 9.56935C17.4627 9.56935 17.3187 9.49735 17.1987 9.35335C17.0867 9.20935 17.0307 9.04935 17.0307 8.87335C17.0307 8.64135 17.1347 8.46135 17.3427 8.33335L19.2027 7.18135C19.4427 7.03735 19.6707 6.96535 19.8867 6.96535C20.1107 6.96535 20.2907 7.03335 20.4267 7.16935C20.5627 7.30535 20.6307 7.49335 20.6307 7.73335V14.2374H21.8907ZM26.674 15.5934C25.674 15.5934 24.91 15.2254 24.382 14.4894C23.854 13.7454 23.59 12.6654 23.59 11.2494C23.59 9.84135 23.854 8.76935 24.382 8.03335C24.91 7.28935 25.674 6.91735 26.674 6.91735C27.674 6.91735 28.438 7.28935 28.966 8.03335C29.494 8.76935 29.758 9.84135 29.758 11.2494C29.758 12.6574 29.494 13.7334 28.966 14.4774C28.438 15.2214 27.674 15.5934 26.674 15.5934ZM26.674 14.3814C27.218 14.3814 27.614 14.1334 27.862 13.6374C28.11 13.1334 28.234 12.3374 28.234 11.2494C28.234 10.1534 28.11 9.36135 27.862 8.87335C27.614 8.37735 27.218 8.12935 26.674 8.12935C26.13 8.12935 25.734 8.37735 25.486 8.87335C25.238 9.36935 25.114 10.1614 25.114 11.2494C25.114 12.3374 25.238 13.1334 25.486 13.6374C25.734 14.1334 26.13 14.3814 26.674 14.3814Z"/></svg>