<svg width="160" height="44" viewBox="0 0 160 44" fill="none" xmlns="http://www.w3.org/2000/svg">
<rect width="160" height="44" rx="10" fill="#47CAC2"/>
<path d="M37.0946 21.632C37.5826 21.768 37.9586 22.016 38.2226 22.376C38.4946 22.736 38.6306 23.176 38.6306 23.696C38.6306 24.416 38.3706 24.98 37.8506 25.388C37.3386 25.796 36.6306 26 35.7266 26H32.6306C32.3986 26 32.2146 25.936 32.0786 25.808C31.9506 25.68 31.8866 25.5 31.8866 25.268V18.272C31.8866 18.04 31.9506 17.86 32.0786 17.732C32.2146 17.604 32.3986 17.54 32.6306 17.54H35.6066C36.4866 17.54 37.1746 17.736 37.6706 18.128C38.1746 18.512 38.4266 19.052 38.4266 19.748C38.4266 20.196 38.3066 20.584 38.0666 20.912C37.8346 21.24 37.5106 21.48 37.0946 21.632ZM33.3986 21.104H35.3546C36.4186 21.104 36.9506 20.708 36.9506 19.916C36.9506 19.516 36.8186 19.22 36.5546 19.028C36.2906 18.836 35.8906 18.74 35.3546 18.74H33.3986V21.104ZM35.5586 24.8C36.1186 24.8 36.5266 24.7 36.7826 24.5C37.0386 24.3 37.1666 23.988 37.1666 23.564C37.1666 23.14 37.0346 22.824 36.7706 22.616C36.5146 22.408 36.1106 22.304 35.5586 22.304H33.3986V24.8H35.5586ZM42.622 26.096C42.022 26.096 41.494 25.972 41.038 25.724C40.59 25.476 40.242 25.12 39.994 24.656C39.746 24.192 39.622 23.652 39.622 23.036C39.622 22.42 39.746 21.884 39.994 21.428C40.242 20.964 40.59 20.608 41.038 20.36C41.494 20.112 42.022 19.988 42.622 19.988C43.222 19.988 43.746 20.112 44.194 20.36C44.65 20.608 44.998 20.964 45.238 21.428C45.486 21.884 45.61 22.42 45.61 23.036C45.61 23.652 45.486 24.192 45.238 24.656C44.998 25.12 44.65 25.476 44.194 25.724C43.746 25.972 43.222 26.096 42.622 26.096ZM42.61 24.932C43.098 24.932 43.47 24.772 43.726 24.452C43.982 24.132 44.11 23.66 44.11 23.036C44.11 22.42 43.982 21.952 43.726 21.632C43.47 21.304 43.102 21.14 42.622 21.14C42.142 21.14 41.77 21.304 41.506 21.632C41.25 21.952 41.122 22.42 41.122 23.036C41.122 23.66 41.25 24.132 41.506 24.452C41.762 24.772 42.13 24.932 42.61 24.932ZM49.5244 26.096C48.9244 26.096 48.3964 25.972 47.9404 25.724C47.4924 25.476 47.1444 25.12 46.8964 24.656C46.6484 24.192 46.5244 23.652 46.5244 23.036C46.5244 22.42 46.6484 21.884 46.8964 21.428C47.1444 20.964 47.4924 20.608 47.9404 20.36C48.3964 20.112 48.9244 19.988 49.5244 19.988C50.1244 19.988 50.6484 20.112 51.0964 20.36C51.5524 20.608 51.9004 20.964 52.1404 21.428C52.3884 21.884 52.5124 22.42 52.5124 23.036C52.5124 23.652 52.3884 24.192 52.1404 24.656C51.9004 25.12 51.5524 25.476 51.0964 25.724C50.6484 25.972 50.1244 26.096 49.5244 26.096ZM49.5124 24.932C50.0004 24.932 50.3724 24.772 50.6284 24.452C50.8844 24.132 51.0124 23.66 51.0124 23.036C51.0124 22.42 50.8844 21.952 50.6284 21.632C50.3724 21.304 50.0044 21.14 49.5244 21.14C49.0444 21.14 48.6724 21.304 48.4084 21.632C48.1524 21.952 48.0244 22.42 48.0244 23.036C48.0244 23.66 48.1524 24.132 48.4084 24.452C48.6644 24.772 49.0324 24.932 49.5124 24.932ZM58.9707 24.836C59.1307 24.988 59.2107 25.16 59.2107 25.352C59.2107 25.536 59.1427 25.7 59.0067 25.844C58.8787 25.988 58.7267 26.06 58.5507 26.06C58.3747 26.06 58.2107 25.988 58.0587 25.844L55.2507 23.3V25.352C55.2507 25.584 55.1787 25.76 55.0347 25.88C54.8907 26 54.7107 26.06 54.4947 26.06C54.2787 26.06 54.0987 26 53.9547 25.88C53.8187 25.76 53.7507 25.584 53.7507 25.352V18.188C53.7507 17.956 53.8187 17.78 53.9547 17.66C54.0987 17.54 54.2787 17.48 54.4947 17.48C54.7107 17.48 54.8907 17.54 55.0347 17.66C55.1787 17.78 55.2507 17.956 55.2507 18.188V22.7L57.8187 20.24C57.9627 20.096 58.1267 20.024 58.3107 20.024C58.4947 20.024 58.6547 20.092 58.7907 20.228C58.9267 20.364 58.9947 20.524 58.9947 20.708C58.9947 20.892 58.9187 21.06 58.7667 21.212L56.8827 22.964L58.9707 24.836ZM66.4901 24.956C66.8901 24.98 67.0901 25.16 67.0901 25.496C67.0901 25.688 67.0101 25.836 66.8501 25.94C66.6981 26.036 66.4781 26.076 66.1901 26.06L65.8661 26.036C64.5221 25.94 63.8501 25.22 63.8501 23.876V21.26H63.2501C63.0341 21.26 62.8661 21.212 62.7461 21.116C62.6341 21.02 62.5781 20.88 62.5781 20.696C62.5781 20.512 62.6341 20.372 62.7461 20.276C62.8661 20.18 63.0341 20.132 63.2501 20.132H63.8501V19.028C63.8501 18.812 63.9181 18.64 64.0541 18.512C64.1901 18.384 64.3741 18.32 64.6061 18.32C64.8301 18.32 65.0101 18.384 65.1461 18.512C65.2821 18.64 65.3501 18.812 65.3501 19.028V20.132H66.3701C66.5861 20.132 66.7501 20.18 66.8621 20.276C66.9821 20.372 67.0421 20.512 67.0421 20.696C67.0421 20.88 66.9821 21.02 66.8621 21.116C66.7501 21.212 66.5861 21.26 66.3701 21.26H65.3501V23.984C65.3501 24.576 65.6221 24.892 66.1661 24.932L66.4901 24.956ZM71.3038 19.988C72.6798 19.988 73.3678 20.792 73.3678 22.4V25.352C73.3678 25.576 73.2998 25.752 73.1638 25.88C73.0358 26.008 72.8558 26.072 72.6238 26.072C72.3918 26.072 72.2078 26.008 72.0718 25.88C71.9358 25.752 71.8678 25.576 71.8678 25.352V22.4C71.8678 21.976 71.7798 21.668 71.6038 21.476C71.4358 21.276 71.1678 21.176 70.7998 21.176C70.3678 21.176 70.0198 21.312 69.7558 21.584C69.4998 21.856 69.3718 22.22 69.3718 22.676V25.352C69.3718 25.576 69.3038 25.752 69.1678 25.88C69.0318 26.008 68.8478 26.072 68.6158 26.072C68.3838 26.072 68.1998 26.008 68.0638 25.88C67.9358 25.752 67.8718 25.576 67.8718 25.352V18.176C67.8718 17.968 67.9398 17.8 68.0758 17.672C68.2198 17.544 68.4038 17.48 68.6278 17.48C68.8518 17.48 69.0318 17.54 69.1678 17.66C69.3038 17.78 69.3718 17.944 69.3718 18.152V20.948C69.5718 20.636 69.8358 20.4 70.1638 20.24C70.4998 20.072 70.8798 19.988 71.3038 19.988ZM79.5353 24.392C79.6713 24.392 79.7793 24.444 79.8593 24.548C79.9473 24.652 79.9913 24.792 79.9913 24.968C79.9913 25.216 79.8433 25.424 79.5473 25.592C79.2753 25.744 78.9673 25.868 78.6233 25.964C78.2793 26.052 77.9513 26.096 77.6393 26.096C76.6953 26.096 75.9473 25.824 75.3953 25.28C74.8433 24.736 74.5673 23.992 74.5673 23.048C74.5673 22.448 74.6873 21.916 74.9273 21.452C75.1673 20.988 75.5033 20.628 75.9353 20.372C76.3753 20.116 76.8713 19.988 77.4233 19.988C77.9513 19.988 78.4113 20.104 78.8033 20.336C79.1953 20.568 79.4993 20.896 79.7153 21.32C79.9313 21.744 80.0393 22.244 80.0393 22.82C80.0393 23.164 79.8873 23.336 79.5833 23.336H76.0433C76.0913 23.888 76.2473 24.296 76.5113 24.56C76.7753 24.816 77.1593 24.944 77.6633 24.944C77.9193 24.944 78.1433 24.912 78.3353 24.848C78.5353 24.784 78.7593 24.696 79.0073 24.584C79.2473 24.456 79.4233 24.392 79.5353 24.392ZM77.4593 21.044C77.0513 21.044 76.7233 21.172 76.4753 21.428C76.2353 21.684 76.0913 22.052 76.0433 22.532H78.7553C78.7393 22.044 78.6193 21.676 78.3953 21.428C78.1713 21.172 77.8593 21.044 77.4593 21.044ZM83.3903 26.096C82.5183 26.096 81.8143 25.924 81.2783 25.58C81.0223 25.428 80.8943 25.212 80.8943 24.932C80.8943 24.772 80.9383 24.644 81.0263 24.548C81.1143 24.444 81.2223 24.392 81.3503 24.392C81.4863 24.392 81.6743 24.456 81.9143 24.584C82.1703 24.704 82.4023 24.796 82.6103 24.86C82.8263 24.924 83.0983 24.956 83.4263 24.956C83.7623 24.956 84.0223 24.9 84.2063 24.788C84.3983 24.676 84.4943 24.52 84.4943 24.32C84.4943 24.184 84.4543 24.076 84.3743 23.996C84.3023 23.916 84.1663 23.844 83.9663 23.78C83.7743 23.708 83.4783 23.628 83.0783 23.54C82.3663 23.396 81.8543 23.192 81.5423 22.928C81.2383 22.664 81.0863 22.3 81.0863 21.836C81.0863 21.484 81.1903 21.168 81.3983 20.888C81.6063 20.6 81.8903 20.38 82.2503 20.228C82.6183 20.068 83.0343 19.988 83.4983 19.988C83.8343 19.988 84.1583 20.032 84.4703 20.12C84.7823 20.2 85.0623 20.32 85.3103 20.48C85.5663 20.64 85.6943 20.852 85.6943 21.116C85.6943 21.276 85.6503 21.412 85.5623 21.524C85.4743 21.628 85.3663 21.68 85.2383 21.68C85.1503 21.68 85.0623 21.664 84.9743 21.632C84.8943 21.592 84.7903 21.536 84.6623 21.464C84.4303 21.344 84.2303 21.256 84.0623 21.2C83.8943 21.136 83.6863 21.104 83.4383 21.104C83.1423 21.104 82.9063 21.164 82.7303 21.284C82.5623 21.404 82.4783 21.568 82.4783 21.776C82.4783 21.976 82.5663 22.128 82.7423 22.232C82.9183 22.336 83.2583 22.44 83.7623 22.544C84.2983 22.656 84.7183 22.784 85.0223 22.928C85.3263 23.072 85.5423 23.252 85.6703 23.468C85.8063 23.684 85.8743 23.96 85.8743 24.296C85.8743 24.84 85.6463 25.276 85.1903 25.604C84.7423 25.932 84.1423 26.096 83.3903 26.096ZM91.7345 24.392C91.8705 24.392 91.9785 24.444 92.0585 24.548C92.1465 24.652 92.1905 24.792 92.1905 24.968C92.1905 25.216 92.0425 25.424 91.7465 25.592C91.4745 25.744 91.1665 25.868 90.8225 25.964C90.4785 26.052 90.1505 26.096 89.8385 26.096C88.8945 26.096 88.1465 25.824 87.5945 25.28C87.0425 24.736 86.7665 23.992 86.7665 23.048C86.7665 22.448 86.8865 21.916 87.1265 21.452C87.3665 20.988 87.7025 20.628 88.1345 20.372C88.5745 20.116 89.0705 19.988 89.6225 19.988C90.1505 19.988 90.6105 20.104 91.0025 20.336C91.3945 20.568 91.6985 20.896 91.9145 21.32C92.1305 21.744 92.2385 22.244 92.2385 22.82C92.2385 23.164 92.0865 23.336 91.7825 23.336H88.2425C88.2905 23.888 88.4465 24.296 88.7105 24.56C88.9745 24.816 89.3585 24.944 89.8625 24.944C90.1185 24.944 90.3425 24.912 90.5345 24.848C90.7345 24.784 90.9585 24.696 91.2065 24.584C91.4465 24.456 91.6225 24.392 91.7345 24.392ZM89.6585 21.044C89.2505 21.044 88.9225 21.172 88.6745 21.428C88.4345 21.684 88.2905 22.052 88.2425 22.532H90.9545C90.9385 22.044 90.8185 21.676 90.5945 21.428C90.3705 21.172 90.0585 21.044 89.6585 21.044ZM99.6274 26.06C99.3874 26.06 99.1954 25.992 99.0514 25.856C98.9154 25.712 98.8474 25.524 98.8474 25.292V18.812H96.6634C96.1834 18.812 95.9434 18.6 95.9434 18.176C95.9434 17.752 96.1834 17.54 96.6634 17.54H102.579C103.059 17.54 103.299 17.752 103.299 18.176C103.299 18.6 103.059 18.812 102.579 18.812H100.395V25.292C100.395 25.524 100.323 25.712 100.179 25.856C100.043 25.992 99.8594 26.06 99.6274 26.06ZM104.827 26.072C104.611 26.072 104.431 26.012 104.287 25.892C104.151 25.764 104.083 25.584 104.083 25.352V20.72C104.083 20.488 104.151 20.312 104.287 20.192C104.431 20.072 104.611 20.012 104.827 20.012C105.043 20.012 105.223 20.072 105.367 20.192C105.511 20.312 105.583 20.488 105.583 20.72V25.352C105.583 25.584 105.511 25.764 105.367 25.892C105.223 26.012 105.043 26.072 104.827 26.072ZM104.827 18.944C104.555 18.944 104.339 18.872 104.179 18.728C104.019 18.576 103.939 18.38 103.939 18.14C103.939 17.9 104.019 17.708 104.179 17.564C104.339 17.42 104.555 17.348 104.827 17.348C105.091 17.348 105.303 17.42 105.463 17.564C105.631 17.708 105.715 17.9 105.715 18.14C105.715 18.38 105.635 18.576 105.475 18.728C105.315 18.872 105.099 18.944 104.827 18.944ZM114.102 19.988C114.742 19.988 115.23 20.18 115.566 20.564C115.91 20.94 116.082 21.552 116.082 22.4V25.352C116.082 25.584 116.01 25.764 115.866 25.892C115.73 26.012 115.55 26.072 115.326 26.072C115.11 26.072 114.93 26.012 114.786 25.892C114.65 25.764 114.582 25.584 114.582 25.352V22.4C114.582 21.96 114.502 21.648 114.342 21.464C114.19 21.272 113.954 21.176 113.634 21.176C113.242 21.176 112.93 21.312 112.698 21.584C112.466 21.848 112.35 22.212 112.35 22.676V25.352C112.35 25.584 112.278 25.764 112.134 25.892C111.998 26.012 111.822 26.072 111.606 26.072C111.39 26.072 111.21 26.012 111.066 25.892C110.922 25.764 110.85 25.584 110.85 25.352V22.4C110.85 21.96 110.77 21.648 110.61 21.464C110.458 21.272 110.222 21.176 109.902 21.176C109.51 21.176 109.198 21.312 108.966 21.584C108.742 21.848 108.63 22.212 108.63 22.676V25.352C108.63 25.584 108.558 25.764 108.414 25.892C108.27 26.012 108.09 26.072 107.874 26.072C107.658 26.072 107.478 26.012 107.334 25.892C107.198 25.764 107.13 25.584 107.13 25.352V20.708C107.13 20.484 107.202 20.312 107.346 20.192C107.49 20.072 107.67 20.012 107.886 20.012C108.094 20.012 108.262 20.072 108.39 20.192C108.526 20.304 108.594 20.468 108.594 20.684V20.972C108.778 20.652 109.022 20.408 109.326 20.24C109.638 20.072 109.994 19.988 110.394 19.988C111.274 19.988 111.862 20.356 112.158 21.092C112.334 20.756 112.594 20.488 112.938 20.288C113.282 20.088 113.67 19.988 114.102 19.988ZM122.25 24.392C122.386 24.392 122.494 24.444 122.574 24.548C122.662 24.652 122.706 24.792 122.706 24.968C122.706 25.216 122.558 25.424 122.262 25.592C121.99 25.744 121.682 25.868 121.338 25.964C120.994 26.052 120.666 26.096 120.354 26.096C119.41 26.096 118.662 25.824 118.11 25.28C117.558 24.736 117.282 23.992 117.282 23.048C117.282 22.448 117.402 21.916 117.642 21.452C117.882 20.988 118.218 20.628 118.65 20.372C119.09 20.116 119.586 19.988 120.138 19.988C120.666 19.988 121.126 20.104 121.518 20.336C121.91 20.568 122.214 20.896 122.43 21.32C122.646 21.744 122.754 22.244 122.754 22.82C122.754 23.164 122.602 23.336 122.298 23.336H118.758C118.806 23.888 118.962 24.296 119.226 24.56C119.49 24.816 119.874 24.944 120.378 24.944C120.634 24.944 120.858 24.912 121.05 24.848C121.25 24.784 121.474 24.696 121.722 24.584C121.962 24.456 122.138 24.392 122.25 24.392ZM120.174 21.044C119.766 21.044 119.438 21.172 119.19 21.428C118.95 21.684 118.806 22.052 118.758 22.532H121.47C121.454 22.044 121.334 21.676 121.11 21.428C120.886 21.172 120.574 21.044 120.174 21.044ZM126.105 26.096C125.233 26.096 124.529 25.924 123.993 25.58C123.737 25.428 123.609 25.212 123.609 24.932C123.609 24.772 123.653 24.644 123.741 24.548C123.829 24.444 123.937 24.392 124.065 24.392C124.201 24.392 124.389 24.456 124.629 24.584C124.885 24.704 125.117 24.796 125.325 24.86C125.541 24.924 125.813 24.956 126.141 24.956C126.477 24.956 126.737 24.9 126.921 24.788C127.113 24.676 127.209 24.52 127.209 24.32C127.209 24.184 127.169 24.076 127.089 23.996C127.017 23.916 126.881 23.844 126.681 23.78C126.489 23.708 126.193 23.628 125.793 23.54C125.081 23.396 124.569 23.192 124.257 22.928C123.953 22.664 123.801 22.3 123.801 21.836C123.801 21.484 123.905 21.168 124.113 20.888C124.321 20.6 124.605 20.38 124.965 20.228C125.333 20.068 125.749 19.988 126.213 19.988C126.549 19.988 126.873 20.032 127.185 20.12C127.497 20.2 127.777 20.32 128.025 20.48C128.281 20.64 128.409 20.852 128.409 21.116C128.409 21.276 128.365 21.412 128.277 21.524C128.189 21.628 128.081 21.68 127.953 21.68C127.865 21.68 127.777 21.664 127.689 21.632C127.609 21.592 127.505 21.536 127.377 21.464C127.145 21.344 126.945 21.256 126.777 21.2C126.609 21.136 126.401 21.104 126.153 21.104C125.857 21.104 125.621 21.164 125.445 21.284C125.277 21.404 125.193 21.568 125.193 21.776C125.193 21.976 125.281 22.128 125.457 22.232C125.633 22.336 125.973 22.44 126.477 22.544C127.013 22.656 127.433 22.784 127.737 22.928C128.041 23.072 128.257 23.252 128.385 23.468C128.521 23.684 128.589 23.96 128.589 24.296C128.589 24.84 128.361 25.276 127.905 25.604C127.457 25.932 126.857 26.096 126.105 26.096Z" fill="white"/>
</svg>
