<svg width="368" height="96" viewBox="0 0 368 96" fill="none" xmlns="http://www.w3.org/2000/svg">
<g filter="url(#filter0_d)">
<rect x="4" width="360" height="88" fill="white"/>
</g>
<mask id="mask0" mask-type="alpha" maskUnits="userSpaceOnUse" x="3" y="40" width="361" height="48">
<path fill-rule="evenodd" clip-rule="evenodd" d="M4 40V88H364V40H4Z" fill="white"/>
</mask>
<g mask="url(#mask0)">
<path d="M286.468 68.664C286.496 68.72 286.51 68.7713 286.51 68.818C286.51 68.8833 286.482 68.944 286.426 69C286.38 69.0467 286.319 69.07 286.244 69.07C286.151 69.07 286.072 69.0233 286.006 68.93L284.102 65.836C283.822 65.3693 283.524 65.052 283.206 64.884C282.898 64.716 282.469 64.632 281.918 64.632H279.818V68.748C279.818 68.8413 279.79 68.9207 279.734 68.986C279.688 69.042 279.622 69.07 279.538 69.07C279.445 69.07 279.37 69.042 279.314 68.986C279.268 68.93 279.244 68.8507 279.244 68.748V59.438C279.244 59.354 279.277 59.284 279.342 59.228C279.417 59.1627 279.501 59.13 279.594 59.13H283.052C284.07 59.13 284.854 59.3633 285.404 59.83C285.964 60.2873 286.244 60.964 286.244 61.86C286.244 62.6627 285.997 63.2927 285.502 63.75C285.017 64.2073 284.331 64.4687 283.444 64.534C283.659 64.6087 283.855 64.7347 284.032 64.912C284.219 65.0893 284.406 65.3273 284.592 65.626L286.468 68.664ZM283.066 64.072C284.774 64.072 285.628 63.33 285.628 61.846C285.628 61.118 285.418 60.5767 284.998 60.222C284.578 59.858 283.934 59.676 283.066 59.676H279.832V64.072H283.066ZM293.703 67.67C293.768 67.67 293.824 67.698 293.871 67.754C293.918 67.8007 293.941 67.8567 293.941 67.922C293.941 68.0153 293.904 68.1087 293.829 68.202C293.764 68.286 293.642 68.384 293.465 68.496C292.793 68.8973 292.098 69.098 291.379 69.098C290.362 69.098 289.559 68.7853 288.971 68.16C288.392 67.5347 288.103 66.676 288.103 65.584C288.103 64.884 288.234 64.268 288.495 63.736C288.756 63.204 289.125 62.7933 289.601 62.504C290.077 62.2053 290.623 62.056 291.239 62.056C292.098 62.056 292.774 62.336 293.269 62.896C293.764 63.456 294.011 64.2213 294.011 65.192C294.011 65.36 293.978 65.4813 293.913 65.556C293.848 65.6307 293.731 65.668 293.563 65.668H288.747C288.756 66.5827 288.985 67.2873 289.433 67.782C289.89 68.2767 290.53 68.524 291.351 68.524C291.799 68.524 292.168 68.4633 292.457 68.342C292.756 68.2207 293.045 68.062 293.325 67.866C293.521 67.7353 293.647 67.67 293.703 67.67ZM291.239 62.602C290.53 62.602 289.956 62.826 289.517 63.274C289.088 63.7127 288.836 64.3287 288.761 65.122H293.451C293.432 64.31 293.232 63.6893 292.849 63.26C292.466 62.8213 291.93 62.602 291.239 62.602ZM300.892 62.28C300.948 62.1493 301.037 62.084 301.158 62.084C301.233 62.084 301.298 62.112 301.354 62.168C301.41 62.2147 301.438 62.28 301.438 62.364C301.438 62.392 301.429 62.434 301.41 62.49L298.568 68.762C298.484 68.93 298.353 69.014 298.176 69.014C298.092 69.014 298.017 68.9953 297.952 68.958C297.887 68.9113 297.835 68.846 297.798 68.762L294.97 62.49L294.942 62.378C294.942 62.294 294.975 62.224 295.04 62.168C295.105 62.1027 295.18 62.07 295.264 62.07C295.385 62.07 295.465 62.126 295.502 62.238L298.19 68.314L300.892 62.28ZM303.201 69.07C303.107 69.07 303.033 69.042 302.977 68.986C302.93 68.93 302.907 68.8507 302.907 68.748V62.392C302.907 62.2987 302.93 62.224 302.977 62.168C303.033 62.112 303.107 62.084 303.201 62.084C303.294 62.084 303.364 62.112 303.411 62.168C303.467 62.224 303.495 62.2987 303.495 62.392V68.748C303.495 68.8507 303.467 68.93 303.411 68.986C303.364 69.042 303.294 69.07 303.201 69.07ZM303.201 60.404C303.061 60.404 302.939 60.3573 302.837 60.264C302.734 60.1707 302.683 60.0493 302.683 59.9C302.683 59.7413 302.729 59.6153 302.823 59.522C302.925 59.4287 303.051 59.382 303.201 59.382C303.35 59.382 303.471 59.4287 303.565 59.522C303.667 59.6153 303.719 59.7413 303.719 59.9C303.719 60.0493 303.667 60.1707 303.565 60.264C303.462 60.3573 303.341 60.404 303.201 60.404ZM311.012 67.67C311.077 67.67 311.133 67.698 311.18 67.754C311.226 67.8007 311.25 67.8567 311.25 67.922C311.25 68.0153 311.212 68.1087 311.138 68.202C311.072 68.286 310.951 68.384 310.774 68.496C310.102 68.8973 309.406 69.098 308.688 69.098C307.67 69.098 306.868 68.7853 306.28 68.16C305.701 67.5347 305.412 66.676 305.412 65.584C305.412 64.884 305.542 64.268 305.804 63.736C306.065 63.204 306.434 62.7933 306.91 62.504C307.386 62.2053 307.932 62.056 308.548 62.056C309.406 62.056 310.083 62.336 310.578 62.896C311.072 63.456 311.32 64.2213 311.32 65.192C311.32 65.36 311.287 65.4813 311.222 65.556C311.156 65.6307 311.04 65.668 310.872 65.668H306.056C306.065 66.5827 306.294 67.2873 306.742 67.782C307.199 68.2767 307.838 68.524 308.66 68.524C309.108 68.524 309.476 68.4633 309.766 68.342C310.064 68.2207 310.354 68.062 310.634 67.866C310.83 67.7353 310.956 67.67 311.012 67.67ZM308.548 62.602C307.838 62.602 307.264 62.826 306.826 63.274C306.396 63.7127 306.144 64.3287 306.07 65.122H310.76C310.741 64.31 310.54 63.6893 310.158 63.26C309.775 62.8213 309.238 62.602 308.548 62.602ZM322.527 62.308C322.583 62.168 322.667 62.098 322.779 62.098C322.872 62.098 322.951 62.1353 323.017 62.21C323.082 62.2847 323.096 62.3687 323.059 62.462L320.707 68.762C320.641 68.93 320.52 69.014 320.343 69.014C320.259 69.014 320.184 68.9953 320.119 68.958C320.053 68.9113 320.007 68.846 319.979 68.762L317.781 63.036L315.611 68.762C315.573 68.846 315.522 68.9113 315.457 68.958C315.391 68.9953 315.317 69.014 315.233 69.014C315.149 69.014 315.074 68.9953 315.009 68.958C314.943 68.9113 314.892 68.846 314.855 68.762L312.503 62.49C312.465 62.3873 312.484 62.294 312.559 62.21C312.643 62.126 312.736 62.084 312.839 62.084C312.96 62.084 313.039 62.1447 313.077 62.266L315.233 68.188L317.459 62.336C317.496 62.252 317.543 62.1913 317.599 62.154C317.664 62.1073 317.729 62.084 317.795 62.084C317.869 62.084 317.935 62.1073 317.991 62.154C318.056 62.1913 318.103 62.252 318.131 62.336L320.329 68.174L322.527 62.308ZM326.745 69.098C326.381 69.098 326.017 69.0467 325.653 68.944C325.289 68.832 324.963 68.6827 324.673 68.496C324.487 68.3747 324.361 68.2767 324.295 68.202C324.23 68.118 324.197 68.0247 324.197 67.922C324.197 67.8567 324.221 67.8007 324.267 67.754C324.314 67.698 324.37 67.67 324.435 67.67C324.482 67.67 324.543 67.698 324.617 67.754C324.701 67.8007 324.757 67.8333 324.785 67.852C325.056 68.048 325.336 68.2113 325.625 68.342C325.924 68.4633 326.297 68.524 326.745 68.524C327.352 68.524 327.819 68.412 328.145 68.188C328.472 67.964 328.635 67.6467 328.635 67.236C328.635 66.9933 328.575 66.7927 328.453 66.634C328.341 66.4753 328.15 66.34 327.879 66.228C327.618 66.1067 327.24 65.99 326.745 65.878C325.924 65.6913 325.336 65.4533 324.981 65.164C324.627 64.8747 324.449 64.492 324.449 64.016C324.449 63.4373 324.673 62.966 325.121 62.602C325.579 62.238 326.167 62.056 326.885 62.056C327.231 62.056 327.562 62.1027 327.879 62.196C328.197 62.2893 328.477 62.42 328.719 62.588C328.897 62.7187 329.023 62.8353 329.097 62.938C329.181 63.0313 329.223 63.1293 329.223 63.232C329.223 63.2973 329.2 63.358 329.153 63.414C329.107 63.4607 329.051 63.484 328.985 63.484C328.911 63.484 328.789 63.414 328.621 63.274C328.379 63.0873 328.122 62.9333 327.851 62.812C327.59 62.6907 327.259 62.63 326.857 62.63C326.335 62.63 325.91 62.756 325.583 63.008C325.266 63.2507 325.107 63.5727 325.107 63.974C325.107 64.2167 325.159 64.4173 325.261 64.576C325.364 64.7253 325.537 64.856 325.779 64.968C326.031 65.08 326.386 65.1873 326.843 65.29C327.487 65.4487 327.982 65.612 328.327 65.78C328.673 65.9387 328.915 66.1347 329.055 66.368C329.205 66.592 329.279 66.8813 329.279 67.236C329.279 67.796 329.046 68.2487 328.579 68.594C328.122 68.93 327.511 69.098 326.745 69.098Z" fill="#47CAC2"/>
<path d="M160.713 68.72C160.732 68.776 160.741 68.8133 160.741 68.832C160.741 68.9067 160.713 68.9627 160.657 69C160.61 69.0467 160.55 69.07 160.475 69.07C160.335 69.07 160.237 69.0047 160.181 68.874L159.047 66.27H153.461L152.313 68.874C152.257 69.0047 152.164 69.07 152.033 69.07C151.93 69.07 151.851 69.0373 151.795 68.972C151.739 68.9067 151.73 68.8227 151.767 68.72L155.911 59.27C155.967 59.1207 156.079 59.046 156.247 59.046C156.322 59.046 156.387 59.0693 156.443 59.116C156.508 59.1533 156.555 59.2047 156.583 59.27L160.713 68.72ZM158.795 65.71L156.247 59.886L153.699 65.71H158.795ZM167.213 62.28C167.269 62.1493 167.358 62.084 167.479 62.084C167.554 62.084 167.619 62.112 167.675 62.168C167.731 62.2147 167.759 62.28 167.759 62.364C167.759 62.392 167.75 62.434 167.731 62.49L164.889 68.762C164.805 68.93 164.675 69.014 164.497 69.014C164.413 69.014 164.339 68.9953 164.273 68.958C164.208 68.9113 164.157 68.846 164.119 68.762L161.291 62.49L161.263 62.378C161.263 62.294 161.296 62.224 161.361 62.168C161.427 62.1027 161.501 62.07 161.585 62.07C161.707 62.07 161.786 62.126 161.823 62.238L164.511 68.314L167.213 62.28ZM171.682 62.056C173.24 62.056 174.02 62.8913 174.02 64.562V68.734C174.02 68.8367 173.992 68.916 173.936 68.972C173.889 69.028 173.819 69.056 173.726 69.056C173.632 69.056 173.558 69.028 173.502 68.972C173.446 68.9067 173.418 68.8273 173.418 68.734V67.754C173.212 68.1833 172.914 68.5147 172.522 68.748C172.139 68.9813 171.7 69.098 171.206 69.098C170.776 69.098 170.38 69.0093 170.016 68.832C169.661 68.6547 169.376 68.412 169.162 68.104C168.956 67.7867 168.854 67.4413 168.854 67.068C168.854 66.564 168.984 66.1767 169.246 65.906C169.516 65.626 169.955 65.4253 170.562 65.304C171.178 65.1827 172.036 65.122 173.138 65.122H173.418V64.534C173.418 63.8713 173.282 63.3907 173.012 63.092C172.75 62.784 172.335 62.63 171.766 62.63C171.318 62.63 170.916 62.6907 170.562 62.812C170.216 62.924 169.941 63.0547 169.736 63.204C169.698 63.232 169.619 63.288 169.498 63.372C169.386 63.4467 169.292 63.484 169.218 63.484C169.152 63.484 169.092 63.4607 169.036 63.414C168.989 63.358 168.966 63.2927 168.966 63.218C168.966 63.0407 169.129 62.854 169.456 62.658C169.782 62.462 170.137 62.3127 170.52 62.21C170.912 62.1073 171.299 62.056 171.682 62.056ZM171.206 68.51C171.626 68.51 172.004 68.412 172.34 68.216C172.676 68.0107 172.937 67.7307 173.124 67.376C173.32 67.0213 173.418 66.62 173.418 66.172V65.668H173.152C172.172 65.668 171.425 65.71 170.912 65.794C170.398 65.8687 170.039 66.004 169.834 66.2C169.628 66.3867 169.526 66.6667 169.526 67.04C169.526 67.4693 169.684 67.824 170.002 68.104C170.319 68.3747 170.72 68.51 171.206 68.51ZM176.672 69.07C176.579 69.07 176.504 69.042 176.448 68.986C176.402 68.93 176.378 68.8507 176.378 68.748V62.392C176.378 62.2987 176.402 62.224 176.448 62.168C176.504 62.112 176.579 62.084 176.672 62.084C176.766 62.084 176.836 62.112 176.882 62.168C176.938 62.224 176.966 62.2987 176.966 62.392V68.748C176.966 68.8507 176.938 68.93 176.882 68.986C176.836 69.042 176.766 69.07 176.672 69.07ZM176.672 60.404C176.532 60.404 176.411 60.3573 176.308 60.264C176.206 60.1707 176.154 60.0493 176.154 59.9C176.154 59.7413 176.201 59.6153 176.294 59.522C176.397 59.4287 176.523 59.382 176.672 59.382C176.822 59.382 176.943 59.4287 177.036 59.522C177.139 59.6153 177.19 59.7413 177.19 59.9C177.19 60.0493 177.139 60.1707 177.036 60.264C176.934 60.3573 176.812 60.404 176.672 60.404ZM179.639 69.07C179.546 69.07 179.471 69.042 179.415 68.986C179.369 68.93 179.345 68.8507 179.345 68.748V59.382C179.345 59.2793 179.369 59.2 179.415 59.144C179.471 59.088 179.546 59.06 179.639 59.06C179.723 59.06 179.793 59.0927 179.849 59.158C179.905 59.214 179.933 59.2887 179.933 59.382V68.748C179.933 68.8413 179.905 68.9207 179.849 68.986C179.793 69.042 179.723 69.07 179.639 69.07ZM184.916 62.056C186.475 62.056 187.254 62.8913 187.254 64.562V68.734C187.254 68.8367 187.226 68.916 187.17 68.972C187.123 69.028 187.053 69.056 186.96 69.056C186.867 69.056 186.792 69.028 186.736 68.972C186.68 68.9067 186.652 68.8273 186.652 68.734V67.754C186.447 68.1833 186.148 68.5147 185.756 68.748C185.373 68.9813 184.935 69.098 184.44 69.098C184.011 69.098 183.614 69.0093 183.25 68.832C182.895 68.6547 182.611 68.412 182.396 68.104C182.191 67.7867 182.088 67.4413 182.088 67.068C182.088 66.564 182.219 66.1767 182.48 65.906C182.751 65.626 183.189 65.4253 183.796 65.304C184.412 65.1827 185.271 65.122 186.372 65.122H186.652V64.534C186.652 63.8713 186.517 63.3907 186.246 63.092C185.985 62.784 185.569 62.63 185 62.63C184.552 62.63 184.151 62.6907 183.796 62.812C183.451 62.924 183.175 63.0547 182.97 63.204C182.933 63.232 182.853 63.288 182.732 63.372C182.62 63.4467 182.527 63.484 182.452 63.484C182.387 63.484 182.326 63.4607 182.27 63.414C182.223 63.358 182.2 63.2927 182.2 63.218C182.2 63.0407 182.363 62.854 182.69 62.658C183.017 62.462 183.371 62.3127 183.754 62.21C184.146 62.1073 184.533 62.056 184.916 62.056ZM184.44 68.51C184.86 68.51 185.238 68.412 185.574 68.216C185.91 68.0107 186.171 67.7307 186.358 67.376C186.554 67.0213 186.652 66.62 186.652 66.172V65.668H186.386C185.406 65.668 184.659 65.71 184.146 65.794C183.633 65.8687 183.273 66.004 183.068 66.2C182.863 66.3867 182.76 66.6667 182.76 67.04C182.76 67.4693 182.919 67.824 183.236 68.104C183.553 68.3747 183.955 68.51 184.44 68.51ZM192.581 62.056C193.178 62.056 193.706 62.2007 194.163 62.49C194.62 62.7793 194.975 63.1853 195.227 63.708C195.479 64.2307 195.605 64.842 195.605 65.542C195.605 66.2513 195.479 66.8767 195.227 67.418C194.975 67.95 194.62 68.3653 194.163 68.664C193.706 68.9533 193.178 69.098 192.581 69.098C192.012 69.098 191.522 68.972 191.111 68.72C190.71 68.468 190.406 68.104 190.201 67.628V68.734C190.201 68.9487 190.103 69.056 189.907 69.056C189.814 69.056 189.739 69.028 189.683 68.972C189.636 68.916 189.613 68.8367 189.613 68.734V59.382C189.613 59.1673 189.711 59.06 189.907 59.06C190 59.06 190.07 59.088 190.117 59.144C190.173 59.2 190.201 59.2793 190.201 59.382V63.512C190.406 63.0453 190.71 62.686 191.111 62.434C191.522 62.182 192.012 62.056 192.581 62.056ZM192.581 68.524C193.328 68.524 193.911 68.2627 194.331 67.74C194.751 67.2173 194.961 66.4847 194.961 65.542C194.961 64.618 194.751 63.904 194.331 63.4C193.911 62.8867 193.323 62.63 192.567 62.63C191.811 62.63 191.228 62.8867 190.817 63.4C190.406 63.9133 190.201 64.6367 190.201 65.57C190.201 66.5127 190.406 67.2407 190.817 67.754C191.228 68.2673 191.816 68.524 192.581 68.524ZM197.823 69.07C197.73 69.07 197.655 69.042 197.599 68.986C197.552 68.93 197.529 68.8507 197.529 68.748V62.392C197.529 62.2987 197.552 62.224 197.599 62.168C197.655 62.112 197.73 62.084 197.823 62.084C197.916 62.084 197.986 62.112 198.033 62.168C198.089 62.224 198.117 62.2987 198.117 62.392V68.748C198.117 68.8507 198.089 68.93 198.033 68.986C197.986 69.042 197.916 69.07 197.823 69.07ZM197.823 60.404C197.683 60.404 197.562 60.3573 197.459 60.264C197.356 60.1707 197.305 60.0493 197.305 59.9C197.305 59.7413 197.352 59.6153 197.445 59.522C197.548 59.4287 197.674 59.382 197.823 59.382C197.972 59.382 198.094 59.4287 198.187 59.522C198.29 59.6153 198.341 59.7413 198.341 59.9C198.341 60.0493 198.29 60.1707 198.187 60.264C198.084 60.3573 197.963 60.404 197.823 60.404ZM200.79 69.07C200.696 69.07 200.622 69.042 200.566 68.986C200.519 68.93 200.496 68.8507 200.496 68.748V59.382C200.496 59.2793 200.519 59.2 200.566 59.144C200.622 59.088 200.696 59.06 200.79 59.06C200.874 59.06 200.944 59.0927 201 59.158C201.056 59.214 201.084 59.2887 201.084 59.382V68.748C201.084 68.8413 201.056 68.9207 201 68.986C200.944 69.042 200.874 69.07 200.79 69.07ZM203.756 69.07C203.663 69.07 203.588 69.042 203.532 68.986C203.486 68.93 203.462 68.8507 203.462 68.748V62.392C203.462 62.2987 203.486 62.224 203.532 62.168C203.588 62.112 203.663 62.084 203.756 62.084C203.85 62.084 203.92 62.112 203.966 62.168C204.022 62.224 204.05 62.2987 204.05 62.392V68.748C204.05 68.8507 204.022 68.93 203.966 68.986C203.92 69.042 203.85 69.07 203.756 69.07ZM203.756 60.404C203.616 60.404 203.495 60.3573 203.392 60.264C203.29 60.1707 203.238 60.0493 203.238 59.9C203.238 59.7413 203.285 59.6153 203.378 59.522C203.481 59.4287 203.607 59.382 203.756 59.382C203.906 59.382 204.027 59.4287 204.12 59.522C204.223 59.6153 204.274 59.7413 204.274 59.9C204.274 60.0493 204.223 60.1707 204.12 60.264C204.018 60.3573 203.896 60.404 203.756 60.404ZM209.201 68.524C209.407 68.5427 209.509 68.636 209.509 68.804C209.509 69.0093 209.374 69.098 209.103 69.07L208.739 69.042C208.039 68.9953 207.526 68.7853 207.199 68.412C206.873 68.0293 206.709 67.4413 206.709 66.648V62.728H205.547C205.482 62.728 205.426 62.7047 205.379 62.658C205.333 62.6113 205.309 62.5553 205.309 62.49C205.309 62.4153 205.333 62.3547 205.379 62.308C205.426 62.252 205.482 62.224 205.547 62.224H206.709V60.362C206.709 60.2593 206.737 60.18 206.793 60.124C206.849 60.068 206.919 60.04 207.003 60.04C207.087 60.04 207.157 60.068 207.213 60.124C207.269 60.18 207.297 60.2593 207.297 60.362V62.224H209.159C209.225 62.224 209.281 62.252 209.327 62.308C209.374 62.3547 209.397 62.4153 209.397 62.49C209.397 62.5553 209.374 62.6113 209.327 62.658C209.29 62.7047 209.234 62.728 209.159 62.728H207.297V66.662C207.297 67.2967 207.419 67.7493 207.661 68.02C207.913 68.2907 208.301 68.4493 208.823 68.496L209.201 68.524ZM215.926 62.28C215.982 62.1493 216.071 62.084 216.192 62.084C216.267 62.084 216.332 62.112 216.388 62.168C216.444 62.2147 216.472 62.28 216.472 62.364C216.472 62.392 216.463 62.434 216.444 62.49L212.426 71.394C212.37 71.506 212.286 71.562 212.174 71.562C212.1 71.562 212.034 71.5387 211.978 71.492C211.932 71.4453 211.908 71.3847 211.908 71.31L211.936 71.198L212.944 68.986L210.004 62.49C209.986 62.434 209.976 62.392 209.976 62.364C209.976 62.28 210.009 62.21 210.074 62.154C210.14 62.098 210.214 62.07 210.298 62.07C210.401 62.07 210.48 62.126 210.536 62.238L213.238 68.328L213.266 68.258L215.926 62.28Z" fill="#47CAC2"/>
<path d="M28.3418 69.084C28.0712 69.084 27.8518 69 27.6838 68.832C27.5252 68.664 27.4458 68.4447 27.4458 68.174V59.956C27.4458 59.6853 27.5252 59.4707 27.6838 59.312C27.8518 59.144 28.0712 59.06 28.3418 59.06C28.6218 59.06 28.8412 59.144 28.9998 59.312C29.1678 59.4707 29.2518 59.6853 29.2518 59.956V68.174C29.2518 68.4447 29.1678 68.664 28.9998 68.832C28.8412 69 28.6218 69.084 28.3418 69.084ZM35.2053 61.986C36.0267 61.986 36.638 62.2193 37.0393 62.686C37.4407 63.1527 37.6413 63.8573 37.6413 64.8V68.244C37.6413 68.5053 37.562 68.7107 37.4033 68.86C37.254 69.0093 37.044 69.084 36.7733 69.084C36.5027 69.084 36.288 69.0093 36.1293 68.86C35.9707 68.7107 35.8913 68.5053 35.8913 68.244V64.898C35.8913 64.366 35.7887 63.9787 35.5833 63.736C35.3873 63.4933 35.0747 63.372 34.6453 63.372C34.1413 63.372 33.7353 63.5307 33.4273 63.848C33.1287 64.1653 32.9793 64.59 32.9793 65.122V68.244C32.9793 68.5053 32.9 68.7107 32.7413 68.86C32.5827 69.0093 32.368 69.084 32.0973 69.084C31.8267 69.084 31.612 69.0093 31.4533 68.86C31.304 68.7107 31.2293 68.5053 31.2293 68.244V62.826C31.2293 62.5833 31.3087 62.3873 31.4673 62.238C31.626 62.0887 31.8407 62.014 32.1113 62.014C32.354 62.014 32.55 62.0887 32.6993 62.238C32.858 62.378 32.9373 62.5647 32.9373 62.798V63.176C33.1707 62.7933 33.4833 62.4993 33.8753 62.294C34.2673 62.0887 34.7107 61.986 35.2053 61.986ZM42.8768 60.432C42.4475 60.46 42.1348 60.5907 41.9388 60.824C41.7428 61.0573 41.6448 61.3933 41.6448 61.832V62.154H42.8348C43.3575 62.154 43.6188 62.3733 43.6188 62.812C43.6188 63.2507 43.3575 63.47 42.8348 63.47H41.6448V68.244C41.6448 68.5147 41.5608 68.72 41.3928 68.86C41.2341 69 41.0288 69.07 40.7768 69.07C40.5248 69.07 40.3148 69 40.1468 68.86C39.9788 68.72 39.8948 68.5147 39.8948 68.244V63.47H39.1948C38.6721 63.47 38.4108 63.2507 38.4108 62.812C38.4108 62.3733 38.6721 62.154 39.1948 62.154H39.8948V62.056C39.8948 61.1787 40.1235 60.4927 40.5808 59.998C41.0475 59.494 41.7008 59.2093 42.5408 59.144L42.9048 59.116C43.2781 59.088 43.5395 59.13 43.6888 59.242C43.8475 59.3447 43.9268 59.508 43.9268 59.732C43.9268 60.1333 43.6981 60.3573 43.2408 60.404L42.8768 60.432ZM47.49 69.112C46.79 69.112 46.174 68.9673 45.642 68.678C45.1193 68.3887 44.7133 67.9733 44.424 67.432C44.1347 66.8907 43.99 66.2607 43.99 65.542C43.99 64.8233 44.1347 64.198 44.424 63.666C44.7133 63.1247 45.1193 62.7093 45.642 62.42C46.174 62.1307 46.79 61.986 47.49 61.986C48.19 61.986 48.8013 62.1307 49.324 62.42C49.856 62.7093 50.262 63.1247 50.542 63.666C50.8313 64.198 50.976 64.8233 50.976 65.542C50.976 66.2607 50.8313 66.8907 50.542 67.432C50.262 67.9733 49.856 68.3887 49.324 68.678C48.8013 68.9673 48.19 69.112 47.49 69.112ZM47.476 67.754C48.0453 67.754 48.4793 67.5673 48.778 67.194C49.0767 66.8207 49.226 66.27 49.226 65.542C49.226 64.8233 49.0767 64.2773 48.778 63.904C48.4793 63.5213 48.05 63.33 47.49 63.33C46.93 63.33 46.496 63.5213 46.188 63.904C45.8893 64.2773 45.74 64.8233 45.74 65.542C45.74 66.27 45.8893 66.8207 46.188 67.194C46.4867 67.5673 46.916 67.754 47.476 67.754ZM56.2427 62.014C56.4854 61.9953 56.6767 62.0467 56.8167 62.168C56.9567 62.2893 57.0267 62.4713 57.0267 62.714C57.0267 62.966 56.9661 63.1527 56.8447 63.274C56.7234 63.3953 56.5041 63.4747 56.1867 63.512L55.7667 63.554C55.2161 63.61 54.8101 63.7967 54.5487 64.114C54.2967 64.4313 54.1707 64.828 54.1707 65.304V68.244C54.1707 68.5147 54.0867 68.7247 53.9187 68.874C53.7507 69.014 53.5407 69.084 53.2887 69.084C53.0367 69.084 52.8267 69.014 52.6587 68.874C52.5001 68.7247 52.4207 68.5147 52.4207 68.244V62.826C52.4207 62.5647 52.5001 62.364 52.6587 62.224C52.8267 62.084 53.0321 62.014 53.2747 62.014C53.5174 62.014 53.7134 62.084 53.8627 62.224C54.0121 62.3547 54.0867 62.546 54.0867 62.798V63.358C54.2641 62.9473 54.5254 62.63 54.8707 62.406C55.2254 62.182 55.6174 62.056 56.0467 62.028L56.2427 62.014ZM65.9141 61.986C66.6608 61.986 67.2301 62.21 67.6221 62.658C68.0235 63.0967 68.2241 63.8107 68.2241 64.8V68.244C68.2241 68.5147 68.1401 68.7247 67.9721 68.874C67.8135 69.014 67.6035 69.084 67.3421 69.084C67.0901 69.084 66.8801 69.014 66.7121 68.874C66.5535 68.7247 66.4741 68.5147 66.4741 68.244V64.8C66.4741 64.2867 66.3808 63.9227 66.1941 63.708C66.0168 63.484 65.7415 63.372 65.3681 63.372C64.9108 63.372 64.5468 63.5307 64.2761 63.848C64.0055 64.156 63.8701 64.5807 63.8701 65.122V68.244C63.8701 68.5147 63.7861 68.7247 63.6181 68.874C63.4595 69.014 63.2541 69.084 63.0021 69.084C62.7501 69.084 62.5401 69.014 62.3721 68.874C62.2041 68.7247 62.1201 68.5147 62.1201 68.244V64.8C62.1201 64.2867 62.0268 63.9227 61.8401 63.708C61.6628 63.484 61.3875 63.372 61.0141 63.372C60.5568 63.372 60.1928 63.5307 59.9221 63.848C59.6608 64.156 59.5301 64.5807 59.5301 65.122V68.244C59.5301 68.5147 59.4461 68.7247 59.2781 68.874C59.1101 69.014 58.9001 69.084 58.6481 69.084C58.3961 69.084 58.1861 69.014 58.0181 68.874C57.8595 68.7247 57.7801 68.5147 57.7801 68.244V62.826C57.7801 62.5647 57.8641 62.364 58.0321 62.224C58.2001 62.084 58.4101 62.014 58.6621 62.014C58.9048 62.014 59.1008 62.084 59.2501 62.224C59.4088 62.3547 59.4881 62.546 59.4881 62.798V63.134C59.7028 62.7607 59.9875 62.476 60.3421 62.28C60.7061 62.084 61.1215 61.986 61.5881 61.986C62.6148 61.986 63.3008 62.4153 63.6461 63.274C63.8515 62.882 64.1548 62.5693 64.5561 62.336C64.9575 62.1027 65.4101 61.986 65.9141 61.986ZM72.9708 61.986C73.9228 61.986 74.6274 62.224 75.0848 62.7C75.5514 63.1667 75.7848 63.8807 75.7848 64.842V68.258C75.7848 68.51 75.7101 68.7107 75.5608 68.86C75.4114 69 75.2061 69.07 74.9448 69.07C74.7021 69.07 74.5014 68.9953 74.3428 68.846C74.1934 68.6967 74.1188 68.5007 74.1188 68.258V67.95C73.9601 68.314 73.7081 68.5987 73.3628 68.804C73.0268 69.0093 72.6348 69.112 72.1868 69.112C71.7294 69.112 71.3141 69.0187 70.9408 68.832C70.5674 68.6453 70.2734 68.3887 70.0588 68.062C69.8441 67.7353 69.7368 67.3713 69.7368 66.97C69.7368 66.466 69.8628 66.0693 70.1148 65.78C70.3761 65.4907 70.7961 65.2807 71.3748 65.15C71.9534 65.0193 72.7514 64.954 73.7688 64.954H74.1188V64.632C74.1188 64.1747 74.0208 63.8433 73.8248 63.638C73.6288 63.4233 73.3114 63.316 72.8728 63.316C72.6021 63.316 72.3268 63.358 72.0468 63.442C71.7668 63.5167 71.4354 63.6287 71.0528 63.778C70.8101 63.8993 70.6328 63.96 70.5208 63.96C70.3528 63.96 70.2128 63.8993 70.1008 63.778C69.9981 63.6567 69.9468 63.498 69.9468 63.302C69.9468 63.1433 69.9841 63.008 70.0588 62.896C70.1428 62.7747 70.2781 62.6627 70.4648 62.56C70.7914 62.3827 71.1788 62.2427 71.6268 62.14C72.0841 62.0373 72.5321 61.986 72.9708 61.986ZM72.5368 67.852C73.0034 67.852 73.3814 67.698 73.6708 67.39C73.9694 67.0727 74.1188 66.6667 74.1188 66.172V65.878H73.8668C73.2414 65.878 72.7561 65.906 72.4108 65.962C72.0654 66.018 71.8181 66.116 71.6688 66.256C71.5194 66.396 71.4448 66.5873 71.4448 66.83C71.4448 67.1287 71.5474 67.376 71.7528 67.572C71.9674 67.7587 72.2288 67.852 72.5368 67.852ZM81.1193 67.782C81.586 67.81 81.8193 68.02 81.8193 68.412C81.8193 68.636 81.726 68.8087 81.5393 68.93C81.362 69.042 81.1053 69.0887 80.7693 69.07L80.3913 69.042C78.8233 68.93 78.0393 68.09 78.0393 66.522V63.47H77.3393C77.0873 63.47 76.8913 63.414 76.7513 63.302C76.6207 63.19 76.5553 63.0267 76.5553 62.812C76.5553 62.5973 76.6207 62.434 76.7513 62.322C76.8913 62.21 77.0873 62.154 77.3393 62.154H78.0393V60.866C78.0393 60.614 78.1187 60.4133 78.2773 60.264C78.436 60.1147 78.6507 60.04 78.9213 60.04C79.1827 60.04 79.3927 60.1147 79.5513 60.264C79.71 60.4133 79.7893 60.614 79.7893 60.866V62.154H80.9793C81.2313 62.154 81.4227 62.21 81.5533 62.322C81.6933 62.434 81.7633 62.5973 81.7633 62.812C81.7633 63.0267 81.6933 63.19 81.5533 63.302C81.4227 63.414 81.2313 63.47 80.9793 63.47H79.7893V66.648C79.7893 67.3387 80.1067 67.7073 80.7413 67.754L81.1193 67.782ZM83.5993 69.084C83.3473 69.084 83.1373 69.014 82.9693 68.874C82.8106 68.7247 82.7313 68.5147 82.7313 68.244V62.84C82.7313 62.5693 82.8106 62.364 82.9693 62.224C83.1373 62.084 83.3473 62.014 83.5993 62.014C83.8513 62.014 84.0613 62.084 84.2293 62.224C84.3973 62.364 84.4813 62.5693 84.4813 62.84V68.244C84.4813 68.5147 84.3973 68.7247 84.2293 68.874C84.0613 69.014 83.8513 69.084 83.5993 69.084ZM83.5993 60.768C83.282 60.768 83.03 60.684 82.8433 60.516C82.6566 60.3387 82.5633 60.11 82.5633 59.83C82.5633 59.55 82.6566 59.326 82.8433 59.158C83.03 58.99 83.282 58.906 83.5993 58.906C83.9073 58.906 84.1546 58.99 84.3413 59.158C84.5373 59.326 84.6353 59.55 84.6353 59.83C84.6353 60.11 84.542 60.3387 84.3553 60.516C84.1686 60.684 83.9166 60.768 83.5993 60.768ZM89.408 69.112C88.708 69.112 88.092 68.9673 87.56 68.678C87.0373 68.3887 86.6313 67.9733 86.342 67.432C86.0526 66.8907 85.908 66.2607 85.908 65.542C85.908 64.8233 86.0526 64.198 86.342 63.666C86.6313 63.1247 87.0373 62.7093 87.56 62.42C88.092 62.1307 88.708 61.986 89.408 61.986C90.108 61.986 90.7193 62.1307 91.242 62.42C91.774 62.7093 92.18 63.1247 92.46 63.666C92.7493 64.198 92.894 64.8233 92.894 65.542C92.894 66.2607 92.7493 66.8907 92.46 67.432C92.18 67.9733 91.774 68.3887 91.242 68.678C90.7193 68.9673 90.108 69.112 89.408 69.112ZM89.394 67.754C89.9633 67.754 90.3973 67.5673 90.696 67.194C90.9946 66.8207 91.144 66.27 91.144 65.542C91.144 64.8233 90.9946 64.2773 90.696 63.904C90.3973 63.5213 89.968 63.33 89.408 63.33C88.848 63.33 88.414 63.5213 88.106 63.904C87.8073 64.2773 87.658 64.8233 87.658 65.542C87.658 66.27 87.8073 66.8207 88.106 67.194C88.4046 67.5673 88.834 67.754 89.394 67.754ZM98.3147 61.986C99.136 61.986 99.7474 62.2193 100.149 62.686C100.55 63.1527 100.751 63.8573 100.751 64.8V68.244C100.751 68.5053 100.671 68.7107 100.513 68.86C100.363 69.0093 100.153 69.084 99.8827 69.084C99.612 69.084 99.3974 69.0093 99.2387 68.86C99.08 68.7107 99.0007 68.5053 99.0007 68.244V64.898C99.0007 64.366 98.898 63.9787 98.6927 63.736C98.4967 63.4933 98.184 63.372 97.7547 63.372C97.2507 63.372 96.8447 63.5307 96.5367 63.848C96.238 64.1653 96.0887 64.59 96.0887 65.122V68.244C96.0887 68.5053 96.0094 68.7107 95.8507 68.86C95.692 69.0093 95.4774 69.084 95.2067 69.084C94.936 69.084 94.7214 69.0093 94.5627 68.86C94.4134 68.7107 94.3387 68.5053 94.3387 68.244V62.826C94.3387 62.5833 94.418 62.3873 94.5767 62.238C94.7354 62.0887 94.95 62.014 95.2207 62.014C95.4634 62.014 95.6594 62.0887 95.8087 62.238C95.9674 62.378 96.0467 62.5647 96.0467 62.798V63.176C96.28 62.7933 96.5927 62.4993 96.9847 62.294C97.3767 62.0887 97.82 61.986 98.3147 61.986Z" fill="#FF5A6E"/>
<path fill-rule="evenodd" clip-rule="evenodd" d="M4 86V88H124V86H4Z" fill="#FF5A6E"/>
</g>
<path d="M339.689 16.5925C337.666 14.4692 334.373 14.4692 332.35 16.5925C330.328 18.7158 330.328 22.1729 332.35 24.2962L336.007 28.1345L339.689 32L343.346 28.1617L347.002 24.3235C349.025 22.2002 349.025 18.743 347.002 16.6197C344.979 14.4964 341.712 14.4692 339.689 16.5925Z" fill="#FF5A6E"/>
<path d="M339.689 16.5925C337.666 14.4692 334.373 14.4692 332.35 16.5925C330.328 18.7158 330.328 22.1729 332.35 24.2962L336.007 28.1345L339.689 32L343.346 28.1617L347.002 24.3235C349.025 22.2002 349.025 18.743 347.002 16.6197C344.979 14.4964 341.712 14.4692 339.689 16.5925Z" stroke="#F98795"/>
<path d="M117.909 31C117.653 31 117.451 30.9307 117.301 30.792C117.163 30.6427 117.093 30.4453 117.093 30.2V20.52C117.093 20.2747 117.163 20.0827 117.301 19.944C117.451 19.7947 117.653 19.72 117.909 19.72H121.045C122.869 19.72 124.283 20.2107 125.285 21.192C126.288 22.1733 126.789 23.56 126.789 25.352C126.789 27.144 126.288 28.536 125.285 29.528C124.283 30.5093 122.869 31 121.045 31H117.909ZM120.949 29.624C123.723 29.624 125.109 28.2 125.109 25.352C125.109 22.5147 123.723 21.096 120.949 21.096H118.741V29.624H120.949ZM132.119 23C133.153 23 133.921 23.2613 134.423 23.784C134.935 24.3067 135.191 25.1013 135.191 26.168V30.312C135.191 30.5573 135.121 30.7493 134.983 30.888C134.844 31.016 134.652 31.08 134.407 31.08C134.172 31.08 133.985 31.0107 133.847 30.872C133.708 30.7333 133.639 30.5467 133.639 30.312V29.72C133.436 30.168 133.132 30.5147 132.727 30.76C132.332 30.9947 131.868 31.112 131.335 31.112C130.823 31.112 130.353 31.0107 129.927 30.808C129.5 30.5947 129.164 30.3013 128.919 29.928C128.684 29.5547 128.567 29.1387 128.567 28.68C128.567 28.1147 128.711 27.672 128.999 27.352C129.297 27.0213 129.783 26.7867 130.455 26.648C131.137 26.5093 132.071 26.44 133.255 26.44H133.623V25.976C133.623 25.3787 133.5 24.9467 133.255 24.68C133.009 24.4133 132.615 24.28 132.071 24.28C131.697 24.28 131.345 24.328 131.015 24.424C130.684 24.52 130.321 24.6587 129.927 24.84C129.639 25 129.436 25.08 129.319 25.08C129.159 25.08 129.025 25.0213 128.919 24.904C128.823 24.7867 128.775 24.6373 128.775 24.456C128.775 24.296 128.817 24.1573 128.903 24.04C128.999 23.912 129.148 23.7893 129.351 23.672C129.724 23.4693 130.161 23.3093 130.663 23.192C131.164 23.064 131.649 23 132.119 23ZM131.623 29.912C132.209 29.912 132.689 29.7147 133.063 29.32C133.436 28.9147 133.623 28.3973 133.623 27.768V27.352H133.335C132.503 27.352 131.863 27.3893 131.415 27.464C130.967 27.5387 130.647 27.6667 130.455 27.848C130.263 28.0187 130.167 28.2693 130.167 28.6C130.167 28.984 130.305 29.2987 130.583 29.544C130.86 29.7893 131.207 29.912 131.623 29.912ZM141.609 23C143.476 23 144.409 24.0507 144.409 26.152V30.312C144.409 30.5573 144.335 30.7493 144.185 30.888C144.047 31.016 143.849 31.08 143.593 31.08C143.348 31.08 143.151 31.0107 143.001 30.872C142.863 30.7333 142.793 30.5467 142.793 30.312V26.232C142.793 25.5707 142.66 25.0853 142.393 24.776C142.137 24.4667 141.732 24.312 141.177 24.312C140.527 24.312 140.004 24.5147 139.609 24.92C139.215 25.3253 139.017 25.8693 139.017 26.552V30.312C139.017 30.5467 138.943 30.7333 138.793 30.872C138.655 31.0107 138.463 31.08 138.217 31.08C137.972 31.08 137.775 31.0107 137.625 30.872C137.476 30.7333 137.401 30.5467 137.401 30.312V23.8C137.401 23.576 137.476 23.3947 137.625 23.256C137.785 23.1067 137.983 23.032 138.217 23.032C138.452 23.032 138.639 23.1013 138.777 23.24C138.916 23.3787 138.985 23.56 138.985 23.784V24.44C139.241 23.9707 139.599 23.6133 140.057 23.368C140.516 23.1227 141.033 23 141.609 23ZM149.964 31.112C149.207 31.112 148.54 30.9467 147.964 30.616C147.399 30.2853 146.956 29.816 146.636 29.208C146.327 28.6 146.172 27.896 146.172 27.096C146.172 26.2853 146.332 25.5707 146.652 24.952C146.983 24.3333 147.441 23.8533 148.028 23.512C148.615 23.1707 149.287 23 150.044 23C150.449 23 150.855 23.0587 151.26 23.176C151.676 23.2933 152.044 23.4533 152.364 23.656C152.705 23.8907 152.876 24.1627 152.876 24.472C152.876 24.6533 152.828 24.808 152.732 24.936C152.636 25.0533 152.513 25.112 152.364 25.112C152.268 25.112 152.172 25.0907 152.076 25.048C151.98 24.9947 151.857 24.92 151.708 24.824C151.441 24.6533 151.191 24.5253 150.956 24.44C150.732 24.344 150.46 24.296 150.14 24.296C149.415 24.296 148.849 24.5413 148.444 25.032C148.049 25.5227 147.852 26.2053 147.852 27.08C147.852 27.9547 148.049 28.632 148.444 29.112C148.839 29.5813 149.399 29.816 150.124 29.816C150.444 29.816 150.727 29.768 150.972 29.672C151.217 29.576 151.468 29.448 151.724 29.288C151.841 29.2133 151.959 29.1493 152.076 29.096C152.193 29.0427 152.3 29.016 152.396 29.016C152.545 29.016 152.668 29.08 152.764 29.208C152.86 29.3253 152.908 29.4747 152.908 29.656C152.908 29.8053 152.865 29.944 152.78 30.072C152.705 30.1893 152.572 30.312 152.38 30.44C152.06 30.6533 151.687 30.8187 151.26 30.936C150.833 31.0533 150.401 31.112 149.964 31.112ZM160.466 29.032C160.616 29.032 160.738 29.0907 160.834 29.208C160.93 29.3253 160.978 29.4747 160.978 29.656C160.978 29.9653 160.786 30.2267 160.402 30.44C160.029 30.6533 159.618 30.8187 159.17 30.936C158.733 31.0533 158.312 31.112 157.906 31.112C156.669 31.112 155.693 30.7547 154.978 30.04C154.264 29.3147 153.906 28.328 153.906 27.08C153.906 26.28 154.061 25.5707 154.37 24.952C154.69 24.3333 155.133 23.8533 155.698 23.512C156.274 23.1707 156.925 23 157.65 23C158.696 23 159.522 23.336 160.13 24.008C160.738 24.68 161.042 25.5867 161.042 26.728C161.042 27.1547 160.85 27.368 160.466 27.368H155.522C155.629 29.0213 156.424 29.848 157.906 29.848C158.301 29.848 158.642 29.7947 158.93 29.688C159.218 29.5813 159.522 29.4427 159.842 29.272C159.874 29.2507 159.96 29.208 160.098 29.144C160.248 29.0693 160.37 29.032 160.466 29.032ZM157.682 24.184C157.064 24.184 156.568 24.3813 156.194 24.776C155.821 25.1707 155.597 25.7253 155.522 26.44H159.65C159.618 25.7147 159.432 25.16 159.09 24.776C158.76 24.3813 158.29 24.184 157.682 24.184ZM172.146 31.128C171.069 31.128 170.13 30.8987 169.33 30.44C168.53 29.9707 167.917 29.304 167.49 28.44C167.063 27.5653 166.85 26.536 166.85 25.352C166.85 24.1787 167.063 23.16 167.49 22.296C167.917 21.4213 168.53 20.7547 169.33 20.296C170.13 19.8267 171.069 19.592 172.146 19.592C172.85 19.592 173.517 19.704 174.146 19.928C174.775 20.1413 175.325 20.456 175.794 20.872C175.997 21.032 176.098 21.2453 176.098 21.512C176.098 21.704 176.045 21.8693 175.938 22.008C175.831 22.136 175.703 22.2 175.554 22.2C175.373 22.2 175.197 22.1307 175.026 21.992C174.514 21.608 174.045 21.3413 173.618 21.192C173.202 21.032 172.727 20.952 172.194 20.952C171.021 20.952 170.119 21.3307 169.49 22.088C168.861 22.8453 168.546 23.9333 168.546 25.352C168.546 26.7813 168.861 27.8747 169.49 28.632C170.119 29.3893 171.021 29.768 172.194 29.768C172.706 29.768 173.17 29.688 173.586 29.528C174.013 29.368 174.493 29.1013 175.026 28.728C175.239 28.5893 175.415 28.52 175.554 28.52C175.703 28.52 175.831 28.5893 175.938 28.728C176.045 28.856 176.098 29.016 176.098 29.208C176.098 29.4747 175.997 29.688 175.794 29.848C175.325 30.264 174.775 30.584 174.146 30.808C173.517 31.0213 172.85 31.128 172.146 31.128ZM181.106 31.112C180.338 31.112 179.66 30.9467 179.074 30.616C178.498 30.2853 178.05 29.816 177.73 29.208C177.42 28.5893 177.266 27.8747 177.266 27.064C177.266 26.2427 177.42 25.528 177.73 24.92C178.05 24.3013 178.498 23.8267 179.074 23.496C179.66 23.1653 180.338 23 181.106 23C181.874 23 182.546 23.1653 183.122 23.496C183.708 23.8267 184.156 24.3013 184.466 24.92C184.786 25.528 184.946 26.2427 184.946 27.064C184.946 27.8747 184.786 28.5893 184.466 29.208C184.156 29.816 183.708 30.2853 183.122 30.616C182.546 30.9467 181.874 31.112 181.106 31.112ZM181.106 29.832C181.82 29.832 182.364 29.5973 182.738 29.128C183.122 28.6587 183.314 27.9707 183.314 27.064C183.314 26.168 183.122 25.4853 182.738 25.016C182.354 24.536 181.81 24.296 181.106 24.296C180.402 24.296 179.858 24.536 179.474 25.016C179.09 25.4853 178.898 26.168 178.898 27.064C178.898 27.9707 179.084 28.6587 179.458 29.128C179.842 29.5973 180.391 29.832 181.106 29.832ZM190.841 23.032C191.353 23 191.609 23.2187 191.609 23.688C191.609 23.9227 191.55 24.0987 191.433 24.216C191.316 24.3333 191.113 24.4027 190.825 24.424L190.345 24.472C189.673 24.536 189.172 24.7707 188.841 25.176C188.521 25.5813 188.361 26.072 188.361 26.648V30.312C188.361 30.568 188.286 30.76 188.137 30.888C187.988 31.016 187.796 31.08 187.561 31.08C187.326 31.08 187.129 31.016 186.969 30.888C186.82 30.76 186.745 30.568 186.745 30.312V23.8C186.745 23.5547 186.82 23.368 186.969 23.24C187.129 23.1013 187.326 23.032 187.561 23.032C187.774 23.032 187.95 23.1013 188.089 23.24C188.238 23.368 188.313 23.5493 188.313 23.784V24.552C188.526 24.0827 188.836 23.7253 189.241 23.48C189.646 23.2347 190.105 23.0907 190.617 23.048L190.841 23.032ZM196.796 23C197.468 23 198.066 23.1707 198.588 23.512C199.122 23.8533 199.532 24.3333 199.82 24.952C200.119 25.5707 200.268 26.2853 200.268 27.096C200.268 27.896 200.124 28.6 199.836 29.208C199.548 29.816 199.138 30.2853 198.604 30.616C198.082 30.9467 197.479 31.112 196.796 31.112C196.21 31.112 195.692 30.9893 195.244 30.744C194.796 30.488 194.455 30.1253 194.22 29.656V33.224C194.22 33.448 194.146 33.624 193.996 33.752C193.858 33.8907 193.671 33.96 193.436 33.96C193.191 33.96 192.988 33.8907 192.828 33.752C192.679 33.6133 192.604 33.4267 192.604 33.192V23.816C192.604 23.5813 192.679 23.3947 192.828 23.256C192.978 23.1067 193.175 23.032 193.42 23.032C193.655 23.032 193.847 23.1067 193.996 23.256C194.146 23.3947 194.22 23.5813 194.22 23.816V24.472C194.455 24.0027 194.796 23.64 195.244 23.384C195.692 23.128 196.21 23 196.796 23ZM196.412 29.832C197.116 29.832 197.66 29.5973 198.044 29.128C198.428 28.648 198.62 27.9707 198.62 27.096C198.62 26.2107 198.423 25.5227 198.028 25.032C197.644 24.5413 197.106 24.296 196.412 24.296C195.708 24.296 195.164 24.536 194.78 25.016C194.407 25.496 194.22 26.1787 194.22 27.064C194.22 27.9493 194.407 28.632 194.78 29.112C195.164 29.592 195.708 29.832 196.412 29.832ZM210.196 31.128C209.386 31.128 208.612 31.016 207.876 30.792C207.151 30.568 206.57 30.2587 206.132 29.864C205.93 29.6933 205.828 29.4747 205.828 29.208C205.828 29.016 205.882 28.856 205.988 28.728C206.095 28.5893 206.223 28.52 206.372 28.52C206.522 28.52 206.703 28.5893 206.916 28.728C207.866 29.432 208.948 29.784 210.164 29.784C211.018 29.784 211.674 29.624 212.132 29.304C212.591 28.984 212.82 28.5253 212.82 27.928C212.82 27.4587 212.607 27.1067 212.18 26.872C211.754 26.6373 211.071 26.4133 210.132 26.2C209.236 26.008 208.5 25.7893 207.924 25.544C207.348 25.2987 206.895 24.968 206.564 24.552C206.244 24.1253 206.084 23.5867 206.084 22.936C206.084 22.2853 206.26 21.7093 206.612 21.208C206.975 20.696 207.476 20.3013 208.116 20.024C208.756 19.736 209.487 19.592 210.308 19.592C211.066 19.592 211.764 19.6987 212.404 19.912C213.044 20.1253 213.588 20.44 214.036 20.856C214.25 21.0373 214.356 21.256 214.356 21.512C214.356 21.6933 214.298 21.8533 214.18 21.992C214.074 22.1307 213.946 22.2 213.796 22.2C213.658 22.2 213.482 22.1307 213.268 21.992C212.778 21.6187 212.314 21.352 211.876 21.192C211.45 21.0213 210.932 20.936 210.324 20.936C209.503 20.936 208.863 21.1067 208.404 21.448C207.946 21.7787 207.716 22.2427 207.716 22.84C207.716 23.352 207.919 23.7413 208.324 24.008C208.73 24.264 209.38 24.4987 210.276 24.712C211.215 24.9253 211.972 25.1493 212.548 25.384C213.135 25.608 213.599 25.9227 213.94 26.328C214.292 26.7227 214.468 27.2347 214.468 27.864C214.468 28.504 214.287 29.0747 213.924 29.576C213.572 30.0667 213.071 30.4507 212.42 30.728C211.78 30.9947 211.039 31.128 210.196 31.128ZM220.053 29.848C220.288 29.8693 220.453 29.9333 220.549 30.04C220.656 30.136 220.709 30.2747 220.709 30.456C220.709 30.6693 220.624 30.8347 220.453 30.952C220.293 31.0587 220.053 31.1013 219.733 31.08L219.301 31.048C218.437 30.984 217.792 30.7227 217.365 30.264C216.939 29.7947 216.725 29.1067 216.725 28.2V24.44H215.765C215.296 24.44 215.061 24.232 215.061 23.816C215.061 23.624 215.12 23.4747 215.237 23.368C215.365 23.2507 215.541 23.192 215.765 23.192H216.725V21.544C216.725 21.2987 216.795 21.1067 216.933 20.968C217.083 20.8293 217.28 20.76 217.525 20.76C217.771 20.76 217.968 20.8293 218.117 20.968C218.267 21.1067 218.341 21.2987 218.341 21.544V23.192H219.925C220.149 23.192 220.32 23.2507 220.437 23.368C220.565 23.4747 220.629 23.624 220.629 23.816C220.629 24.0187 220.565 24.1733 220.437 24.28C220.32 24.3867 220.149 24.44 219.925 24.44H218.341V28.312C218.341 28.8133 218.443 29.1813 218.645 29.416C218.859 29.6507 219.179 29.784 219.605 29.816L220.053 29.848ZM227.918 23.032C228.163 23.032 228.355 23.1013 228.494 23.24C228.643 23.3787 228.718 23.5707 228.718 23.816V30.328C228.718 30.552 228.643 30.7333 228.494 30.872C228.345 31.0107 228.147 31.08 227.902 31.08C227.678 31.08 227.497 31.016 227.358 30.888C227.219 30.7493 227.15 30.568 227.15 30.344V29.736C226.905 30.184 226.563 30.5253 226.126 30.76C225.699 30.9947 225.219 31.112 224.686 31.112C222.787 31.112 221.838 30.0667 221.838 27.976V23.816C221.838 23.5707 221.907 23.3787 222.046 23.24C222.195 23.1013 222.398 23.032 222.654 23.032C222.899 23.032 223.091 23.1013 223.23 23.24C223.379 23.3787 223.454 23.5707 223.454 23.816V27.96C223.454 28.5893 223.582 29.0533 223.838 29.352C224.094 29.6507 224.489 29.8 225.022 29.8C225.651 29.8 226.153 29.5973 226.526 29.192C226.91 28.7867 227.102 28.248 227.102 27.576V23.816C227.102 23.5813 227.177 23.3947 227.326 23.256C227.475 23.1067 227.673 23.032 227.918 23.032ZM237.363 19.64C237.609 19.64 237.806 19.7093 237.955 19.848C238.105 19.9867 238.179 20.1733 238.179 20.408V30.296C238.179 30.5413 238.105 30.7333 237.955 30.872C237.817 31.0107 237.625 31.08 237.379 31.08C237.134 31.08 236.937 31.0107 236.787 30.872C236.649 30.7333 236.579 30.5413 236.579 30.296V29.656C236.345 30.1253 236.003 30.488 235.555 30.744C235.107 30.9893 234.59 31.112 234.003 31.112C233.331 31.112 232.729 30.9413 232.195 30.6C231.673 30.2587 231.262 29.7787 230.963 29.16C230.675 28.5413 230.531 27.832 230.531 27.032C230.531 26.2213 230.675 25.512 230.963 24.904C231.262 24.296 231.673 23.8267 232.195 23.496C232.718 23.1653 233.321 23 234.003 23C234.59 23 235.102 23.128 235.539 23.384C235.987 23.6293 236.329 23.9813 236.563 24.44V20.376C236.563 20.152 236.633 19.976 236.771 19.848C236.921 19.7093 237.118 19.64 237.363 19.64ZM234.387 29.832C235.081 29.832 235.619 29.592 236.003 29.112C236.387 28.632 236.579 27.9493 236.579 27.064C236.579 26.1787 236.387 25.496 236.003 25.016C235.63 24.536 235.091 24.296 234.387 24.296C233.683 24.296 233.134 24.536 232.739 25.016C232.355 25.4853 232.163 26.1573 232.163 27.032C232.163 27.9067 232.361 28.5947 232.755 29.096C233.15 29.5867 233.694 29.832 234.387 29.832ZM241.249 31.08C241.014 31.08 240.817 31.016 240.657 30.888C240.507 30.76 240.433 30.568 240.433 30.312V23.816C240.433 23.56 240.507 23.368 240.657 23.24C240.817 23.1013 241.014 23.032 241.249 23.032C241.483 23.032 241.675 23.1013 241.825 23.24C241.974 23.368 242.049 23.56 242.049 23.816V30.312C242.049 30.568 241.974 30.76 241.825 30.888C241.675 31.016 241.483 31.08 241.249 31.08ZM241.249 21.464C240.939 21.464 240.694 21.3787 240.513 21.208C240.331 21.0373 240.241 20.8133 240.241 20.536C240.241 20.2587 240.331 20.04 240.513 19.88C240.694 19.7093 240.939 19.624 241.249 19.624C241.547 19.624 241.787 19.7093 241.969 19.88C242.161 20.04 242.257 20.2587 242.257 20.536C242.257 20.8133 242.166 21.0373 241.985 21.208C241.803 21.3787 241.558 21.464 241.249 21.464ZM247.7 31.112C246.932 31.112 246.254 30.9467 245.668 30.616C245.092 30.2853 244.644 29.816 244.324 29.208C244.014 28.5893 243.86 27.8747 243.86 27.064C243.86 26.2427 244.014 25.528 244.324 24.92C244.644 24.3013 245.092 23.8267 245.668 23.496C246.254 23.1653 246.932 23 247.7 23C248.468 23 249.14 23.1653 249.716 23.496C250.302 23.8267 250.75 24.3013 251.06 24.92C251.38 25.528 251.54 26.2427 251.54 27.064C251.54 27.8747 251.38 28.5893 251.06 29.208C250.75 29.816 250.302 30.2853 249.716 30.616C249.14 30.9467 248.468 31.112 247.7 31.112ZM247.7 29.832C248.414 29.832 248.958 29.5973 249.332 29.128C249.716 28.6587 249.908 27.9707 249.908 27.064C249.908 26.168 249.716 25.4853 249.332 25.016C248.948 24.536 248.404 24.296 247.7 24.296C246.996 24.296 246.452 24.536 246.068 25.016C245.684 25.4853 245.492 26.168 245.492 27.064C245.492 27.9707 245.678 28.6587 246.052 29.128C246.436 29.5973 246.985 29.832 247.7 29.832Z" fill="#666C76"/>
<path opacity="0.54" fill-rule="evenodd" clip-rule="evenodd" d="M34 22H21.8L27.4 16.4L26 15L18 23L26 31L27.4 29.6L21.8 24H34V22Z" fill="#757575"/>
<defs>
<filter id="filter0_d" x="0" y="0" width="368" height="96" filterUnits="userSpaceOnUse" color-interpolation-filters="sRGB">
<feFlood flood-opacity="0" result="BackgroundImageFix"/>
<feColorMatrix in="SourceAlpha" type="matrix" values="0 0 0 0 0 0 0 0 0 0 0 0 0 0 0 0 0 0 127 0"/>
<feOffset dy="4"/>
<feGaussianBlur stdDeviation="2"/>
<feColorMatrix type="matrix" values="0 0 0 0 0.4 0 0 0 0 0.423529 0 0 0 0 0.462745 0 0 0 0.25 0"/>
<feBlend mode="normal" in2="BackgroundImageFix" result="effect1_dropShadow"/>
<feBlend mode="normal" in="SourceGraphic" in2="effect1_dropShadow" result="shape"/>
</filter>
</defs>
</svg>
