<svg width="160" height="44" viewBox="0 0 160 44" fill="none" xmlns="http://www.w3.org/2000/svg">
<rect x="1" y="1" width="158" height="42" rx="9" fill="white" stroke="#47CAC2" stroke-width="2"/>
<path d="M34.1328 25.388C34.1888 25.476 34.2168 25.568 34.2168 25.664C34.2168 25.784 34.1688 25.884 34.0728 25.964C33.9848 26.036 33.8808 26.072 33.7608 26.072C33.5768 26.072 33.4328 25.992 33.3288 25.832L31.7208 23.288C31.5128 22.96 31.2968 22.736 31.0728 22.616C30.8488 22.488 30.5448 22.424 30.1608 22.424H28.6488V25.556C28.6488 25.708 28.6048 25.832 28.5168 25.928C28.4288 26.016 28.3128 26.06 28.1688 26.06C28.0168 26.06 27.8968 26.016 27.8088 25.928C27.7208 25.832 27.6768 25.708 27.6768 25.556V18.02C27.6768 17.876 27.7208 17.76 27.8088 17.672C27.9048 17.584 28.0288 17.54 28.1808 17.54H31.1568C32.0768 17.54 32.7768 17.744 33.2568 18.152C33.7448 18.56 33.9888 19.16 33.9888 19.952C33.9888 20.624 33.7928 21.164 33.4008 21.572C33.0168 21.98 32.4648 22.228 31.7448 22.316C31.9448 22.38 32.1248 22.484 32.2848 22.628C32.4448 22.772 32.6048 22.972 32.7648 23.228L34.1328 25.388ZM31.0728 21.608C31.7288 21.608 32.2168 21.472 32.5368 21.2C32.8648 20.928 33.0288 20.516 33.0288 19.964C33.0288 19.42 32.8688 19.016 32.5488 18.752C32.2288 18.488 31.7368 18.356 31.0728 18.356H28.6488V21.608H31.0728ZM40.2834 24.644C40.3714 24.644 40.4474 24.68 40.5114 24.752C40.5754 24.824 40.6074 24.916 40.6074 25.028C40.6074 25.228 40.4674 25.412 40.1874 25.58C39.8994 25.748 39.5954 25.876 39.2754 25.964C38.9554 26.044 38.6434 26.084 38.3394 26.084C37.4354 26.084 36.7194 25.816 36.1914 25.28C35.6714 24.744 35.4114 24.004 35.4114 23.06C35.4114 22.46 35.5274 21.932 35.7594 21.476C35.9914 21.012 36.3154 20.652 36.7314 20.396C37.1554 20.14 37.6354 20.012 38.1714 20.012C38.9314 20.012 39.5354 20.26 39.9834 20.756C40.4314 21.252 40.6554 21.924 40.6554 22.772C40.6554 22.932 40.6234 23.048 40.5594 23.12C40.4954 23.192 40.3914 23.228 40.2474 23.228H36.3834C36.4554 24.604 37.1074 25.292 38.3394 25.292C38.6514 25.292 38.9194 25.252 39.1434 25.172C39.3674 25.084 39.6074 24.968 39.8634 24.824C40.0714 24.704 40.2114 24.644 40.2834 24.644ZM38.1834 20.768C37.6714 20.768 37.2594 20.928 36.9474 21.248C36.6434 21.568 36.4634 22.02 36.4074 22.604H39.8034C39.7874 22.012 39.6394 21.56 39.3594 21.248C39.0794 20.928 38.6874 20.768 38.1834 20.768ZM44.4755 20.012C45.9395 20.012 46.6715 20.78 46.6715 22.316V25.58C46.6715 25.724 46.6275 25.84 46.5395 25.928C46.4595 26.016 46.3475 26.06 46.2035 26.06C46.0595 26.06 45.9435 26.016 45.8555 25.928C45.7675 25.84 45.7235 25.724 45.7235 25.58V25.004C45.5715 25.348 45.3395 25.616 45.0275 25.808C44.7155 25.992 44.3555 26.084 43.9475 26.084C43.5715 26.084 43.2235 26.008 42.9035 25.856C42.5915 25.704 42.3435 25.492 42.1595 25.22C41.9755 24.948 41.8835 24.648 41.8835 24.32C41.8835 23.88 41.9955 23.54 42.2195 23.3C42.4435 23.052 42.8115 22.876 43.3235 22.772C43.8355 22.66 44.5475 22.604 45.4595 22.604H45.7235V22.208C45.7235 21.728 45.6235 21.376 45.4235 21.152C45.2315 20.928 44.9155 20.816 44.4755 20.816C43.9315 20.816 43.3795 20.964 42.8195 21.26C42.6035 21.396 42.4515 21.464 42.3635 21.464C42.2675 21.464 42.1875 21.428 42.1235 21.356C42.0595 21.284 42.0275 21.192 42.0275 21.08C42.0275 20.968 42.0595 20.872 42.1235 20.792C42.1955 20.704 42.3075 20.616 42.4595 20.528C42.7395 20.368 43.0555 20.244 43.4075 20.156C43.7675 20.06 44.1235 20.012 44.4755 20.012ZM44.0795 25.316C44.5595 25.316 44.9515 25.156 45.2555 24.836C45.5675 24.508 45.7235 24.088 45.7235 23.576V23.228H45.5075C44.8035 23.228 44.2675 23.26 43.8995 23.324C43.5315 23.38 43.2675 23.48 43.1075 23.624C42.9555 23.76 42.8795 23.964 42.8795 24.236C42.8795 24.548 42.9915 24.808 43.2155 25.016C43.4475 25.216 43.7355 25.316 44.0795 25.316ZM53.1428 17.48C53.2948 17.48 53.4148 17.524 53.5028 17.612C53.5908 17.7 53.6348 17.812 53.6348 17.948V25.58C53.6348 25.724 53.5908 25.84 53.5028 25.928C53.4148 26.016 53.2948 26.06 53.1428 26.06C52.9908 26.06 52.8708 26.016 52.7828 25.928C52.7028 25.84 52.6628 25.724 52.6628 25.58V24.932C52.4868 25.3 52.2268 25.584 51.8828 25.784C51.5468 25.984 51.1508 26.084 50.6948 26.084C50.1828 26.084 49.7308 25.956 49.3388 25.7C48.9468 25.444 48.6428 25.088 48.4268 24.632C48.2108 24.168 48.1028 23.632 48.1028 23.024C48.1028 22.424 48.2108 21.896 48.4268 21.44C48.6428 20.984 48.9468 20.632 49.3388 20.384C49.7308 20.136 50.1828 20.012 50.6948 20.012C51.1508 20.012 51.5468 20.112 51.8828 20.312C52.2268 20.512 52.4868 20.796 52.6628 21.164V17.948C52.6628 17.804 52.7028 17.692 52.7828 17.612C52.8708 17.524 52.9908 17.48 53.1428 17.48ZM50.8868 25.28C51.4548 25.28 51.8908 25.088 52.1948 24.704C52.5068 24.312 52.6628 23.76 52.6628 23.048C52.6628 22.336 52.5068 21.788 52.1948 21.404C51.8908 21.02 51.4548 20.828 50.8868 20.828C50.3188 20.828 49.8748 21.02 49.5548 21.404C49.2428 21.788 49.0868 22.328 49.0868 23.024C49.0868 23.736 49.2428 24.292 49.5548 24.692C49.8748 25.084 50.3188 25.28 50.8868 25.28ZM66.1849 17.48C66.3369 17.48 66.4529 17.528 66.5329 17.624C66.6209 17.712 66.6649 17.832 66.6649 17.984V25.58C66.6649 25.724 66.6249 25.84 66.5449 25.928C66.4649 26.016 66.3529 26.06 66.2089 26.06C66.0649 26.06 65.9569 26.016 65.8849 25.928C65.8129 25.84 65.7769 25.724 65.7769 25.58V19.448L63.1729 24.44C63.0609 24.672 62.8969 24.788 62.6809 24.788C62.4729 24.788 62.3089 24.672 62.1889 24.44L59.5729 19.508V25.58C59.5729 25.724 59.5329 25.84 59.4529 25.928C59.3809 26.016 59.2729 26.06 59.1289 26.06C58.9849 26.06 58.8729 26.016 58.7929 25.928C58.7129 25.84 58.6729 25.724 58.6729 25.58V17.984C58.6729 17.832 58.7169 17.712 58.8049 17.624C58.8929 17.528 59.0129 17.48 59.1649 17.48C59.3649 17.48 59.5249 17.596 59.6449 17.828L62.6929 23.672L65.7049 17.828C65.7689 17.7 65.8369 17.612 65.9089 17.564C65.9889 17.508 66.0809 17.48 66.1849 17.48ZM71.0428 26.084C70.4908 26.084 70.0028 25.96 69.5788 25.712C69.1628 25.464 68.8388 25.112 68.6068 24.656C68.3828 24.192 68.2708 23.656 68.2708 23.048C68.2708 22.44 68.3828 21.908 68.6068 21.452C68.8388 20.988 69.1628 20.632 69.5788 20.384C70.0028 20.136 70.4908 20.012 71.0428 20.012C71.5948 20.012 72.0828 20.136 72.5068 20.384C72.9308 20.632 73.2548 20.988 73.4788 21.452C73.7108 21.908 73.8268 22.44 73.8268 23.048C73.8268 23.656 73.7108 24.192 73.4788 24.656C73.2548 25.112 72.9308 25.464 72.5068 25.712C72.0828 25.96 71.5948 26.084 71.0428 26.084ZM71.0428 25.28C71.6188 25.28 72.0588 25.092 72.3628 24.716C72.6748 24.332 72.8308 23.776 72.8308 23.048C72.8308 22.336 72.6748 21.788 72.3628 21.404C72.0508 21.012 71.6108 20.816 71.0428 20.816C70.4748 20.816 70.0348 21.012 69.7228 21.404C69.4108 21.788 69.2548 22.336 69.2548 23.048C69.2548 23.768 69.4068 24.32 69.7108 24.704C70.0228 25.088 70.4668 25.28 71.0428 25.28ZM78.167 20.036C78.503 20.012 78.671 20.148 78.671 20.444C78.671 20.572 78.635 20.676 78.563 20.756C78.491 20.828 78.367 20.872 78.191 20.888L77.831 20.924C77.295 20.972 76.895 21.164 76.631 21.5C76.375 21.828 76.247 22.216 76.247 22.664V25.58C76.247 25.74 76.203 25.86 76.115 25.94C76.027 26.02 75.911 26.06 75.767 26.06C75.623 26.06 75.503 26.02 75.407 25.94C75.319 25.852 75.275 25.732 75.275 25.58V20.516C75.275 20.364 75.323 20.248 75.419 20.168C75.515 20.08 75.631 20.036 75.767 20.036C75.895 20.036 76.003 20.08 76.091 20.168C76.179 20.248 76.223 20.36 76.223 20.504V21.176C76.391 20.824 76.627 20.556 76.931 20.372C77.243 20.188 77.599 20.08 77.999 20.048L78.167 20.036ZM83.9123 24.644C84.0003 24.644 84.0763 24.68 84.1403 24.752C84.2043 24.824 84.2363 24.916 84.2363 25.028C84.2363 25.228 84.0963 25.412 83.8163 25.58C83.5283 25.748 83.2243 25.876 82.9043 25.964C82.5843 26.044 82.2723 26.084 81.9683 26.084C81.0643 26.084 80.3483 25.816 79.8203 25.28C79.3003 24.744 79.0403 24.004 79.0403 23.06C79.0403 22.46 79.1563 21.932 79.3883 21.476C79.6203 21.012 79.9443 20.652 80.3603 20.396C80.7843 20.14 81.2643 20.012 81.8003 20.012C82.5603 20.012 83.1643 20.26 83.6123 20.756C84.0603 21.252 84.2843 21.924 84.2843 22.772C84.2843 22.932 84.2523 23.048 84.1883 23.12C84.1243 23.192 84.0203 23.228 83.8763 23.228H80.0123C80.0843 24.604 80.7363 25.292 81.9683 25.292C82.2803 25.292 82.5483 25.252 82.7723 25.172C82.9963 25.084 83.2363 24.968 83.4923 24.824C83.7003 24.704 83.8403 24.644 83.9123 24.644ZM81.8123 20.768C81.3003 20.768 80.8883 20.928 80.5763 21.248C80.2723 21.568 80.0923 22.02 80.0363 22.604H83.4323C83.4163 22.012 83.2683 21.56 82.9883 21.248C82.7083 20.928 82.3163 20.768 81.8123 20.768ZM95.4102 25.388C95.4662 25.476 95.4942 25.568 95.4942 25.664C95.4942 25.784 95.4462 25.884 95.3502 25.964C95.2622 26.036 95.1582 26.072 95.0382 26.072C94.8542 26.072 94.7102 25.992 94.6062 25.832L92.9982 23.288C92.7902 22.96 92.5742 22.736 92.3502 22.616C92.1262 22.488 91.8222 22.424 91.4382 22.424H89.9262V25.556C89.9262 25.708 89.8822 25.832 89.7942 25.928C89.7062 26.016 89.5902 26.06 89.4462 26.06C89.2942 26.06 89.1742 26.016 89.0862 25.928C88.9982 25.832 88.9542 25.708 88.9542 25.556V18.02C88.9542 17.876 88.9982 17.76 89.0862 17.672C89.1822 17.584 89.3062 17.54 89.4582 17.54H92.4342C93.3542 17.54 94.0542 17.744 94.5342 18.152C95.0222 18.56 95.2662 19.16 95.2662 19.952C95.2662 20.624 95.0702 21.164 94.6782 21.572C94.2942 21.98 93.7422 22.228 93.0222 22.316C93.2222 22.38 93.4022 22.484 93.5622 22.628C93.7222 22.772 93.8822 22.972 94.0422 23.228L95.4102 25.388ZM92.3502 21.608C93.0062 21.608 93.4942 21.472 93.8142 21.2C94.1422 20.928 94.3062 20.516 94.3062 19.964C94.3062 19.42 94.1462 19.016 93.8262 18.752C93.5062 18.488 93.0142 18.356 92.3502 18.356H89.9262V21.608H92.3502ZM101.561 24.644C101.649 24.644 101.725 24.68 101.789 24.752C101.853 24.824 101.885 24.916 101.885 25.028C101.885 25.228 101.745 25.412 101.465 25.58C101.177 25.748 100.873 25.876 100.553 25.964C100.233 26.044 99.9207 26.084 99.6167 26.084C98.7127 26.084 97.9967 25.816 97.4687 25.28C96.9487 24.744 96.6887 24.004 96.6887 23.06C96.6887 22.46 96.8047 21.932 97.0367 21.476C97.2687 21.012 97.5927 20.652 98.0087 20.396C98.4327 20.14 98.9127 20.012 99.4487 20.012C100.209 20.012 100.813 20.26 101.261 20.756C101.709 21.252 101.933 21.924 101.933 22.772C101.933 22.932 101.901 23.048 101.837 23.12C101.773 23.192 101.669 23.228 101.525 23.228H97.6607C97.7327 24.604 98.3847 25.292 99.6167 25.292C99.9287 25.292 100.197 25.252 100.421 25.172C100.645 25.084 100.885 24.968 101.141 24.824C101.349 24.704 101.489 24.644 101.561 24.644ZM99.4607 20.768C98.9487 20.768 98.5367 20.928 98.2247 21.248C97.9207 21.568 97.7407 22.02 97.6847 22.604H101.081C101.065 22.012 100.917 21.56 100.637 21.248C100.357 20.928 99.9647 20.768 99.4607 20.768ZM107.507 20.336C107.595 20.144 107.735 20.048 107.927 20.048C108.047 20.048 108.155 20.088 108.251 20.168C108.347 20.248 108.395 20.348 108.395 20.468C108.395 20.54 108.379 20.604 108.347 20.66L106.007 25.7C105.959 25.804 105.887 25.888 105.791 25.952C105.695 26.008 105.591 26.036 105.479 26.036C105.375 26.036 105.275 26.008 105.179 25.952C105.083 25.888 105.007 25.804 104.951 25.7L102.623 20.66C102.591 20.604 102.575 20.544 102.575 20.48C102.575 20.36 102.627 20.256 102.731 20.168C102.843 20.08 102.963 20.036 103.091 20.036C103.171 20.036 103.247 20.06 103.319 20.108C103.399 20.156 103.459 20.224 103.499 20.312L105.503 24.812L107.507 20.336ZM109.951 26.06C109.807 26.06 109.687 26.02 109.591 25.94C109.503 25.852 109.459 25.732 109.459 25.58V20.516C109.459 20.364 109.503 20.248 109.591 20.168C109.687 20.08 109.807 20.036 109.951 20.036C110.095 20.036 110.211 20.08 110.299 20.168C110.387 20.248 110.431 20.364 110.431 20.516V25.58C110.431 25.74 110.387 25.86 110.299 25.94C110.211 26.02 110.095 26.06 109.951 26.06ZM109.951 18.776C109.759 18.776 109.603 18.72 109.483 18.608C109.363 18.496 109.303 18.348 109.303 18.164C109.303 17.988 109.363 17.844 109.483 17.732C109.603 17.62 109.759 17.564 109.951 17.564C110.143 17.564 110.299 17.62 110.419 17.732C110.539 17.844 110.599 17.988 110.599 18.164C110.599 18.348 110.539 18.496 110.419 18.608C110.299 18.72 110.143 18.776 109.951 18.776ZM116.772 24.644C116.86 24.644 116.936 24.68 117 24.752C117.064 24.824 117.096 24.916 117.096 25.028C117.096 25.228 116.956 25.412 116.676 25.58C116.388 25.748 116.084 25.876 115.764 25.964C115.444 26.044 115.132 26.084 114.828 26.084C113.924 26.084 113.208 25.816 112.68 25.28C112.16 24.744 111.9 24.004 111.9 23.06C111.9 22.46 112.016 21.932 112.248 21.476C112.48 21.012 112.804 20.652 113.22 20.396C113.644 20.14 114.124 20.012 114.66 20.012C115.42 20.012 116.024 20.26 116.472 20.756C116.92 21.252 117.144 21.924 117.144 22.772C117.144 22.932 117.112 23.048 117.048 23.12C116.984 23.192 116.88 23.228 116.736 23.228H112.872C112.944 24.604 113.596 25.292 114.828 25.292C115.14 25.292 115.408 25.252 115.632 25.172C115.856 25.084 116.096 24.968 116.352 24.824C116.56 24.704 116.7 24.644 116.772 24.644ZM114.672 20.768C114.16 20.768 113.748 20.928 113.436 21.248C113.132 21.568 112.952 22.02 112.896 22.604H116.292C116.276 22.012 116.128 21.56 115.848 21.248C115.568 20.928 115.176 20.768 114.672 20.768ZM126.497 20.348C126.577 20.156 126.709 20.06 126.893 20.06C127.013 20.06 127.121 20.1 127.217 20.18C127.313 20.26 127.361 20.36 127.361 20.48C127.361 20.536 127.349 20.596 127.325 20.66L125.333 25.7C125.285 25.804 125.213 25.888 125.117 25.952C125.029 26.008 124.929 26.036 124.817 26.036C124.713 26.036 124.613 26.008 124.517 25.952C124.429 25.888 124.361 25.804 124.313 25.7L122.657 21.488L121.013 25.7C120.973 25.804 120.905 25.888 120.809 25.952C120.713 26.008 120.609 26.036 120.497 26.036C120.393 26.036 120.293 26.008 120.197 25.952C120.101 25.888 120.029 25.804 119.981 25.7L117.989 20.672C117.965 20.608 117.953 20.552 117.953 20.504C117.953 20.376 118.005 20.268 118.109 20.18C118.221 20.092 118.341 20.048 118.469 20.048C118.661 20.048 118.797 20.144 118.877 20.336L120.521 24.764L122.213 20.372C122.261 20.268 122.325 20.188 122.405 20.132C122.493 20.076 122.585 20.048 122.681 20.048C122.785 20.048 122.877 20.076 122.957 20.132C123.045 20.188 123.109 20.268 123.149 20.372L124.841 24.752L126.497 20.348ZM130.47 26.084C130.102 26.084 129.75 26.04 129.414 25.952C129.086 25.864 128.794 25.74 128.538 25.58C128.394 25.484 128.29 25.396 128.226 25.316C128.17 25.228 128.142 25.124 128.142 25.004C128.142 24.9 128.17 24.816 128.226 24.752C128.29 24.68 128.37 24.644 128.466 24.644C128.562 24.644 128.702 24.704 128.886 24.824C129.126 24.968 129.362 25.084 129.594 25.172C129.834 25.252 130.13 25.292 130.482 25.292C130.914 25.292 131.25 25.216 131.49 25.064C131.73 24.912 131.85 24.692 131.85 24.404C131.85 24.228 131.806 24.088 131.718 23.984C131.63 23.872 131.478 23.776 131.262 23.696C131.046 23.608 130.73 23.52 130.314 23.432C129.61 23.28 129.106 23.076 128.802 22.82C128.498 22.564 128.346 22.216 128.346 21.776C128.346 21.432 128.442 21.128 128.634 20.864C128.826 20.6 129.09 20.392 129.426 20.24C129.77 20.088 130.158 20.012 130.59 20.012C130.902 20.012 131.202 20.056 131.49 20.144C131.786 20.224 132.046 20.34 132.27 20.492C132.542 20.684 132.678 20.884 132.678 21.092C132.678 21.196 132.646 21.284 132.582 21.356C132.518 21.428 132.442 21.464 132.354 21.464C132.258 21.464 132.114 21.396 131.922 21.26C131.698 21.116 131.486 21.004 131.286 20.924C131.086 20.844 130.838 20.804 130.542 20.804C130.166 20.804 129.862 20.888 129.63 21.056C129.406 21.224 129.294 21.448 129.294 21.728C129.294 21.904 129.334 22.048 129.414 22.16C129.502 22.264 129.642 22.36 129.834 22.448C130.034 22.528 130.318 22.608 130.686 22.688C131.23 22.808 131.65 22.94 131.946 23.084C132.25 23.228 132.466 23.404 132.594 23.612C132.722 23.82 132.786 24.084 132.786 24.404C132.786 24.908 132.574 25.316 132.15 25.628C131.726 25.932 131.166 26.084 130.47 26.084Z" fill="#666C76"/>
</svg>
