<svg width="309" height="38" viewBox="0 0 309 38" fill="none" xmlns="http://www.w3.org/2000/svg">
<path d="M0.375 19C0.375 8.7137 8.7137 0.375 19 0.375H290C300.286 0.375 308.625 8.7137 308.625 19C308.625 29.2863 300.286 37.625 290 37.625H19C8.7137 37.625 0.375 29.2863 0.375 19Z" fill="white" stroke="#47CAC2" stroke-width="0.75"/>
<path fill-rule="evenodd" clip-rule="evenodd" d="M277 18L282 23L287 18H277Z" fill="#47CAC2"/>
<path d="M24.868 24.084C24.5 24.084 24.148 24.04 23.812 23.952C23.484 23.864 23.192 23.74 22.936 23.58C22.792 23.484 22.688 23.396 22.624 23.316C22.568 23.228 22.54 23.124 22.54 23.004C22.54 22.9 22.568 22.816 22.624 22.752C22.688 22.68 22.768 22.644 22.864 22.644C22.96 22.644 23.1 22.704 23.284 22.824C23.524 22.968 23.76 23.084 23.992 23.172C24.232 23.252 24.528 23.292 24.88 23.292C25.312 23.292 25.648 23.216 25.888 23.064C26.128 22.912 26.248 22.692 26.248 22.404C26.248 22.228 26.204 22.088 26.116 21.984C26.028 21.872 25.876 21.776 25.66 21.696C25.444 21.608 25.128 21.52 24.712 21.432C24.008 21.28 23.504 21.076 23.2 20.82C22.896 20.564 22.744 20.216 22.744 19.776C22.744 19.432 22.84 19.128 23.032 18.864C23.224 18.6 23.488 18.392 23.824 18.24C24.168 18.088 24.556 18.012 24.988 18.012C25.3 18.012 25.6 18.056 25.888 18.144C26.184 18.224 26.444 18.34 26.668 18.492C26.94 18.684 27.076 18.884 27.076 19.092C27.076 19.196 27.044 19.284 26.98 19.356C26.916 19.428 26.84 19.464 26.752 19.464C26.656 19.464 26.512 19.396 26.32 19.26C26.096 19.116 25.884 19.004 25.684 18.924C25.484 18.844 25.236 18.804 24.94 18.804C24.564 18.804 24.26 18.888 24.028 19.056C23.804 19.224 23.692 19.448 23.692 19.728C23.692 19.904 23.732 20.048 23.812 20.16C23.9 20.264 24.04 20.36 24.232 20.448C24.432 20.528 24.716 20.608 25.084 20.688C25.628 20.808 26.048 20.94 26.344 21.084C26.648 21.228 26.864 21.404 26.992 21.612C27.12 21.82 27.184 22.084 27.184 22.404C27.184 22.908 26.972 23.316 26.548 23.628C26.124 23.932 25.564 24.084 24.868 24.084ZM31.0896 24.084C30.5376 24.084 30.0496 23.96 29.6256 23.712C29.2096 23.464 28.8856 23.112 28.6536 22.656C28.4296 22.192 28.3176 21.656 28.3176 21.048C28.3176 20.44 28.4296 19.908 28.6536 19.452C28.8856 18.988 29.2096 18.632 29.6256 18.384C30.0496 18.136 30.5376 18.012 31.0896 18.012C31.6416 18.012 32.1296 18.136 32.5536 18.384C32.9776 18.632 33.3016 18.988 33.5256 19.452C33.7576 19.908 33.8736 20.44 33.8736 21.048C33.8736 21.656 33.7576 22.192 33.5256 22.656C33.3016 23.112 32.9776 23.464 32.5536 23.712C32.1296 23.96 31.6416 24.084 31.0896 24.084ZM31.0896 23.28C31.6656 23.28 32.1056 23.092 32.4096 22.716C32.7216 22.332 32.8776 21.776 32.8776 21.048C32.8776 20.336 32.7216 19.788 32.4096 19.404C32.0976 19.012 31.6576 18.816 31.0896 18.816C30.5216 18.816 30.0816 19.012 29.7696 19.404C29.4576 19.788 29.3016 20.336 29.3016 21.048C29.3016 21.768 29.4536 22.32 29.7576 22.704C30.0696 23.088 30.5136 23.28 31.0896 23.28ZM38.2139 18.036C38.5499 18.012 38.7179 18.148 38.7179 18.444C38.7179 18.572 38.6819 18.676 38.6099 18.756C38.5379 18.828 38.4139 18.872 38.2379 18.888L37.8779 18.924C37.3419 18.972 36.9419 19.164 36.6779 19.5C36.4219 19.828 36.2939 20.216 36.2939 20.664V23.58C36.2939 23.74 36.2499 23.86 36.1619 23.94C36.0739 24.02 35.9579 24.06 35.8139 24.06C35.6699 24.06 35.5499 24.02 35.4539 23.94C35.3659 23.852 35.3219 23.732 35.3219 23.58V18.516C35.3219 18.364 35.3699 18.248 35.4659 18.168C35.5619 18.08 35.6779 18.036 35.8139 18.036C35.9419 18.036 36.0499 18.08 36.1379 18.168C36.2259 18.248 36.2699 18.36 36.2699 18.504V19.176C36.4379 18.824 36.6739 18.556 36.9779 18.372C37.2899 18.188 37.6459 18.08 38.0459 18.048L38.2139 18.036ZM42.7211 23.292C43.0011 23.316 43.1411 23.444 43.1411 23.676C43.1411 23.812 43.0891 23.916 42.9851 23.988C42.8891 24.052 42.7411 24.076 42.5411 24.06L42.2171 24.036C41.5771 23.988 41.1051 23.796 40.8011 23.46C40.4971 23.124 40.3451 22.616 40.3451 21.936V18.924H39.5411C39.4051 18.924 39.2971 18.892 39.2171 18.828C39.1451 18.756 39.1091 18.664 39.1091 18.552C39.1091 18.432 39.1451 18.336 39.2171 18.264C39.2971 18.192 39.4051 18.156 39.5411 18.156H40.3451V16.8C40.3451 16.648 40.3891 16.532 40.4771 16.452C40.5651 16.364 40.6851 16.32 40.8371 16.32C40.9811 16.32 41.0971 16.364 41.1851 16.452C41.2731 16.532 41.3171 16.648 41.3171 16.8V18.156H42.6491C42.7771 18.156 42.8771 18.192 42.9491 18.264C43.0291 18.336 43.0691 18.432 43.0691 18.552C43.0691 18.664 43.0291 18.756 42.9491 18.828C42.8771 18.892 42.7771 18.924 42.6491 18.924H41.3171V21.984C41.3171 22.424 41.4051 22.744 41.5811 22.944C41.7651 23.136 42.0371 23.244 42.3971 23.268L42.7211 23.292ZM58.9483 24.084C58.6776 24.084 58.4583 24.0047 58.2903 23.846C58.1316 23.678 58.0523 23.454 58.0523 23.174V14.984C58.0523 14.7133 58.1269 14.5033 58.2763 14.354C58.4349 14.2047 58.6496 14.13 58.9203 14.13H62.3643C63.4189 14.13 64.2403 14.396 64.8283 14.928C65.4163 15.4507 65.7103 16.188 65.7103 17.14C65.7103 18.092 65.4163 18.834 64.8283 19.366C64.2403 19.898 63.4189 20.164 62.3643 20.164H59.8583V23.174C59.8583 23.454 59.7743 23.678 59.6063 23.846C59.4476 24.0047 59.2283 24.084 58.9483 24.084ZM62.1403 18.778C63.3816 18.778 64.0023 18.2367 64.0023 17.154C64.0023 16.0713 63.3816 15.53 62.1403 15.53H59.8583V18.778H62.1403ZM70.8258 17.014C71.0684 16.9953 71.2598 17.0467 71.3998 17.168C71.5398 17.2893 71.6098 17.4713 71.6098 17.714C71.6098 17.966 71.5491 18.1527 71.4278 18.274C71.3064 18.3953 71.0871 18.4747 70.7698 18.512L70.3498 18.554C69.7991 18.61 69.3931 18.7967 69.1318 19.114C68.8798 19.4313 68.7538 19.828 68.7538 20.304V23.244C68.7538 23.5147 68.6698 23.7247 68.5018 23.874C68.3338 24.014 68.1238 24.084 67.8718 24.084C67.6198 24.084 67.4098 24.014 67.2418 23.874C67.0831 23.7247 67.0038 23.5147 67.0038 23.244V17.826C67.0038 17.5647 67.0831 17.364 67.2418 17.224C67.4098 17.084 67.6151 17.014 67.8578 17.014C68.1004 17.014 68.2964 17.084 68.4458 17.224C68.5951 17.3547 68.6698 17.546 68.6698 17.798V18.358C68.8471 17.9473 69.1084 17.63 69.4538 17.406C69.8084 17.182 70.2004 17.056 70.6298 17.028L70.8258 17.014ZM73.2311 24.084C72.9791 24.084 72.7691 24.014 72.6011 23.874C72.4425 23.7247 72.3631 23.5147 72.3631 23.244V17.84C72.3631 17.5693 72.4425 17.364 72.6011 17.224C72.7691 17.084 72.9791 17.014 73.2311 17.014C73.4831 17.014 73.6931 17.084 73.8611 17.224C74.0291 17.364 74.1131 17.5693 74.1131 17.84V23.244C74.1131 23.5147 74.0291 23.7247 73.8611 23.874C73.6931 24.014 73.4831 24.084 73.2311 24.084ZM73.2311 15.768C72.9138 15.768 72.6618 15.684 72.4751 15.516C72.2885 15.3387 72.1951 15.11 72.1951 14.83C72.1951 14.55 72.2885 14.326 72.4751 14.158C72.6618 13.99 72.9138 13.906 73.2311 13.906C73.5391 13.906 73.7865 13.99 73.9731 14.158C74.1691 14.326 74.2671 14.55 74.2671 14.83C74.2671 15.11 74.1738 15.3387 73.9871 15.516C73.8005 15.684 73.5485 15.768 73.2311 15.768ZM78.9558 24.112C78.2745 24.112 77.6725 23.9673 77.1498 23.678C76.6365 23.3887 76.2398 22.978 75.9598 22.446C75.6798 21.914 75.5398 21.2933 75.5398 20.584C75.5398 19.8747 75.6845 19.2493 75.9738 18.708C76.2725 18.1573 76.6878 17.7327 77.2198 17.434C77.7518 17.1353 78.3631 16.986 79.0538 16.986C79.4178 16.986 79.7818 17.0373 80.1458 17.14C80.5191 17.2427 80.8458 17.3827 81.1258 17.56C81.4245 17.756 81.5738 18.0033 81.5738 18.302C81.5738 18.5073 81.5225 18.6753 81.4198 18.806C81.3265 18.9273 81.2005 18.988 81.0418 18.988C80.9391 18.988 80.8318 18.9647 80.7198 18.918C80.6078 18.8713 80.4958 18.8153 80.3838 18.75C80.1785 18.6287 79.9825 18.5353 79.7958 18.47C79.6091 18.3953 79.3945 18.358 79.1518 18.358C78.5731 18.358 78.1251 18.5493 77.8078 18.932C77.4998 19.3053 77.3458 19.8467 77.3458 20.556C77.3458 21.256 77.4998 21.7973 77.8078 22.18C78.1251 22.5533 78.5731 22.74 79.1518 22.74C79.3851 22.74 79.5905 22.7073 79.7678 22.642C79.9545 22.5673 80.1598 22.4693 80.3838 22.348C80.5238 22.264 80.6451 22.2033 80.7478 22.166C80.8505 22.1193 80.9531 22.096 81.0558 22.096C81.2051 22.096 81.3311 22.1613 81.4338 22.292C81.5365 22.4227 81.5878 22.586 81.5878 22.782C81.5878 22.9407 81.5505 23.0807 81.4758 23.202C81.4105 23.314 81.2985 23.4167 81.1398 23.51C80.8505 23.6967 80.5145 23.846 80.1318 23.958C79.7491 24.0607 79.3571 24.112 78.9558 24.112ZM88.1718 22.124C88.3304 22.124 88.4564 22.1847 88.5498 22.306C88.6524 22.4273 88.7038 22.5907 88.7038 22.796C88.7038 23.0853 88.5311 23.328 88.1858 23.524C87.8684 23.7013 87.5091 23.846 87.1078 23.958C86.7064 24.0607 86.3238 24.112 85.9597 24.112C84.8584 24.112 83.9858 23.7947 83.3418 23.16C82.6978 22.5253 82.3758 21.6573 82.3758 20.556C82.3758 19.856 82.5158 19.2353 82.7958 18.694C83.0758 18.1527 83.4678 17.7327 83.9718 17.434C84.4851 17.1353 85.0638 16.986 85.7078 16.986C86.3238 16.986 86.8604 17.1213 87.3178 17.392C87.7751 17.6627 88.1298 18.0453 88.3818 18.54C88.6338 19.0347 88.7598 19.618 88.7598 20.29C88.7598 20.6913 88.5824 20.892 88.2278 20.892H84.0978C84.1538 21.536 84.3358 22.012 84.6438 22.32C84.9518 22.6187 85.3998 22.768 85.9878 22.768C86.2864 22.768 86.5478 22.7307 86.7718 22.656C87.0051 22.5813 87.2664 22.4787 87.5558 22.348C87.8358 22.1987 88.0411 22.124 88.1718 22.124ZM85.7498 18.218C85.2738 18.218 84.8911 18.3673 84.6018 18.666C84.3218 18.9647 84.1538 19.394 84.0978 19.954H87.2618C87.2431 19.3847 87.1031 18.9553 86.8418 18.666C86.5804 18.3673 86.2164 18.218 85.7498 18.218ZM97.814 17.014C98.0567 16.9953 98.248 17.0467 98.388 17.168C98.528 17.2893 98.598 17.4713 98.598 17.714C98.598 17.966 98.5374 18.1527 98.416 18.274C98.2947 18.3953 98.0754 18.4747 97.758 18.512L97.338 18.554C96.7874 18.61 96.3814 18.7967 96.12 19.114C95.868 19.4313 95.742 19.828 95.742 20.304V23.244C95.742 23.5147 95.658 23.7247 95.49 23.874C95.322 24.014 95.112 24.084 94.86 24.084C94.608 24.084 94.398 24.014 94.23 23.874C94.0714 23.7247 93.992 23.5147 93.992 23.244V17.826C93.992 17.5647 94.0714 17.364 94.23 17.224C94.398 17.084 94.6034 17.014 94.846 17.014C95.0887 17.014 95.2847 17.084 95.434 17.224C95.5834 17.3547 95.658 17.546 95.658 17.798V18.358C95.8354 17.9473 96.0967 17.63 96.442 17.406C96.7967 17.182 97.1887 17.056 97.618 17.028L97.814 17.014ZM102.292 16.986C103.244 16.986 103.949 17.224 104.406 17.7C104.873 18.1667 105.106 18.8807 105.106 19.842V23.258C105.106 23.51 105.031 23.7107 104.882 23.86C104.733 24 104.527 24.07 104.266 24.07C104.023 24.07 103.823 23.9953 103.664 23.846C103.515 23.6967 103.44 23.5007 103.44 23.258V22.95C103.281 23.314 103.029 23.5987 102.684 23.804C102.348 24.0093 101.956 24.112 101.508 24.112C101.051 24.112 100.635 24.0187 100.262 23.832C99.8887 23.6453 99.5947 23.3887 99.3801 23.062C99.1654 22.7353 99.0581 22.3713 99.0581 21.97C99.0581 21.466 99.1841 21.0693 99.4361 20.78C99.6974 20.4907 100.117 20.2807 100.696 20.15C101.275 20.0193 102.073 19.954 103.09 19.954H103.44V19.632C103.44 19.1747 103.342 18.8433 103.146 18.638C102.95 18.4233 102.633 18.316 102.194 18.316C101.923 18.316 101.648 18.358 101.368 18.442C101.088 18.5167 100.757 18.6287 100.374 18.778C100.131 18.8993 99.9541 18.96 99.8421 18.96C99.6741 18.96 99.5341 18.8993 99.4221 18.778C99.3194 18.6567 99.2681 18.498 99.2681 18.302C99.2681 18.1433 99.3054 18.008 99.3801 17.896C99.4641 17.7747 99.5994 17.6627 99.7861 17.56C100.113 17.3827 100.5 17.2427 100.948 17.14C101.405 17.0373 101.853 16.986 102.292 16.986ZM101.858 22.852C102.325 22.852 102.703 22.698 102.992 22.39C103.291 22.0727 103.44 21.6667 103.44 21.172V20.878H103.188C102.563 20.878 102.077 20.906 101.732 20.962C101.387 21.018 101.139 21.116 100.99 21.256C100.841 21.396 100.766 21.5873 100.766 21.83C100.766 22.1287 100.869 22.376 101.074 22.572C101.289 22.7587 101.55 22.852 101.858 22.852ZM110.861 16.986C111.682 16.986 112.293 17.2193 112.695 17.686C113.096 18.1527 113.297 18.8573 113.297 19.8V23.244C113.297 23.5053 113.217 23.7107 113.059 23.86C112.909 24.0093 112.699 24.084 112.429 24.084C112.158 24.084 111.943 24.0093 111.785 23.86C111.626 23.7107 111.547 23.5053 111.547 23.244V19.898C111.547 19.366 111.444 18.9787 111.239 18.736C111.043 18.4933 110.73 18.372 110.301 18.372C109.797 18.372 109.391 18.5307 109.083 18.848C108.784 19.1653 108.635 19.59 108.635 20.122V23.244C108.635 23.5053 108.555 23.7107 108.397 23.86C108.238 24.0093 108.023 24.084 107.753 24.084C107.482 24.084 107.267 24.0093 107.109 23.86C106.959 23.7107 106.885 23.5053 106.885 23.244V17.826C106.885 17.5833 106.964 17.3873 107.123 17.238C107.281 17.0887 107.496 17.014 107.767 17.014C108.009 17.014 108.205 17.0887 108.355 17.238C108.513 17.378 108.593 17.5647 108.593 17.798V18.176C108.826 17.7933 109.139 17.4993 109.531 17.294C109.923 17.0887 110.366 16.986 110.861 16.986ZM121.164 22.642C121.351 22.8193 121.444 23.02 121.444 23.244C121.444 23.4587 121.365 23.65 121.206 23.818C121.057 23.986 120.879 24.07 120.674 24.07C120.469 24.07 120.277 23.986 120.1 23.818L116.824 20.85V23.244C116.824 23.5147 116.74 23.72 116.572 23.86C116.404 24 116.194 24.07 115.942 24.07C115.69 24.07 115.48 24 115.312 23.86C115.153 23.72 115.074 23.5147 115.074 23.244V14.886C115.074 14.6153 115.153 14.41 115.312 14.27C115.48 14.13 115.69 14.06 115.942 14.06C116.194 14.06 116.404 14.13 116.572 14.27C116.74 14.41 116.824 14.6153 116.824 14.886V20.15L119.82 17.28C119.988 17.112 120.179 17.028 120.394 17.028C120.609 17.028 120.795 17.1073 120.954 17.266C121.113 17.4247 121.192 17.6113 121.192 17.826C121.192 18.0407 121.103 18.2367 120.926 18.414L118.728 20.458L121.164 22.642ZM127.902 22.124C128.061 22.124 128.187 22.1847 128.28 22.306C128.383 22.4273 128.434 22.5907 128.434 22.796C128.434 23.0853 128.262 23.328 127.916 23.524C127.599 23.7013 127.24 23.846 126.838 23.958C126.437 24.0607 126.054 24.112 125.69 24.112C124.589 24.112 123.716 23.7947 123.072 23.16C122.428 22.5253 122.106 21.6573 122.106 20.556C122.106 19.856 122.246 19.2353 122.526 18.694C122.806 18.1527 123.198 17.7327 123.702 17.434C124.216 17.1353 124.794 16.986 125.438 16.986C126.054 16.986 126.591 17.1213 127.048 17.392C127.506 17.6627 127.86 18.0453 128.112 18.54C128.364 19.0347 128.49 19.618 128.49 20.29C128.49 20.6913 128.313 20.892 127.958 20.892H123.828C123.884 21.536 124.066 22.012 124.374 22.32C124.682 22.6187 125.13 22.768 125.718 22.768C126.017 22.768 126.278 22.7307 126.502 22.656C126.736 22.5813 126.997 22.4787 127.286 22.348C127.566 22.1987 127.772 22.124 127.902 22.124ZM125.48 18.218C125.004 18.218 124.622 18.3673 124.332 18.666C124.052 18.9647 123.884 19.394 123.828 19.954H126.992C126.974 19.3847 126.834 18.9553 126.572 18.666C126.311 18.3673 125.947 18.218 125.48 18.218ZM135.634 14.06C135.895 14.06 136.11 14.1347 136.278 14.284C136.446 14.4333 136.53 14.6293 136.53 14.872V23.244C136.53 23.496 136.45 23.6967 136.292 23.846C136.133 23.9953 135.923 24.07 135.662 24.07C135.4 24.07 135.19 23.9953 135.032 23.846C134.873 23.6967 134.794 23.496 134.794 23.244V22.894C134.588 23.2767 134.29 23.5753 133.898 23.79C133.515 24.0047 133.076 24.112 132.582 24.112C131.994 24.112 131.466 23.9627 131 23.664C130.542 23.3653 130.183 22.9453 129.922 22.404C129.67 21.8533 129.544 21.2233 129.544 20.514C129.544 19.8047 129.67 19.184 129.922 18.652C130.183 18.12 130.542 17.7093 131 17.42C131.457 17.1307 131.984 16.986 132.582 16.986C133.076 16.986 133.515 17.0887 133.898 17.294C134.28 17.4993 134.574 17.7887 134.78 18.162V14.844C134.78 14.6107 134.854 14.424 135.004 14.284C135.162 14.1347 135.372 14.06 135.634 14.06ZM133.044 22.754C133.604 22.754 134.033 22.5627 134.332 22.18C134.64 21.7973 134.794 21.2513 134.794 20.542C134.794 19.8327 134.64 19.2913 134.332 18.918C134.033 18.5353 133.608 18.344 133.058 18.344C132.498 18.344 132.064 18.5307 131.756 18.904C131.448 19.2773 131.294 19.814 131.294 20.514C131.294 21.2233 131.448 21.774 131.756 22.166C132.064 22.558 132.493 22.754 133.044 22.754ZM142.999 24.084C142.747 24.084 142.537 24.014 142.369 23.874C142.21 23.7247 142.131 23.5147 142.131 23.244V14.886C142.131 14.6153 142.21 14.41 142.369 14.27C142.537 14.13 142.747 14.06 142.999 14.06C143.251 14.06 143.461 14.13 143.629 14.27C143.797 14.41 143.881 14.6153 143.881 14.886V23.244C143.881 23.5147 143.797 23.7247 143.629 23.874C143.461 24.014 143.251 24.084 142.999 24.084ZM148.807 24.112C148.107 24.112 147.491 23.9673 146.959 23.678C146.437 23.3887 146.031 22.9733 145.741 22.432C145.452 21.8907 145.307 21.2607 145.307 20.542C145.307 19.8233 145.452 19.198 145.741 18.666C146.031 18.1247 146.437 17.7093 146.959 17.42C147.491 17.1307 148.107 16.986 148.807 16.986C149.507 16.986 150.119 17.1307 150.641 17.42C151.173 17.7093 151.579 18.1247 151.859 18.666C152.149 19.198 152.293 19.8233 152.293 20.542C152.293 21.2607 152.149 21.8907 151.859 22.432C151.579 22.9733 151.173 23.3887 150.641 23.678C150.119 23.9673 149.507 24.112 148.807 24.112ZM148.793 22.754C149.363 22.754 149.797 22.5673 150.095 22.194C150.394 21.8207 150.543 21.27 150.543 20.542C150.543 19.8233 150.394 19.2773 150.095 18.904C149.797 18.5213 149.367 18.33 148.807 18.33C148.247 18.33 147.813 18.5213 147.505 18.904C147.207 19.2773 147.057 19.8233 147.057 20.542C147.057 21.27 147.207 21.8207 147.505 22.194C147.804 22.5673 148.233 22.754 148.793 22.754ZM162.883 17.532C162.948 17.364 163.041 17.238 163.163 17.154C163.293 17.07 163.433 17.028 163.583 17.028C163.797 17.028 163.989 17.1027 164.157 17.252C164.334 17.392 164.423 17.5693 164.423 17.784C164.423 17.9053 164.399 18.0127 164.353 18.106L162.043 23.524C161.968 23.7013 161.851 23.8367 161.693 23.93C161.543 24.0233 161.375 24.07 161.189 24.07C161.011 24.07 160.843 24.0233 160.685 23.93C160.535 23.8367 160.423 23.7013 160.349 23.524L158.683 19.52L157.073 23.524C156.998 23.7013 156.881 23.8367 156.723 23.93C156.573 24.0233 156.405 24.07 156.219 24.07C156.041 24.07 155.873 24.0233 155.715 23.93C155.556 23.8367 155.439 23.7013 155.365 23.524L153.069 18.106C153.022 17.9847 152.999 17.882 152.999 17.798C152.999 17.5833 153.092 17.4013 153.279 17.252C153.465 17.0933 153.671 17.014 153.895 17.014C154.053 17.014 154.198 17.056 154.329 17.14C154.459 17.224 154.557 17.35 154.623 17.518L156.275 21.788L157.969 17.56C158.043 17.3827 158.151 17.252 158.291 17.168C158.431 17.0747 158.585 17.028 158.753 17.028C158.921 17.028 159.075 17.0747 159.215 17.168C159.355 17.252 159.462 17.3827 159.537 17.56L161.245 21.802L162.883 17.532ZM170.928 22.124C171.086 22.124 171.212 22.1847 171.306 22.306C171.408 22.4273 171.46 22.5907 171.46 22.796C171.46 23.0853 171.287 23.328 170.942 23.524C170.624 23.7013 170.265 23.846 169.864 23.958C169.462 24.0607 169.08 24.112 168.716 24.112C167.614 24.112 166.742 23.7947 166.098 23.16C165.454 22.5253 165.132 21.6573 165.132 20.556C165.132 19.856 165.272 19.2353 165.552 18.694C165.832 18.1527 166.224 17.7327 166.728 17.434C167.241 17.1353 167.82 16.986 168.464 16.986C169.08 16.986 169.616 17.1213 170.074 17.392C170.531 17.6627 170.886 18.0453 171.138 18.54C171.39 19.0347 171.516 19.618 171.516 20.29C171.516 20.6913 171.338 20.892 170.984 20.892H166.854C166.91 21.536 167.092 22.012 167.4 22.32C167.708 22.6187 168.156 22.768 168.744 22.768C169.042 22.768 169.304 22.7307 169.528 22.656C169.761 22.5813 170.022 22.4787 170.312 22.348C170.592 22.1987 170.797 22.124 170.928 22.124ZM168.506 18.218C168.03 18.218 167.647 18.3673 167.358 18.666C167.078 18.9647 166.91 19.394 166.854 19.954H170.018C169.999 19.3847 169.859 18.9553 169.598 18.666C169.336 18.3673 168.972 18.218 168.506 18.218ZM175.425 24.112C174.408 24.112 173.586 23.9113 172.961 23.51C172.662 23.3327 172.513 23.0807 172.513 22.754C172.513 22.5673 172.564 22.418 172.667 22.306C172.77 22.1847 172.896 22.124 173.045 22.124C173.204 22.124 173.423 22.1987 173.703 22.348C174.002 22.488 174.272 22.5953 174.515 22.67C174.767 22.7447 175.084 22.782 175.467 22.782C175.859 22.782 176.162 22.7167 176.377 22.586C176.601 22.4553 176.713 22.2733 176.713 22.04C176.713 21.8813 176.666 21.7553 176.573 21.662C176.489 21.5687 176.33 21.4847 176.097 21.41C175.873 21.326 175.528 21.2327 175.061 21.13C174.23 20.962 173.633 20.724 173.269 20.416C172.914 20.108 172.737 19.6833 172.737 19.142C172.737 18.7313 172.858 18.3627 173.101 18.036C173.344 17.7 173.675 17.4433 174.095 17.266C174.524 17.0793 175.01 16.986 175.551 16.986C175.943 16.986 176.321 17.0373 176.685 17.14C177.049 17.2333 177.376 17.3733 177.665 17.56C177.964 17.7467 178.113 17.994 178.113 18.302C178.113 18.4887 178.062 18.6473 177.959 18.778C177.856 18.8993 177.73 18.96 177.581 18.96C177.478 18.96 177.376 18.9413 177.273 18.904C177.18 18.8573 177.058 18.792 176.909 18.708C176.638 18.568 176.405 18.4653 176.209 18.4C176.013 18.3253 175.77 18.288 175.481 18.288C175.136 18.288 174.86 18.358 174.655 18.498C174.459 18.638 174.361 18.8293 174.361 19.072C174.361 19.3053 174.464 19.4827 174.669 19.604C174.874 19.7253 175.271 19.8467 175.859 19.968C176.484 20.0987 176.974 20.248 177.329 20.416C177.684 20.584 177.936 20.794 178.085 21.046C178.244 21.298 178.323 21.62 178.323 22.012C178.323 22.6467 178.057 23.1553 177.525 23.538C177.002 23.9207 176.302 24.112 175.425 24.112ZM183.23 22.782C183.696 22.81 183.93 23.02 183.93 23.412C183.93 23.636 183.836 23.8087 183.65 23.93C183.472 24.042 183.216 24.0887 182.88 24.07L182.502 24.042C180.934 23.93 180.15 23.09 180.15 21.522V18.47H179.45C179.198 18.47 179.002 18.414 178.862 18.302C178.731 18.19 178.666 18.0267 178.666 17.812C178.666 17.5973 178.731 17.434 178.862 17.322C179.002 17.21 179.198 17.154 179.45 17.154H180.15V15.866C180.15 15.614 180.229 15.4133 180.388 15.264C180.546 15.1147 180.761 15.04 181.032 15.04C181.293 15.04 181.503 15.1147 181.662 15.264C181.82 15.4133 181.9 15.614 181.9 15.866V17.154H183.09C183.342 17.154 183.533 17.21 183.664 17.322C183.804 17.434 183.874 17.5973 183.874 17.812C183.874 18.0267 183.804 18.19 183.664 18.302C183.533 18.414 183.342 18.47 183.09 18.47H181.9V21.648C181.9 22.3387 182.217 22.7073 182.852 22.754L183.23 22.782ZM192.198 22.782C192.665 22.81 192.898 23.02 192.898 23.412C192.898 23.636 192.805 23.8087 192.618 23.93C192.441 24.042 192.184 24.0887 191.848 24.07L191.47 24.042C189.902 23.93 189.118 23.09 189.118 21.522V18.47H188.418C188.166 18.47 187.97 18.414 187.83 18.302C187.7 18.19 187.634 18.0267 187.634 17.812C187.634 17.5973 187.7 17.434 187.83 17.322C187.97 17.21 188.166 17.154 188.418 17.154H189.118V15.866C189.118 15.614 189.198 15.4133 189.356 15.264C189.515 15.1147 189.73 15.04 190 15.04C190.262 15.04 190.472 15.1147 190.63 15.264C190.789 15.4133 190.868 15.614 190.868 15.866V17.154H192.058C192.31 17.154 192.502 17.21 192.632 17.322C192.772 17.434 192.842 17.5973 192.842 17.812C192.842 18.0267 192.772 18.19 192.632 18.302C192.502 18.414 192.31 18.47 192.058 18.47H190.868V21.648C190.868 22.3387 191.186 22.7073 191.82 22.754L192.198 22.782ZM196.932 24.112C196.232 24.112 195.616 23.9673 195.084 23.678C194.562 23.3887 194.156 22.9733 193.866 22.432C193.577 21.8907 193.432 21.2607 193.432 20.542C193.432 19.8233 193.577 19.198 193.866 18.666C194.156 18.1247 194.562 17.7093 195.084 17.42C195.616 17.1307 196.232 16.986 196.932 16.986C197.632 16.986 198.244 17.1307 198.766 17.42C199.298 17.7093 199.704 18.1247 199.984 18.666C200.274 19.198 200.418 19.8233 200.418 20.542C200.418 21.2607 200.274 21.8907 199.984 22.432C199.704 22.9733 199.298 23.3887 198.766 23.678C198.244 23.9673 197.632 24.112 196.932 24.112ZM196.918 22.754C197.488 22.754 197.922 22.5673 198.22 22.194C198.519 21.8207 198.668 21.27 198.668 20.542C198.668 19.8233 198.519 19.2773 198.22 18.904C197.922 18.5213 197.492 18.33 196.932 18.33C196.372 18.33 195.938 18.5213 195.63 18.904C195.332 19.2773 195.182 19.8233 195.182 20.542C195.182 21.27 195.332 21.8207 195.63 22.194C195.929 22.5673 196.358 22.754 196.918 22.754ZM209.668 16.986C211.273 16.986 212.076 17.924 212.076 19.8V23.244C212.076 23.5053 211.997 23.7107 211.838 23.86C211.689 24.0093 211.479 24.084 211.208 24.084C210.937 24.084 210.723 24.0093 210.564 23.86C210.405 23.7107 210.326 23.5053 210.326 23.244V19.8C210.326 19.3053 210.223 18.946 210.018 18.722C209.822 18.4887 209.509 18.372 209.08 18.372C208.576 18.372 208.17 18.5307 207.862 18.848C207.563 19.1653 207.414 19.59 207.414 20.122V23.244C207.414 23.5053 207.335 23.7107 207.176 23.86C207.017 24.0093 206.803 24.084 206.532 24.084C206.261 24.084 206.047 24.0093 205.888 23.86C205.739 23.7107 205.664 23.5053 205.664 23.244V14.872C205.664 14.6293 205.743 14.4333 205.902 14.284C206.07 14.1347 206.285 14.06 206.546 14.06C206.807 14.06 207.017 14.13 207.176 14.27C207.335 14.41 207.414 14.6013 207.414 14.844V18.106C207.647 17.742 207.955 17.4667 208.338 17.28C208.73 17.084 209.173 16.986 209.668 16.986ZM214.721 24.084C214.469 24.084 214.259 24.014 214.091 23.874C213.933 23.7247 213.853 23.5147 213.853 23.244V17.84C213.853 17.5693 213.933 17.364 214.091 17.224C214.259 17.084 214.469 17.014 214.721 17.014C214.973 17.014 215.183 17.084 215.351 17.224C215.519 17.364 215.603 17.5693 215.603 17.84V23.244C215.603 23.5147 215.519 23.7247 215.351 23.874C215.183 24.014 214.973 24.084 214.721 24.084ZM214.721 15.768C214.404 15.768 214.152 15.684 213.965 15.516C213.779 15.3387 213.685 15.11 213.685 14.83C213.685 14.55 213.779 14.326 213.965 14.158C214.152 13.99 214.404 13.906 214.721 13.906C215.029 13.906 215.277 13.99 215.463 14.158C215.659 14.326 215.757 14.55 215.757 14.83C215.757 15.11 215.664 15.3387 215.477 15.516C215.291 15.684 215.039 15.768 214.721 15.768ZM223.204 17.014C223.465 17.014 223.675 17.0887 223.834 17.238C223.993 17.3873 224.072 17.588 224.072 17.84V23.37C224.072 24.4433 223.773 25.2553 223.176 25.806C222.579 26.3567 221.697 26.632 220.53 26.632C219.513 26.632 218.663 26.4407 217.982 26.058C217.637 25.8527 217.464 25.6053 217.464 25.316C217.464 25.1107 217.511 24.9473 217.604 24.826C217.707 24.7047 217.837 24.644 217.996 24.644C218.08 24.644 218.183 24.6627 218.304 24.7C218.425 24.7467 218.551 24.798 218.682 24.854C219.018 24.994 219.317 25.1013 219.578 25.176C219.849 25.2507 220.157 25.288 220.502 25.288C221.725 25.288 222.336 24.6907 222.336 23.496V22.6C222.131 22.9827 221.832 23.2813 221.44 23.496C221.048 23.7013 220.6 23.804 220.096 23.804C219.499 23.804 218.967 23.664 218.5 23.384C218.043 23.0947 217.683 22.6933 217.422 22.18C217.161 21.6667 217.03 21.074 217.03 20.402C217.03 19.73 217.156 19.1373 217.408 18.624C217.669 18.1013 218.033 17.7 218.5 17.42C218.967 17.1307 219.499 16.986 220.096 16.986C220.6 16.986 221.048 17.0933 221.44 17.308C221.832 17.5133 222.131 17.8073 222.336 18.19V17.826C222.336 17.5833 222.415 17.3873 222.574 17.238C222.733 17.0887 222.943 17.014 223.204 17.014ZM220.558 22.446C221.118 22.446 221.552 22.264 221.86 21.9C222.177 21.536 222.336 21.0367 222.336 20.402C222.336 19.758 222.177 19.254 221.86 18.89C221.552 18.526 221.118 18.344 220.558 18.344C220.007 18.344 219.573 18.526 219.256 18.89C218.939 19.254 218.78 19.758 218.78 20.402C218.78 21.0367 218.939 21.536 219.256 21.9C219.573 22.264 220.007 22.446 220.558 22.446ZM229.889 16.986C231.494 16.986 232.297 17.924 232.297 19.8V23.244C232.297 23.5053 232.217 23.7107 232.059 23.86C231.909 24.0093 231.699 24.084 231.429 24.084C231.158 24.084 230.943 24.0093 230.785 23.86C230.626 23.7107 230.547 23.5053 230.547 23.244V19.8C230.547 19.3053 230.444 18.946 230.239 18.722C230.043 18.4887 229.73 18.372 229.301 18.372C228.797 18.372 228.391 18.5307 228.083 18.848C227.784 19.1653 227.635 19.59 227.635 20.122V23.244C227.635 23.5053 227.555 23.7107 227.397 23.86C227.238 24.0093 227.023 24.084 226.753 24.084C226.482 24.084 226.267 24.0093 226.109 23.86C225.959 23.7107 225.885 23.5053 225.885 23.244V14.872C225.885 14.6293 225.964 14.4333 226.123 14.284C226.291 14.1347 226.505 14.06 226.767 14.06C227.028 14.06 227.238 14.13 227.397 14.27C227.555 14.41 227.635 14.6013 227.635 14.844V18.106C227.868 17.742 228.176 17.4667 228.559 17.28C228.951 17.084 229.394 16.986 229.889 16.986ZM239.492 22.124C239.651 22.124 239.777 22.1847 239.87 22.306C239.973 22.4273 240.024 22.5907 240.024 22.796C240.024 23.0853 239.851 23.328 239.506 23.524C239.189 23.7013 238.829 23.846 238.428 23.958C238.027 24.0607 237.644 24.112 237.28 24.112C236.179 24.112 235.306 23.7947 234.662 23.16C234.018 22.5253 233.696 21.6573 233.696 20.556C233.696 19.856 233.836 19.2353 234.116 18.694C234.396 18.1527 234.788 17.7327 235.292 17.434C235.805 17.1353 236.384 16.986 237.028 16.986C237.644 16.986 238.181 17.1213 238.638 17.392C239.095 17.6627 239.45 18.0453 239.702 18.54C239.954 19.0347 240.08 19.618 240.08 20.29C240.08 20.6913 239.903 20.892 239.548 20.892H235.418C235.474 21.536 235.656 22.012 235.964 22.32C236.272 22.6187 236.72 22.768 237.308 22.768C237.607 22.768 237.868 22.7307 238.092 22.656C238.325 22.5813 238.587 22.4787 238.876 22.348C239.156 22.1987 239.361 22.124 239.492 22.124ZM237.07 18.218C236.594 18.218 236.211 18.3673 235.922 18.666C235.642 18.9647 235.474 19.394 235.418 19.954H238.582C238.563 19.3847 238.423 18.9553 238.162 18.666C237.901 18.3673 237.537 18.218 237.07 18.218ZM243.99 24.112C242.972 24.112 242.151 23.9113 241.526 23.51C241.227 23.3327 241.078 23.0807 241.078 22.754C241.078 22.5673 241.129 22.418 241.232 22.306C241.334 22.1847 241.46 22.124 241.61 22.124C241.768 22.124 241.988 22.1987 242.268 22.348C242.566 22.488 242.837 22.5953 243.08 22.67C243.332 22.7447 243.649 22.782 244.032 22.782C244.424 22.782 244.727 22.7167 244.942 22.586C245.166 22.4553 245.278 22.2733 245.278 22.04C245.278 21.8813 245.231 21.7553 245.138 21.662C245.054 21.5687 244.895 21.4847 244.662 21.41C244.438 21.326 244.092 21.2327 243.626 21.13C242.795 20.962 242.198 20.724 241.834 20.416C241.479 20.108 241.302 19.6833 241.302 19.142C241.302 18.7313 241.423 18.3627 241.666 18.036C241.908 17.7 242.24 17.4433 242.66 17.266C243.089 17.0793 243.574 16.986 244.116 16.986C244.508 16.986 244.886 17.0373 245.25 17.14C245.614 17.2333 245.94 17.3733 246.23 17.56C246.528 17.7467 246.678 17.994 246.678 18.302C246.678 18.4887 246.626 18.6473 246.524 18.778C246.421 18.8993 246.295 18.96 246.146 18.96C246.043 18.96 245.94 18.9413 245.838 18.904C245.744 18.8573 245.623 18.792 245.474 18.708C245.203 18.568 244.97 18.4653 244.774 18.4C244.578 18.3253 244.335 18.288 244.046 18.288C243.7 18.288 243.425 18.358 243.22 18.498C243.024 18.638 242.926 18.8293 242.926 19.072C242.926 19.3053 243.028 19.4827 243.234 19.604C243.439 19.7253 243.836 19.8467 244.424 19.968C245.049 20.0987 245.539 20.248 245.894 20.416C246.248 20.584 246.5 20.794 246.65 21.046C246.808 21.298 246.888 21.62 246.888 22.012C246.888 22.6467 246.622 23.1553 246.09 23.538C245.567 23.9207 244.867 24.112 243.99 24.112ZM251.794 22.782C252.261 22.81 252.494 23.02 252.494 23.412C252.494 23.636 252.401 23.8087 252.214 23.93C252.037 24.042 251.78 24.0887 251.444 24.07L251.066 24.042C249.498 23.93 248.714 23.09 248.714 21.522V18.47H248.014C247.762 18.47 247.566 18.414 247.426 18.302C247.295 18.19 247.23 18.0267 247.23 17.812C247.23 17.5973 247.295 17.434 247.426 17.322C247.566 17.21 247.762 17.154 248.014 17.154H248.714V15.866C248.714 15.614 248.793 15.4133 248.952 15.264C249.111 15.1147 249.325 15.04 249.596 15.04C249.857 15.04 250.067 15.1147 250.226 15.264C250.385 15.4133 250.464 15.614 250.464 15.866V17.154H251.654C251.906 17.154 252.097 17.21 252.228 17.322C252.368 17.434 252.438 17.5973 252.438 17.812C252.438 18.0267 252.368 18.19 252.228 18.302C252.097 18.414 251.906 18.47 251.654 18.47H250.464V21.648C250.464 22.3387 250.781 22.7073 251.416 22.754L251.794 22.782Z" fill="#666C76"/>
</svg>
