<svg width="160" height="44" viewBox="0 0 160 44" fill="none" xmlns="http://www.w3.org/2000/svg">
<rect x="0.5" y="0.5" width="159" height="43" rx="9.5" fill="white" stroke="#47CAC2"/>
<path d="M57.5761 17.732C57.6161 17.644 57.6721 17.576 57.7441 17.528C57.8241 17.48 57.9081 17.456 57.9961 17.456C58.1241 17.456 58.2361 17.5 58.3321 17.588C58.4361 17.668 58.4881 17.768 58.4881 17.888C58.4881 17.952 58.4721 18.016 58.4401 18.08L54.9961 25.736C54.9481 25.84 54.8761 25.92 54.7801 25.976C54.6841 26.032 54.5801 26.06 54.4681 26.06C54.3561 26.06 54.2521 26.032 54.1561 25.976C54.0601 25.92 53.9881 25.84 53.9401 25.736L50.5081 18.08C50.4841 18.016 50.4721 17.956 50.4721 17.9C50.4721 17.772 50.5241 17.668 50.6281 17.588C50.7321 17.5 50.8481 17.456 50.9761 17.456C51.1681 17.456 51.3081 17.548 51.3961 17.732L54.4921 24.728L57.5761 17.732ZM60.017 26.06C59.873 26.06 59.753 26.02 59.657 25.94C59.569 25.852 59.525 25.732 59.525 25.58V20.516C59.525 20.364 59.569 20.248 59.657 20.168C59.753 20.08 59.873 20.036 60.017 20.036C60.161 20.036 60.277 20.08 60.365 20.168C60.453 20.248 60.497 20.364 60.497 20.516V25.58C60.497 25.74 60.453 25.86 60.365 25.94C60.277 26.02 60.161 26.06 60.017 26.06ZM60.017 18.776C59.825 18.776 59.669 18.72 59.549 18.608C59.429 18.496 59.369 18.348 59.369 18.164C59.369 17.988 59.429 17.844 59.549 17.732C59.669 17.62 59.825 17.564 60.017 17.564C60.209 17.564 60.365 17.62 60.485 17.732C60.605 17.844 60.665 17.988 60.665 18.164C60.665 18.348 60.605 18.496 60.485 18.608C60.365 18.72 60.209 18.776 60.017 18.776ZM66.8381 24.644C66.9261 24.644 67.0021 24.68 67.0661 24.752C67.1301 24.824 67.1621 24.916 67.1621 25.028C67.1621 25.228 67.0221 25.412 66.7421 25.58C66.4541 25.748 66.1501 25.876 65.8301 25.964C65.5101 26.044 65.1981 26.084 64.8941 26.084C63.9901 26.084 63.2741 25.816 62.7461 25.28C62.2261 24.744 61.9661 24.004 61.9661 23.06C61.9661 22.46 62.0821 21.932 62.3141 21.476C62.5461 21.012 62.8701 20.652 63.2861 20.396C63.7101 20.14 64.1901 20.012 64.7261 20.012C65.4861 20.012 66.0901 20.26 66.5381 20.756C66.9861 21.252 67.2101 21.924 67.2101 22.772C67.2101 22.932 67.1781 23.048 67.1141 23.12C67.0501 23.192 66.9461 23.228 66.8021 23.228H62.9381C63.0101 24.604 63.6621 25.292 64.8941 25.292C65.2061 25.292 65.4741 25.252 65.6981 25.172C65.9221 25.084 66.1621 24.968 66.4181 24.824C66.6261 24.704 66.7661 24.644 66.8381 24.644ZM64.7381 20.768C64.2261 20.768 63.8141 20.928 63.5021 21.248C63.1981 21.568 63.0181 22.02 62.9621 22.604H66.3581C66.3421 22.012 66.1941 21.56 65.9141 21.248C65.6341 20.928 65.2421 20.768 64.7381 20.768ZM76.5639 20.348C76.6439 20.156 76.7759 20.06 76.9599 20.06C77.0799 20.06 77.1879 20.1 77.2839 20.18C77.3799 20.26 77.4279 20.36 77.4279 20.48C77.4279 20.536 77.4159 20.596 77.3919 20.66L75.3999 25.7C75.3519 25.804 75.2799 25.888 75.1839 25.952C75.0959 26.008 74.9959 26.036 74.8839 26.036C74.7799 26.036 74.6799 26.008 74.5839 25.952C74.4959 25.888 74.4279 25.804 74.3799 25.7L72.7239 21.488L71.0799 25.7C71.0399 25.804 70.9719 25.888 70.8759 25.952C70.7799 26.008 70.6759 26.036 70.5639 26.036C70.4599 26.036 70.3599 26.008 70.2639 25.952C70.1679 25.888 70.0959 25.804 70.0479 25.7L68.0559 20.672C68.0319 20.608 68.0199 20.552 68.0199 20.504C68.0199 20.376 68.0719 20.268 68.1759 20.18C68.2879 20.092 68.4079 20.048 68.5359 20.048C68.7279 20.048 68.8639 20.144 68.9439 20.336L70.5879 24.764L72.2799 20.372C72.3279 20.268 72.3919 20.188 72.4719 20.132C72.5599 20.076 72.6519 20.048 72.7479 20.048C72.8519 20.048 72.9439 20.076 73.0239 20.132C73.1119 20.188 73.1759 20.268 73.2159 20.372L74.9079 24.752L76.5639 20.348ZM85.4992 26.096C84.6992 26.096 84.0072 25.924 83.4232 25.58C82.8392 25.228 82.3872 24.728 82.0672 24.08C81.7552 23.424 81.5992 22.652 81.5992 21.764C81.5992 20.884 81.7552 20.12 82.0672 19.472C82.3872 18.816 82.8392 18.316 83.4232 17.972C84.0072 17.62 84.6992 17.444 85.4992 17.444C86.0352 17.444 86.5392 17.532 87.0112 17.708C87.4912 17.876 87.9072 18.12 88.2592 18.44C88.3872 18.56 88.4512 18.7 88.4512 18.86C88.4512 18.972 88.4192 19.072 88.3552 19.16C88.2912 19.24 88.2152 19.28 88.1272 19.28C88.0312 19.28 87.9152 19.236 87.7792 19.148C87.3712 18.828 86.9992 18.604 86.6632 18.476C86.3352 18.348 85.9552 18.284 85.5232 18.284C84.5952 18.284 83.8792 18.588 83.3752 19.196C82.8792 19.796 82.6312 20.652 82.6312 21.764C82.6312 22.884 82.8792 23.748 83.3752 24.356C83.8792 24.956 84.5952 25.256 85.5232 25.256C85.9472 25.256 86.3272 25.192 86.6632 25.064C86.9992 24.936 87.3712 24.712 87.7792 24.392C87.9152 24.304 88.0312 24.26 88.1272 24.26C88.2152 24.26 88.2912 24.3 88.3552 24.38C88.4192 24.46 88.4512 24.56 88.4512 24.68C88.4512 24.84 88.3872 24.98 88.2592 25.1C87.9072 25.42 87.4912 25.668 87.0112 25.844C86.5392 26.012 86.0352 26.096 85.4992 26.096ZM90.3803 26.06C90.2363 26.06 90.1163 26.02 90.0203 25.94C89.9323 25.852 89.8883 25.732 89.8883 25.58V17.96C89.8883 17.808 89.9323 17.692 90.0203 17.612C90.1163 17.524 90.2363 17.48 90.3803 17.48C90.5163 17.48 90.6283 17.524 90.7163 17.612C90.8123 17.692 90.8603 17.808 90.8603 17.96V25.58C90.8603 25.732 90.8123 25.852 90.7163 25.94C90.6283 26.02 90.5163 26.06 90.3803 26.06ZM95.0653 20.012C96.5293 20.012 97.2613 20.78 97.2613 22.316V25.58C97.2613 25.724 97.2173 25.84 97.1293 25.928C97.0493 26.016 96.9373 26.06 96.7933 26.06C96.6493 26.06 96.5333 26.016 96.4453 25.928C96.3573 25.84 96.3133 25.724 96.3133 25.58V25.004C96.1613 25.348 95.9293 25.616 95.6173 25.808C95.3053 25.992 94.9453 26.084 94.5373 26.084C94.1613 26.084 93.8133 26.008 93.4933 25.856C93.1813 25.704 92.9333 25.492 92.7493 25.22C92.5653 24.948 92.4733 24.648 92.4733 24.32C92.4733 23.88 92.5853 23.54 92.8093 23.3C93.0333 23.052 93.4013 22.876 93.9133 22.772C94.4253 22.66 95.1373 22.604 96.0493 22.604H96.3133V22.208C96.3133 21.728 96.2133 21.376 96.0133 21.152C95.8213 20.928 95.5053 20.816 95.0653 20.816C94.5213 20.816 93.9693 20.964 93.4093 21.26C93.1933 21.396 93.0413 21.464 92.9533 21.464C92.8573 21.464 92.7773 21.428 92.7133 21.356C92.6493 21.284 92.6173 21.192 92.6173 21.08C92.6173 20.968 92.6493 20.872 92.7133 20.792C92.7853 20.704 92.8973 20.616 93.0493 20.528C93.3293 20.368 93.6453 20.244 93.9973 20.156C94.3573 20.06 94.7133 20.012 95.0653 20.012ZM94.6693 25.316C95.1493 25.316 95.5413 25.156 95.8453 24.836C96.1573 24.508 96.3133 24.088 96.3133 23.576V23.228H96.0973C95.3933 23.228 94.8573 23.26 94.4893 23.324C94.1213 23.38 93.8573 23.48 93.6973 23.624C93.5453 23.76 93.4693 23.964 93.4693 24.236C93.4693 24.548 93.5813 24.808 93.8053 25.016C94.0373 25.216 94.3253 25.316 94.6693 25.316ZM101.009 26.084C100.641 26.084 100.289 26.04 99.9526 25.952C99.6246 25.864 99.3326 25.74 99.0766 25.58C98.9326 25.484 98.8286 25.396 98.7646 25.316C98.7086 25.228 98.6806 25.124 98.6806 25.004C98.6806 24.9 98.7086 24.816 98.7646 24.752C98.8286 24.68 98.9086 24.644 99.0046 24.644C99.1006 24.644 99.2406 24.704 99.4246 24.824C99.6646 24.968 99.9006 25.084 100.133 25.172C100.373 25.252 100.669 25.292 101.021 25.292C101.453 25.292 101.789 25.216 102.029 25.064C102.269 24.912 102.389 24.692 102.389 24.404C102.389 24.228 102.345 24.088 102.257 23.984C102.169 23.872 102.017 23.776 101.801 23.696C101.585 23.608 101.269 23.52 100.853 23.432C100.149 23.28 99.6446 23.076 99.3406 22.82C99.0366 22.564 98.8846 22.216 98.8846 21.776C98.8846 21.432 98.9806 21.128 99.1726 20.864C99.3646 20.6 99.6286 20.392 99.9646 20.24C100.309 20.088 100.697 20.012 101.129 20.012C101.441 20.012 101.741 20.056 102.029 20.144C102.325 20.224 102.585 20.34 102.809 20.492C103.081 20.684 103.217 20.884 103.217 21.092C103.217 21.196 103.185 21.284 103.121 21.356C103.057 21.428 102.981 21.464 102.893 21.464C102.797 21.464 102.653 21.396 102.461 21.26C102.237 21.116 102.025 21.004 101.825 20.924C101.625 20.844 101.377 20.804 101.081 20.804C100.705 20.804 100.401 20.888 100.169 21.056C99.9446 21.224 99.8326 21.448 99.8326 21.728C99.8326 21.904 99.8726 22.048 99.9526 22.16C100.041 22.264 100.181 22.36 100.373 22.448C100.573 22.528 100.857 22.608 101.225 22.688C101.769 22.808 102.189 22.94 102.485 23.084C102.789 23.228 103.005 23.404 103.133 23.612C103.261 23.82 103.325 24.084 103.325 24.404C103.325 24.908 103.113 25.316 102.689 25.628C102.265 25.932 101.705 26.084 101.009 26.084ZM106.774 26.084C106.406 26.084 106.054 26.04 105.718 25.952C105.39 25.864 105.098 25.74 104.842 25.58C104.698 25.484 104.594 25.396 104.53 25.316C104.474 25.228 104.446 25.124 104.446 25.004C104.446 24.9 104.474 24.816 104.53 24.752C104.594 24.68 104.674 24.644 104.77 24.644C104.866 24.644 105.006 24.704 105.19 24.824C105.43 24.968 105.666 25.084 105.898 25.172C106.138 25.252 106.434 25.292 106.786 25.292C107.218 25.292 107.554 25.216 107.794 25.064C108.034 24.912 108.154 24.692 108.154 24.404C108.154 24.228 108.11 24.088 108.022 23.984C107.934 23.872 107.782 23.776 107.566 23.696C107.35 23.608 107.034 23.52 106.618 23.432C105.914 23.28 105.41 23.076 105.106 22.82C104.802 22.564 104.65 22.216 104.65 21.776C104.65 21.432 104.746 21.128 104.938 20.864C105.13 20.6 105.394 20.392 105.73 20.24C106.074 20.088 106.462 20.012 106.894 20.012C107.206 20.012 107.506 20.056 107.794 20.144C108.09 20.224 108.35 20.34 108.574 20.492C108.846 20.684 108.982 20.884 108.982 21.092C108.982 21.196 108.95 21.284 108.886 21.356C108.822 21.428 108.746 21.464 108.658 21.464C108.562 21.464 108.418 21.396 108.226 21.26C108.002 21.116 107.79 21.004 107.59 20.924C107.39 20.844 107.142 20.804 106.846 20.804C106.47 20.804 106.166 20.888 105.934 21.056C105.71 21.224 105.598 21.448 105.598 21.728C105.598 21.904 105.638 22.048 105.718 22.16C105.806 22.264 105.946 22.36 106.138 22.448C106.338 22.528 106.622 22.608 106.99 22.688C107.534 22.808 107.954 22.94 108.25 23.084C108.554 23.228 108.77 23.404 108.898 23.612C109.026 23.82 109.09 24.084 109.09 24.404C109.09 24.908 108.878 25.316 108.454 25.628C108.03 25.932 107.47 26.084 106.774 26.084Z" fill="#666C76"/>
</svg>
