<svg width="362" height="32" viewBox="0 0 362 32" fill="none" xmlns="http://www.w3.org/2000/svg">
<rect x="0.5" y="0.5" width="361" height="31" stroke="#EEEEEE"/>
<path d="M37.3806 19.172C37.5246 19.172 37.6366 19.208 37.7166 19.28C37.7966 19.352 37.8366 19.452 37.8366 19.58C37.8366 19.716 37.7966 19.82 37.7166 19.892C37.6446 19.964 37.5326 20 37.3806 20H33.4086C33.2566 20 33.1406 19.964 33.0606 19.892C32.9886 19.82 32.9526 19.716 32.9526 19.58C32.9526 19.452 32.9926 19.352 33.0726 19.28C33.1526 19.208 33.2646 19.172 33.4086 19.172H34.8966V12.74L33.5886 13.592C33.5246 13.632 33.4606 13.652 33.3966 13.652C33.2846 13.652 33.1846 13.6 33.0966 13.496C33.0166 13.392 32.9766 13.28 32.9766 13.16C32.9766 12.992 33.0406 12.872 33.1686 12.8L34.9926 11.612C35.1286 11.524 35.2686 11.48 35.4126 11.48C35.5486 11.48 35.6606 11.524 35.7486 11.612C35.8366 11.7 35.8806 11.824 35.8806 11.984V19.172H37.3806ZM44.7079 11.54C44.8519 11.54 44.9599 11.58 45.0319 11.66C45.1119 11.732 45.1519 11.828 45.1519 11.948C45.1519 12.06 45.1159 12.184 45.0439 12.32L41.0599 19.82C40.9639 19.996 40.8239 20.084 40.6399 20.084C40.5119 20.084 40.3959 20.04 40.2919 19.952C40.1959 19.864 40.1479 19.756 40.1479 19.628C40.1479 19.54 40.1759 19.452 40.2319 19.364L43.9759 12.368H39.8359C39.6919 12.368 39.5799 12.332 39.4999 12.26C39.4279 12.188 39.3919 12.088 39.3919 11.96C39.3919 11.824 39.4279 11.72 39.4999 11.648C39.5799 11.576 39.6919 11.54 39.8359 11.54H44.7079ZM47.2472 15.38C47.0552 15.38 46.8952 15.32 46.7672 15.2C46.6392 15.072 46.5752 14.908 46.5752 14.708C46.5752 14.508 46.6392 14.348 46.7672 14.228C46.8952 14.1 47.0552 14.036 47.2472 14.036C47.4312 14.036 47.5832 14.1 47.7032 14.228C47.8312 14.348 47.8952 14.508 47.8952 14.708C47.8952 14.908 47.8312 15.072 47.7032 15.2C47.5832 15.32 47.4312 15.38 47.2472 15.38ZM47.2472 20.06C47.0552 20.06 46.8952 20 46.7672 19.88C46.6392 19.752 46.5752 19.588 46.5752 19.388C46.5752 19.188 46.6392 19.024 46.7672 18.896C46.8952 18.768 47.0552 18.704 47.2472 18.704C47.4312 18.704 47.5832 18.768 47.7032 18.896C47.8312 19.024 47.8952 19.188 47.8952 19.388C47.8952 19.588 47.8312 19.752 47.7032 19.88C47.5832 20 47.4312 20.06 47.2472 20.06ZM53.3374 15.656C53.8494 15.8 54.2374 16.048 54.5014 16.4C54.7734 16.752 54.9094 17.188 54.9094 17.708C54.9094 18.444 54.6614 19.024 54.1654 19.448C53.6694 19.872 52.9934 20.084 52.1374 20.084C51.6174 20.084 51.1174 19.996 50.6374 19.82C50.1654 19.644 49.7654 19.404 49.4374 19.1C49.3094 18.98 49.2454 18.844 49.2454 18.692C49.2454 18.572 49.2774 18.472 49.3414 18.392C49.4054 18.312 49.4814 18.272 49.5694 18.272C49.6814 18.272 49.7934 18.316 49.9054 18.404C50.2734 18.7 50.6334 18.916 50.9854 19.052C51.3374 19.188 51.7174 19.256 52.1254 19.256C52.7174 19.256 53.1654 19.12 53.4694 18.848C53.7814 18.576 53.9374 18.184 53.9374 17.672C53.9374 16.64 53.2894 16.124 51.9934 16.124H51.3574C51.2294 16.124 51.1254 16.084 51.0454 16.004C50.9734 15.916 50.9374 15.816 50.9374 15.704C50.9374 15.592 50.9734 15.496 51.0454 15.416C51.1254 15.336 51.2294 15.296 51.3574 15.296H51.8014C52.4254 15.296 52.9054 15.16 53.2414 14.888C53.5774 14.608 53.7454 14.208 53.7454 13.688C53.7454 13.232 53.6094 12.884 53.3374 12.644C53.0654 12.396 52.6814 12.272 52.1854 12.272C51.8094 12.272 51.4454 12.344 51.0934 12.488C50.7414 12.624 50.3894 12.836 50.0374 13.124C49.9254 13.212 49.8134 13.256 49.7014 13.256C49.6134 13.256 49.5374 13.216 49.4734 13.136C49.4094 13.056 49.3774 12.956 49.3774 12.836C49.3774 12.684 49.4414 12.548 49.5694 12.428C49.8974 12.124 50.2934 11.884 50.7574 11.708C51.2294 11.532 51.7134 11.444 52.2094 11.444C52.9774 11.444 53.5854 11.64 54.0334 12.032C54.4894 12.416 54.7174 12.936 54.7174 13.592C54.7174 14.08 54.5934 14.508 54.3454 14.876C54.1054 15.236 53.7694 15.496 53.3374 15.656ZM59.4047 20.096C58.4367 20.096 57.7007 19.728 57.1967 18.992C56.6927 18.256 56.4407 17.184 56.4407 15.776C56.4407 14.36 56.6927 13.284 57.1967 12.548C57.7007 11.812 58.4367 11.444 59.4047 11.444C60.3727 11.444 61.1087 11.812 61.6127 12.548C62.1167 13.276 62.3687 14.348 62.3687 15.764C62.3687 17.18 62.1167 18.256 61.6127 18.992C61.1087 19.728 60.3727 20.096 59.4047 20.096ZM59.4047 19.268C60.0767 19.268 60.5727 18.984 60.8927 18.416C61.2127 17.848 61.3727 16.964 61.3727 15.764C61.3727 14.556 61.2127 13.672 60.8927 13.112C60.5807 12.552 60.0847 12.272 59.4047 12.272C58.7327 12.272 58.2367 12.556 57.9167 13.124C57.5967 13.684 57.4367 14.564 57.4367 15.764C57.4367 16.964 57.5967 17.848 57.9167 18.416C58.2367 18.984 58.7327 19.268 59.4047 19.268Z" fill="#666C76"/>
<rect x="79" y="1" width="282" height="30" fill="white"/>
</svg>
