<svg width="244" height="35" viewBox="0 0 244 35" fill="none" xmlns="http://www.w3.org/2000/svg">
<path d="M0.5 10C0.5 4.75329 4.75329 0.5 10 0.5H121.5V34.5H10C4.7533 34.5 0.5 30.2467 0.5 25V10Z" fill="#47CAC2" stroke="#47CAC2"/>
<path d="M243.5 10C243.5 4.75329 239.247 0.5 234 0.5H122.5V34.5H234C239.247 34.5 243.5 30.2467 243.5 25V10Z" fill="white" stroke="#47CAC2"/>
<path d="M48.572 13.48C48.724 13.48 48.84 13.528 48.92 13.624C49.008 13.712 49.052 13.832 49.052 13.984V21.556C49.052 21.708 49.008 21.832 48.92 21.928C48.84 22.016 48.724 22.06 48.572 22.06C48.42 22.06 48.3 22.016 48.212 21.928C48.124 21.832 48.08 21.708 48.08 21.556V18.124H43.016V21.556C43.016 21.708 42.972 21.832 42.884 21.928C42.796 22.016 42.676 22.06 42.524 22.06C42.372 22.06 42.252 22.016 42.164 21.928C42.084 21.832 42.044 21.708 42.044 21.556V13.984C42.044 13.832 42.084 13.712 42.164 13.624C42.252 13.528 42.372 13.48 42.524 13.48C42.676 13.48 42.796 13.528 42.884 13.624C42.972 13.712 43.016 13.832 43.016 13.984V17.284H48.08V13.984C48.08 13.832 48.124 13.712 48.212 13.624C48.3 13.528 48.42 13.48 48.572 13.48ZM53.4178 22.084C52.8658 22.084 52.3778 21.96 51.9538 21.712C51.5378 21.464 51.2138 21.112 50.9818 20.656C50.7578 20.192 50.6458 19.656 50.6458 19.048C50.6458 18.44 50.7578 17.908 50.9818 17.452C51.2138 16.988 51.5378 16.632 51.9538 16.384C52.3778 16.136 52.8658 16.012 53.4178 16.012C53.9698 16.012 54.4578 16.136 54.8818 16.384C55.3058 16.632 55.6298 16.988 55.8538 17.452C56.0858 17.908 56.2018 18.44 56.2018 19.048C56.2018 19.656 56.0858 20.192 55.8538 20.656C55.6298 21.112 55.3058 21.464 54.8818 21.712C54.4578 21.96 53.9698 22.084 53.4178 22.084ZM53.4178 21.28C53.9938 21.28 54.4338 21.092 54.7378 20.716C55.0498 20.332 55.2058 19.776 55.2058 19.048C55.2058 18.336 55.0498 17.788 54.7378 17.404C54.4258 17.012 53.9858 16.816 53.4178 16.816C52.8498 16.816 52.4098 17.012 52.0978 17.404C51.7858 17.788 51.6298 18.336 51.6298 19.048C51.6298 19.768 51.7818 20.32 52.0858 20.704C52.3978 21.088 52.8418 21.28 53.4178 21.28ZM62.09 16.036C62.242 16.036 62.358 16.08 62.438 16.168C62.526 16.256 62.57 16.372 62.57 16.516V21.592C62.57 21.728 62.526 21.84 62.438 21.928C62.358 22.016 62.242 22.06 62.09 22.06C61.946 22.06 61.83 22.02 61.742 21.94C61.662 21.852 61.622 21.74 61.622 21.604V21.004C61.438 21.356 61.178 21.624 60.842 21.808C60.514 21.992 60.142 22.084 59.726 22.084C59.03 22.084 58.506 21.892 58.154 21.508C57.802 21.116 57.626 20.54 57.626 19.78V16.516C57.626 16.372 57.67 16.256 57.758 16.168C57.846 16.08 57.966 16.036 58.118 16.036C58.27 16.036 58.386 16.08 58.466 16.168C58.554 16.256 58.598 16.372 58.598 16.516V19.756C58.598 20.276 58.702 20.66 58.91 20.908C59.118 21.148 59.446 21.268 59.894 21.268C60.406 21.268 60.818 21.104 61.13 20.776C61.442 20.44 61.598 20 61.598 19.456V16.516C61.598 16.372 61.642 16.256 61.73 16.168C61.818 16.08 61.938 16.036 62.09 16.036ZM67.2686 16.036C67.6046 16.012 67.7726 16.148 67.7726 16.444C67.7726 16.572 67.7366 16.676 67.6646 16.756C67.5926 16.828 67.4686 16.872 67.2926 16.888L66.9326 16.924C66.3966 16.972 65.9966 17.164 65.7326 17.5C65.4766 17.828 65.3486 18.216 65.3486 18.664V21.58C65.3486 21.74 65.3046 21.86 65.2166 21.94C65.1286 22.02 65.0126 22.06 64.8686 22.06C64.7246 22.06 64.6046 22.02 64.5086 21.94C64.4206 21.852 64.3766 21.732 64.3766 21.58V16.516C64.3766 16.364 64.4246 16.248 64.5206 16.168C64.6166 16.08 64.7326 16.036 64.8686 16.036C64.9966 16.036 65.1046 16.08 65.1926 16.168C65.2806 16.248 65.3246 16.36 65.3246 16.504V17.176C65.4926 16.824 65.7286 16.556 66.0326 16.372C66.3446 16.188 66.7006 16.08 67.1006 16.048L67.2686 16.036ZM69.099 22.06C68.955 22.06 68.835 22.02 68.739 21.94C68.651 21.852 68.607 21.732 68.607 21.58V13.96C68.607 13.808 68.651 13.692 68.739 13.612C68.835 13.524 68.955 13.48 69.099 13.48C69.235 13.48 69.347 13.524 69.435 13.612C69.531 13.692 69.579 13.808 69.579 13.96V21.58C69.579 21.732 69.531 21.852 69.435 21.94C69.347 22.02 69.235 22.06 69.099 22.06ZM75.6081 16.336C75.6961 16.144 75.8361 16.048 76.0281 16.048C76.1481 16.048 76.2561 16.088 76.3521 16.168C76.4481 16.248 76.4961 16.348 76.4961 16.468C76.4961 16.54 76.4801 16.604 76.4481 16.66L73.0761 23.932C73.0361 24.02 72.9761 24.088 72.8961 24.136C72.8241 24.184 72.7481 24.208 72.6681 24.208C72.5481 24.208 72.4401 24.168 72.3441 24.088C72.2561 24.016 72.2121 23.92 72.2121 23.8C72.2121 23.736 72.2281 23.672 72.2601 23.608L73.1001 21.796L70.7241 16.66C70.6921 16.604 70.6761 16.544 70.6761 16.48C70.6761 16.36 70.7281 16.256 70.8321 16.168C70.9441 16.08 71.0641 16.036 71.1921 16.036C71.2721 16.036 71.3481 16.06 71.4201 16.108C71.5001 16.156 71.5601 16.224 71.6001 16.312L73.6041 20.812L75.6081 16.336Z" fill="white"/>
<path d="M170.548 23C170.396 23 170.272 22.956 170.176 22.868C170.088 22.78 170.044 22.664 170.044 22.52V15.02C170.044 14.876 170.088 14.76 170.176 14.672C170.272 14.584 170.396 14.54 170.548 14.54H172.888C174.24 14.54 175.284 14.908 176.02 15.644C176.764 16.372 177.136 17.412 177.136 18.764C177.136 20.116 176.764 21.16 176.02 21.896C175.276 22.632 174.232 23 172.888 23H170.548ZM172.828 22.16C175.02 22.16 176.116 21.028 176.116 18.764C176.116 16.508 175.02 15.38 172.828 15.38H171.028V22.16H172.828ZM181.159 17.012C182.623 17.012 183.355 17.78 183.355 19.316V22.58C183.355 22.724 183.311 22.84 183.223 22.928C183.143 23.016 183.031 23.06 182.887 23.06C182.743 23.06 182.627 23.016 182.539 22.928C182.451 22.84 182.407 22.724 182.407 22.58V22.004C182.255 22.348 182.023 22.616 181.711 22.808C181.399 22.992 181.039 23.084 180.631 23.084C180.255 23.084 179.907 23.008 179.587 22.856C179.275 22.704 179.027 22.492 178.843 22.22C178.659 21.948 178.567 21.648 178.567 21.32C178.567 20.88 178.679 20.54 178.903 20.3C179.127 20.052 179.495 19.876 180.007 19.772C180.519 19.66 181.231 19.604 182.143 19.604H182.407V19.208C182.407 18.728 182.307 18.376 182.107 18.152C181.915 17.928 181.599 17.816 181.159 17.816C180.615 17.816 180.063 17.964 179.503 18.26C179.287 18.396 179.135 18.464 179.047 18.464C178.951 18.464 178.871 18.428 178.807 18.356C178.743 18.284 178.711 18.192 178.711 18.08C178.711 17.968 178.743 17.872 178.807 17.792C178.879 17.704 178.991 17.616 179.143 17.528C179.423 17.368 179.739 17.244 180.091 17.156C180.451 17.06 180.807 17.012 181.159 17.012ZM180.763 22.316C181.243 22.316 181.635 22.156 181.939 21.836C182.251 21.508 182.407 21.088 182.407 20.576V20.228H182.191C181.487 20.228 180.951 20.26 180.583 20.324C180.215 20.38 179.951 20.48 179.791 20.624C179.639 20.76 179.563 20.964 179.563 21.236C179.563 21.548 179.675 21.808 179.899 22.016C180.131 22.216 180.419 22.316 180.763 22.316ZM185.626 23.06C185.482 23.06 185.362 23.02 185.266 22.94C185.178 22.852 185.134 22.732 185.134 22.58V17.516C185.134 17.364 185.178 17.248 185.266 17.168C185.362 17.08 185.482 17.036 185.626 17.036C185.77 17.036 185.886 17.08 185.974 17.168C186.062 17.248 186.106 17.364 186.106 17.516V22.58C186.106 22.74 186.062 22.86 185.974 22.94C185.886 23.02 185.77 23.06 185.626 23.06ZM185.626 15.776C185.434 15.776 185.278 15.72 185.158 15.608C185.038 15.496 184.978 15.348 184.978 15.164C184.978 14.988 185.038 14.844 185.158 14.732C185.278 14.62 185.434 14.564 185.626 14.564C185.818 14.564 185.974 14.62 186.094 14.732C186.214 14.844 186.274 14.988 186.274 15.164C186.274 15.348 186.214 15.496 186.094 15.608C185.974 15.72 185.818 15.776 185.626 15.776ZM188.415 23.06C188.271 23.06 188.151 23.02 188.055 22.94C187.967 22.852 187.923 22.732 187.923 22.58V14.96C187.923 14.808 187.967 14.692 188.055 14.612C188.151 14.524 188.271 14.48 188.415 14.48C188.551 14.48 188.663 14.524 188.751 14.612C188.847 14.692 188.895 14.808 188.895 14.96V22.58C188.895 22.732 188.847 22.852 188.751 22.94C188.663 23.02 188.551 23.06 188.415 23.06ZM194.925 17.336C195.013 17.144 195.153 17.048 195.345 17.048C195.465 17.048 195.573 17.088 195.669 17.168C195.765 17.248 195.812 17.348 195.812 17.468C195.812 17.54 195.797 17.604 195.765 17.66L192.393 24.932C192.353 25.02 192.293 25.088 192.213 25.136C192.141 25.184 192.065 25.208 191.985 25.208C191.865 25.208 191.757 25.168 191.661 25.088C191.573 25.016 191.529 24.92 191.529 24.8C191.529 24.736 191.545 24.672 191.576 24.608L192.417 22.796L190.041 17.66C190.009 17.604 189.993 17.544 189.993 17.48C189.993 17.36 190.045 17.256 190.149 17.168C190.261 17.08 190.381 17.036 190.509 17.036C190.589 17.036 190.665 17.06 190.737 17.108C190.817 17.156 190.877 17.224 190.917 17.312L192.921 21.812L194.925 17.336Z" fill="#666C76"/>
</svg>
