<svg width="41" height="24" viewBox="0 0 41 24" fill="none" xmlns="http://www.w3.org/2000/svg">
<path fill-rule="evenodd" clip-rule="evenodd" d="M27 17H7C3.1 17 0 13.9 0 10C0 6.1 3.1 3 7 3H27C30.9 3 34 6.1 34 10C34 13.9 30.9 17 27 17Z" fill="#FF5A6E" fill-opacity="0.5"/>
<g filter="url(#filter0_d)">
<path fill-rule="evenodd" clip-rule="evenodd" d="M29 20C34.5228 20 39 15.5228 39 10C39 4.47715 34.5228 0 29 0C23.4772 0 19 4.47715 19 10C19 15.5228 23.4772 20 29 20Z" fill="#FF5A6E"/>
<path d="M38.75 10C38.75 15.3848 34.3848 19.75 29 19.75C23.6152 19.75 19.25 15.3848 19.25 10C19.25 4.61522 23.6152 0.25 29 0.25C34.3848 0.25 38.75 4.61522 38.75 10Z" stroke="url(#paint0_linear)" stroke-width="0.5"/>
<path d="M38.75 10C38.75 15.3848 34.3848 19.75 29 19.75C23.6152 19.75 19.25 15.3848 19.25 10C19.25 4.61522 23.6152 0.25 29 0.25C34.3848 0.25 38.75 4.61522 38.75 10Z" stroke="url(#paint1_linear)" stroke-width="0.5"/>
</g>
<defs>
<filter id="filter0_d" x="17" y="0" width="24" height="24" filterUnits="userSpaceOnUse" color-interpolation-filters="sRGB">
<feFlood flood-opacity="0" result="BackgroundImageFix"/>
<feColorMatrix in="SourceAlpha" type="matrix" values="0 0 0 0 0 0 0 0 0 0 0 0 0 0 0 0 0 0 127 0"/>
<feOffset dy="2"/>
<feGaussianBlur stdDeviation="1"/>
<feColorMatrix type="matrix" values="0 0 0 0 0.4 0 0 0 0 0.423529 0 0 0 0 0.462745 0 0 0 0.25 0"/>
<feBlend mode="normal" in2="BackgroundImageFix" result="effect1_dropShadow"/>
<feBlend mode="normal" in="SourceGraphic" in2="effect1_dropShadow" result="shape"/>
</filter>
<linearGradient id="paint0_linear" x1="19.0979" y1="0" x2="19.0979" y2="19.8043" gradientUnits="userSpaceOnUse">
<stop stop-opacity="0"/>
<stop offset="0.8" stop-opacity="0.02"/>
<stop offset="1" stop-opacity="0.04"/>
</linearGradient>
<linearGradient id="paint1_linear" x1="19" y1="0" x2="19" y2="20" gradientUnits="userSpaceOnUse">
<stop stop-color="white" stop-opacity="0.12"/>
<stop offset="0.2" stop-color="white" stop-opacity="0.06"/>
<stop offset="1" stop-color="white" stop-opacity="0"/>
</linearGradient>
</defs>
</svg>
