<svg width="39" height="24" viewBox="0 0 39 24" fill="none" xmlns="http://www.w3.org/2000/svg">
<path fill-rule="evenodd" clip-rule="evenodd" d="M32 17H12C8.1 17 5 13.9 5 10C5 6.1 8.1 3 12 3H32C35.9 3 39 6.1 39 10C39 13.9 35.9 17 32 17Z" fill="#666C76" fill-opacity="0.5"/>
<g filter="url(#filter0_d)">
<path fill-rule="evenodd" clip-rule="evenodd" d="M12 20C17.5228 20 22 15.5228 22 10C22 4.47715 17.5228 0 12 0C6.47715 0 2 4.47715 2 10C2 15.5228 6.47715 20 12 20Z" fill="#FF5A6E"/>
<path d="M21.75 10C21.75 15.3848 17.3848 19.75 12 19.75C6.61522 19.75 2.25 15.3848 2.25 10C2.25 4.61522 6.61522 0.25 12 0.25C17.3848 0.25 21.75 4.61522 21.75 10Z" stroke="url(#paint0_linear)" stroke-width="0.5"/>
<path d="M21.75 10C21.75 15.3848 17.3848 19.75 12 19.75C6.61522 19.75 2.25 15.3848 2.25 10C2.25 4.61522 6.61522 0.25 12 0.25C17.3848 0.25 21.75 4.61522 21.75 10Z" stroke="url(#paint1_linear)" stroke-width="0.5"/>
</g>
<defs>
<filter id="filter0_d" x="0" y="0" width="24" height="24" filterUnits="userSpaceOnUse" color-interpolation-filters="sRGB">
<feFlood flood-opacity="0" result="BackgroundImageFix"/>
<feColorMatrix in="SourceAlpha" type="matrix" values="0 0 0 0 0 0 0 0 0 0 0 0 0 0 0 0 0 0 127 0"/>
<feOffset dy="2"/>
<feGaussianBlur stdDeviation="1"/>
<feColorMatrix type="matrix" values="0 0 0 0 0.4 0 0 0 0 0.423529 0 0 0 0 0.462745 0 0 0 0.25 0"/>
<feBlend mode="normal" in2="BackgroundImageFix" result="effect1_dropShadow"/>
<feBlend mode="normal" in="SourceGraphic" in2="effect1_dropShadow" result="shape"/>
</filter>
<linearGradient id="paint0_linear" x1="2.09786" y1="0" x2="2.09786" y2="19.8043" gradientUnits="userSpaceOnUse">
<stop stop-opacity="0"/>
<stop offset="0.8" stop-opacity="0.02"/>
<stop offset="1" stop-opacity="0.04"/>
</linearGradient>
<linearGradient id="paint1_linear" x1="2" y1="0" x2="2" y2="20" gradientUnits="userSpaceOnUse">
<stop stop-color="white" stop-opacity="0.12"/>
<stop offset="0.2" stop-color="white" stop-opacity="0.06"/>
<stop offset="1" stop-color="white" stop-opacity="0"/>
</linearGradient>
</defs>
</svg>
