<svg width="21" height="23" viewBox="0 0 21 23" fill="none" xmlns="http://www.w3.org/2000/svg">
<path d="M19.988 13.1922L16.1557 14.2282L11.4974 11.5115L16.1557 8.81782L19.988 9.83083C20.0338 9.85385 20.0797 9.85385 20.1256 9.85385C20.3781 9.85385 20.6075 9.69269 20.6764 9.41642C20.7682 9.11712 20.5846 8.79479 20.2633 8.7027L17.5555 7.96597L20.0797 6.51552C20.3551 6.35435 20.4469 6.00901 20.2863 5.73273C20.1256 5.45646 19.7814 5.36436 19.5061 5.52553L16.9818 6.97598L17.7162 4.25926C17.808 3.95996 17.6244 3.63764 17.3031 3.54555C17.0048 3.45345 16.6835 3.63764 16.5917 3.95996L15.5591 7.80481L10.9237 10.5215V5.11111L13.7233 2.3023C13.9528 2.07207 13.9528 1.7037 13.7233 1.4965C13.4938 1.26627 13.1267 1.26627 12.9202 1.4965L10.9237 3.4995V0.575576C10.9237 0.253253 10.6713 0 10.3501 0C10.0288 0 9.77638 0.253253 9.77638 0.575576V3.47648L7.77996 1.47347C7.55048 1.24324 7.18333 1.24324 6.9768 1.47347C6.74733 1.7037 6.74733 2.07207 6.9768 2.27928L9.77638 5.08809V10.4985L5.11806 7.80481L4.08543 3.95996C3.99364 3.66066 3.69533 3.47648 3.37407 3.54555C3.07575 3.63764 2.89217 3.93694 2.96101 4.25926L3.69533 6.97598L1.17112 5.52553C0.895751 5.36436 0.55154 5.45646 0.390909 5.73273C0.230277 6.00901 0.322067 6.35435 0.597435 6.51552L3.12164 7.96597L0.413856 8.72573C0.115541 8.81782 -0.0680382 9.11712 0.0237512 9.43944C0.0925933 9.69269 0.322067 9.87688 0.574488 9.87688C0.620383 9.87688 0.666277 9.87688 0.712172 9.85385L4.54438 8.81782L9.20269 11.5115L4.54438 14.2052L0.712172 13.1922C0.413856 13.1001 0.0925933 13.2843 0.0237512 13.5836C-0.0680382 13.8829 0.115541 14.2052 0.436804 14.2973L3.14459 15.034L0.620382 16.4845C0.345014 16.6456 0.253225 16.991 0.413856 17.2673C0.528593 17.4515 0.712172 17.5666 0.918698 17.5666C1.01049 17.5666 1.12522 17.5435 1.19407 17.4975L3.71828 16.047L2.98396 18.7638C2.89217 19.0631 3.07575 19.3854 3.39701 19.4775C3.44291 19.5005 3.4888 19.5005 3.5347 19.5005C3.78712 19.5005 4.01659 19.3393 4.08543 19.0631L5.11806 15.2182L9.77638 12.5245V17.9349L6.9768 20.7207C6.74733 20.951 6.74733 21.3193 6.9768 21.5265C7.09154 21.6416 7.22922 21.6877 7.38985 21.6877C7.55048 21.6877 7.68817 21.6416 7.80291 21.5265L9.79932 19.5235V22.4244C9.79932 22.7467 10.0517 23 10.373 23C10.6943 23 10.9467 22.7467 10.9467 22.4244V19.5465L12.9431 21.5495C13.1726 21.7798 13.5397 21.7798 13.7463 21.5495C13.9757 21.3193 13.9757 20.951 13.7463 20.7437L10.9237 17.9119V12.5015L15.5821 15.1952L16.6147 19.04C16.6835 19.2933 16.913 19.4775 17.1654 19.4775C17.2113 19.4775 17.2572 19.4775 17.3031 19.4545C17.6014 19.3624 17.785 19.0631 17.7162 18.7407L16.9818 16.024L19.5061 17.4745C19.5978 17.5205 19.6896 17.5435 19.7814 17.5435C19.988 17.5435 20.1715 17.4515 20.2863 17.2442C20.4469 16.968 20.3551 16.6226 20.0797 16.4615L17.5555 15.011L20.2633 14.2743C20.5616 14.1822 20.7452 13.8829 20.6764 13.5606C20.6075 13.2843 20.2863 13.1001 19.988 13.1922Z" fill="#FF5A6E"/>
</svg>
