<svg width="18" height="23" viewBox="0 0 18 23" fill="none" xmlns="http://www.w3.org/2000/svg">
<path d="M16.0634 19.916L15.2164 13.114H8.70339L8.46974 9.56892H13.3764L13.172 8.04135H8.38212L8.09006 3.57393C8.7326 3.28571 9.1999 2.62281 9.1999 1.87343C9.1999 0.83584 8.35292 0 7.30149 0C6.25006 0 5.40308 0.83584 5.40308 1.87343C5.40308 2.70927 5.958 3.401 6.71736 3.63158L7.41831 14.4398H13.9897L14.8367 21.2419H17.5237V19.8872L16.0634 19.916Z" fill="#FF5A6E"/>
<path d="M7.56444 21.5301C4.23492 21.5301 1.48952 18.8497 1.48952 15.5351C1.48952 12.8547 3.27111 10.6065 5.72444 9.82835L5.63682 8.30078C2.39492 9.16544 0 12.0765 0 15.5351C0 19.6567 3.38794 23 7.56444 23C9.90095 23 11.9746 21.9624 13.3473 20.3484L13.0552 18.0426C12.1206 20.089 10.0178 21.5301 7.56444 21.5301Z" fill="#FF5A6E"/>
</svg>
