<svg width="21" height="23" viewBox="0 0 21 23" fill="none" xmlns="http://www.w3.org/2000/svg">
<path d="M20.0526 10.9524L11.3419 6.06593V5.22344C12.4631 4.88645 13.2393 3.87546 13.2393 2.69597C13.2393 1.17949 12.0319 0 10.4795 0C8.92711 0 7.71969 1.17949 7.71969 2.69597C7.71969 3.20147 8.06467 3.53846 8.58213 3.53846C9.0996 3.53846 9.44457 3.20147 9.44457 2.69597C9.44457 2.10623 9.8758 1.68498 10.4795 1.68498C11.0832 1.68498 11.5144 2.10623 11.5144 2.69597C11.5144 3.28571 11.0832 3.70696 10.4795 3.70696C9.96204 3.70696 9.61706 4.04396 9.61706 4.54945V6.06593L0.906398 10.9524C0.216444 11.3736 -0.128532 12.2161 0.0439559 13.0586C0.302689 13.9011 0.992642 14.4066 1.85508 14.4066H4.26992V22.1575C4.26992 22.663 4.6149 23 5.13236 23H12.6356C13.1531 23 13.4981 22.663 13.4981 22.1575V19.0403H15.8266C16.3441 19.0403 16.6891 18.7033 16.6891 18.1978V14.4066H19.1039C19.9664 14.4066 20.6563 13.9011 20.9151 13.0586C21.1738 12.2161 20.8288 11.4579 20.0526 10.9524ZM10.4795 7.58242L15.4817 10.3626H12.6356H11.3419H5.47734L10.4795 7.58242ZM1.85508 12.7216C1.85508 12.7216 1.76884 12.7216 1.6826 12.6374C1.6826 12.5531 1.6826 12.4689 1.76884 12.4689L4.26992 11.0366C4.26992 11.1209 4.26992 11.1209 4.26992 11.2051V12.7216H1.85508ZM11.7732 21.315H5.99481V14.4066V12.7216V12.0476H10.4795V12.7216V14.4066V18.1978C10.4795 18.7033 10.8245 19.0403 11.3419 19.0403H11.7732V21.315ZM14.9642 17.3553H13.4981H12.2044V14.4066V12.7216V12.0476H13.4981H14.9642V12.7216V14.4066V17.3553ZM19.2764 12.6374C19.2764 12.7216 19.1902 12.7216 19.1039 12.7216H16.6891V11.2051C16.6891 11.1209 16.6891 11.0366 16.6891 11.0366L19.1902 12.4689C19.2764 12.4689 19.2764 12.5531 19.2764 12.6374Z" fill="#FF5A6E"/>
</svg>
