<svg width="26" height="32" viewBox="0 0 26 32" fill="none" xmlns="http://www.w3.org/2000/svg">
<path fill-rule="evenodd" clip-rule="evenodd" d="M13 0C20.2 0 26 5.9 26 13.2C26 16.9 24 20.8 18.7 26.1L13 31.9L7.2 26.1C2 20.7 0 16.8 0 13.2C0 5.9 5.8 0 13 0Z" fill="#47CAC2"/>
<path d="M10.8822 21.36C10.9889 21.46 11.0422 21.5667 11.0422 21.68C11.0422 21.78 11.0055 21.8667 10.9322 21.94C10.8655 22.0133 10.7822 22.05 10.6822 22.05C10.5955 22.05 10.5055 22.01 10.4122 21.93L7.80219 19.68V21.65C7.80219 21.7767 7.76219 21.8767 7.68219 21.95C7.60885 22.0167 7.51552 22.05 7.40219 22.05C7.28219 22.05 7.18219 22.0167 7.10219 21.95C7.02885 21.8767 6.99219 21.7767 6.99219 21.65V15.3C6.99219 15.1733 7.02885 15.0767 7.10219 15.01C7.18219 14.9367 7.28219 14.9 7.40219 14.9C7.51552 14.9 7.60885 14.9367 7.68219 15.01C7.76219 15.0767 7.80219 15.1733 7.80219 15.3V19.36L10.1922 17.17C10.2722 17.09 10.3622 17.05 10.4622 17.05C10.5622 17.05 10.6489 17.0867 10.7222 17.16C10.7955 17.2333 10.8322 17.32 10.8322 17.42C10.8322 17.5333 10.7855 17.6333 10.6922 17.72L8.72219 19.48L10.8822 21.36ZM17.4122 17.01C18.4922 17.01 19.0322 17.6533 19.0322 18.94V21.65C19.0322 21.7767 18.9955 21.8767 18.9222 21.95C18.8489 22.0167 18.7522 22.05 18.6322 22.05C18.5122 22.05 18.4122 22.0167 18.3322 21.95C18.2589 21.8767 18.2222 21.7767 18.2222 21.65V18.96C18.2222 18.5133 18.1422 18.19 17.9822 17.99C17.8222 17.79 17.5722 17.69 17.2322 17.69C16.8255 17.69 16.5055 17.8267 16.2722 18.1C16.0389 18.3733 15.9222 18.7433 15.9222 19.21V21.65C15.9222 21.7767 15.8822 21.8767 15.8022 21.95C15.7289 22.0167 15.6322 22.05 15.5122 22.05C15.3922 22.05 15.2955 22.0167 15.2222 21.95C15.1489 21.8767 15.1122 21.7767 15.1122 21.65V18.96C15.1122 18.5133 15.0322 18.19 14.8722 17.99C14.7122 17.79 14.4589 17.69 14.1122 17.69C13.7122 17.69 13.3922 17.8267 13.1522 18.1C12.9189 18.3733 12.8022 18.7433 12.8022 19.21V21.65C12.8022 21.7767 12.7655 21.8767 12.6922 21.95C12.6189 22.0167 12.5222 22.05 12.4022 22.05C12.2822 22.05 12.1822 22.0167 12.1022 21.95C12.0289 21.8767 11.9922 21.7767 11.9922 21.65V17.43C11.9922 17.31 12.0289 17.2133 12.1022 17.14C12.1822 17.0667 12.2822 17.03 12.4022 17.03C12.5155 17.03 12.6089 17.0667 12.6822 17.14C12.7555 17.2067 12.7922 17.3 12.7922 17.42V17.9C12.9389 17.6133 13.1422 17.3933 13.4022 17.24C13.6622 17.0867 13.9622 17.01 14.3022 17.01C15.0622 17.01 15.5589 17.33 15.7922 17.97C15.9322 17.6767 16.1455 17.4433 16.4322 17.27C16.7189 17.0967 17.0455 17.01 17.4122 17.01Z" fill="white"/>
<path d="M14.7983 11.348C14.9423 11.348 15.0543 11.388 15.1343 11.468C15.2143 11.54 15.2543 11.636 15.2543 11.756C15.2543 12.028 15.1023 12.164 14.7983 12.164H13.8983V13.556C13.8983 13.716 13.8503 13.84 13.7543 13.928C13.6663 14.016 13.5503 14.06 13.4063 14.06C13.2623 14.06 13.1463 14.016 13.0583 13.928C12.9703 13.84 12.9263 13.716 12.9263 13.556V12.164H9.37434C9.23034 12.164 9.11834 12.124 9.03834 12.044C8.95834 11.964 8.91834 11.864 8.91834 11.744C8.91834 11.632 8.96234 11.508 9.05034 11.372L12.9743 5.696C13.0863 5.552 13.2303 5.48 13.4063 5.48C13.5423 5.48 13.6583 5.524 13.7543 5.612C13.8503 5.7 13.8983 5.824 13.8983 5.984V11.348H14.7983ZM12.9263 11.348V7.184L10.0343 11.348H12.9263Z" fill="white"/>
</svg>
