<svg width="22" height="23" viewBox="0 0 22 23" fill="none" xmlns="http://www.w3.org/2000/svg">
<path d="M20.1034 5.92991C20.6379 5.92991 21.0833 5.49812 21.0833 4.97997V3.31039C21.0833 2.79224 20.6379 2.36045 20.1034 2.36045H19.5392V1.00751C19.5392 0.43179 19.0641 0 18.4999 0H13.333C12.7391 0 12.2936 0.460576 12.2936 1.00751V2.36045H11.7294C11.1949 2.36045 10.7495 2.79224 10.7495 3.31039V4.97997C10.7495 5.49812 11.1949 5.92991 11.7294 5.92991H14.2238V17.0701H11.7294C11.1949 17.0701 10.7495 17.5019 10.7495 18.02V19.6896C10.7495 20.2078 11.1949 20.6396 11.7294 20.6396H12.2936V21.9925C12.2936 22.5682 12.7688 23 13.333 23H18.4999C19.0938 23 19.5392 22.5394 19.5392 21.9925V20.6396H20.1034C20.6379 20.6396 21.0833 20.2078 21.0833 19.6896V18.02C21.0833 17.5019 20.6379 17.0701 20.1034 17.0701H17.609V5.92991H20.1034ZM12.8578 1.00751C12.8578 0.748436 13.0657 0.57572 13.3033 0.57572H18.4702C18.7077 0.57572 18.9156 0.777222 18.9156 1.00751V2.36045H12.8578V1.00751ZM11.3434 4.97997V3.31039C11.3434 3.10889 11.5216 2.93617 11.7294 2.93617H20.1034C20.3112 2.93617 20.4894 3.10889 20.4894 3.31039V4.97997C20.4894 5.18148 20.3112 5.35419 20.1034 5.35419H11.7294C11.4919 5.35419 11.3434 5.18148 11.3434 4.97997ZM18.9453 21.9925C18.9453 22.2516 18.7374 22.4243 18.4999 22.4243H13.333C13.0954 22.4243 12.8875 22.2228 12.8875 21.9925V20.6396H18.975V21.9925H18.9453ZM20.4894 18.02V19.6896C20.4894 19.8911 20.3112 20.0638 20.1034 20.0638H11.7294C11.5216 20.0638 11.3434 19.8911 11.3434 19.6896V18.02C11.3434 17.8185 11.5216 17.6458 11.7294 17.6458H20.1034C20.3112 17.6458 20.4894 17.7897 20.4894 18.02ZM17.0151 17.0701H14.788V5.92991H17.0151V17.0701Z" fill="#FF5A6E"/>
<path d="M1.84105 9.18272C2.01922 9.18272 2.138 9.06757 2.138 8.89486V8.11764C2.138 7.45556 2.52403 6.82227 3.11793 6.50562C3.2664 6.41926 3.32579 6.24655 3.2367 6.10262C3.14762 5.95869 2.96945 5.90112 2.82098 5.98747C2.01922 6.41926 1.5144 7.22527 1.5144 8.11764V8.89486C1.5441 9.06757 1.69257 9.18272 1.84105 9.18272Z" fill="#FF5A6E"/>
<path d="M0 15.4293V20.582C0 21.9061 1.09871 22.9712 2.46467 22.9712H6.38439C7.75035 22.9712 8.84906 21.9061 8.84906 20.582V15.4293C8.84906 15.0263 8.6115 14.6809 8.25516 14.5369V10.4493C8.6115 10.2766 8.84906 9.95995 8.84906 9.55695V8.08886C8.84906 6.53442 7.98791 5.09512 6.56256 4.34668C6.23591 4.17397 6.02805 3.82854 6.02805 3.45432V2.93617C6.38439 2.90738 6.68134 2.61952 6.68134 2.27409V0.662077C6.68134 0.28786 6.38439 0 5.99836 0H2.8507C2.46467 0 2.16772 0.28786 2.16772 0.662077V2.27409C2.16772 2.59074 2.40528 2.8786 2.73193 2.93617V3.59825C2.73193 3.91489 2.55376 4.20275 2.2865 4.34668C0.86115 5.09512 0 6.53442 0 8.08886V9.55695C0 9.95995 0.237559 10.3054 0.593897 10.4493V14.5369C0.237559 14.7096 0 15.0551 0 15.4293ZM7.66127 10.5645V14.4506H1.18779V10.5645H7.66127ZM0.593897 17.4443H8.25516V19.0563H0.593897V17.4443ZM8.25516 16.8686H0.593897V15.4581C0.593897 15.2278 0.80176 15.0263 1.03932 15.0263H7.83944C8.077 15.0263 8.28486 15.2278 8.28486 15.4581V16.8686H8.25516ZM6.38439 22.4243H2.46467C1.42535 22.4243 0.593897 21.6183 0.593897 20.6108V19.632H8.25516V20.6108C8.25516 21.6183 7.39401 22.4243 6.38439 22.4243ZM2.76162 0.633292C2.76162 0.57572 2.79131 0.546934 2.8507 0.546934H5.99836C6.05775 0.546934 6.08744 0.57572 6.08744 0.633292V2.27409C6.08744 2.33166 6.05775 2.36045 5.99836 2.36045H2.8507C2.79131 2.36045 2.76162 2.33166 2.76162 2.27409V0.633292ZM0.593897 8.06007C0.593897 6.70713 1.36596 5.46934 2.58345 4.80726C3.05857 4.54818 3.32582 4.08761 3.32582 3.56946V2.90738H5.43415V3.42553C5.43415 4.00125 5.7608 4.5194 6.29531 4.80726C7.51279 5.46934 8.25516 6.70713 8.25516 8.06007V9.52816C8.25516 9.75845 8.0473 9.95995 7.80974 9.95995H1.03932C0.80176 9.95995 0.593897 9.75845 0.593897 9.52816V8.06007Z" fill="#FF5A6E"/>
</svg>
