<svg width="21" height="16" viewBox="0 0 21 16" fill="none" xmlns="http://www.w3.org/2000/svg">
<path d="M1.9896 0C0.884328 0 0.000111456 0.818408 0.000111456 1.84142C0.000111456 2.86443 0.884328 3.68284 1.9896 3.68284C3.09487 3.68284 3.97908 2.86443 3.97908 1.84142C3.97908 0.818408 3.07276 0 1.9896 0Z" fill="#FF5A6E"/>
<path d="M7.75886 3.39641H19.32C20.2484 3.39641 21 2.70076 21 1.84143C21 0.982103 20.2484 0.286456 19.32 0.286456H7.75886C6.83044 0.286456 6.07885 0.982103 6.07885 1.84143C6.10096 2.70076 6.85254 3.39641 7.75886 3.39641Z" fill="#FF5A6E"/>
<path d="M1.98949 6.15836C0.884216 6.15836 0 6.97677 0 7.99978C0 9.02279 0.884216 9.8412 1.98949 9.8412C3.09476 9.8412 3.97897 9.02279 3.97897 7.99978C3.97897 6.97677 3.07265 6.15836 1.98949 6.15836Z" fill="#FF5A6E"/>
<path d="M19.32 6.44482H7.75886C6.83044 6.44482 6.07885 7.14047 6.07885 7.99979C6.07885 8.85912 6.83044 9.55477 7.75886 9.55477H19.32C20.2484 9.55477 21 8.85912 21 7.99979C21 7.14047 20.2484 6.44482 19.32 6.44482Z" fill="#FF5A6E"/>
<path d="M1.98949 16C3.08825 16 3.97897 15.1756 3.97897 14.1586C3.97897 13.1416 3.08825 12.3172 1.98949 12.3172C0.890724 12.3172 0 13.1416 0 14.1586C0 15.1756 0.890724 16 1.98949 16Z" fill="#FF5A6E"/>
<path d="M19.32 12.6036H7.75886C6.83044 12.6036 6.07885 13.2993 6.07885 14.1586C6.07885 15.0179 6.83044 15.7136 7.75886 15.7136H19.32C20.2484 15.7136 21 15.0179 21 14.1586C21 13.2993 20.2484 12.6036 19.32 12.6036Z" fill="#FF5A6E"/>
</svg>
