<svg width="17" height="23" viewBox="0 0 17 23" fill="none" xmlns="http://www.w3.org/2000/svg">
<path d="M8.5 0C3.78857 0 0 3.634 0 8.05C0 12.328 7.77143 22.356 8.11143 22.816C8.20857 22.954 8.35429 23 8.5 23C8.64571 23 8.79143 22.908 8.88857 22.816C9.22857 22.402 17 12.374 17 8.05C17 3.634 13.2114 0 8.5 0ZM8.5 11.96C6.21714 11.96 4.37143 10.212 4.37143 8.05C4.37143 5.888 6.21714 4.14 8.5 4.14C10.7829 4.14 12.6286 5.888 12.6286 8.05C12.6286 10.212 10.7829 11.96 8.5 11.96Z" fill="#FF5A6E"/>
</svg>
