<svg width="18" height="23" viewBox="0 0 18 23" fill="none" xmlns="http://www.w3.org/2000/svg">
<path d="M0 0V23H17.25V0H0ZM16.8143 22.5736H0.461367V0.451472H16.8143V22.5736Z" fill="#FF5A6E"/>
<path d="M5.25463 21.3162H15.8917V10.9073V9.42748V5.96619V2.40458V1H1.38428V16.6009V20.1625V21.3162H3.76801H5.25463ZM15.4303 20.8648H6.35679L15.456 11.9858V20.8648H15.4303ZM15.4303 11.3588L5.69037 20.8899H4.17811L15.4047 9.90403V11.3588H15.4303ZM1.84564 1.45147H15.456V2.22901L1.84564 15.5224V1.45147ZM1.84564 16.1494L15.456 2.83097V6.39258L1.84564 19.7361V16.1494ZM1.84564 20.8648V20.3381L15.456 7.01963V9.22683L3.56295 20.8648H1.84564Z" fill="#FF5A6E"/>
</svg>
