<svg width="13" height="23" viewBox="0 0 13 23" fill="none" xmlns="http://www.w3.org/2000/svg">
<path d="M12.0875 15.1478C12.3383 14.3433 12.6346 13.5618 12.8169 12.7573C13.2728 10.7115 12.8853 8.87261 11.5633 7.21762C11.0618 6.59699 10.606 5.9304 10.1045 5.33276C9.28392 4.36735 8.6457 3.26402 8.16703 2.09173C7.89351 1.44812 7.59719 0.804512 7.32366 0.160902C7.30087 0.0919442 7.25528 0.0459721 7.23249 0H6.86779V17.9061C6.00163 17.1246 4.40607 16.9177 2.85609 17.4924C0.827453 18.2279 -0.403407 19.9979 0.120848 21.423C0.645104 22.8481 2.69654 23.4228 4.72518 22.6642C6.75382 21.9057 7.98468 20.1588 7.46042 18.7336C7.46042 18.7106 7.43763 18.6877 7.41484 18.6647C7.39204 14.5272 7.41484 10.3897 7.41484 6.2522V5.83846C7.57439 5.90741 7.77954 5.99936 8.03027 6.11429C8.96481 6.52804 9.80818 7.12567 10.5604 7.83824C10.8795 8.18303 12.1103 9.28636 12.2471 11.0563C12.3155 12.0907 12.2015 13.125 11.928 14.1134C11.7912 14.5732 11.6089 15.0099 11.4721 15.4696L11.7912 15.7225C11.814 15.7225 11.814 15.6995 11.814 15.6995C11.9052 15.4926 12.0192 15.3317 12.0875 15.1478Z" fill="#FF5A6E"/>
</svg>
