<svg xmlns="http://www.w3.org/2000/svg" width="32" height="23" fill="none" viewBox="0 0 32 23"><path fill="#FF5A6E" d="M4.62241 10.6851C4.62241 10.4587 4.43934 10.2323 4.16475 10.2323H0.457664C0.228832 10.2323 0 10.4134 0 10.6851C0 10.9114 0.183065 11.1378 0.457664 11.1378H4.16475C4.39358 11.0925 4.62241 10.9114 4.62241 10.6851Z"/><path fill="#FF5A6E" d="M10.755 4.57283C10.9839 4.57283 11.2127 4.39173 11.2127 4.12008V0.452756C11.2127 0.226378 11.0296 0 10.755 0C10.4804 0 10.2974 0.181102 10.2974 0.452756V4.12008C10.2974 4.39173 10.5262 4.57283 10.755 4.57283Z"/><path fill="#FF5A6E" d="M5.81239 6.38384C5.90393 6.47439 5.99546 6.51967 6.13276 6.51967C6.22429 6.51967 6.36159 6.47439 6.45312 6.38384C6.63619 6.20274 6.63619 5.93109 6.45312 5.74998L3.84444 3.16927C3.66137 2.98817 3.38677 2.98817 3.20371 3.16927C3.02064 3.35038 3.02064 3.62203 3.20371 3.80313L5.81239 6.38384Z"/><path fill="#FF5A6E" d="M15.4232 6.47438C15.5148 6.47438 15.6521 6.4291 15.7436 6.33855L18.3523 3.75784C18.5354 3.57674 18.5354 3.30509 18.3523 3.12399C18.1692 2.94288 17.8946 2.94288 17.7116 3.12399L15.1029 5.70469C14.9198 5.8858 14.9198 6.15745 15.1029 6.33855C15.1944 6.4291 15.2859 6.47438 15.4232 6.47438Z"/><path fill="#FF5A6E" d="M6.40747 14.9862C6.2244 14.8051 5.9498 14.8051 5.76674 14.9862L3.15805 17.5669C2.97499 17.748 2.97499 18.0196 3.15805 18.2007C3.24958 18.2913 3.34112 18.3366 3.47842 18.3366C3.56995 18.3366 3.70725 18.2913 3.79878 18.2007L6.40747 15.62C6.59053 15.3936 6.59053 15.122 6.40747 14.9862Z"/><path fill="#FF5A6E" d="M26.4075 11.9528C25.2176 8.73823 22.1055 6.61028 18.6272 6.61028C16.9797 6.61028 15.4236 7.10831 14.1421 7.92327C13.3183 6.92721 12.0826 6.33862 10.8012 6.33862C8.37556 6.33862 6.45337 8.28547 6.45337 10.6398C6.45337 12.4508 7.59753 14.0355 9.19936 14.6693C7.59753 15.3032 6.45337 16.8878 6.45337 18.6989C6.45337 21.0985 8.42133 23 10.8012 23H26.4991C26.5448 23 26.5906 23 26.6364 22.9548C29.5197 22.7284 31.7622 20.3288 31.7622 17.4311C31.7164 14.5335 29.3366 12.0886 26.4075 11.9528ZM7.27717 10.6851C7.27717 8.7835 8.83322 7.24413 10.7554 7.24413C11.7623 7.24413 12.7234 7.69689 13.4099 8.46658C11.9911 9.59847 11.03 11.0926 10.5723 12.813C10.5723 12.8583 10.5723 12.8583 10.5723 12.9036C10.5723 12.9489 10.5266 13.0394 10.5266 13.0847C10.5266 13.1752 10.4808 13.2658 10.4808 13.3111C10.4808 13.3563 10.4808 13.3563 10.4808 13.4016C10.4351 13.5374 10.435 13.628 10.435 13.7638C10.435 13.8996 10.3893 14.0355 10.3893 14.1713C8.60439 13.8996 7.27717 12.4056 7.27717 10.6851ZM26.4533 22.1398C26.4075 22.1398 26.4075 22.1398 26.3618 22.1398H10.7554C8.83322 22.1398 7.27717 20.6004 7.27717 18.6989C7.27717 16.7973 8.83322 15.2579 10.7554 15.2579C10.9842 15.2579 11.2131 15.0768 11.2131 14.8052C11.2131 14.7146 11.2131 14.6241 11.2131 14.5788C11.2131 14.1713 11.2588 13.7185 11.3504 13.3111V13.2658C11.3504 13.1752 11.3961 13.0394 11.4419 12.9489C11.4419 12.8583 11.4877 12.813 11.4877 12.7225C11.4877 12.6772 11.5334 12.6319 11.5334 12.5867C11.5792 12.4961 11.5792 12.4056 11.625 12.315V12.2697C12.1284 10.9567 12.9522 9.82484 14.0506 9.00988C14.0964 8.96461 14.1421 8.96461 14.1879 8.91933C15.4236 8.01382 16.9339 7.47051 18.5815 7.47051C21.7851 7.47051 24.6226 9.50791 25.6295 12.5414C25.6753 12.7225 25.8583 12.8583 26.0414 12.8583H26.0872C28.6959 12.8583 30.8011 14.941 30.8011 17.5217C30.8469 19.9213 28.9247 21.9587 26.4533 22.1398Z"/></svg>