<svg width="23" height="23" viewBox="0 0 23 23" fill="none" xmlns="http://www.w3.org/2000/svg">
<path d="M11.5 0C5.14625 0 0 5.14625 0 11.5C0 17.8538 5.14625 23 11.5 23C17.8538 23 23 17.8538 23 11.5C23 5.14625 17.8538 0 11.5 0ZM11.5 21.0737C6.21 21.0737 1.92625 16.79 1.92625 11.5C1.92625 6.21 6.21 1.92625 11.5 1.92625C16.79 1.92625 21.0737 6.21 21.0737 11.5C21.0737 16.79 16.79 21.0737 11.5 21.0737Z" fill="#FF5A6E"/>
<path d="M12.4487 5.75H8.625V17.25H10.5513V13.4262H12.4775C14.605 13.4262 16.3012 11.7013 16.3012 9.6025C16.3012 7.475 14.5762 5.75 12.4487 5.75ZM12.4487 11.5H10.5225V7.67625H12.4487C13.5125 7.67625 14.375 8.53875 14.375 9.6025C14.375 10.6663 13.5125 11.5 12.4487 11.5Z" fill="#FF5A6E"/>
</svg>
