<svg width="21" height="19" viewBox="0 0 21 19" fill="none" xmlns="http://www.w3.org/2000/svg">
<path d="M10.5511 12C13.3682 12 15.673 9.3 15.673 6C15.673 2.7 13.3682 0 10.5511 0C7.7341 0 5.42926 2.7 5.42926 6C5.42926 9.3 7.7341 12 10.5511 12ZM10.5511 1.5C12.5487 1.5 14.1364 3.5 14.1364 6C14.1364 8.5 12.5487 10.5 10.5511 10.5C8.5536 10.5 6.96582 8.5 6.96582 6C6.96582 3.5 8.5536 1.5 10.5511 1.5Z" fill="#47CAC2" fill-opacity="0.5"/>
<path d="M15.212 11.5C14.8022 11.45 14.3925 11.75 14.3925 12.15C14.3412 12.55 14.6485 12.95 15.0583 12.95C15.212 12.95 19.0533 13.4 19.4631 17.45H1.58778C1.99753 13.4 5.78772 12.95 5.99259 12.95C6.40234 12.9 6.70965 12.55 6.65843 12.15C6.60721 11.75 6.24868 11.45 5.83893 11.5C5.78772 11.5 0 12.15 0 18.25C0 18.65 0.358531 19 0.76828 19H20.2314C20.6411 19 20.9997 18.65 20.9997 18.25C21.0509 12.15 15.3144 11.5 15.212 11.5Z" fill="#47CAC2" fill-opacity="0.5"/>
</svg>
