<svg width="44" height="9" viewBox="0 0 44 9" fill="none" xmlns="http://www.w3.org/2000/svg">
<path d="M13.2 0L14.1879 3.10942H17.3847L14.7984 5.03115L15.7863 8.14058L13.2 6.21885L10.6138 8.14058L11.6017 5.03115L9.0154 3.10942H12.2122L13.2 0Z" fill="#FF5A6E"/>
<path d="M4.4 0L5.38786 3.10942H8.58465L5.99839 5.03115L6.98626 8.14058L4.4 6.21885L1.81375 8.14058L2.80161 5.03115L0.215351 3.10942H3.41214L4.4 0Z" fill="#FF5A6E"/>
<path d="M22.0001 0L22.988 3.10942H26.1847L23.5985 5.03115L24.5864 8.14058L22.0001 6.21885L19.4138 8.14058L20.4017 5.03115L17.8154 3.10942H21.0122L22.0001 0Z" fill="#FF5A6E"/>
<path d="M30.7999 0.825665L31.5495 3.18512L31.6049 3.35942H31.7878H34.2289L32.2492 4.83049L32.106 4.93686L32.16 5.10685L32.9133 7.47772L30.949 6.01818L30.7999 5.90739L30.6508 6.01818L28.6865 7.47772L29.4398 5.10685L29.4938 4.93686L29.3506 4.83049L27.3709 3.35942H29.812H29.9949L30.0503 3.18512L30.7999 0.825665Z" fill="white" stroke="#666C76" stroke-width="0.5"/>
<path d="M39.6 0.825665L40.3495 3.18512L40.4049 3.35942H40.5878H43.029L41.0492 4.83049L40.9061 4.93686L40.9601 5.10685L41.7133 7.47772L39.7491 6.01818L39.6 5.90739L39.4508 6.01818L37.4866 7.47772L38.2398 5.10685L38.2938 4.93686L38.1507 4.83049L36.1709 3.35942H38.6121H38.795L38.8504 3.18512L39.6 0.825665Z" fill="white" stroke="#666C76" stroke-width="0.5"/>
</svg>
