<svg width="17" height="23" viewBox="0 0 17 23" fill="none" xmlns="http://www.w3.org/2000/svg">
<path d="M13.6696 6.23556C13.4593 2.76 10.48 0 6.83481 0C3.04937 0 0 2.99852 0 6.64444V22.4889C0 22.7615 0.245352 23 0.525754 23C0.806157 23 1.05151 22.7615 1.05151 22.4889V6.64444C1.05151 3.5437 3.64523 1.02222 6.83481 1.02222C9.88418 1.02222 12.4078 3.33926 12.6181 6.26963C10.7254 6.54222 9.28833 8.10963 9.28833 9.9837C9.28833 10.2563 9.53368 10.4948 9.81408 10.4948H12.6181V11.5852C12.6181 11.8578 12.8635 12.0963 13.1439 12.0963C13.4243 12.0963 13.6696 11.8578 13.6696 11.5852V10.4948H16.4736C16.754 10.4948 16.9994 10.2563 16.9994 9.9837C17.0344 8.04148 15.5623 6.47407 13.6696 6.23556ZM10.4099 9.43852C10.6553 8.17778 11.8119 7.2237 13.1789 7.2237C14.5459 7.2237 15.7025 8.17778 15.9479 9.43852H10.4099Z" fill="#FF5A6E"/>
<path d="M13.1791 12.6755C12.8987 12.6755 12.6533 12.9141 12.6533 13.1866V14.7881C12.6533 15.0607 12.8987 15.2992 13.1791 15.2992C13.4595 15.2992 13.7048 15.0607 13.7048 14.7881V13.1866C13.7048 12.9141 13.4595 12.6755 13.1791 12.6755Z" fill="#FF5A6E"/>
<path d="M15.7377 11.0741C15.4573 11.0741 15.2119 11.3126 15.2119 11.5852V13.1867C15.2119 13.4593 15.4573 13.6978 15.7377 13.6978C16.0181 13.6978 16.2634 13.4593 16.2634 13.1867V11.5852C16.2634 11.2785 16.0531 11.0741 15.7377 11.0741Z" fill="#FF5A6E"/>
<path d="M10.5853 11.0741C10.3049 11.0741 10.0596 11.3126 10.0596 11.5852V13.1867C10.0596 13.4593 10.3049 13.6978 10.5853 13.6978C10.8657 13.6978 11.1111 13.4593 11.1111 13.1867V11.5852C11.1111 11.2785 10.8657 11.0741 10.5853 11.0741Z" fill="#FF5A6E"/>
<path d="M15.7377 14.3793C15.4573 14.3793 15.2119 14.6178 15.2119 14.8904V16.4919C15.2119 16.7645 15.4573 17.003 15.7377 17.003C16.0181 17.003 16.2634 16.7645 16.2634 16.4919V14.8904C16.2634 14.6178 16.0531 14.3793 15.7377 14.3793Z" fill="#FF5A6E"/>
<path d="M10.5853 14.3793C10.3049 14.3793 10.0596 14.6178 10.0596 14.8904V16.4919C10.0596 16.7645 10.3049 17.003 10.5853 17.003C10.8657 17.003 11.1111 16.7645 11.1111 16.4919V14.8904C11.1111 14.6178 10.8657 14.3793 10.5853 14.3793Z" fill="#FF5A6E"/>
</svg>
