<svg width="23" height="30" viewBox="0 0 23 30" fill="none" xmlns="http://www.w3.org/2000/svg">
<path d="M12.417 19.9759C12.8366 20.0468 17.8012 21.6777 22.7658 18.5578C23.1853 18.2742 23.0105 17.6006 22.4861 17.6361C22.3812 17.6361 22.2763 17.6715 22.1364 17.6715C21.8917 17.7779 17.4515 19.7632 14.1302 18.3097C13.7805 18.1679 13.6057 17.7424 13.7456 17.3879C14.0952 16.5016 14.6196 14.8708 14.1651 13.7718C13.9204 13.2045 13.9204 12.5664 14.1651 11.9992C14.235 11.8573 14.305 11.6801 14.4099 11.5028C14.7245 10.9356 14.9692 10.3329 15.0741 9.7302C15.1441 9.41113 15.179 9.12751 15.1441 8.95025C15.1091 8.66663 14.3399 8.34756 14.235 9.34023C14.2001 9.6593 14.1302 10.0138 14.0253 10.2974C13.8155 10.8647 13.361 11.5383 12.8366 12.0346C12.6967 12.1764 12.5569 12.2473 12.417 12.3891C11.8926 12.8146 10.599 13.63 6.96297 12.2473C6.57839 12.141 6.36862 12.0346 5.66938 12.0346C5.14495 11.9992 4.69045 12.6018 6.2987 12.9918C6.57839 13.0627 6.85809 13.1336 7.13778 13.24C8.11672 13.5236 9.93473 14.1263 10.6689 15.2962C10.7039 15.3671 10.7039 15.438 10.7389 15.5089C10.9836 16.4662 10.2144 17.3525 9.27046 17.2816C7.66221 17.1752 4.02617 16.8207 1.57884 15.7217C1.33411 15.6153 1.08937 15.5089 0.844641 15.438C0.809679 15.438 0.774716 15.4026 0.739755 15.4026C0.529983 15.3671 0.320212 15.4026 0.145403 15.5444C-0.0993306 15.7926 -0.134292 16.1825 0.844641 16.5371C1.50892 16.8207 6.7532 19.4442 10.6689 19.5505C10.8787 19.5505 11.0186 19.4796 11.3332 19.6923C11.4381 19.7632 11.543 19.7987 11.6479 19.8341C11.6828 19.7987 12.3821 19.9759 12.417 19.9759Z" fill="#FF5A6E"/>
<path d="M11.0386 12.5918C11.6533 12.5282 12.08 11.766 11.9917 10.8895C11.9034 10.013 11.3336 9.35404 10.7189 9.4177C10.1042 9.48135 9.67752 10.2435 9.7658 11.12C9.85408 11.9965 10.4239 12.6555 11.0386 12.5918Z" fill="#FF5A6E"/>
<path d="M13.0814 0.583492C13.0814 0.370777 12.9416 0.158063 12.7668 0.051706C12.592 -0.0546512 12.3822 -0.0191986 12.3123 0.370778C12.4171 0.867111 13.3961 7.03583 13.9555 8.1703C14.5149 9.30478 14.6547 8.06394 14.4799 7.53216C14.3051 7.03583 13.1164 2.24975 13.0814 0.583492Z" fill="#FF5A6E"/>
<path d="M16.1579 11.1838C16.1229 10.9711 15.8083 9.76573 15.5635 9.80118C15.3188 9.83663 15.2489 10.7584 15.2838 10.9357C15.3188 11.2193 15.3887 11.4674 15.4936 11.7511C16.018 13.2046 17.4515 17.3171 18.1157 18.1679C18.8849 19.1606 19.1996 17.7071 18.9199 17.2462C18.6751 16.7498 16.4725 12.8146 16.1579 11.1838Z" fill="#FF5A6E"/>
<path d="M19.8988 22.2803C19.8988 22.0676 19.7939 20.3659 19.5842 20.295C19.3394 20.2241 18.6402 20.3305 18.7451 21.1104C18.78 21.394 18.7451 21.7486 18.7451 22.0322C18.6402 23.5566 18.3605 27.9527 18.6052 28.9808C18.9199 30.1862 21.2623 29.2645 21.1924 28.6972C21.1924 28.2009 19.9687 24.0175 19.8988 22.2803Z" fill="#FF5A6E"/>
<path d="M10.7037 0.583492C10.7037 0.370777 10.8436 0.158063 11.0184 0.051706C11.1932 -0.0546511 11.4029 -0.0191986 11.4729 0.370778C11.368 0.867111 7.83683 10.1202 7.27744 11.2192C6.71805 12.3182 6.19362 11.8928 6.36843 11.3965C6.54324 10.9001 10.7037 2.24975 10.7037 0.583492Z" fill="#FF5A6E"/>
<path d="M5.52957 13.3818C5.56453 13.3109 5.66942 12.7791 5.94912 13.0273C6.01904 13.0982 6.01904 13.5236 6.01904 13.5945C6.01904 13.7009 5.98408 13.8073 5.94912 13.9136C5.73934 14.4809 5.21492 15.8635 4.97018 16.1826C4.69049 16.5371 4.23598 16.4662 4.23598 16.1826C4.23598 15.9699 4.09614 15.7571 4.23598 15.6153C4.51568 15.3317 4.90026 15.0126 5.52957 13.3818Z" fill="#FF5A6E"/>
<path d="M3.18722 19.196C3.18722 18.9124 3.01241 17.5297 3.64173 18.0615C3.92142 18.3097 4.41089 18.416 4.306 19.3378C4.27104 19.6569 4.306 20.1177 4.34097 20.4368C4.48081 22.3158 4.93532 27.5982 4.72555 28.839C4.48081 30.2926 2.06844 29.0872 2.1034 28.4136C2.1034 27.7755 3.15226 21.2522 3.18722 19.196Z" fill="#FF5A6E"/>
</svg>
