<svg width="23" height="18" viewBox="0 0 23 18" fill="none" xmlns="http://www.w3.org/2000/svg">
<path d="M0 4.70571L0.911665 5.60571C6.74632 -0.154286 16.2537 -0.154286 22.0883 5.60571L23 4.70571C19.9524 1.67143 15.863 0 11.513 0C7.16308 0 3.07361 1.67143 0 4.70571Z" fill="#FF5A6E"/>
<path d="M3.67285 8.33143L4.58452 9.23143C8.38746 5.47715 14.5868 5.47715 18.3897 9.23143L19.3014 8.33143C15.0296 4.08858 7.99675 4.08858 3.67285 8.33143Z" fill="#FF5A6E"/>
<path d="M7.37134 11.9829L8.283 12.8829C8.46534 12.7029 8.64767 12.5743 8.83 12.4201C10.4189 11.2886 12.5809 11.2886 14.1698 12.4201C14.3521 12.5486 14.5344 12.7029 14.7168 12.8829L15.6284 11.9829C14.5344 10.8772 13.0497 10.2858 11.4869 10.2858C9.924 10.2858 8.46534 10.8772 7.37134 11.9829Z" fill="#FF5A6E"/>
<path d="M11.5129 14.1428C10.4449 14.1428 9.55933 15.0171 9.55933 16.0714C9.55933 17.1257 10.4449 18 11.5129 18C12.5808 18 13.4665 17.1257 13.4665 16.0714C13.4665 15.0171 12.5808 14.1428 11.5129 14.1428ZM11.5129 16.7143C11.1482 16.7143 10.8617 16.4314 10.8617 16.0714C10.8617 15.7114 11.1482 15.4285 11.5129 15.4285C11.8776 15.4285 12.1641 15.7114 12.1641 16.0714C12.1641 16.4314 11.8776 16.7143 11.5129 16.7143Z" fill="#FF5A6E"/>
</svg>
