<svg width="24" height="23" viewBox="0 0 24 23" fill="none" xmlns="http://www.w3.org/2000/svg">
<path d="M22.9981 14.7109C22.9981 13.9748 22.3447 13.3859 21.6429 13.5086C21.5945 13.5086 21.5461 13.5331 21.4977 13.5331L17.0689 15.128L17.6256 12.4781C17.5772 11.9873 17.3594 11.5212 17.0447 11.1286L15.0361 8.79761C14.8183 8.55225 14.5279 8.40503 14.1891 8.40503L12.8338 4.08661C12.7854 3.96393 9.13109 0.16078 9.13109 0.16078C8.96169 -0.010975 8.67128 -0.0600479 8.45347 0.0871708C8.18727 0.258926 8.16306 0.626973 8.35667 0.872337L11.406 4.38105C11.406 4.43012 11.406 4.45466 11.4302 4.50373L12.5434 9.58278C12.5918 9.77907 13.8018 12.061 14.5521 13.4595C14.9151 14.1466 14.6973 15.0053 14.0438 15.4225H13.9954C13.4146 15.7905 12.979 16.3303 12.7612 16.9928C12.5676 17.6062 12.374 18.2196 12.374 18.2196L9.3489 20.477C9.2037 20.5751 9.03429 20.6487 8.86489 20.6487C7.48544 20.6978 0.491427 21.3112 0.491427 21.3112C0.152616 21.3357 -0.0893913 21.7038 0.0316125 22.0473C0.104215 22.2681 0.322022 22.3908 0.564029 22.3908L8.38087 22.3172C11.7206 22.2681 15.6411 19.2011 16.5123 18.2441C16.6817 18.0479 16.8995 17.9006 17.1415 17.827L20.7233 16.5021L21.6187 22.489C21.6429 22.7098 21.8123 22.9306 22.0301 22.9797C22.4173 23.0778 22.7561 22.8079 22.7803 22.4399C22.8045 22.4399 23.0223 16.5511 22.9981 14.7109Z" fill="#FF5A6E"/>
<path d="M10.6633 6.09854C10.6633 7.32536 11.6556 8.33135 12.8656 8.33135C12.914 8.33135 12.9382 8.33135 12.9866 8.33135L12.1638 4.55274C12.1638 4.5282 12.1638 4.50367 12.1638 4.47913L11.825 4.13562C11.1473 4.50367 10.6633 5.23976 10.6633 6.09854Z" fill="#FF5A6E"/>
<path d="M14.947 6.7366C14.9954 6.54031 15.0438 6.31948 15.0438 6.09866C15.0438 5.3871 14.705 4.74915 14.1968 4.35657L14.947 6.7366Z" fill="#FF5A6E"/>
</svg>
